<?xml version="1.0" encoding="utf-8"?>
<!-- Generator: Adobe Illustrator 25.2.0, SVG Export Plug-In . SVG Version: 6.00 Build 0)  -->
<svg version="1.1" id="Layer_1" xmlns="http://www.w3.org/2000/svg" xmlns:xlink="http://www.w3.org/1999/xlink" x="0px" y="0px"
	 viewBox="0 0 1920 1080" style="enable-background:new 0 0 1920 1080;" xml:space="preserve">
<style type="text/css">
	.st0{fill:#CFD0D5;}
	.st1{fill:#ADB0B7;}
	.st2{fill:#DDDEE1;}
	.st3{fill:#5E6472;}
	.st4{fill:#808590;}
	.st5{fill:#6CE6CE;}
	.st6{fill:#B8F2E6;}
	.st7{fill:#FFFFFF;}
	.st8{fill:#5E6472;stroke:#5E6472;stroke-width:4.9621;stroke-miterlimit:10;}
	.st9{fill:none;stroke:#5E6472;stroke-width:11.6937;stroke-linecap:round;stroke-miterlimit:10;}
	.st10{fill:#F9EEA1;}
	.st11{fill:#F3DE4A;}
</style>
<g>
	<path class="st0" d="M597.92,405.94c-41.01-29.79-93.23-10.93-133.54,21.9c-40.54,33.01-68.75,81.29-75.83,133.08
		c-7.08,51.8,7.49,106.55,40.78,146.86c18.68,22.63,42.74,40.51,68.93,53.74c56.95,28.77,124.75,35.37,186.18,18.12
		c58.78-16.5,110.09-53.31,168.4-71.38c54.37-16.85,113.92-16.54,168.11,0.88c70.23,22.57,129.87,72.34,201.28,90.82
		c86.7,22.43,184.86-7.72,244.02-74.96c60.57-68.86,77.53-170.26,52.83-258.58c-24.7-88.32-87.47-163.24-164.51-213
		s-167.53-75.86-258.59-86.72c-57.46-6.85-116.3-7.81-172.62,5.47s-110.23,41.7-147.19,86.24
		c-37.68,45.42-56.94,105.92-102.52,143.42C651.68,419.9,622.47,424.4,597.92,405.94"/>
</g>
<g>
	<path class="st1" d="M663.63,910.12c93.64,0,33.07-104.91-13.75-23.81c46.82-81.1-74.32-81.1-27.5,0
		c-46.82-81.1-107.39,23.81-13.75,23.81H663.63z"/>
</g>
<g>
	<path class="st1" d="M1295.92,910.12c93.64,0,33.07-104.91-13.75-23.81c46.82-81.1-74.32-81.1-27.5,0
		c-46.82-81.1-107.39,23.81-13.75,23.81H1295.92z"/>
</g>
<ellipse class="st2" cx="958.4" cy="900.02" rx="107" ry="19.3"/>
<circle class="st3" cx="685.7" cy="605.9" r="88.43"/>
<circle class="st3" cx="813.92" cy="672.45" r="116.1"/>
<circle class="st3" cx="952.63" cy="629.42" r="139.76"/>
<ellipse transform="matrix(0.7071 -0.7071 0.7071 0.7071 -168.0302 982.9993)" class="st3" cx="1102.57" cy="694.33" rx="88.43" ry="88.43"/>
<circle class="st3" cx="1201.85" cy="640.32" r="88.43"/>
<circle class="st4" cx="703.1" cy="583.08" r="82.7"/>
<circle class="st4" cx="833.62" cy="645.1" r="110.82"/>
<circle class="st4" cx="952.63" cy="599.47" r="139.76"/>
<circle class="st4" cx="1092.39" cy="657.64" r="83.47"/>
<circle class="st4" cx="1182.71" cy="610.87" r="82.92"/>
<circle class="st4" cx="791.84" cy="500.83" r="88.43"/>
<ellipse transform="matrix(0.7071 -0.7071 0.7071 0.7071 -82.791 810.1649)" class="st4" cx="936.56" cy="505.02" rx="144.73" ry="144.73"/>
<circle class="st4" cx="1081.29" cy="527.72" r="144.73"/>
<g>
	<path class="st5" d="M924.76,835.58c-4.14,0-8.29,0-12.43,0c-5.15,21.95-10.32,43.61-15.44,64.44c9.25,1.17,18.56,1.75,27.87,1.75
		s18.62-0.58,27.87-1.75c-5.13-20.83-10.29-42.49-15.44-64.44C933.04,835.58,928.9,835.58,924.76,835.58z"/>
</g>
<g>
	<path class="st5" d="M1004.47,835.58c-4.14,0-8.29,0-12.43,0s-8.29,0-12.43,0c-5.15,21.95-10.32,43.61-15.44,64.44
		c9.25,1.17,18.56,1.75,27.87,1.75s18.62-0.58,27.87-1.75C1014.78,879.19,1009.62,857.53,1004.47,835.58z"/>
</g>
<rect x="930.75" y="835.58" class="st5" width="55.28" height="36.22"/>
<path class="st6" d="M924.75,557.58l-141.5,245.08c-14.95,25.9,3.74,58.28,33.65,58.28h283c29.91,0,48.6-32.38,33.65-58.28
	l-141.5-245.08C977.09,531.68,939.7,531.68,924.75,557.58z"/>
<circle class="st7" cx="891.12" cy="741.08" r="28.73"/>
<circle class="st8" cx="898.6" cy="728.75" r="13.94"/>
<circle class="st7" cx="1014.14" cy="741.08" r="28.73"/>
<circle class="st8" cx="1006.66" cy="728.75" r="13.94"/>
<ellipse class="st5" cx="880.16" cy="791.65" rx="29.05" ry="6.53"/>
<ellipse class="st5" cx="1025.1" cy="791.65" rx="29.05" ry="6.53"/>
<line class="st9" x1="928.5" y1="793.64" x2="976.76" y2="793.64"/>
<circle class="st3" cx="916.43" cy="583.39" r="91.35"/>
<circle class="st3" cx="1007.78" cy="619.02" r="32.75"/>
<circle class="st4" cx="923.22" cy="555.76" r="88.18"/>
<circle class="st4" cx="997.21" cy="600.04" r="27.79"/>
<path class="st10" d="M775.23,667.27l-15.3-2.4c-3.16-0.5-4.59-4.24-2.56-6.72l30.86-37.63c3.18-3.88,0.94-9.75-4.01-10.53
	L720.59,600c-2.97-0.47-5.87,1.17-7.01,3.95l-31.64,76.98c-1.6,3.88,0.85,8.23,5,8.88l7.38,1.16c2.64,0.41,4.21,3.19,3.19,5.66
	l-20.66,50.29l101.2-66.65C783.48,676.68,781.66,668.28,775.23,667.27z"/>
<path class="st11" d="M788.22,620.51c3.18-3.88,0.94-9.75-4.01-10.53l-1.45-0.23c-0.84,3.7-3.6,6.95-6.22,9.86
	c-9.79,10.85-19.58,21.69-29.38,32.54c-3.42,3.79-7.06,9.01-4.68,13.52c2.93,5.56,11.18,3.81,17.27,5.36
	c0.93,0.24,1.92,0.64,2.38,1.48c0.89,1.64-0.72,3.47-2.18,4.63c-17.52,13.96-35.59,27.23-54.13,39.79
	c-7.97,5.4-16.1,10.72-23.56,16.78l-5.42,13.2l101.2-66.65c5.44-3.58,3.62-11.99-2.82-13l-15.3-2.4c-3.16-0.5-4.59-4.24-2.56-6.72
	L788.22,620.51z"/>
<path class="st10" d="M1200.29,425.9l-15.3-2.4c-3.16-0.5-4.59-4.24-2.56-6.72l30.86-37.63c3.18-3.88,0.94-9.75-4.02-10.53
	l-63.62-9.98c-2.97-0.47-5.87,1.17-7.01,3.95L1107,439.57c-1.59,3.88,0.85,8.23,5,8.88l7.38,1.16c2.64,0.41,4.21,3.19,3.19,5.67
	l-20.66,50.29l101.2-66.65C1208.55,435.32,1206.73,426.91,1200.29,425.9z"/>
<path class="st11" d="M1213.29,379.15c3.18-3.88,0.94-9.75-4.01-10.53l-1.45-0.23c-0.84,3.7-3.6,6.95-6.22,9.86
	c-9.79,10.85-19.58,21.69-29.38,32.54c-3.42,3.79-7.06,9.01-4.68,13.52c2.93,5.56,11.18,3.81,17.27,5.36
	c0.93,0.24,1.92,0.64,2.38,1.48c0.89,1.64-0.72,3.47-2.18,4.63c-17.52,13.96-35.59,27.23-54.13,39.79
	c-7.97,5.4-16.1,10.72-23.56,16.78l-5.42,13.2l101.2-66.65c5.44-3.58,3.62-11.99-2.82-13l-15.3-2.4c-3.16-0.5-4.59-4.24-2.56-6.72
	L1213.29,379.15z"/>
</svg>
