<?xml version="1.0" encoding="utf-8"?>
<!-- Generator: Adobe Illustrator 25.2.0, SVG Export Plug-In . SVG Version: 6.00 Build 0)  -->
<svg version="1.1" id="Layer_1" xmlns="http://www.w3.org/2000/svg" xmlns:xlink="http://www.w3.org/1999/xlink" x="0px" y="0px"
	 viewBox="0 0 1920 1080" style="enable-background:new 0 0 1920 1080;" xml:space="preserve">
<style type="text/css">
	.st0{fill:#FDCDBE;}
	.st1{fill:#FEF0EB;}
	.st2{fill:#6CE6CE;}
	.st3{fill:#B8F2E6;}
	.st4{fill:#FFFFFF;}
	.st5{fill:#5E6472;stroke:#5E6472;stroke-width:5.7546;stroke-miterlimit:10;}
	.st6{opacity:0.8;fill:#6CE6CE;}
	.st7{fill:none;stroke:#5E6472;stroke-width:13.5614;stroke-linecap:round;stroke-miterlimit:10;}
	.st8{fill:#FAF3A1;}
	.st9{fill:#FFA69E;}
	.st10{fill:#FF7F74;}
	.st11{opacity:0.4;}
	.st12{fill:#FEDCD1;}
</style>
<g>
	<path class="st0" d="M762.58,789c-121.08-16.98-231.82-173.27-232.49-309.1s104.56-267.95,239.09-286.65
		c45.37-6.31,93.65-0.05,132.34,24.47c33.23,21.06,57.81,54.27,92.4,73.01c90.69,49.12,219.82-14.78,298.98,51.33
		c61.28,51.19,52.55,148.33,92.91,217.23c18.37,31.36,47.14,57.07,58.13,91.72c18.11,57.09-21.23,120.63-75.3,146.39
		c-54.07,25.76-117.73,21.34-176.05,7.73c-58.32-13.61-114.7-35.81-173.97-44.4C927.65,747.55,883.66,805.98,762.58,789z"/>
</g>
<ellipse class="st1" cx="947.81" cy="898.74" rx="106.06" ry="19.13"/>
<g>
	<path class="st2" d="M912.32,819.49c-4.8,0-9.61,0-14.41,0c-5.98,25.45-11.96,50.57-17.91,74.73c10.73,1.36,21.53,2.03,32.32,2.03
		c10.8,0,21.59-0.68,32.33-2.03c-5.95-24.16-11.93-49.28-17.91-74.73C921.93,819.49,917.12,819.49,912.32,819.49z"/>
</g>
<g>
	<path class="st2" d="M1004.76,819.49c-4.8,0-9.61,0-14.41,0c-4.8,0-9.61,0-14.41,0c-5.98,25.45-11.96,50.57-17.91,74.73
		c10.73,1.36,21.53,2.03,32.32,2.03c10.8,0,21.59-0.68,32.33-2.03C1016.72,870.06,1010.74,844.94,1004.76,819.49z"/>
</g>
<rect x="919.27" y="819.49" class="st2" width="64.11" height="42.01"/>
<g>
	<path class="st3" d="M817.93,517.59c88.04-17.85,178.77-17.85,266.81,0c15.07,3.08,30.25,20.13,31.62,35.5
		c7.56,91.71-7.69,180.76-34.66,272.97c-3.89,12.99-16.77,22.82-29.64,22.84c-67.14,0-134.29,0-201.43,0
		c-12.87-0.03-25.75-9.86-29.64-22.84C794,733.85,778.75,644.8,786.31,553.09C787.68,537.72,802.86,520.67,817.93,517.59z"/>
</g>
<circle class="st4" cx="1022.67" cy="688.01" r="33.32"/>
<g>
	<path class="st0" d="M742.71,582.97c50.98,49.77,132.58,51.19,201.54,33.31c25.4-6.58,51.07-15.41,77.18-12.91
		c26.26,2.52,49.9,16.21,74.6,25.49s54.26,13.63,76.07-1.2c10.54-7.16,18.06-18.17,22.69-30.04c17.7-45.33-7.56-98.91-47.48-126.73
		c-39.92-27.83-90.68-34.8-139.33-35.49c-40.05-0.56-80.16,2.59-119.63,9.41c-38.9,6.72-78.37,17.57-109.42,41.93
		S734.4,544.39,742.71,582.97z"/>
</g>
<circle class="st4" cx="879.99" cy="688.01" r="33.32"/>
<circle class="st5" cx="888.67" cy="703.66" r="16.16"/>
<ellipse class="st6" cx="867.29" cy="746.66" rx="33.69" ry="7.58"/>
<ellipse class="st6" cx="1035.37" cy="746.66" rx="33.69" ry="7.58"/>
<path class="st7" d="M979.32,748.96c0,23.78-12.53,34.96-27.98,34.96s-27.98-11.18-27.98-34.96"/>
<path class="st8" d="M836.82,505.14l8.75,5.71c1.08,0.71,2.44,0.83,3.63,0.34l9.67-3.97c3.01-1.24,6.13,1.51,5.28,4.65l-2.73,10.09
	c-0.34,1.25-0.04,2.58,0.8,3.56l6.77,7.97c2.11,2.48,0.45,6.29-2.79,6.46l-10.44,0.53c-1.29,0.06-2.46,0.76-3.14,1.86l-5.48,8.9
	c-1.71,2.77-5.85,2.38-7-0.66l-3.73-9.76c-0.46-1.21-1.48-2.11-2.74-2.41l-10.16-2.47c-3.16-0.77-4.07-4.82-1.54-6.87l8.14-6.56
	c1.01-0.81,1.55-2.06,1.45-3.35l-0.79-10.42C830.52,505.48,834.09,503.36,836.82,505.14z"/>
<path class="st8" d="M1022.07,558.75l3.18,12.69c0.39,1.57,1.53,2.84,3.05,3.41l12.25,4.57c3.81,1.42,4.34,6.6,0.89,8.76
	l-11.08,6.95c-1.37,0.86-2.23,2.33-2.3,3.95l-0.56,13.07c-0.17,4.07-4.94,6.17-8.06,3.55l-10.03-8.39c-1.24-1.04-2.91-1.4-4.47-0.97
	l-12.6,3.5c-3.92,1.09-7.39-2.79-5.87-6.56l4.88-12.13c0.6-1.5,0.43-3.2-0.46-4.55l-7.23-10.9c-2.25-3.39,0.37-7.89,4.43-7.61
	l13.05,0.9c1.61,0.11,3.18-0.58,4.18-1.84l8.14-10.24C1015.99,553.7,1021.08,554.8,1022.07,558.75z"/>
<path class="st8" d="M1372.22,662.88l8.44,40.17c1.04,4.96,4.46,9.1,9.14,11.05l37.88,15.82c11.78,4.92,12.81,21.22,1.73,27.58
	l-35.6,20.44c-4.4,2.53-7.27,7.05-7.68,12.11l-3.34,40.91c-1.04,12.73-16.22,18.74-25.69,10.17l-30.44-27.54
	c-3.76-3.4-8.95-4.74-13.89-3.57l-39.95,9.46c-12.43,2.94-22.84-9.64-17.61-21.29l16.79-37.46c2.07-4.63,1.74-9.98-0.9-14.31
	l-21.34-35.07c-6.64-10.91,2.11-24.7,14.81-23.33l40.82,4.39c5.04,0.54,10.03-1.43,13.33-5.28l26.75-31.14
	C1353.77,646.32,1369.59,650.38,1372.22,662.88z"/>
<path class="st8" d="M840.81,166.1l15.24,17.58c1.88,2.17,4.71,3.28,7.57,2.96l23.12-2.59c7.19-0.81,12.19,6.99,8.45,13.19
	l-12.01,19.93c-1.48,2.46-1.66,5.5-0.47,8.11l9.61,21.19c2.99,6.59-2.88,13.75-9.93,12.11l-22.66-5.26
	c-2.8-0.65-5.74,0.12-7.86,2.06l-17.18,15.69c-5.35,4.88-13.97,1.51-14.59-5.7l-2-23.18c-0.25-2.86-1.89-5.42-4.39-6.84l-20.23-11.5
	c-6.29-3.58-5.75-12.82,0.91-15.64l21.43-9.06c2.65-1.12,4.57-3.47,5.15-6.29l4.68-22.79C827.11,162.97,836.07,160.63,840.81,166.1z
	"/>
<g>
	<g>
		<path class="st9" d="M1223.33,430.6c0-103.12,162.65,15.05,54.22,39.39c108.43-24.34,46.31,166.86-20.71,63.73
			c67.01,103.12-134.03,103.12-67.01,0c-67.01,103.12-129.14-88.08-20.71-63.73C1060.68,445.64,1223.33,327.47,1223.33,430.6z"/>
	</g>
	<g>
		<g>
			<path class="st10" d="M1261.48,439.16c-2.48,4.82-5.65,8.65-9.04,12.19c-3.41,3.5-7.09,6.62-11.02,9.39
				c-3.92,2.78-8.08,5.23-12.51,7.29c-4.46,2.03-9.12,3.76-14.47,4.53l-0.41-0.57l5.78-4.31l5.84-4.23l11.69-8.45l11.83-8.25
				l5.92-4.12l5.98-4.03L1261.48,439.16z"/>
		</g>
		<g>
			<path class="st10" d="M1291.01,512.07c-7.52-0.67-14.54-2.43-21.41-4.53c-6.85-2.14-13.51-4.7-19.99-7.65
				c-6.49-2.94-12.81-6.25-18.93-9.99c-6.11-3.78-12.06-7.89-17.53-13.08l0.29-0.64l9.8,4.25l9.76,4.35l19.51,8.7l19.42,8.92
				l9.71,4.46l9.66,4.56L1291.01,512.07z"/>
		</g>
		<g>
			<path class="st10" d="M1224.49,552.92c-3.75-5.6-6.33-11.46-8.54-17.39c-2.17-5.94-3.89-11.98-5.19-18.11
				c-1.31-6.13-2.22-12.34-2.68-18.65c-0.41-6.32-0.46-12.72,0.64-19.36l0.69-0.15l2.14,9.15l2.03,9.18l4.06,18.36l3.83,18.4
				l1.91,9.2l1.8,9.23L1224.49,552.92z"/>
		</g>
		<g>
			<path class="st10" d="M1158.34,501.34c2.66-4.22,5.88-7.38,9.27-10.21c3.41-2.79,7.04-5.17,10.87-7.18
				c3.82-2.01,7.84-3.67,12.07-4.91c4.25-1.2,8.67-2.08,13.65-1.91l0.33,0.62l-5.65,3.18l-5.7,3.08l-11.41,6.16l-11.52,5.95
				l-5.76,2.97l-5.81,2.87L1158.34,501.34z"/>
		</g>
		<g>
			<path class="st10" d="M1180.67,429.27c4.02,1.63,7.02,3.91,9.72,6.39c2.66,2.5,4.92,5.26,6.84,8.25
				c1.91,2.98,3.49,6.18,4.68,9.64c1.14,3.48,1.98,7.16,1.82,11.48l-0.59,0.38l-3.02-4.38l-2.93-4.43l-5.86-8.87l-5.66-9l-2.83-4.5
				l-2.74-4.56L1180.67,429.27z"/>
		</g>
	</g>
	<circle class="st4" cx="1210.33" cy="476.37" r="19.33"/>
</g>
<g>
	<g>
		<path class="st9" d="M946.72,356.87c0-39.31,62.01,5.74,20.67,15.02c41.34-9.28,17.65,63.61-7.89,24.3
			c25.55,39.31-51.1,39.31-25.55,0c-25.55,39.31-49.23-33.58-7.89-24.3C884.72,362.61,946.72,317.56,946.72,356.87z"/>
	</g>
	<g>
		<g>
			<path class="st10" d="M961.27,360.14c-0.94,1.84-2.15,3.3-3.45,4.63c-1.29,1.36-2.7,2.53-4.19,3.59c-1.5,1.05-3.07,2-4.78,2.77
				c-1.69,0.79-3.47,1.45-5.51,1.74l-0.16-0.22c2.92-2.22,5.93-4.31,8.89-6.48c3.02-2.08,5.99-4.23,9.04-6.26L961.27,360.14z"/>
		</g>
		<g>
			<path class="st10" d="M972.53,387.93c-2.87-0.25-5.54-0.92-8.15-1.74c-1.32-0.37-2.58-0.89-3.87-1.33
				c-1.26-0.5-2.51-1.04-3.76-1.57c-1.22-0.6-2.45-1.17-3.66-1.79c-1.19-0.67-2.4-1.27-3.55-2.03c-2.34-1.43-4.61-3-6.69-4.97
				l0.11-0.24c4.99,2.13,9.93,4.4,14.9,6.6c4.93,2.28,9.89,4.5,14.79,6.84L972.53,387.93z"/>
		</g>
		<g>
			<path class="st10" d="M947.16,403.51c-1.43-2.14-2.42-4.37-3.24-6.63c-0.46-1.12-0.75-2.28-1.12-3.42
				c-0.31-1.15-0.58-2.32-0.87-3.48c-0.21-1.18-0.45-2.35-0.63-3.53c-0.13-1.19-0.33-2.37-0.38-3.58c-0.17-2.41-0.19-4.85,0.23-7.38
				l0.26-0.06c1.11,4.65,2.09,9.32,3.14,13.99c0.96,4.68,1.99,9.35,2.87,14.04L947.16,403.51z"/>
		</g>
		<g>
			<path class="st10" d="M921.95,383.84c1.01-1.61,2.24-2.82,3.54-3.88c1.29-1.09,2.68-1.98,4.14-2.75
				c1.46-0.76,2.98-1.41,4.61-1.86c1.61-0.47,3.3-0.81,5.2-0.74l0.13,0.24c-2.86,1.64-5.79,3.15-8.68,4.73
				c-2.94,1.5-5.84,3.06-8.8,4.5L921.95,383.84z"/>
		</g>
		<g>
			<path class="st10" d="M930.46,356.37c1.53,0.62,2.68,1.49,3.69,2.44c1.04,0.94,1.88,2,2.62,3.14c0.72,1.14,1.34,2.35,1.77,3.68
				c0.45,1.32,0.77,2.72,0.71,4.37l-0.23,0.15c-1.56-2.21-3-4.5-4.51-6.74c-1.42-2.3-2.91-4.55-4.28-6.89L930.46,356.37z"/>
		</g>
	</g>
	<circle class="st4" cx="941.77" cy="374.32" r="7.37"/>
</g>
<g>
	<g>
		<path class="st9" d="M613.62,361.72c0-137.79-217.32,20.1-72.44,52.63c-144.88-32.53-61.87,222.95,27.67,85.16
			c-89.54,137.79,179.08,137.79,89.54,0c89.54,137.79,172.55-117.69,27.67-85.16C830.94,381.82,613.62,223.93,613.62,361.72z"/>
	</g>
	<g>
		<g>
			<path class="st10" d="M563.19,372.39c3.63,0.44,6.92,1.35,10.13,2.37c3.2,1.04,6.25,2.29,9.22,3.66
				c5.92,2.76,11.47,6.04,16.7,9.76c5.23,3.73,10.15,7.89,14.71,12.56c2.27,2.36,4.45,4.83,6.49,7.5c2.03,2.69,3.98,5.49,5.59,8.76
				l-0.54,0.77l-7.99-5.39l-7.9-5.51l-15.8-11.03l-15.62-11.28l-7.81-5.65l-7.72-5.77L563.19,372.39z"/>
		</g>
		<g>
			<path class="st10" d="M522.8,469.72c7.3-6.96,15.25-12.45,23.42-17.5c8.19-4.99,16.63-9.42,25.3-13.33
				c8.67-3.92,17.57-7.34,26.72-10.2c9.18-2.8,18.56-5.16,28.59-6.07l0.39,0.86l-12.91,6.1l-12.97,5.96l-25.94,11.92l-26.07,11.63
				l-13.04,5.81l-13.1,5.68L522.8,469.72z"/>
		</g>
		<g>
			<path class="st10" d="M611.16,524.96c-1.5-8.88-1.43-17.43-0.88-25.88c0.61-8.43,1.83-16.73,3.6-24.92
				c1.76-8.18,4.05-16.26,6.96-24.2c2.96-7.93,6.4-15.75,11.39-23.24l0.92,0.2l-2.41,12.33l-2.55,12.3l-5.11,24.59l-5.42,24.52
				l-2.71,12.26l-2.86,12.23L611.16,524.96z"/>
		</g>
		<g>
			<path class="st10" d="M700.02,457.08c-3.37,0.19-6.46-0.13-9.49-0.57c-3.02-0.46-5.92-1.15-8.76-1.96
				c-5.65-1.66-11.01-3.87-16.11-6.58c-5.1-2.7-9.95-5.88-14.51-9.62c-2.27-1.89-4.47-3.9-6.56-6.13c-2.08-2.25-4.09-4.62-5.83-7.5
				l0.44-0.83l7.77,3.84l7.7,3.97l15.39,7.95l15.24,8.23l7.62,4.12l7.55,4.25L700.02,457.08z"/>
		</g>
		<g>
			<path class="st10" d="M671.42,360.46c0.18,2.94-0.13,5.55-0.55,8.1c-0.44,2.53-1.1,4.93-1.87,7.25
				c-1.58,4.62-3.69,8.89-6.27,12.87c-2.57,3.98-5.6,7.66-9.15,11.01c-1.8,1.66-3.71,3.24-5.83,4.69c-2.14,1.44-4.39,2.8-7.13,3.85
				l-0.79-0.51l3.66-6.09l3.74-6.04c2.5-4.02,5.07-8,7.61-12c2.6-3.96,5.16-7.94,7.79-11.88l3.96-5.9l4.04-5.85L671.42,360.46z"/>
		</g>
	</g>
	<circle class="st4" cx="631" cy="422.87" r="25.83"/>
</g>
<g>
	<g>
		<path class="st9" d="M524.16,707.37c0-29.02,45.77,4.23,15.26,11.08c30.51-6.85,13.03,46.95-5.83,17.93
			c18.86,29.02-37.71,29.02-18.86,0c-18.86,29.02-36.34-24.78-5.83-17.93C478.4,711.61,524.16,678.36,524.16,707.37z"/>
	</g>
	<g class="st11">
		<g>
			<path d="M534.9,709.78c-0.7,1.35-1.59,2.44-2.55,3.42c-0.46,0.52-1,0.94-1.49,1.4c-0.52,0.43-1.07,0.83-1.6,1.25
				c-0.57,0.36-1.12,0.75-1.71,1.1c-0.6,0.32-1.18,0.68-1.82,0.95c-1.25,0.58-2.56,1.07-4.07,1.28l-0.11-0.16l6.56-4.78l6.68-4.62
				L534.9,709.78z"/>
		</g>
		<g>
			<path d="M543.21,730.3c-2.11-0.19-4.09-0.68-6.02-1.28c-0.98-0.27-1.9-0.66-2.85-0.98c-0.93-0.37-1.85-0.77-2.78-1.16
				c-0.9-0.44-1.81-0.86-2.7-1.32c-0.88-0.5-1.77-0.94-2.62-1.5c-1.72-1.05-3.4-2.21-4.94-3.67l0.08-0.18l11,4.87l10.91,5.05
				L543.21,730.3z"/>
		</g>
		<g>
			<path d="M524.49,741.79c-1.06-1.58-1.78-3.22-2.39-4.9c-0.34-0.83-0.55-1.68-0.83-2.53c-0.23-0.85-0.43-1.71-0.64-2.57
				c-0.15-0.87-0.33-1.73-0.46-2.61c-0.1-0.88-0.25-1.75-0.28-2.64c-0.13-1.78-0.14-3.58,0.17-5.45l0.19-0.04l2.32,10.32l2.12,10.36
				L524.49,741.79z"/>
		</g>
		<g>
			<path d="M505.88,727.28c0.75-1.19,1.65-2.08,2.61-2.87c0.95-0.8,1.98-1.46,3.05-2.03c1.08-0.56,2.2-1.04,3.4-1.37
				c1.19-0.35,2.44-0.59,3.84-0.55l0.09,0.18c-2.11,1.21-4.27,2.33-6.41,3.49c-2.17,1.1-4.31,2.26-6.5,3.32L505.88,727.28z"/>
		</g>
		<g>
			<path d="M512.16,707c1.13,0.46,1.98,1.1,2.73,1.8c0.76,0.69,1.39,1.48,1.93,2.31c0.53,0.84,0.99,1.73,1.31,2.72
				c0.33,0.97,0.57,2.01,0.52,3.22l-0.17,0.11c-1.15-1.63-2.22-3.32-3.33-4.98c-1.05-1.7-2.15-3.36-3.16-5.08L512.16,707z"/>
		</g>
	</g>
	<circle class="st4" cx="520.5" cy="720.25" r="5.44"/>
</g>
<circle class="st4" cx="898.34" cy="428.48" r="7.42"/>
<circle class="st4" cx="1082.38" cy="554.48" r="7.42"/>
<circle class="st4" cx="664.38" cy="632.84" r="7.42"/>
<circle class="st5" cx="1013.99" cy="703.66" r="16.16"/>
<circle class="st4" cx="1232.2" cy="759.17" r="7.42"/>
<circle class="st4" cx="1235.82" cy="413.89" r="7.42"/>
<circle class="st4" cx="693.52" cy="314.91" r="7.42"/>
<g>
	<path class="st12" d="M655.62,908.75c92.82,0,32.78-103.99-13.63-23.61c46.41-80.39-73.67-80.39-27.26,0
		c-46.41-80.39-106.45,23.61-13.63,23.61H655.62z"/>
</g>
<g>
	<path class="st12" d="M1282.38,908.75c92.82,0,32.78-103.99-13.63-23.61c46.41-80.39-73.67-80.39-27.26,0
		c-46.41-80.39-106.45,23.61-13.63,23.61H1282.38z"/>
</g>
<g>
	<g>
		<path class="st9" d="M524.16,707.37c0-29.02,45.77,4.23,15.26,11.08c30.51-6.85,13.03,46.95-5.83,17.93
			c18.86,29.02-37.71,29.02-18.86,0c-18.86,29.02-36.34-24.78-5.83-17.93C478.4,711.61,524.16,678.36,524.16,707.37z"/>
	</g>
	<g>
		<g>
			<path class="st10" d="M534.9,709.78c-0.7,1.35-1.59,2.44-2.55,3.42c-0.46,0.52-1,0.94-1.49,1.4c-0.52,0.43-1.07,0.83-1.6,1.25
				c-0.57,0.36-1.12,0.75-1.71,1.1c-0.6,0.32-1.18,0.68-1.82,0.95c-1.25,0.58-2.56,1.07-4.07,1.28l-0.11-0.16l6.56-4.78l6.68-4.62
				L534.9,709.78z"/>
		</g>
		<g>
			<path class="st10" d="M543.21,730.3c-2.11-0.19-4.09-0.68-6.02-1.28c-0.98-0.27-1.9-0.66-2.85-0.98
				c-0.93-0.37-1.85-0.77-2.78-1.16c-0.9-0.44-1.81-0.86-2.7-1.32c-0.88-0.5-1.77-0.94-2.62-1.5c-1.72-1.05-3.4-2.21-4.94-3.67
				l0.08-0.18l11,4.87l10.91,5.05L543.21,730.3z"/>
		</g>
		<g>
			<path class="st10" d="M524.49,741.79c-1.06-1.58-1.78-3.22-2.39-4.9c-0.34-0.83-0.55-1.68-0.83-2.53
				c-0.23-0.85-0.43-1.71-0.64-2.57c-0.15-0.87-0.33-1.73-0.46-2.61c-0.1-0.88-0.25-1.75-0.28-2.64c-0.13-1.78-0.14-3.58,0.17-5.45
				l0.19-0.04l2.32,10.32l2.12,10.36L524.49,741.79z"/>
		</g>
		<g>
			<path class="st10" d="M505.88,727.28c0.75-1.19,1.65-2.08,2.61-2.87c0.95-0.8,1.98-1.46,3.05-2.03c1.08-0.56,2.2-1.04,3.4-1.37
				c1.19-0.35,2.44-0.59,3.84-0.55l0.09,0.18c-2.11,1.21-4.27,2.33-6.41,3.49c-2.17,1.1-4.31,2.26-6.5,3.32L505.88,727.28z"/>
		</g>
		<g>
			<path class="st10" d="M512.16,707c1.13,0.46,1.98,1.1,2.73,1.8c0.76,0.69,1.39,1.48,1.93,2.31c0.53,0.84,0.99,1.73,1.31,2.72
				c0.33,0.97,0.57,2.01,0.52,3.22l-0.17,0.11c-1.15-1.63-2.22-3.32-3.33-4.98c-1.05-1.7-2.15-3.36-3.16-5.08L512.16,707z"/>
		</g>
	</g>
	<circle class="st4" cx="520.5" cy="720.25" r="5.44"/>
</g>
<path class="st8" d="M840.81,166.1l15.24,17.58c1.88,2.17,4.71,3.28,7.57,2.96l23.12-2.59c7.19-0.81,12.19,6.99,8.45,13.19
	l-12.01,19.93c-1.48,2.46-1.66,5.5-0.47,8.11l9.61,21.19c2.99,6.59-2.88,13.75-9.93,12.11l-22.66-5.26
	c-2.8-0.65-5.74,0.12-7.86,2.06l-17.18,15.69c-5.35,4.88-13.97,1.51-14.59-5.7l-2-23.18c-0.25-2.86-1.89-5.42-4.39-6.84l-20.23-11.5
	c-6.29-3.58-5.75-12.82,0.91-15.64l21.43-9.06c2.65-1.12,4.57-3.47,5.15-6.29l4.68-22.79C827.11,162.97,836.07,160.63,840.81,166.1z
	"/>
<g>
	<path class="st4" d="M1120.22,295.57c0,22.76-13.43,35.92-35.92,35.92l0,0c22.49,0,35.92,13.16,35.92,35.92
		c0-22.76,13.43-35.92,35.92-35.92C1133.65,331.49,1120.22,318.33,1120.22,295.57z"/>
	<path class="st4" d="M750.72,477.28c0,18.92-11.16,29.86-29.86,29.86l0,0c18.7,0,29.86,10.94,29.86,29.86
		c0-18.92,11.16-29.86,29.86-29.86C761.88,507.14,750.72,496.21,750.72,477.28z"/>
	<path class="st4" d="M632.24,226.89c0,18.92-11.16,29.86-29.86,29.86l0,0c18.7,0,29.86,10.94,29.86,29.86
		c0-18.92,11.16-29.86,29.86-29.86C643.4,256.74,632.24,245.81,632.24,226.89z"/>
	<path class="st4" d="M1391.01,287.53c0,18.92-11.16,29.86-29.86,29.86l0,0c18.7,0,29.86,10.94,29.86,29.86
		c0-18.92,11.16-29.86,29.86-29.86C1402.17,317.39,1391.01,306.45,1391.01,287.53z"/>
	<path class="st4" d="M709.1,665.95c0,30.86-18.2,48.7-48.7,48.7l0,0c30.5,0,48.7,17.84,48.7,48.7c0-30.86,18.2-48.7,48.7-48.7
		C727.31,714.65,709.1,696.81,709.1,665.95z"/>
	<path class="st4" d="M690.14,498.59c0,27.81-16.4,43.88-43.88,43.88l0,0c27.48,0,43.88,16.07,43.88,43.88
		c0-27.81,16.4-43.88,43.88-43.88C706.55,542.48,690.14,526.4,690.14,498.59z"/>
	<path class="st4" d="M1154.98,527.65c0,38.81-22.89,61.23-61.23,61.23l0,0c38.34,0,61.23,22.43,61.23,61.23
		c0-38.81,22.89-61.23,61.23-61.23C1177.87,588.89,1154.98,566.46,1154.98,527.65z"/>
</g>
</svg>
