<?xml version="1.0" encoding="utf-8"?>
<!-- Generator: Adobe Illustrator 25.2.0, SVG Export Plug-In . SVG Version: 6.00 Build 0)  -->
<svg version="1.1" id="Layer_1" xmlns="http://www.w3.org/2000/svg" xmlns:xlink="http://www.w3.org/1999/xlink" x="0px" y="0px"
	 viewBox="0 0 1920 1080" style="enable-background:new 0 0 1920 1080;" xml:space="preserve">
<style type="text/css">
	.st0{fill:#FEE4DC;}
	.st1{fill:#CFD0D5;}
	.st2{fill:#DDDEE1;}
	.st3{fill:#FFFFFF;}
	.st4{fill:#B8F2E6;}
	.st5{fill:none;stroke:#B8F2E6;stroke-width:31.4148;stroke-miterlimit:10;}
	.st6{fill:none;stroke:#5E6472;stroke-width:12.091;stroke-linejoin:round;stroke-miterlimit:10;}
	.st7{fill:#6CE6CE;}
	.st8{fill:none;stroke:#5E6472;stroke-width:13.881;stroke-linecap:round;stroke-miterlimit:10;}
</style>
<g>
	<path class="st0" d="M626.9,359.16c-44.58,2.82-57.9,48.55-74.79,82.19c-15.02,29.9-24.66,63.17-22.81,96.58
		s16.16,66.89,42.31,87.76c53.14,42.41,135.16,22.62,193.31,57.86c21.37,12.95,37.89,32.47,57.72,47.68
		c21.92,16.81,47.48,28.07,72.77,39.17c20.56,9.03,41.62,18.18,64.01,19.89c31.77,2.42,62.76-10.35,94.58-11.91
		c39.9-1.96,79.16,13.74,119.03,11.32c50.89-3.1,96.28-35.95,126.36-77.11c30.08-41.16,47.15-90.18,63.02-138.62
		c12.08-36.86,23.85-75.2,19.69-113.77c-3.17-29.39-15.47-57.05-29.83-82.89c-50.35-90.58-130.93-166.62-229.3-199.24
		s-214.26-17.36-293.32,49.63c-36.5,30.92-64.2,71.19-100.83,101.95C698.49,355.12,671.48,356.34,626.9,359.16z"/>
</g>
<g>
	<path class="st1" d="M674.59,915.21c94.74,0,33.46-106.14-13.91-24.09c47.37-82.05-75.19-82.05-27.82,0
		c-47.37-82.05-108.65,24.09-13.91,24.09H674.59z"/>
</g>
<g>
	<path class="st1" d="M1314.28,915.21c94.74,0,33.46-106.14-13.91-24.09c47.37-82.05-75.19-82.05-27.82,0
		c-47.37-82.05-108.65,24.09-13.91,24.09H1314.28z"/>
</g>
<ellipse class="st2" cx="991.35" cy="911.77" rx="146.62" ry="12.75"/>
<g>
	<path class="st3" d="M896.73,501.46c-26.09-15.69-50.99-32.84-81.2-29.04c-8.87,1.11-18.41,4.73-22.3,12.78
		c-5.21,10.79,2.97,24.2,13.95,28.98c10.98,4.79,23.55,3.38,35.44,1.88c16.07-2.02,32.14-4.05,48.2-6.07
		c2.72-0.34,5.79-0.89,7.32-3.17c1.53-2.28-0.58-6.38-3.11-5.31"/>
</g>
<g>
	<path class="st3" d="M822.57,339.24c-13.41,12.64-9.06,35.93,2.85,49.99s29.16,22.25,43.78,33.47c13.3,10.2,24.44,22.95,37.5,33.45
		c4.3,3.46,11.04,6.53,14.76,2.45c2.11-2.31,1.99-5.82,1.71-8.93c-1.76-20.03-4.55-39.97-8.36-59.72
		c-2.85-14.76-6.43-29.78-14.75-42.3c-10.19-15.33-27.39-25.79-45.69-27.8c-8.38-0.92-17.32-0.01-24.36,4.64
		c-7.85,5.18-12.26,14.22-15.07,23.2"/>
</g>
<g>
	<path class="st3" d="M961.96,463.64c5.09-28.74,13.2-56.95,24.13-84.01c6.83-16.92,16.04-34.69,32.66-42.21
		c15.25-6.9,33.6-3.28,47.99,5.26c9.61,5.7,18.39,14.19,20.74,25.12c3.09,14.36-5.85,28.95-17.49,37.91
		c-11.64,8.96-25.81,13.86-38.85,20.62c-25.75,13.35-46.99,33.9-66.78,55.1c-1.42,1.52-3.34,3.19-5.31,2.53
		c-2.42-0.82-2.47-4.19-2.04-6.71c1.13-6.71,9.07-32.37,10.21-39.08"/>
</g>
<path class="st4" d="M1033.71,816.5l-76.06,12.43c-75.07,12.26-145.86-38.65-158.13-113.72l-20.89-127.85
	c-2.11-12.91,6.65-25.09,19.56-27.2l301.14-49.2c12.91-2.11,25.09,6.65,27.2,19.56l20.89,127.85
	C1159.69,733.44,1108.78,804.23,1033.71,816.5z"/>
<path class="st5" d="M1120.41,579.24l25.29-4.13c20.2-3.3,39.24,10.4,42.54,30.6c3.3,20.2-10.4,39.24-30.6,42.54l-25.29,4.13"/>
<path class="st6" d="M837.9,632.51c0,0,42.97-20.05,77.35,16.58c-47.31-16.9-76.39,20.57-76.39,20.57"/>
<path class="st6" d="M1044.26,598.8c0,0-47.12-5.34-68.06,40.33c39.47-31.07,78.96-4.81,78.96-4.81"/>
<ellipse transform="matrix(0.9869 -0.1612 0.1612 0.9869 -100.602 148.8292)" class="st7" cx="866.77" cy="694.31" rx="34.48" ry="7.76"/>
<ellipse transform="matrix(0.9869 -0.1612 0.1612 0.9869 -93.9084 175.8421)" class="st7" cx="1036.56" cy="666.57" rx="34.48" ry="7.76"/>
<path class="st8" d="M980.32,678.15c3.93,24.03-5.55,45.57-21.16,48.12c-15.61,2.55-31.45-14.86-35.38-38.89L980.32,678.15z"/>
</svg>
