<?xml version="1.0" encoding="utf-8"?>
<!-- Generator: Adobe Illustrator 25.2.0, SVG Export Plug-In . SVG Version: 6.00 Build 0)  -->
<svg version="1.1" id="Layer_1" xmlns="http://www.w3.org/2000/svg" xmlns:xlink="http://www.w3.org/1999/xlink" x="0px" y="0px"
	 viewBox="0 0 1920 1080" style="enable-background:new 0 0 1920 1080;" xml:space="preserve">
<style type="text/css">
	.st0{opacity:0.3;fill:#FFA69E;}
	.st1{fill:#FAF3A1;}
	.st2{fill:#FEF0EB;}
	.st3{fill:#6CE6CE;}
	.st4{fill:#B8F2E6;}
	.st5{fill:none;stroke:#5E6472;stroke-width:10.8648;stroke-linejoin:round;stroke-miterlimit:10;}
	.st6{fill:none;stroke:#5E6472;stroke-width:12.4733;stroke-linecap:round;stroke-miterlimit:10;}
</style>
<path class="st0" d="M1474.22,842.57c13.02-46.19,20-94.91,20-145.27c0-295.04-239.18-534.22-534.22-534.22
	S425.78,402.26,425.78,697.3c0,50.36,6.98,99.08,20,145.27H1474.22z"/>
<path class="st0" d="M1350.98,842.57c16.82-45.24,26.02-94.18,26.02-145.27c0-230.3-186.7-417-417-417S543,467,543,697.3
	c0,51.09,9.21,100.03,26.02,145.27H1350.98z"/>
<path class="st0" d="M1199.25,842.57c25.77-42.35,40.61-92.07,40.61-145.27c0-154.56-125.3-279.86-279.86-279.86
	S680.14,542.74,680.14,697.3c0,53.19,14.84,102.92,40.61,145.27H1199.25z"/>
<g>
	<path class="st1" d="M663.64,882.01c95.62,0,33.77-107.13-14.04-24.32c47.81-82.81-75.89-82.81-28.08,0
		c-47.81-82.81-109.66,24.32-14.04,24.32H663.64z"/>
</g>
<g>
	<path class="st1" d="M1309.3,882.01c95.62,0,33.77-107.13-14.04-24.32c47.81-82.81-75.89-82.81-28.08,0
		c-47.81-82.81-109.66,24.32-14.04,24.32H1309.3z"/>
</g>
<ellipse class="st2" cx="957.68" cy="897.22" rx="109.26" ry="19.7"/>
<g>
	<path class="st3" d="M921.8,824.53c-4.42,0-8.84,0-13.26,0c-5.5,23.41-11,46.51-16.47,68.73c9.87,1.25,19.8,1.87,29.73,1.87
		c9.93,0,19.86-0.62,29.73-1.87c-5.47-22.22-10.98-45.32-16.47-68.73C930.64,824.53,926.22,824.53,921.8,824.53z"/>
</g>
<g>
	<path class="st3" d="M1006.82,824.53c-4.42,0-8.84,0-13.26,0c-4.42,0-8.84,0-13.26,0c-5.5,23.41-11,46.51-16.47,68.73
		c9.87,1.25,19.8,1.87,29.73,1.87c9.93,0,19.86-0.62,29.73-1.87C1017.82,871.05,1012.32,847.95,1006.82,824.53z"/>
</g>
<rect x="928.19" y="824.54" class="st3" width="58.97" height="38.64"/>
<path class="st4" d="M914.17,530.72l-99.82,72.52c-25.95,18.85-36.8,52.27-26.89,82.77l38.13,117.34
	c9.91,30.5,38.34,51.15,70.41,51.15h123.38c32.07,0,60.5-20.65,70.41-51.15l38.13-117.34c9.91-30.5-0.95-63.92-26.89-82.77
	l-99.82-72.52C975.25,511.87,940.11,511.87,914.17,530.72z"/>
<path class="st5" d="M929.93,684.26c-39.51,21.84-70.72-7.17-70.72-7.17"/>
<path class="st5" d="M985.43,684.26c39.51,21.84,70.72-7.17,70.72-7.17"/>
<ellipse class="st3" cx="880.38" cy="724.45" rx="30.99" ry="6.97"/>
<ellipse class="st3" cx="1034.98" cy="724.45" rx="30.99" ry="6.97"/>
<path class="st6" d="M983.42,726.57c0,21.88-11.52,32.16-25.74,32.16s-25.74-10.28-25.74-32.16"/>
</svg>
