<?xml version="1.0" encoding="utf-8"?>
<!-- Generator: Adobe Illustrator 25.2.0, SVG Export Plug-In . SVG Version: 6.00 Build 0)  -->
<svg version="1.1" id="Layer_1" xmlns="http://www.w3.org/2000/svg" xmlns:xlink="http://www.w3.org/1999/xlink" x="0px" y="0px"
	 viewBox="0 0 1920 1080" style="enable-background:new 0 0 1920 1080;" xml:space="preserve">
<style type="text/css">
	.st0{fill:#FCF8C7;}
	.st1{fill:#FAF3A1;}
	.st2{fill:#FCF9D0;}
	.st3{fill:#FFA69E;}
	.st4{fill:#FF7A6E;}
	.st5{fill:#6CE6CE;}
	.st6{fill:#B8F2E6;}
	.st7{fill:#FFFFFF;}
	.st8{fill:#5E6472;stroke:#5E6472;stroke-width:5.1684;stroke-miterlimit:10;}
	.st9{fill:none;stroke:#5E6472;stroke-width:12.1798;stroke-linecap:round;stroke-miterlimit:10;}
	.st10{fill:none;stroke:#5E6472;stroke-width:10.6092;stroke-linejoin:round;stroke-miterlimit:10;}
</style>
<g>
	<path class="st0" d="M1012.85,286.2c-85.96,12.91-159.89,26.2-243.67,49.4c-47.08,13.04-215.58,34.49-257.67,59.29
		c-110.68,65.21-144.62,133-117.68,258.6c10.55,49.2,35.37,97.32,77.07,125.49c67.76,45.78,159.26,28.2,235.85-0.46
		c76.6-28.65,154.32-67.38,235.62-58.55c65.99,7.16,124.09,44.84,186.13,68.44c64.83,24.66,135.43,34.02,204.44,27.11
		c55.89-5.59,112.76-22.95,153.59-61.53c40.83-38.58,61.6-101.67,39.31-153.22c-28.04-64.87-113.69-97.56-124.81-167.35
		c-5.37-33.69,8.88-67.42,9.25-101.53c0.46-43.09-22.01-84.49-54.47-112.84c-32.46-28.35-74.03-44.67-116.33-52.93
		C1131.96,145.12,1111.17,237.86,1012.85,286.2z"/>
</g>
<g>
	<path class="st1" d="M560.39,918.85c64.58,0,22.81-72.35-9.48-16.42c32.29-55.93-51.26-55.93-18.96,0
		c-32.29-55.93-74.07,16.42-9.48,16.42H560.39z"/>
</g>
<g>
	<path class="st2" d="M970.82,862.43c42.48,0,15-47.59-6.24-10.8c21.24-36.79-33.72-36.79-12.47,0
		c-21.24-36.79-48.72,10.8-6.24,10.8H970.82z"/>
</g>
<g>
	<path class="st1" d="M1361.81,918.85c64.58,0,22.81-72.35-9.48-16.42c32.29-55.93-51.26-55.93-18.96,0
		c-32.29-55.93-74.07,16.42-9.48,16.42H1361.81z"/>
</g>
<path class="st3" d="M1288.36,370.46c0-82.81-154.73-149.94-345.61-149.94s-345.61,67.13-345.61,149.94
	c0,47.66,51.26,90.12,131.15,117.58l7.53,39.17l25.33-29.17c52.77,14.17,114.98,22.35,181.59,22.35c59.96,0,116.35-6.63,165.5-18.28
	l21.8,25.1l6.25-32.52C1228.05,467.74,1288.36,422.16,1288.36,370.46z"/>
<path class="st4" d="M728.3,488.05l7.53,39.17l25.33-29.17c52.77,14.17,114.98,22.35,181.59,22.35c59.96,0,116.35-6.63,165.5-18.28
	l21.8,25.1l6.25-32.52c91.76-26.96,152.06-72.54,152.06-124.24c0-2.34-0.14-4.67-0.39-6.99c-8.42,79.57-159.75,142.95-345.22,142.95
	s-336.8-63.39-345.22-142.95c-0.24,2.32-0.39,4.65-0.39,6.99C597.15,418.12,648.4,460.58,728.3,488.05z"/>
<g>
	<g>
		<path class="st1" d="M736.64,320.35c6.23,13.77,22.49,18.66,36.52,17.2c7.79-0.81,15.18-2.86,22.19-6.41
			c7.27-3.68,13.98-8.38,20.95-12.58c3.57-2.15,7.22-4.09,10.98-5.88c0.36-0.17,1.39-0.74-0.21,0.07c0.37-0.19,0.8-0.33,1.19-0.48
			c0.99-0.39,2-0.75,3.02-1.08c1.93-0.63,3.89-1.14,5.88-1.5c0.52-0.1,1.06-0.22,1.59-0.26c-0.27,0.02-1.84,0.18-0.28,0.07
			c0.94-0.07,1.87-0.14,2.82-0.16c0.51-0.01,5.29-0.14,5.38,0.26c-0.04-0.16-1.98-0.3-0.26-0.03c0.46,0.07,0.92,0.16,1.38,0.25
			c0.73,0.14,1.46,0.3,2.18,0.48c1.81,0.45,3.6,1,5.36,1.63c0.8,0.29,1.58,0.61,2.37,0.91c1.15,0.44-1.89-0.86-0.15-0.06
			c0.35,0.16,0.7,0.31,1.04,0.47c1.75,0.8,3.47,1.66,5.16,2.56c3.2,1.7,6.32,3.54,9.42,5.42c6.33,3.83,12.59,7.82,19.24,11.06
			c7.58,3.69,15.28,6.28,23.67,7.17c7.53,0.8,15.29-0.23,22.59-2.11c7.46-1.92,14.61-4.89,21.66-7.96
			c3.45-1.51,6.88-3.07,10.31-4.63c1.62-0.73,3.25-1.47,4.88-2.19c0.81-0.36,1.63-0.71,2.44-1.06c0.45-0.19,0.9-0.4,1.36-0.58
			c-1.22,0.49-0.75,0.32,0.19-0.07c6.53-2.68,13.25-5.04,20.22-6.27c0.46-0.08,0.92-0.16,1.38-0.23c1.75-0.27-0.27,0-0.27,0.03
			c0-0.05,1.97-0.2,2.22-0.22c1.85-0.15,3.71-0.2,5.57-0.15c0.84,0.02,1.68,0.07,2.52,0.14c0.47,0.04,0.94,0.09,1.4,0.13
			c0.62,0.06,1.22,0.43-0.52-0.08c1.86,0.55,3.86,0.71,5.74,1.24c1.71,0.49,3.37,1.1,5.04,1.71c0.49,0.18,1.21,0.71-0.34-0.16
			c0.33,0.19,0.73,0.32,1.09,0.48c0.99,0.45,1.98,0.92,2.95,1.41c3.31,1.67,6.51,3.56,9.65,5.52c6.49,4.07,12.76,8.5,19.48,12.19
			c6.82,3.75,14.14,6.81,21.88,7.9c8.67,1.22,17.35,0.36,25.71-2.27c15.72-4.95,29.38-14.5,44.34-21.18
			c0.48-0.21,0.96-0.47,1.46-0.64c-0.25,0.09-1.64,0.67-0.22,0.1c0.88-0.36,1.76-0.71,2.65-1.04c1.87-0.7,3.76-1.33,5.68-1.9
			c4.16-1.23,7.19-5.89,5.8-10.21c-1.36-4.21-5.75-7.11-10.21-5.8c-15.72,4.65-29.38,13.87-44.1,20.8c-0.85,0.4-1.71,0.79-2.57,1.18
			c-0.47,0.21-0.95,0.44-1.43,0.62c0.24-0.09,1.67-0.68,0.26-0.12c-1.91,0.76-3.82,1.48-5.78,2.1c-1.64,0.52-3.29,0.99-4.97,1.38
			c-0.88,0.2-1.77,0.39-2.66,0.55c-0.4,0.07-0.79,0.13-1.19,0.2c-1.87,0.34,1.56-0.12-0.18,0.02c-1.82,0.15-3.62,0.29-5.45,0.26
			c-0.92-0.01-1.84-0.05-2.77-0.12c-0.44-0.03-1.15,0.03-1.55-0.15c0.33,0.05,0.66,0.09,0.99,0.14c-0.39-0.06-0.78-0.12-1.17-0.18
			c-3.49-0.6-6.85-1.66-10.14-2.95c-1.41-0.55,0.16,0.11,0.36,0.15c-0.44-0.08-0.93-0.42-1.34-0.61c-0.81-0.37-1.6-0.76-2.4-1.16
			c-1.68-0.85-3.34-1.77-4.97-2.72c-3.22-1.87-6.36-3.89-9.48-5.93c-6.23-4.05-12.44-8.21-19.18-11.37
			c-7.58-3.56-15.41-5.87-23.82-6.21c-7.43-0.3-14.99,1.02-22.1,3.11c-7.4,2.19-14.53,5.27-21.56,8.41
			c-3.35,1.5-6.68,3.03-10.03,4.53c-1.62,0.73-3.25,1.45-4.89,2.15c-0.27,0.12-1.46,0.63-0.37,0.16c1.27-0.54-0.53,0.22-0.64,0.26
			c-0.9,0.37-1.81,0.74-2.72,1.1c-3.32,1.31-6.69,2.51-10.13,3.5c-1.55,0.45-3.11,0.86-4.68,1.21c-0.92,0.21-1.84,0.4-2.77,0.57
			c-0.69,0.13-3.62,0.43-1.13,0.23c-3.48,0.28-6.88,0.58-10.38,0.34c-0.85-0.06-1.7-0.22-2.55-0.25c2.31,0.08,0.04-0.02-0.64-0.15
			c-1.89-0.36-3.75-0.83-5.58-1.39c-1.66-0.51-3.27-1.12-4.89-1.74c-0.48-0.18-1.22-0.72,0.38,0.17c-0.33-0.18-0.72-0.31-1.06-0.47
			c-0.98-0.44-1.94-0.89-2.9-1.36c-3.27-1.6-6.44-3.39-9.57-5.24c-6.28-3.71-12.39-7.69-18.83-11.11
			c-6.58-3.5-13.65-6.61-21.04-7.87c-8.58-1.46-17.2-0.9-25.44,1.99c-8.14,2.86-15.56,7.22-22.83,11.8
			c-3.39,2.13-6.76,4.29-10.21,6.31c-1.71,1-3.43,1.98-5.19,2.88c-0.68,0.35-1.36,0.69-2.05,1.01c-0.35,0.16-0.87,0.29-1.17,0.52
			c0.34-0.15,0.68-0.29,1.03-0.44c-0.32,0.13-0.64,0.26-0.97,0.38c-2.95,1.13-6.01,2-9.12,2.58c-0.43,0.08-0.87,0.15-1.3,0.23
			c-0.85,0.16-1.44-0.21,0.38-0.03c-0.66-0.06-1.42,0.16-2.09,0.22c-1.72,0.14-3.45,0.19-5.18,0.14c-0.68-0.02-1.36-0.06-2.03-0.12
			c-0.42-0.03-0.84-0.1-1.25-0.13c-1.17-0.06,2.19,0.39,0.48,0.05c-1.44-0.28-2.86-0.57-4.27-1c-0.73-0.23-1.49-0.63-2.24-0.8
			c0.14,0.03,1.87,0.89,0.69,0.27c-0.27-0.14-0.56-0.27-0.83-0.42c-0.62-0.32-1.22-0.67-1.8-1.05c-0.32-0.21-0.63-0.43-0.95-0.65
			c-1.24-0.84,1.4,1.27,0.24,0.16c-0.44-0.43-0.91-0.82-1.34-1.27c-0.21-0.22-1.84-2.04-0.86-0.93c0.94,1.07-0.46-0.76-0.68-1.14
			c-0.42-0.71-0.78-1.45-1.12-2.2c-1.8-3.97-7.86-5.23-11.35-2.98C735.52,311.64,734.72,316.11,736.64,320.35L736.64,320.35z"/>
	</g>
</g>
<g>
	<g>
		<path class="st1" d="M736.64,368.62c6.23,13.77,22.49,18.66,36.52,17.2c7.79-0.81,15.18-2.86,22.19-6.41
			c7.27-3.68,13.98-8.38,20.95-12.58c3.57-2.15,7.22-4.09,10.98-5.88c0.36-0.17,1.39-0.74-0.21,0.07c0.37-0.19,0.8-0.33,1.19-0.48
			c0.99-0.39,2-0.75,3.02-1.08c1.93-0.63,3.89-1.14,5.88-1.5c0.52-0.1,1.06-0.22,1.59-0.26c-0.27,0.02-1.84,0.18-0.28,0.07
			c0.94-0.07,1.87-0.14,2.82-0.16c0.51-0.01,5.29-0.14,5.38,0.26c-0.04-0.16-1.98-0.3-0.26-0.03c0.46,0.07,0.92,0.16,1.38,0.25
			c0.73,0.14,1.46,0.3,2.18,0.48c1.81,0.45,3.6,1,5.36,1.63c0.8,0.29,1.58,0.61,2.37,0.91c1.15,0.44-1.89-0.86-0.15-0.06
			c0.35,0.16,0.7,0.31,1.04,0.47c1.75,0.8,3.47,1.66,5.16,2.56c3.2,1.7,6.32,3.54,9.42,5.42c6.33,3.83,12.59,7.82,19.24,11.06
			c7.58,3.69,15.28,6.28,23.67,7.17c7.53,0.8,15.29-0.23,22.59-2.11c7.46-1.92,14.61-4.89,21.66-7.96
			c3.45-1.51,6.88-3.07,10.31-4.63c1.62-0.73,3.25-1.47,4.88-2.19c0.81-0.36,1.63-0.71,2.44-1.06c0.45-0.19,0.9-0.4,1.36-0.58
			c-1.22,0.49-0.75,0.32,0.19-0.07c6.53-2.68,13.25-5.04,20.22-6.27c0.46-0.08,0.92-0.16,1.38-0.23c1.75-0.27-0.27,0-0.27,0.03
			c0-0.05,1.97-0.2,2.22-0.22c1.85-0.15,3.71-0.2,5.57-0.15c0.84,0.02,1.68,0.07,2.52,0.14c0.47,0.04,0.94,0.09,1.4,0.13
			c0.62,0.06,1.22,0.43-0.52-0.08c1.86,0.55,3.86,0.71,5.74,1.24c1.71,0.48,3.37,1.1,5.04,1.71c0.49,0.18,1.21,0.71-0.34-0.16
			c0.33,0.19,0.73,0.32,1.09,0.48c0.99,0.45,1.98,0.92,2.95,1.41c3.31,1.67,6.51,3.56,9.65,5.52c6.49,4.07,12.76,8.5,19.48,12.19
			c6.82,3.75,14.14,6.81,21.88,7.9c8.67,1.22,17.35,0.36,25.71-2.27c15.72-4.95,29.38-14.5,44.34-21.18
			c0.48-0.21,0.96-0.47,1.46-0.64c-0.25,0.09-1.64,0.67-0.22,0.1c0.88-0.36,1.76-0.71,2.65-1.04c1.87-0.7,3.76-1.33,5.68-1.9
			c4.16-1.23,7.19-5.89,5.8-10.21c-1.36-4.21-5.75-7.11-10.21-5.8c-15.72,4.65-29.38,13.87-44.1,20.8c-0.85,0.4-1.71,0.79-2.57,1.18
			c-0.47,0.21-0.95,0.44-1.43,0.62c0.24-0.09,1.67-0.68,0.26-0.12c-1.91,0.76-3.82,1.48-5.78,2.1c-1.64,0.52-3.29,0.99-4.97,1.38
			c-0.88,0.2-1.77,0.39-2.66,0.55c-0.4,0.07-0.79,0.13-1.19,0.2c-1.87,0.34,1.56-0.12-0.18,0.02c-1.82,0.15-3.62,0.29-5.45,0.26
			c-0.92-0.01-1.84-0.05-2.77-0.12c-0.44-0.03-1.15,0.03-1.55-0.15c0.33,0.05,0.66,0.09,0.99,0.14c-0.39-0.06-0.78-0.12-1.17-0.18
			c-3.49-0.6-6.85-1.66-10.14-2.95c-1.41-0.55,0.16,0.11,0.36,0.15c-0.44-0.08-0.93-0.42-1.34-0.61c-0.81-0.37-1.6-0.76-2.4-1.16
			c-1.68-0.85-3.34-1.77-4.97-2.72c-3.22-1.88-6.36-3.89-9.48-5.93c-6.23-4.05-12.44-8.21-19.18-11.37
			c-7.58-3.56-15.41-5.87-23.82-6.21c-7.43-0.3-14.99,1.02-22.1,3.11c-7.4,2.19-14.53,5.27-21.56,8.41
			c-3.35,1.5-6.68,3.03-10.03,4.53c-1.62,0.73-3.25,1.45-4.89,2.15c-0.27,0.12-1.46,0.63-0.37,0.16c1.27-0.54-0.53,0.22-0.64,0.26
			c-0.9,0.37-1.81,0.74-2.72,1.1c-3.32,1.31-6.69,2.51-10.13,3.5c-1.55,0.45-3.11,0.86-4.68,1.21c-0.92,0.21-1.84,0.4-2.77,0.57
			c-0.69,0.13-3.62,0.43-1.13,0.23c-3.48,0.28-6.88,0.58-10.38,0.34c-0.85-0.06-1.7-0.22-2.55-0.25c2.31,0.08,0.04-0.02-0.64-0.15
			c-1.89-0.36-3.75-0.83-5.58-1.39c-1.66-0.51-3.27-1.12-4.89-1.74c-0.48-0.18-1.22-0.72,0.38,0.17c-0.33-0.18-0.72-0.31-1.06-0.47
			c-0.98-0.44-1.94-0.89-2.9-1.36c-3.27-1.6-6.44-3.39-9.57-5.24c-6.28-3.71-12.39-7.69-18.83-11.11
			c-6.58-3.5-13.65-6.61-21.04-7.87c-8.58-1.46-17.2-0.9-25.44,1.99c-8.14,2.86-15.56,7.22-22.83,11.8
			c-3.39,2.13-6.76,4.29-10.21,6.31c-1.71,1-3.43,1.98-5.19,2.88c-0.68,0.35-1.36,0.69-2.05,1.01c-0.35,0.16-0.87,0.29-1.17,0.52
			c0.34-0.15,0.68-0.29,1.03-0.44c-0.32,0.13-0.64,0.26-0.97,0.38c-2.95,1.13-6.01,2-9.12,2.58c-0.43,0.08-0.87,0.15-1.3,0.23
			c-0.85,0.16-1.44-0.21,0.38-0.03c-0.66-0.06-1.42,0.16-2.09,0.22c-1.72,0.14-3.45,0.19-5.18,0.14c-0.68-0.02-1.36-0.06-2.03-0.12
			c-0.42-0.03-0.84-0.1-1.25-0.13c-1.17-0.06,2.19,0.39,0.48,0.05c-1.44-0.28-2.86-0.57-4.27-1c-0.73-0.23-1.49-0.63-2.24-0.8
			c0.14,0.03,1.87,0.89,0.69,0.27c-0.27-0.14-0.56-0.27-0.83-0.42c-0.62-0.32-1.22-0.67-1.8-1.05c-0.32-0.21-0.63-0.43-0.95-0.65
			c-1.24-0.84,1.4,1.27,0.24,0.16c-0.44-0.43-0.91-0.82-1.34-1.27c-0.21-0.22-1.84-2.04-0.86-0.93c0.94,1.07-0.46-0.76-0.68-1.14
			c-0.42-0.71-0.78-1.45-1.12-2.2c-1.8-3.97-7.86-5.23-11.35-2.98C735.52,359.91,734.72,364.38,736.64,368.62L736.64,368.62z"/>
	</g>
</g>
<g>
	<g>
		<path class="st1" d="M736.64,420.44c6.23,13.77,22.49,18.66,36.52,17.2c7.79-0.81,15.18-2.86,22.19-6.41
			c7.27-3.68,13.98-8.38,20.95-12.58c3.57-2.15,7.22-4.09,10.98-5.88c0.36-0.17,1.39-0.74-0.21,0.07c0.37-0.19,0.8-0.33,1.19-0.48
			c0.99-0.39,2-0.75,3.02-1.08c1.93-0.63,3.89-1.14,5.88-1.5c0.52-0.1,1.06-0.22,1.59-0.26c-0.27,0.02-1.84,0.18-0.28,0.07
			c0.94-0.07,1.87-0.14,2.82-0.16c0.51-0.01,5.29-0.14,5.38,0.26c-0.04-0.16-1.98-0.3-0.26-0.03c0.46,0.07,0.92,0.16,1.38,0.25
			c0.73,0.14,1.46,0.3,2.18,0.48c1.81,0.45,3.6,1,5.36,1.63c0.8,0.29,1.58,0.61,2.37,0.91c1.15,0.44-1.89-0.86-0.15-0.06
			c0.35,0.16,0.7,0.31,1.04,0.47c1.75,0.8,3.47,1.66,5.16,2.56c3.2,1.7,6.32,3.54,9.42,5.42c6.33,3.83,12.59,7.82,19.24,11.06
			c7.58,3.69,15.28,6.28,23.67,7.17c7.53,0.8,15.29-0.23,22.59-2.11c7.46-1.92,14.61-4.89,21.66-7.96
			c3.45-1.51,6.88-3.07,10.31-4.63c1.62-0.73,3.25-1.47,4.88-2.19c0.81-0.36,1.63-0.71,2.44-1.06c0.45-0.19,0.9-0.4,1.36-0.58
			c-1.22,0.49-0.75,0.32,0.19-0.07c6.53-2.68,13.25-5.04,20.22-6.27c0.46-0.08,0.92-0.16,1.38-0.23c1.75-0.27-0.27,0-0.27,0.03
			c0-0.05,1.97-0.2,2.22-0.22c1.85-0.15,3.71-0.2,5.57-0.15c0.84,0.02,1.68,0.07,2.52,0.14c0.47,0.04,0.94,0.09,1.4,0.13
			c0.62,0.06,1.22,0.43-0.52-0.08c1.86,0.55,3.86,0.71,5.74,1.24c1.71,0.48,3.37,1.1,5.04,1.71c0.49,0.18,1.21,0.71-0.34-0.16
			c0.33,0.19,0.73,0.32,1.09,0.48c0.99,0.45,1.98,0.92,2.95,1.41c3.31,1.67,6.51,3.56,9.65,5.52c6.49,4.07,12.76,8.5,19.48,12.19
			c6.82,3.75,14.14,6.81,21.88,7.9c8.67,1.22,17.35,0.36,25.71-2.27c15.72-4.95,29.38-14.5,44.34-21.18
			c0.48-0.21,0.96-0.47,1.46-0.64c-0.25,0.09-1.64,0.67-0.22,0.1c0.88-0.36,1.76-0.71,2.65-1.04c1.87-0.7,3.76-1.33,5.68-1.9
			c4.16-1.23,7.19-5.89,5.8-10.21c-1.36-4.21-5.75-7.11-10.21-5.8c-15.72,4.65-29.38,13.87-44.1,20.8c-0.85,0.4-1.71,0.79-2.57,1.18
			c-0.47,0.21-0.95,0.44-1.43,0.62c0.24-0.09,1.67-0.68,0.26-0.12c-1.91,0.76-3.82,1.48-5.78,2.1c-1.64,0.52-3.29,0.99-4.97,1.38
			c-0.88,0.2-1.77,0.39-2.66,0.55c-0.4,0.07-0.79,0.13-1.19,0.2c-1.87,0.34,1.56-0.12-0.18,0.02c-1.82,0.15-3.62,0.29-5.45,0.26
			c-0.92-0.01-1.84-0.05-2.77-0.12c-0.44-0.03-1.15,0.03-1.55-0.15c0.33,0.05,0.66,0.09,0.99,0.14c-0.39-0.06-0.78-0.12-1.17-0.18
			c-3.49-0.6-6.85-1.66-10.14-2.95c-1.41-0.55,0.16,0.11,0.36,0.15c-0.44-0.08-0.93-0.42-1.34-0.61c-0.81-0.37-1.6-0.76-2.4-1.16
			c-1.68-0.85-3.34-1.77-4.97-2.72c-3.22-1.87-6.36-3.89-9.48-5.93c-6.23-4.05-12.44-8.21-19.18-11.37
			c-7.58-3.56-15.41-5.87-23.82-6.21c-7.43-0.3-14.99,1.02-22.1,3.11c-7.4,2.19-14.53,5.27-21.56,8.41
			c-3.35,1.5-6.68,3.03-10.03,4.53c-1.62,0.73-3.25,1.45-4.89,2.15c-0.27,0.12-1.46,0.63-0.37,0.16c1.27-0.54-0.53,0.22-0.64,0.26
			c-0.9,0.37-1.81,0.74-2.72,1.1c-3.32,1.31-6.69,2.51-10.13,3.5c-1.55,0.45-3.11,0.86-4.68,1.21c-0.92,0.21-1.84,0.4-2.77,0.57
			c-0.69,0.13-3.62,0.43-1.13,0.23c-3.48,0.28-6.88,0.58-10.38,0.34c-0.85-0.06-1.7-0.22-2.55-0.25c2.31,0.08,0.04-0.02-0.64-0.15
			c-1.89-0.36-3.75-0.83-5.58-1.39c-1.66-0.51-3.27-1.12-4.89-1.74c-0.48-0.18-1.22-0.72,0.38,0.17c-0.33-0.18-0.72-0.31-1.06-0.47
			c-0.98-0.44-1.94-0.89-2.9-1.36c-3.27-1.6-6.44-3.39-9.57-5.24c-6.28-3.71-12.39-7.69-18.83-11.11
			c-6.58-3.5-13.65-6.61-21.04-7.87c-8.58-1.46-17.2-0.9-25.44,1.99c-8.14,2.86-15.56,7.22-22.83,11.8
			c-3.39,2.13-6.76,4.29-10.21,6.31c-1.71,1-3.43,1.98-5.19,2.88c-0.68,0.35-1.36,0.69-2.05,1.01c-0.35,0.16-0.87,0.29-1.17,0.52
			c0.34-0.15,0.68-0.29,1.03-0.44c-0.32,0.13-0.64,0.26-0.97,0.38c-2.95,1.13-6.01,2-9.12,2.58c-0.43,0.08-0.87,0.15-1.3,0.23
			c-0.85,0.16-1.44-0.21,0.38-0.03c-0.66-0.06-1.42,0.16-2.09,0.22c-1.72,0.14-3.45,0.19-5.18,0.14c-0.68-0.02-1.36-0.06-2.03-0.12
			c-0.42-0.03-0.84-0.1-1.25-0.13c-1.17-0.06,2.19,0.39,0.48,0.05c-1.44-0.28-2.86-0.57-4.27-1c-0.73-0.23-1.49-0.63-2.24-0.8
			c0.14,0.03,1.87,0.89,0.69,0.27c-0.27-0.14-0.56-0.27-0.83-0.42c-0.62-0.32-1.22-0.67-1.8-1.05c-0.32-0.21-0.63-0.43-0.95-0.65
			c-1.24-0.84,1.4,1.27,0.24,0.16c-0.44-0.43-0.91-0.82-1.34-1.27c-0.21-0.22-1.84-2.04-0.86-0.93c0.94,1.07-0.46-0.76-0.68-1.14
			c-0.42-0.71-0.78-1.45-1.12-2.2c-1.8-3.97-7.86-5.23-11.35-2.98C735.52,411.73,734.72,416.2,736.64,420.44L736.64,420.44z"/>
	</g>
</g>
<g>
	<path class="st5" d="M722.95,855.64c-4.32,0-8.63,0-12.95,0c-5.37,22.86-10.74,45.42-16.09,67.11c9.64,1.22,19.34,1.83,29.03,1.83
		c9.7,0,19.39-0.61,29.03-1.83c-5.34-21.7-10.72-44.26-16.09-67.11C731.58,855.64,727.26,855.64,722.95,855.64z"/>
</g>
<g>
	<path class="st5" d="M805.97,855.64c-4.32,0-8.63,0-12.95,0s-8.63,0-12.95,0c-5.37,22.86-10.74,45.42-16.09,67.11
		c9.64,1.22,19.34,1.83,29.03,1.83c9.7,0,19.39-0.61,29.03-1.83C816.71,901.06,811.34,878.5,805.97,855.64z"/>
</g>
<rect x="729.19" y="855.64" class="st5" width="57.58" height="37.73"/>
<g>
	<path class="st6" d="M638.17,584.5c79.07-16.03,160.56-16.03,239.63,0c13.53,2.76,27.17,18.08,28.4,31.88
		c6.79,82.37-6.91,162.34-31.13,245.16c-3.5,11.66-15.06,20.49-26.62,20.52c-60.3,0-120.61,0-180.91,0
		c-11.56-0.02-23.13-8.85-26.62-20.52c-24.22-82.82-37.92-162.79-31.13-245.16C611,602.57,624.64,587.26,638.17,584.5z"/>
</g>
<circle class="st7" cx="693.91" cy="705.24" r="29.92"/>
<circle class="st8" cx="701.71" cy="719.29" r="14.52"/>
<circle class="st7" cx="822.05" cy="705.24" r="29.92"/>
<circle class="st8" cx="814.26" cy="719.29" r="14.52"/>
<ellipse class="st5" cx="682.5" cy="757.91" rx="30.26" ry="6.81"/>
<ellipse class="st5" cx="833.47" cy="757.91" rx="30.26" ry="6.81"/>
<path class="st9" d="M783.12,759.98c0,21.36-11.25,31.4-25.13,31.4s-25.13-10.04-25.13-31.4"/>
<g>
	<path class="st5" d="M1113.89,855.64c-4.32,0-8.63,0-12.95,0c-5.37,22.86-10.74,45.42-16.09,67.11c9.64,1.22,19.34,1.83,29.03,1.83
		c9.7,0,19.39-0.61,29.03-1.83c-5.34-21.7-10.72-44.26-16.09-67.11C1122.53,855.64,1118.21,855.64,1113.89,855.64z"/>
</g>
<g>
	<path class="st5" d="M1196.92,855.64c-4.32,0-8.63,0-12.95,0s-8.63,0-12.95,0c-5.37,22.86-10.74,45.42-16.09,67.11
		c9.64,1.22,19.34,1.83,29.03,1.83c9.7,0,19.39-0.61,29.03-1.83C1207.66,901.06,1202.29,878.5,1196.92,855.64z"/>
</g>
<rect x="1120.14" y="855.64" class="st5" width="57.58" height="37.73"/>
<g>
	<path class="st6" d="M1143.66,549.5c3.52-0.03,7.04-0.03,10.55,0c39.73,0.23,78.24,23.17,108.05,56.16
		c29.36,33.09,50.25,74.48,44.73,113.7c-1.83,14.61-4.19,29.22-7.02,43.87c-6.34,33.49-29.37,62.36-56.97,83.94
		c-27.96,21.47-60.41,34.91-94.07,34.89c0,0,0,0,0,0c-33.66,0.02-66.11-13.42-94.07-34.89c-27.6-21.58-50.63-50.45-56.97-83.94
		c-2.83-14.65-5.19-29.27-7.02-43.87c-5.52-39.21,15.36-80.61,44.73-113.7C1065.42,572.67,1103.93,549.72,1143.66,549.5z"/>
</g>
<path class="st10" d="M1057.2,699.8c0,0,40.05-11.29,64.64,25.3c-38.58-21.32-69.06,7-69.06,7"/>
<path class="st10" d="M1240.66,699.8c0,0-40.05-11.29-64.64,25.3c38.58-21.32,69.06,7,69.06,7"/>
<ellipse class="st5" cx="1073.45" cy="757.41" rx="30.26" ry="6.81"/>
<ellipse class="st5" cx="1224.41" cy="757.41" rx="30.26" ry="6.81"/>
<path class="st9" d="M1174.07,759.48c0,21.36-11.25,38.68-25.13,38.68c-13.88,0-25.13-17.32-25.13-38.68H1174.07z"/>
</svg>
