<?xml version="1.0" encoding="utf-8"?>
<!-- Generator: Adobe Illustrator 25.2.0, SVG Export Plug-In . SVG Version: 6.00 Build 0)  -->
<svg version="1.1" id="Layer_1" xmlns="http://www.w3.org/2000/svg" xmlns:xlink="http://www.w3.org/1999/xlink" x="0px" y="0px"
	 viewBox="0 0 1920 1080" style="enable-background:new 0 0 1920 1080;" xml:space="preserve">
<style type="text/css">
	.st0{fill:#CBCDD2;}
	.st1{clip-path:url(#SVGID_2_);}
	.st2{fill:#5E6472;}
	.st3{fill:#404758;}
	.st4{fill:#B8F2E6;}
	.st5{fill:none;stroke:#5E6472;stroke-width:11.6379;stroke-linecap:round;stroke-miterlimit:10;}
	.st6{fill:#6CE6CE;}
	.st7{fill:none;stroke:#5E6472;stroke-width:10.1371;stroke-linejoin:round;stroke-miterlimit:10;}
	.st8{fill:#B7B9C0;}
	.st9{fill:#454C5C;}
	.st10{fill:#EBF5F7;}
	.st11{fill:#AED9E0;}
</style>
<g>
	<path class="st0" d="M741.55,290.4c-57.46-16.81-83.61-12.73-136.17,15.93c-52.56,28.66-93.02,78.74-110,136.15
		c-9.34,31.58-11.77,64.8-11.86,97.73c-0.2,70.92,16.07,151.29,76.54,188.35c66.12,40.51,151.85,10.61,228.56,21.97
		c74.42,11.02,136.46,60.26,202.73,95.88c62.16,33.41,136.54,55.58,202.97,31.78c55.91-20.02,95.9-68.61,144.68-102.49
		c57.56-39.98,45.53-79.33,78.88-140.97c23.31-43.08,19.86-98.1-4.38-140.67s-67.33-72.78-114.42-86.28l-25.49-2.29
		c-116.13-20.14-217.29-91.8-301.01-174.76c-13.89-13.77-28.7-28.6-47.93-32.21c-14.68-2.75-29.74,1.57-43.61,7.1
		c-25.73,10.27-49.71,24.91-70.6,43.1c-20.59,17.93-41.5,42.13-68.79,41.95"/>
</g>
<g>
	<defs>
		<path id="SVGID_1_" d="M741.55,290.4c-57.46-16.81-83.61-12.73-136.17,15.93c-52.56,28.66-93.02,78.74-110,136.15
			c-9.34,31.58-11.77,64.8-11.86,97.73c-0.2,70.92,16.07,151.29,76.54,188.35c66.12,40.51,151.85,10.61,228.56,21.97
			c74.42,11.02,136.46,60.26,202.73,95.88c62.16,33.41,136.54,55.58,202.97,31.78c55.91-20.02,95.9-68.61,144.68-102.49
			c57.56-39.98,45.53-79.33,78.88-140.97c23.31-43.08,19.86-98.1-4.38-140.67s-67.33-72.78-114.42-86.28l-153.04-91.2
			c-116.13-20.14-89.75-2.88-173.47-85.85c-13.89-13.77-28.7-28.6-47.93-32.21c-14.68-2.75-29.74,1.57-43.61,7.1
			c-25.73,10.27-49.71,24.91-70.6,43.1c-20.59,17.93-41.5,42.13-68.79,41.95"/>
	</defs>
	<clipPath id="SVGID_2_">
		<use xlink:href="#SVGID_1_"  style="overflow:visible;"/>
	</clipPath>
	<g class="st1">
		<path class="st2" d="M1234.52,1140.54l-447.47,76.68c-27.13,4.65-52.9-13.58-57.55-40.71L605.19,451.08
			c-4.65-27.13,13.58-52.9,40.71-57.55l447.47-76.68c27.13-4.65,52.9,13.58,57.55,40.71l124.31,725.44
			C1279.88,1110.13,1261.65,1135.89,1234.52,1140.54z"/>
		<g>
			<path class="st3" d="M1153.08,609.64c-145.87,46.32-290.44,99.94-417.75,132.09c-35.16-81.48-67.88-160.81-88.62-236.31
				c145.87-46.32,290.44-99.94,417.75-132.09C1099.62,454.8,1132.35,534.13,1153.08,609.64z"/>
		</g>
		<path class="st3" d="M671.34,516.38l-5.01,1.56c-10.35,3.22-21.35-2.55-24.57-12.9l-1.56-5.01c-1.33-4.25,1.05-8.78,5.3-10.1
			l5.01-1.56c10.35-3.22,21.35,2.55,24.57,12.9l1.56,5.01C677.97,510.54,675.59,515.06,671.34,516.38z"/>
		<path class="st3" d="M1064.62,393.82l5.01-1.56c10.35-3.22,16.12-14.23,12.9-24.57l-1.56-5.01c-1.33-4.25-5.85-6.63-10.1-5.3
			l-5.01,1.56c-10.35,3.22-16.12,14.23-12.9,24.57l1.56,5.01C1055.84,392.78,1060.36,395.15,1064.62,393.82z"/>
		<path class="st3" d="M734.05,717.6l-5.01,1.56c-10.35,3.22-16.12,14.23-12.9,24.57l1.56,5.01c1.33,4.25,5.85,6.63,10.1,5.3
			l5.01-1.56c10.35-3.22,16.12-14.23,12.9-24.57l-1.56-5.01C742.82,718.65,738.3,716.28,734.05,717.6z"/>
		<path class="st3" d="M1127.32,595.04l5.01-1.56c10.35-3.22,21.35,2.55,24.57,12.9l1.56,5.01c1.33,4.25-1.05,8.78-5.3,10.1
			l-5.01,1.56c-10.35,3.22-21.35-2.55-24.57-12.9l-1.56-5.01C1120.7,600.89,1123.07,596.37,1127.32,595.04z"/>
		<g>
			<path class="st4" d="M1051.29,559.85c4.6,26.83-9.91,52.93-18.74,76.75c-9.1,24.57-22.51,45.36-42.64,62.12
				c-19.52,16.25-41.01,31.86-67.85,36.46c-26.83,4.6-56.2,7.55-80.01-1.27c-24.57-9.1-38.02-36.6-54.78-56.74
				c-16.25-19.52-29.89-39.33-34.49-66.16c-4.6-26.83-1.5-51.23,7.33-75.05c9.1-24.57,19.51-49.34,39.65-66.11
				c19.52-16.25,43.75-31.96,70.58-36.56c26.83-4.6,54.22,4.01,78.04,12.84c24.57,9.1,40.53,29.46,57.29,49.6
				C1021.91,515.25,1046.69,533.02,1051.29,559.85z"/>
		</g>
		<path class="st5" d="M920.18,582.02c3.45,20.12-5.53,31.39-18.6,33.63s-25.29-5.4-28.74-25.52"/>
		
			<ellipse transform="matrix(0.9856 -0.1689 0.1689 0.9856 -82.7058 171.5908)" class="st6" cx="967.26" cy="571.94" rx="28.91" ry="6.5"/>
		
			<ellipse transform="matrix(0.9856 -0.1689 0.1689 0.9856 -88.8635 147.9274)" class="st6" cx="825.09" cy="596.31" rx="28.91" ry="6.5"/>
		<path class="st7" d="M915.36,542.79c39.78,13.86,63.91-17.74,63.91-17.74"/>
		<path class="st7" d="M864.33,551.54c-32.89,26.31-66.17,4.55-66.17,4.55"/>
		<path class="st8" d="M655.5,744.66c0,0,254.49-175.47,536.72-146.08l83.69,488.38c4.27,24.94-12.48,48.62-37.42,52.9
			l-455.41,78.04c-24.94,4.27-48.62-12.48-52.9-37.42L655.5,744.66z"/>
		<path class="st2" d="M663.08,788.89c0,0,331.56-195.1,537.55-141.25l76,443.47c3.88,22.65-13.19,44.47-38.13,48.75l-455.41,78.04
			c-24.94,4.27-48.31-10.62-52.19-33.27L663.08,788.89z"/>
		<g>
			<path class="st4" d="M748.42,690.8c-6.26,6.41-1,18.55,7.62,20.99c8.62,2.45,17.84-2.28,24.01-8.78
				c3.18-3.36,5.92-8.49,3.41-12.37c3.38,8.76,17.6,9.1,22.88,1.34s1.76-19.32-5.95-24.68c-7.71-5.36-18.17-5.36-27.03-2.25
				c-12.1,4.24-22.14,14-26.72,25.98"/>
		</g>
		<g>
			<path class="st4" d="M1029.77,607.89c-6.59,6.74-1.05,19.5,8.02,22.08c9.07,2.58,18.76-2.4,25.25-9.24
				c3.35-3.53,6.22-8.93,3.58-13.01c3.55,9.21,18.52,9.58,24.07,1.41c5.55-8.17,1.85-20.32-6.26-25.96
				c-8.11-5.64-19.11-5.63-28.43-2.37c-12.73,4.46-23.29,14.73-28.1,27.32"/>
		</g>
		<g>
			<path class="st9" d="M1044.93,1053.43c12.55-31.66,42.06-51.53,73.95-53.36c-8.22-8.67-18.39-15.74-30.22-20.43
				c-43.49-17.24-92.73,4.04-109.97,47.53c-17.24,43.49,4.04,92.73,47.53,109.97c11.83,4.69,24.09,6.51,36.01,5.83
				C1040.25,1119.77,1032.38,1085.08,1044.93,1053.43z"/>
			<path class="st9" d="M874.73,982.13c-9.64-19.75-6.29-42.47,6.71-58.48c-7.71,0.15-15.51,1.93-22.89,5.53
				c-27.14,13.25-38.4,45.99-25.15,73.13c13.25,27.14,45.99,38.4,73.13,25.15c7.38-3.61,13.58-8.66,18.44-14.65
				C904.35,1013.21,884.37,1001.88,874.73,982.13z"/>
			<path class="st9" d="M1048.76,747.07c-1.5-21.93,10.15-41.72,28.22-51.66c-7.2-2.76-15.09-4.05-23.29-3.49
				c-30.13,2.07-52.88,28.16-50.81,58.29c2.07,30.13,28.16,52.88,58.29,50.81c8.2-0.56,15.84-2.91,22.6-6.63
				C1064.51,787.01,1050.27,769,1048.76,747.07z"/>
			<path class="st9" d="M1086.43,882.9c3.36-11.75,13.19-19.89,24.51-21.67c-3.24-2.8-7.12-4.97-11.52-6.22
				c-16.14-4.61-32.96,4.73-37.58,20.87c-4.61,16.14,4.73,32.96,20.87,37.58c4.39,1.26,8.83,1.47,13.06,0.8
				C1087.11,906.75,1083.07,894.65,1086.43,882.9z"/>
			<path class="st9" d="M875.86,856.8c-3.96-11.56-0.54-23.86,7.73-31.79c-4.26-0.45-8.68-0.01-13.01,1.47
				c-15.88,5.44-24.35,22.72-18.91,38.6c5.44,15.88,22.72,24.35,38.6,18.91c4.32-1.48,8.09-3.84,11.18-6.81
				C890.05,875.98,879.82,868.35,875.86,856.8z"/>
			<path class="st9" d="M777.91,800.17l5.6,17.06c0.69,2.11,2.38,3.74,4.5,4.36l17.22,5.06c5.36,1.57,6.59,8.61,2.08,11.91
				l-14.49,10.59c-1.79,1.31-2.82,3.41-2.76,5.63l0.51,17.95c0.16,5.58-6.15,8.92-10.68,5.65l-14.55-10.51
				c-1.8-1.3-4.12-1.63-6.21-0.88l-16.91,6.03c-5.26,1.88-10.39-3.09-8.68-8.41l5.5-17.09c0.68-2.11,0.28-4.42-1.08-6.18
				l-10.96-14.22c-3.41-4.42-0.27-10.84,5.32-10.85l17.95-0.05c2.22-0.01,4.29-1.1,5.54-2.93l10.14-14.82
				C769.1,793.85,776.17,794.86,777.91,800.17z"/>
			<path class="st9" d="M1160.33,890.63l13.81,11.47c1.71,1.42,4,1.9,6.13,1.3l17.28-4.87c5.38-1.51,10.15,3.79,8.09,8.98
				L1199,924.2c-0.82,2.06-0.58,4.39,0.66,6.24l9.97,14.93c3.1,4.64-0.47,10.83-6.04,10.47l-17.91-1.17
				c-2.21-0.14-4.36,0.81-5.73,2.55l-11.12,14.1c-3.46,4.39-10.44,2.9-11.82-2.51l-4.43-17.4c-0.55-2.15-2.12-3.89-4.2-4.66
				l-16.84-6.22c-5.24-1.93-5.99-9.04-1.26-12.02l15.18-9.59c1.88-1.18,3.05-3.22,3.14-5.43l0.71-17.94
				C1149.51,889.97,1156.04,887.06,1160.33,890.63z"/>
			<path class="st9" d="M748.93,1003.02l9.01,7.49c1.11,0.93,2.61,1.24,4,0.85l11.28-3.18c3.51-0.99,6.63,2.48,5.28,5.86
				l-4.34,10.89c-0.54,1.34-0.38,2.87,0.43,4.07l6.51,9.74c2.02,3.03-0.31,7.07-3.94,6.83l-11.69-0.76
				c-1.44-0.09-2.84,0.53-3.74,1.67l-7.26,9.2c-2.26,2.86-6.82,1.89-7.72-1.64l-2.89-11.36c-0.36-1.4-1.38-2.54-2.74-3.04
				l-10.99-4.06c-3.42-1.26-3.91-5.9-0.83-7.84l9.91-6.26c1.22-0.77,1.99-2.1,2.05-3.55l0.46-11.71
				C741.87,1002.59,746.13,1000.69,748.93,1003.02z"/>
			<path class="st9" d="M918.7,736.27l6.01,10.59c0.74,1.31,2.08,2.17,3.58,2.3l12.13,1.05c3.77,0.33,5.53,4.84,2.98,7.64
				l-8.21,8.99c-1.01,1.11-1.42,2.65-1.08,4.11l2.75,11.86c0.86,3.69-2.89,6.76-6.34,5.19l-11.09-5.03
				c-1.37-0.62-2.96-0.53-4.25,0.25l-10.43,6.28c-3.25,1.95-7.32-0.66-6.9-4.43l1.36-12.1c0.17-1.49-0.41-2.98-1.55-3.96l-9.2-7.98
				c-2.86-2.48-1.63-7.17,2.08-7.93l11.93-2.44c1.47-0.3,2.7-1.31,3.29-2.69l4.75-11.21C912,733.26,916.83,732.98,918.7,736.27z"/>
			<path class="st9" d="M957.52,875.06l6.4,8.59c0.79,1.06,2.05,1.67,3.37,1.62l10.7-0.4c3.33-0.12,5.36,3.62,3.43,6.34l-6.19,8.74
				c-0.76,1.08-0.95,2.47-0.49,3.71l3.69,10.05c1.15,3.13-1.79,6.21-4.97,5.22l-10.22-3.19c-1.26-0.39-2.64-0.14-3.68,0.68
				l-8.42,6.61c-2.62,2.06-6.46,0.22-6.5-3.11l-0.13-10.71c-0.02-1.32-0.68-2.55-1.78-3.29l-8.89-5.97
				c-2.77-1.86-2.2-6.08,0.95-7.15l10.14-3.43c1.25-0.42,2.22-1.44,2.58-2.71l2.93-10.3C951.34,873.16,955.53,872.39,957.52,875.06z
				"/>
			<path class="st9" d="M1153.31,724.07l6.4,8.59c0.79,1.06,2.05,1.67,3.37,1.62l10.7-0.4c3.33-0.12,5.36,3.62,3.43,6.34l-6.19,8.74
				c-0.76,1.08-0.95,2.47-0.49,3.71l3.69,10.05c1.15,3.13-1.79,6.21-4.97,5.22l-10.22-3.19c-1.26-0.39-2.64-0.14-3.68,0.68
				l-8.42,6.61c-2.62,2.06-6.46,0.22-6.5-3.11l-0.13-10.71c-0.02-1.32-0.68-2.55-1.78-3.29l-8.89-5.97
				c-2.77-1.86-2.2-6.08,0.95-7.15l10.14-3.43c1.25-0.42,2.22-1.44,2.58-2.71l2.93-10.3
				C1147.13,722.17,1151.32,721.4,1153.31,724.07z"/>
			<path class="st9" d="M812.17,1105.21l8.3,6.9c1.03,0.85,2.4,1.15,3.69,0.78l10.39-2.93c3.23-0.91,6.1,2.28,4.86,5.4l-3.99,10.02
				c-0.49,1.24-0.35,2.64,0.39,3.75l5.99,8.97c1.86,2.79-0.28,6.51-3.63,6.29l-10.77-0.7c-1.33-0.09-2.62,0.49-3.44,1.53l-6.68,8.47
				c-2.08,2.64-6.28,1.74-7.11-1.51l-2.66-10.46c-0.33-1.29-1.27-2.34-2.52-2.8l-10.12-3.74c-3.15-1.16-3.6-5.43-0.76-7.22
				l9.12-5.76c1.13-0.71,1.83-1.93,1.88-3.26l0.43-10.78C805.67,1104.81,809.59,1103.06,812.17,1105.21z"/>
			<path class="st9" d="M1176.9,1036.86l8.3,6.9c1.03,0.85,2.4,1.15,3.69,0.78l10.39-2.93c3.23-0.91,6.1,2.28,4.86,5.4l-3.99,10.02
				c-0.49,1.24-0.35,2.64,0.39,3.75l5.99,8.97c1.86,2.79-0.28,6.51-3.63,6.29l-10.77-0.7c-1.33-0.09-2.62,0.49-3.44,1.53l-6.68,8.47
				c-2.08,2.64-6.28,1.74-7.11-1.51l-2.66-10.46c-0.33-1.29-1.27-2.34-2.52-2.8l-10.12-3.74c-3.15-1.16-3.6-5.43-0.76-7.22
				l9.12-5.76c1.13-0.71,1.83-1.93,1.88-3.26l0.43-10.78C1170.4,1036.46,1174.32,1034.71,1176.9,1036.86z"/>
		</g>
	</g>
</g>
<g>
	<circle class="st10" cx="1181.85" cy="822.57" r="88.71"/>
	<circle class="st10" cx="1079.58" cy="846.76" r="73.24"/>
	<circle class="st10" cx="1285.82" cy="848.37" r="68.48"/>
</g>
<g>
	<circle class="st10" cx="596.79" cy="356.43" r="52.61"/>
	<circle class="st10" cx="536.14" cy="370.78" r="43.43"/>
	<circle class="st10" cx="658.44" cy="371.73" r="40.61"/>
</g>
<path class="st11" d="M1235.1,220.37c0-23.65,13.96-44.03,34.09-53.37c-7.52-3.49-15.9-5.46-24.74-5.46
	c-32.49,0-58.83,26.34-58.83,58.83c0,32.49,26.34,58.83,58.83,58.83c8.84,0,17.22-1.96,24.74-5.46
	C1249.07,264.39,1235.1,244.02,1235.1,220.37z"/>
<path class="st11" d="M1309.74,311.31l9.31,11.62c1.15,1.44,2.93,2.21,4.77,2.08l14.85-1.08c4.62-0.34,7.62,4.77,5.08,8.64
	l-8.17,12.44c-1.01,1.54-1.2,3.47-0.5,5.18l5.62,13.79c1.75,4.29-2.18,8.72-6.65,7.5l-14.36-3.93c-1.77-0.48-3.67-0.07-5.08,1.12
	l-11.38,9.6c-3.54,2.99-8.97,0.62-9.19-4.01l-0.7-14.87c-0.09-1.84-1.07-3.51-2.64-4.48l-12.65-7.85c-3.94-2.44-3.36-8.34,0.97-9.97
	l13.93-5.26c1.72-0.65,3.01-2.11,3.45-3.89l3.56-14.46C1301.06,308.97,1306.84,307.7,1309.74,311.31z"/>
<path class="st11" d="M1112.48,211.48l0.78,14.87c0.1,1.84,1.09,3.51,2.66,4.47l12.69,7.78c3.95,2.42,3.41,8.32-0.92,9.98
	l-13.9,5.34c-1.72,0.66-3,2.12-3.43,3.91l-3.48,14.48c-1.08,4.5-6.86,5.81-9.77,2.21l-9.37-11.57c-1.16-1.43-2.94-2.2-4.78-2.05
	l-14.84,1.16c-4.62,0.36-7.65-4.73-5.12-8.61l8.1-12.49c1-1.54,1.18-3.48,0.48-5.18l-5.69-13.76c-1.77-4.28,2.13-8.73,6.61-7.54
	l14.38,3.85c1.78,0.48,3.67,0.05,5.07-1.15l11.32-9.67C1106.8,204.52,1112.24,206.86,1112.48,211.48z"/>
<path class="st11" d="M747.37,851.48c-8.86-14.91-7.7-32.98,1.49-46.41c-6.05,0.62-12.07,2.52-17.64,5.83
	c-20.48,12.17-27.21,38.64-15.04,59.12c12.17,20.48,38.64,27.21,59.12,15.04c5.57-3.31,10.12-7.69,13.55-12.71
	C772.67,874,756.23,866.39,747.37,851.48z"/>
<path class="st11" d="M817.87,864.7l-1.81-10.76c-0.22-1.33-1.09-2.46-2.31-3.03l-9.89-4.61c-3.08-1.43-3.18-5.78-0.17-7.35
	l9.68-5.05c1.2-0.62,2.01-1.8,2.17-3.13l1.33-10.83c0.41-3.37,4.51-4.81,6.94-2.43l7.79,7.64c0.96,0.94,2.33,1.35,3.65,1.1
	l10.71-2.09c3.33-0.65,5.96,2.81,4.45,5.85l-4.86,9.77c-0.6,1.21-0.57,2.63,0.09,3.81l5.3,9.54c1.65,2.97-0.83,6.54-4.18,6.04
	l-10.8-1.6c-1.33-0.2-2.68,0.27-3.6,1.26l-7.44,7.99C822.6,869.29,818.44,868.04,817.87,864.7z"/>
</svg>
