<?xml version="1.0" encoding="utf-8"?>
<!-- Generator: Adobe Illustrator 25.2.0, SVG Export Plug-In . SVG Version: 6.00 Build 0)  -->
<svg version="1.1" id="Layer_1" xmlns="http://www.w3.org/2000/svg" xmlns:xlink="http://www.w3.org/1999/xlink" x="0px" y="0px"
	 viewBox="0 0 1920 1080" style="enable-background:new 0 0 1920 1080;" xml:space="preserve">
<style type="text/css">
	.st0{fill:#DFE0E3;}
	.st1{fill:#6B707D;}
	.st2{fill:#8D919B;}
	.st3{fill:#B8F2E6;}
	.st4{fill:#FFFFFF;}
	.st5{fill:#5E6472;stroke:#5E6472;stroke-width:1.9218;stroke-miterlimit:10;}
	.st6{fill:#5E6472;}
	.st7{fill:#6CE6CE;}
	.st8{fill:none;stroke:#5E6472;stroke-width:4.5289;stroke-linecap:round;stroke-miterlimit:10;}
	.st9{fill:#AED9E0;}
	.st10{fill:#5EB3C1;}
</style>
<ellipse class="st0" cx="995.87" cy="893.06" rx="278.81" ry="25.4"/>
<path class="st1" d="M1374.06,899.04c51.14,0,18.06-57.29-7.51-13c25.57-44.28-40.58-44.28-15.02,0c-25.57-44.28-58.64,13-7.51,13
	H1374.06z"/>
<path class="st2" d="M1075.65,807.49c27.72,0,9.79-31.05-4.07-7.05c13.86-24-22-24-8.14,0c-13.86-24-31.78,7.05-4.07,7.05H1075.65z"
	/>
<path class="st1" d="M721.94,899.04c51.14,0,18.06-57.29-7.51-13c25.57-44.28-40.58-44.28-15.02,0c-25.57-44.28-58.64,13-7.51,13
	H721.94z"/>
<g>
	<path class="st3" d="M886,893c0,0,0-1.06,0-1.06c-9.9,0-19.26-1.55-27.87-5.12c-8.92-3.7-16.25-9.72-22.97-16.44
		c-6.72-6.72-14.25-13.42-17.95-22.34c-3.57-8.61-3.01-18.6-3.01-28.5c0,0-1.54,0-1.54,0c0-9.9,1.84-19.53,5.41-28.14
		c3.7-8.92,9.18-17.16,15.9-23.89c6.72-6.72,15.05-11.99,23.98-15.69c8.61-3.57,18.15-4.03,28.05-4.03c0,0,0-2.39,0-2.39
		c9.9,0,19.65,2.33,28.26,5.9c8.92,3.7,16.15,10.37,22.88,17.09c6.72,6.72,12.1,14.49,15.8,23.41c3.57,8.61,5.68,17.83,5.68,27.72
		c0,0,0.86,0,0.86,0c0,9.9-1.97,19.53-5.54,28.14c-3.7,8.92-8.85,17.49-15.58,24.22c-6.72,6.72-15.84,10.55-24.77,14.25
		C904.98,889.72,895.9,893,886,893z"/>
</g>
<circle class="st4" cx="848.87" cy="827.26" r="11.13"/>
<circle class="st5" cx="851.77" cy="832.49" r="5.4"/>
<circle class="st4" cx="896.52" cy="827.26" r="11.13"/>
<circle class="st5" cx="893.62" cy="832.49" r="5.4"/>
<g>
	<g>
		<path class="st6" d="M832.71,828.82c8.21-1.05,15.4-7.34,17.08-15.55c0.21-1.02-0.29-2.08-1.34-2.36
			c-0.95-0.26-2.16,0.32-2.36,1.34c-0.69,3.36-2.33,6.2-4.82,8.53c-1.21,1.13-2.48,2.01-4.05,2.79c-0.76,0.38-1.27,0.58-2.15,0.85
			c-0.41,0.13-0.83,0.24-1.26,0.34c-0.21,0.05-0.42,0.09-0.64,0.13c-0.08,0.01-0.67,0.11-0.46,0.08c-1.03,0.13-1.92,0.79-1.92,1.92
			C830.79,827.84,831.67,828.95,832.71,828.82L832.71,828.82z"/>
	</g>
</g>
<g>
	<g>
		<path class="st6" d="M912.89,824.98c0.26,0.03-0.3-0.05-0.35-0.06c-0.21-0.04-0.43-0.08-0.64-0.13c-0.42-0.09-0.84-0.2-1.26-0.33
			c-0.87-0.26-1.41-0.47-2.16-0.84c-1.61-0.79-2.91-1.68-4.15-2.84c-2.49-2.34-4.13-5.17-4.82-8.53c-0.21-1.02-1.41-1.6-2.36-1.34
			c-1.06,0.29-1.55,1.34-1.34,2.36c1.68,8.21,8.86,14.49,17.08,15.55c1.03,0.13,1.92-0.98,1.92-1.92
			C914.81,825.75,913.92,825.11,912.89,824.98L912.89,824.98z"/>
	</g>
</g>
<ellipse class="st7" cx="844.63" cy="846.85" rx="11.25" ry="2.53"/>
<ellipse class="st7" cx="900.76" cy="846.85" rx="11.25" ry="2.53"/>
<path class="st8" d="M863.35,862c0-7.94,4.18-14.38,9.35-14.38s9.35,6.44,9.35,14.38"/>
<path class="st9" d="M1492.53,676.7L485.06,789.35c-11.43,1.28-21.73-6.95-23.01-18.38l-52.96-473.64
	c-1.28-11.43,6.95-21.73,18.38-23.01l1007.46-112.66c11.43-1.28,21.73,6.95,23.01,18.38l52.96,473.64
	C1512.18,665.12,1503.96,675.42,1492.53,676.7z"/>
<path class="st10" d="M1457.94,180.05c-1.28-11.43-11.58-19.66-23.01-18.38L427.47,274.33c-11.43,1.28-19.66,11.58-18.38,23.01
	l18.94,169.41l943.16,223.52l121.33-13.57c11.43-1.28,19.66-11.58,18.38-23.01L1457.94,180.05z"/>
</svg>
