<?xml version="1.0" encoding="utf-8"?>
<!-- Generator: Adobe Illustrator 25.2.0, SVG Export Plug-In . SVG Version: 6.00 Build 0)  -->
<svg version="1.1" id="Layer_1" xmlns="http://www.w3.org/2000/svg" xmlns:xlink="http://www.w3.org/1999/xlink" x="0px" y="0px"
	 viewBox="0 0 1080 1080" style="enable-background:new 0 0 1080 1080;" xml:space="preserve">
<style type="text/css">
	.st0{fill:#B8F2E6;}
	.st1{fill:#6CE6CE;}
</style>
<rect class="st0" width="1080" height="1080"/>
<g>
	<path class="st1" d="M-27.51,234.15c2.9,10.48,12.58,59.84,47.2,71.14s73.56-2.15,101.4-25.64c27.84-23.48,46.63-55.71,64.19-87.62
		s34.83-64.7,60.59-90.44c21.72-21.7,48.7-37.56,70.44-59.24s38.4-52.5,31.27-82.36c-8.93-37.36-49.88-56.93-87.25-65.78
		c-53.41-12.65-109.45-14.05-163.42-4.09c-28.37,5.24-56.78,13.88-79.97,31.04C-36.3-39.46-49.9,34.47-47.76,100.64
		C-46.3,145.73-30.41,223.68-27.51,234.15z"/>
</g>
<g>
	<path class="st1" d="M315.71,193.93c-16.97,7.31-30.53,30.28-35.58,51.36c-4.72,19.69-6.34,41.46,3.31,59.27
		c10.17,18.78,30.87,29.4,51.37,35.38c37.03,10.79,77.1,9.89,114.18-0.71c19.44-5.56,38.55-13.99,53.15-27.98
		c20-19.16,29.51-46.51,38.26-72.79c3.71-11.14,7.45-22.78,5.84-34.41c-1.55-11.13-7.83-20.96-14.14-30.26
		c-12.96-19.09-27.61-38.39-48.53-48.11c-33.45-15.53-74.48-1.71-101.82,23.05c-12.05,10.91-22.32,23.82-35.42,33.45
		C333.22,191.8,332.68,186.63,315.71,193.93z"/>
</g>
<g>
	<path class="st1" d="M532.43-85.26c-39.54,28.02-39.49,96.55-14.88,132.18c20.04,29.02,57.13,39.56,87.48,57.53
		c37.68,22.31,68.13,62.34,66.15,106.09c-0.85,18.83-6.1,41.59,8.52,53.49c5.08,4.13,11.67,5.87,18.12,6.96
		c63.41,10.64,130.09-41.8,134.7-105.93c3.5-48.68-22.44-103.15,5.29-143.32c20.87-30.23,67.22-41.76,75.41-77.57
		c6.76-29.53-17.95-57.21-44.32-72.11c-51.27-28.96-114.05-31.76-171.72-19.87S571.97-113.28,532.43-85.26z"/>
</g>
<g>
	<path class="st1" d="M158.01,373.5c29.34-15.6,70.65-7.57,91.35,19.21c11.57,14.97,17.43,34.65,32.42,46.2
		c32.86,25.3,90.83-1.48,116.89,30.78c23.74,29.39-6.1,72.43-1.81,109.97c2.41,21.11,15.96,40.75,13.46,61.84
		c-3.97,33.39-47.04,49.04-79.22,39.31s-56.42-35.48-82.38-56.85c-11.35-9.34-23.65-18.17-37.88-21.84
		c-21.69-5.6-44.41,1.48-66.8,2.32c-28.86,1.08-58.33-8.94-79.29-28.8s-32.66-49.64-29-78.28c3.84-30.11,23.67-56.38,48.13-74.36
		S128.67,389.1,158.01,373.5z"/>
</g>
<g>
	<path class="st1" d="M580.24,419.15c-8.88-7.65-21.68-8.67-31.68-2.56c-21.87,13.36-42.31,29.29-55.64,50.93
		c-16.38,26.61-19.16,63.83,1.04,87.68c14.04,16.58,36.12,23.93,52.64,38.05c26.53,22.68,35.39,63.65,20.62,95.27
		c-8.51,18.21-24.34,37.14-11.18,56.14c2.65,3.83,6.21,6.95,10.12,9.48c47.41,30.7,114.42,25.59,157.16-10.98
		c40.8-34.91,56.71-96.1,38.07-146.45c-16.84-45.5-56.73-77.82-94.88-107.8c-22.05-17.33-44.1-34.66-66.14-51.99
		C592.06,430.39,586.53,424.57,580.24,419.15z"/>
</g>
<g>
	<path class="st1" d="M807.79,321.82c29.82-18.08,65.91-43.17,85.24-76.96c12.9-22.57,20.88-47.59,32.48-70.86
		s27.9-45.65,51.5-56.55s55.55-6.7,70.13,14.82c12.6,18.61,9.23,43.47,3.61,65.23c-8.98,34.78-22.46,68.42-28.93,103.75
		s-5.23,73.85,13.55,104.48c13.98,22.8,36.18,39.04,55.36,57.68c19.18,18.63,36.48,42.49,35.68,69.22
		c-0.59,19.62-11.01,37.76-24.08,52.4c-46,51.54-129.69,64.31-188.97,28.85c-16.34-9.78-31.83-24.63-33.53-43.6
		c-2.75-30.69,31.01-61.08,16.52-88.27c-8.19-15.37-27.71-19.88-44.88-22.77c-41.87-7.04-84.19-14.11-123.35-30.53
		c-16.37-6.87-33.65-17.24-38-34.45c-3.57-14.13,2.88-29.09,12.19-40.31C727.46,323.61,777.97,339.9,807.79,321.82z"/>
</g>
<g>
	<path class="st1" d="M123.2,691.35c-22.57,3.36-44.19,28.4-53.43,49.26c-9.24,20.86-13.02,43.78-21.86,64.81
		c-9.52,22.65-25.2,45.22-20.81,69.39c2.89,15.89,14.45,29.2,28.29,37.52s29.83,12.28,45.71,15.22c27.36,5.07,55.93,7.41,82.77,0.06
		s51.83-25.79,61.18-52.01c7.98-22.39,3.88-47.03,5.37-70.75c0.83-13.24,3.42-26.65,0.8-39.66c-2.48-12.34-9.49-23.32-17.49-33.04
		C207.18,699.85,162.76,677.83,123.2,691.35z"/>
</g>
<g>
	<path class="st1" d="M437.05,762.16c-19.08-9.38-42.79-8.62-61.23,1.96s-31.06,30.67-32.6,51.87
		c-2.16,29.92,16.25,59.4,10.16,88.77c-7.02,33.86-45.22,60.13-38.33,94.02c2.44,12.02,10.54,22.21,19.93,30.1
		c22.42,18.83,52.33,26.44,81.53,28.45c31.4,2.15,63.68-1.73,92.18-15.09s52.9-36.84,63.77-66.37c4.11-11.16,6.26-23.45,3.39-34.99
		c-7.65-30.71-45.48-43.35-61.28-70.77c-7.98-13.84-9.65-30.29-14.33-45.56C490.05,791.28,469.23,775.37,437.05,762.16z"/>
</g>
<g>
	<path class="st1" d="M879.14,707.92c-30.28,12.84-57.65,31.67-77.14,61.41c-19.48,29.74-37.52,63.48-69.55,78.89
		c-21.09,10.14-47.33,11.76-63.13,29.03c-20.84,22.78-11.86,59.36,2.44,86.73c19.08,36.51,49.45,71.48,90.18,77.66
		c53.54,8.12,99.52-34.77,149.02-56.74c44.86-19.91,95.49-22.9,141.44-40.13c45.95-17.23,90.32-57.21,86.88-106.16
		c-2.37-33.67-26.61-61.54-51.91-83.88c-28.62-25.28-60.96-47.45-97.61-58.16C953.11,685.85,909.43,695.09,879.14,707.92z"/>
</g>
<g>
	<path class="st1" d="M-14.91,986.26c46.12-13.67,172.74-1.36,241.59,47.83c8.82,6.3,17.66,13.55,21.71,23.61
		c5.3,13.16,0.98,28.79-8.04,39.75c-9.02,10.95-22.04,17.88-35.33,22.83c-31.2,11.62-65,13.75-98.24,15.65
		c-46.31,2.65-93.31,5.02-138.62-4.91c-9.56-2.09-19.93-5.4-24.93-13.81c-2.91-4.89-3.5-10.78-3.85-16.46
		c-1.61-26.68,0.93-53.61,7.48-79.53C-48.71,1003.73-34.49,992.06-14.91,986.26z"/>
</g>
</svg>
