<?xml version="1.0" encoding="utf-8"?>
<!-- Generator: Adobe Illustrator 25.2.0, SVG Export Plug-In . SVG Version: 6.00 Build 0)  -->
<svg version="1.1" id="Layer_1" xmlns="http://www.w3.org/2000/svg" xmlns:xlink="http://www.w3.org/1999/xlink" x="0px" y="0px"
	 viewBox="0 0 1080 1080" style="enable-background:new 0 0 1080 1080;" xml:space="preserve">
<style type="text/css">
	.st0{fill:#B8F2E6;}
	.st1{fill:#6CE6CE;}
</style>
<rect class="st0" width="1080" height="1080"/>
<g>
	<path class="st1" d="M204.83,238.31c-24.21-3.86-23.4-8.97-47.61-12.83c-3.94-0.63-8.48,2.65-11.24,5.55
		c-16.9,17.76-16.23,18.4-33.13,36.16c-6.93,7.28-19.66,3-21.22-6.94c-3.81-24.22-4.1-24.17-7.91-48.39
		c-0.62-3.95-4.11-4.82-7.71-6.55c-22.11-10.59-22.59-9.58-44.7-20.17c-9.07-4.34-8.77-23.22,0.19-27.78
		c21.85-11.11,24.46-5.98,46.31-17.09c3.56-1.81,7.18-7.58,7.71-11.54c3.24-24.3-0.24-24.76,3-49.07
		c1.33-9.97,16.01-15.52,23.12-8.4c17.32,17.35,15.6,19.07,32.92,36.42c2.82,2.83,6.95,3.55,10.87,2.82
		c24.11-4.43,23.77-6.29,47.88-10.72c9.89-1.82,18.04,10.76,13.47,19.72c-11.15,21.83-13.04,20.87-24.19,42.7
		c-1.82,3.56,3.07,7.09,4.97,10.61c11.66,21.56,8.64,23.2,20.31,44.76C222.65,226.41,214.76,239.89,204.83,238.31z"/>
</g>
<g>
	<path class="st1" d="M393.52,131.08c1.96,16.59-10.26,33.65-26.6,37.12c16.89-2.87,34.78,10.49,36.82,27.5
		c1.34-13.66,8.59-26.64,19.53-34.93c-15.93,2.07-31.85-12.68-30.99-28.72"/>
</g>
<g>
	<path class="st1" d="M877.2,129.47c17.38,26.37,11.18,65.57-13.5,85.29c26.11-19.17,67.67-11.75,85.54,15.27
		c-9.32-24.22-8.06-52.31,3.4-75.59c-25.17,17.01-64.58,5.57-76.73-22.27"/>
</g>
<g>
	<path class="st1" d="M498.29,433.68c-8.19-6.01-7.33-7.19-15.52-13.19c-1.33-0.98-4.36-1.41-5.92-0.87
		c-9.59,3.34-9.27,4.28-18.86,7.63c-3.94,1.37-7.72-2.04-6.42-5.99c3.18-9.65,2.45-9.89,5.63-19.54c0.52-1.57,0.97-2.93-0.03-4.25
		c-6.14-8.09-5.33-8.71-11.47-16.8c-2.52-3.32-0.84-8.56,3.33-8.54c10.16,0.05,10.15,2.58,20.31,2.63c1.66,0.01,1.92-3.23,2.87-4.59
		c5.8-8.34,6.58-7.8,12.37-16.15c2.38-3.42,8.38-2.35,9.65,1.62c3.1,9.68,3.92,9.41,7.02,19.09c0.5,1.58,1.11,1.79,2.7,2.27
		c9.73,2.94,9.04,5.21,18.77,8.14c3.99,1.2,6.08,6.83,2.7,9.27c-8.25,5.93-8.63,5.4-16.88,11.34c-1.34,0.97-1.8,1.75-1.77,3.41
		c0.21,10.16-1.25,10.19-1.04,20.35C505.81,433.66,501.65,436.15,498.29,433.68z"/>
</g>
<g>
	<path class="st1" d="M763.39,325.84c1.96,16.59-10.26,33.65-26.6,37.12c16.89-2.87,34.78,10.49,36.82,27.5
		c1.34-13.66,8.59-26.64,19.53-34.93c-15.93,2.07-31.85-12.68-30.99-28.72"/>
</g>
<path class="st1" d="M976.79,326.19c9.43-23.63,36.18-35.16,59.82-25.85c-6.41-8.47-15.41-15.16-26.44-18.73
	c-25.31-8.19-53.22,3.66-64.88,27.57c-13.9,28.5-0.49,62.25,28.41,73.79c9.43,3.76,19.3,4.67,28.64,3.14
	C978.81,376.58,967.37,349.81,976.79,326.19z"/>
<path class="st1" d="M179.58,505.27c-21.71-11.68-29.88-38.7-18.31-60.44c-8.86,5.24-16.29,13.17-20.94,23.39
	c-10.67,23.47-2.33,51.64,19.41,65.5c25.91,16.51,59.88,7.32,74.16-19.24c4.66-8.67,6.62-18.07,6.17-27.23
	C228.3,508.87,201.27,516.94,179.58,505.27z"/>
<g>
	<path class="st1" d="M314.97,682.61c1.96,16.59-10.26,33.65-26.6,37.12c16.89-2.87,34.78,10.49,36.82,27.5
		c1.34-13.66,8.59-26.64,19.53-34.93c-15.93,2.07-31.85-12.68-30.99-28.72"/>
</g>
<path class="st1" d="M631.66,590.99c0-51.27,41.45-92.85,92.67-93.07c-16.83-10.15-36.63-15.88-57.79-15.55
	c-58.43,0.92-106.06,48.66-106.85,107.09c-0.82,60.67,48.11,110.12,108.6,110.12c20.47,0,39.62-5.67,55.96-15.52
	C673.07,683.79,631.66,642.23,631.66,590.99z"/>
<g>
	<path class="st1" d="M884.5,677.7c1.96,16.59-10.26,33.65-26.6,37.12c16.89-2.87,34.78,10.49,36.82,27.5
		c1.34-13.66,8.59-26.64,19.53-34.93c-15.93,2.07-31.85-12.68-30.99-28.72"/>
</g>
<g>
	<path class="st1" d="M179.71,1009.47c-7.97-6.3-9.15-4.81-17.12-11.11c-1.3-1.03-2.2-3.07-3.78-2.58
		c-9.71,2.99-9.89,2.41-19.6,5.41c-3.98,1.23-5.85-1.02-4.4-4.93c3.53-9.53,2.24-10,5.77-19.53c0.57-1.55,0.17-3.36-0.78-4.71
		c-5.85-8.31-6.43-7.9-12.28-16.2c-2.4-3.41,0.76-9.25,4.93-9.08c10.15,0.41,10.05,2.8,20.21,3.22c1.65,0.07,3.33-2.31,4.32-3.63
		c6.09-8.13,5.12-8.86,11.22-16.99c2.5-3.33,7.45-1.3,8.57,2.71c2.75,9.78,2.85,9.75,5.6,19.53c0.45,1.59,2.69,2.81,4.26,3.34
		c9.61,3.28,9.49,3.65,19.1,6.93c3.94,1.35,4.34,5.25,0.88,7.57c-8.45,5.63-8.86,5.03-17.32,10.66c-1.38,0.92-0.2,3.83-0.22,5.49
		c-0.15,10.16-2.06,10.13-2.21,20.29C186.79,1010.02,182.98,1012.06,179.71,1009.47z"/>
</g>
<path class="st1" d="M462.8,959.69c14.84-19.68,42.79-23.65,62.52-8.91c-3.83-9.55-10.54-18.11-19.94-24.25
	c-21.58-14.12-50.69-10.16-67.69,9.23c-20.26,23.1-16.34,58.07,7.74,76.23c7.86,5.93,16.85,9.29,25.98,10.24
	C451.84,1007.31,447.97,979.36,462.8,959.69z"/>
<g>
	<path class="st1" d="M882.44,984c-7.97-6.3-8.9-5.12-16.87-11.42c-1.3-1.03-2.91-2.71-4.49-2.23c-9.71,2.99-9.88,2.45-19.59,5.44
		c-3.98,1.23-6.74-1.04-5.29-4.95c3.53-9.53,3.64-9.49,7.17-19.01c0.57-1.55-0.99-2.97-1.94-4.32c-5.85-8.31-5.81-8.33-11.66-16.64
		c-2.4-3.41,0.9-9.09,5.06-8.92c10.15,0.41,10.11,1.38,20.26,1.79c1.65,0.07,3.54-0.95,4.53-2.27c6.09-8.13,5.02-8.93,11.12-17.06
		c2.5-3.33,8.39-1.73,9.52,2.28c2.75,9.78,2.11,9.96,4.86,19.74c0.45,1.59,2.85,1.38,4.42,1.91c9.61,3.28,8.77,5.74,18.39,9.03
		c3.94,1.35,5.61,6.31,2.14,8.62c-8.45,5.63-9.5,4.06-17.96,9.7c-1.38,0.92-2.4,3.16-2.42,4.81c-0.15,10.16,0.82,10.17,0.67,20.33
		C890.28,985,885.71,986.59,882.44,984z"/>
</g>
</svg>
