<?xml version="1.0" encoding="utf-8"?>
<!-- Generator: Adobe Illustrator 25.2.0, SVG Export Plug-In . SVG Version: 6.00 Build 0)  -->
<svg version="1.1" id="Layer_1" xmlns="http://www.w3.org/2000/svg" xmlns:xlink="http://www.w3.org/1999/xlink" x="0px" y="0px"
	 viewBox="0 0 1080 1080" style="enable-background:new 0 0 1080 1080;" xml:space="preserve">
<style type="text/css">
	.st0{fill:#B8F2E6;}
	.st1{fill:#6CE6CE;}
</style>
<rect class="st0" width="1080" height="1080"/>
<path class="st1" d="M158.46,231.43L-4.53,158.44c-21.08-9.44-30.52-34.18-21.08-55.26L47.38-59.81
	c9.44-21.08,34.18-30.52,55.26-21.08L265.64-7.9c21.08,9.44,30.52,34.18,21.08,55.26l-72.99,162.99
	C204.29,231.44,179.54,240.87,158.46,231.43z"/>
<circle class="st1" cx="338.91" cy="182.11" r="99.7"/>
<path class="st1" d="M561.02-64.72L434.13,27.47c-18.53,13.46-26.28,37.33-19.21,59.11l48.47,149.17
	c7.08,21.78,27.38,36.53,50.28,36.53h156.84c22.9,0,43.2-14.75,50.28-36.53l48.47-149.17c7.08-21.78-0.68-45.65-19.21-59.11
	L623.17-64.72C604.64-78.18,579.55-78.18,561.02-64.72z"/>
<path class="st1" d="M949.63,252.93l-119.62,36.65c-15.47,4.74-31.86-3.96-36.6-19.43l-36.65-119.62
	c-4.74-15.47,3.96-31.86,19.43-36.6l119.62-36.65c15.47-4.74,31.86,3.96,36.6,19.43l36.65,119.62
	C973.8,231.81,965.1,248.19,949.63,252.93z"/>
<path class="st1" d="M1075.01,59.31l-70.37-6.03c-10.28-0.88-19.95,4.96-23.96,14.46l-27.48,65.06c-4.01,9.5-1.45,20.5,6.34,27.26
	l53.38,46.24c7.8,6.75,19.05,7.72,27.88,2.39l60.47-36.48c8.83-5.33,13.23-15.74,10.89-25.78l-16.01-68.78
	C1093.83,67.59,1085.29,60.19,1075.01,59.31z"/>
<circle class="st1" cx="38.47" cy="283.14" r="99.7"/>
<path class="st1" d="M345.19,376l-21.18-77.31c-3.23-11.8-12.52-20.98-24.35-24.08l-77.54-20.31c-11.84-3.1-24.43,0.35-33.03,9.05
	l-56.36,57c-8.6,8.7-11.91,21.33-8.68,33.13l21.18,77.31c3.23,11.8,12.52,20.98,24.35,24.08l77.54,20.31
	c11.84,3.1,24.43-0.35,33.03-9.05l56.36-57C345.12,400.43,348.43,387.8,345.19,376z"/>
<path class="st1" d="M530.46,273.32l-146.64,22.1c-37.04,5.58-54.14,49.16-30.79,78.45l92.45,115.94
	c23.35,29.28,69.65,22.31,83.33-12.56l54.18-138.04C596.69,304.35,567.5,267.74,530.46,273.32z"/>
<circle class="st1" cx="722" cy="431.06" r="164.56"/>
<path class="st1" d="M977.02,236.39l-82.34,123.33c-20.8,31.15-0.07,73.13,37.3,75.57l147.98,9.64
	c37.38,2.44,63.37-36.5,46.79-70.09l-65.64-132.97C1044.54,208.28,997.82,205.24,977.02,236.39z"/>
<path class="st1" d="M222,487.8L58.55,393.44c-41.28-23.84-92.89,5.96-92.89,53.63l0,188.73c0,47.67,51.61,77.47,92.89,53.63
	L222,595.06C263.28,571.23,263.28,511.64,222,487.8z"/>
<path class="st1" d="M442.98,626.18l-119.62,36.65c-15.47,4.74-31.86-3.96-36.6-19.43l-36.65-119.62
	c-4.74-15.47,3.96-31.86,19.43-36.6l119.62-36.65c15.47-4.74,31.86,3.96,36.6,19.43l36.65,119.62
	C467.15,605.06,458.45,621.44,442.98,626.18z"/>
<path class="st1" d="M676.37,672.55l-21.18-77.31c-3.23-11.8-12.52-20.98-24.35-24.08l-77.54-20.31
	c-11.84-3.1-24.43,0.35-33.03,9.05l-56.36,57c-8.6,8.7-11.91,21.33-8.68,33.13l21.18,77.31c3.23,11.8,12.52,20.98,24.35,24.08
	l77.54,20.31c11.84,3.1,24.43-0.35,33.03-9.05l56.36-57C676.3,696.98,679.61,684.35,676.37,672.55z"/>
<path class="st1" d="M865.97,639.13l-146.64,22.1c-37.04,5.58-54.14,49.16-30.79,78.45L781,855.62
	c23.35,29.28,69.65,22.31,83.33-12.56l54.18-138.04C932.2,670.16,903.01,633.55,865.97,639.13z"/>
<path class="st1" d="M956.24,446.29l-79.22,57.56c-11.57,8.41-16.41,23.3-11.99,36.91l30.26,93.13
	c4.42,13.6,17.09,22.81,31.39,22.81h97.92c14.3,0,26.97-9.21,31.39-22.81l30.26-93.13c4.42-13.6-0.42-28.5-11.99-36.91l-79.22-57.56
	C983.47,437.89,967.81,437.89,956.24,446.29z"/>
<circle class="st1" cx="213.36" cy="716.75" r="99.7"/>
<path class="st1" d="M132.73,991.2l-115.03-49.2c-14.88-6.36-21.78-23.58-15.42-38.46l49.2-115.03
	c6.36-14.88,23.58-21.78,38.46-15.42l115.03,49.2c14.88,6.36,21.78,23.58,15.42,38.46l-49.2,115.03
	C164.83,990.66,147.61,997.56,132.73,991.2z"/>
<circle class="st1" cx="178.77" cy="1089.17" r="99.7"/>
<path class="st1" d="M598.03,932.12l-36.04-131.54c-5.5-20.08-21.3-35.7-41.44-40.97l-131.94-34.55c-20.14-5.27-41.56,0.6-56.2,15.4
	l-95.89,96.98c-14.64,14.8-20.27,36.29-14.76,56.37l36.04,131.54c5.5,20.08,21.3,35.7,41.44,40.97l131.94,34.55
	c20.14,5.27,41.56-0.6,56.2-15.4l95.89-96.98C597.9,973.69,603.53,952.2,598.03,932.12z"/>
<path class="st1" d="M732.32,1043.15l-115.03-49.2c-14.88-6.36-21.78-23.58-15.42-38.46l49.2-115.03
	c6.36-14.88,23.58-21.78,38.46-15.42l115.03,49.2c14.88,6.36,21.78,23.58,15.42,38.46l-49.2,115.03
	C764.42,1042.61,747.2,1049.51,732.32,1043.15z"/>
<circle class="st1" cx="886.54" cy="1013.3" r="99.7"/>
<path class="st1" d="M1085.85,896.75L966.24,933.4c-15.47,4.74-31.86-3.96-36.6-19.43l-36.65-119.62
	c-4.74-15.47,3.96-31.86,19.43-36.6l119.62-36.65c15.47-4.74,31.86,3.96,36.6,19.43l36.65,119.62
	C1110.03,875.63,1101.33,892.01,1085.85,896.75z"/>
<path class="st1" d="M1105.32,925.14l-70.37-6.03c-10.28-0.88-19.95,4.96-23.96,14.46l-27.48,65.06c-4.01,9.5-1.45,20.5,6.34,27.26
	l53.38,46.24c7.8,6.75,19.05,7.72,27.88,2.39l60.47-36.48c8.83-5.33,13.23-15.74,10.89-25.78l-16.01-68.78
	C1124.13,933.41,1115.59,926.02,1105.32,925.14z"/>
</svg>
