<?xml version="1.0" encoding="utf-8"?>
<!-- Generator: Adobe Illustrator 25.2.0, SVG Export Plug-In . SVG Version: 6.00 Build 0)  -->
<svg version="1.1" id="Layer_1" xmlns="http://www.w3.org/2000/svg" xmlns:xlink="http://www.w3.org/1999/xlink" x="0px" y="0px"
	 viewBox="0 0 1080 1080" style="enable-background:new 0 0 1080 1080;" xml:space="preserve">
<style type="text/css">
	.st0{fill:#B8F2E6;}
	.st1{opacity:0.4;}
	.st2{fill:#6EE4C4;}
	.st3{fill:#4DDEC0;}
	.st4{fill:#12D0A5;}
	.st5{fill:#009E80;}
</style>
<rect class="st0" width="1080" height="1080"/>
<g class="st1">
	<path class="st2" d="M-146.74,337.01c-53.81,161.88-12.8,349.98,66.82,507.35c57.9,114.44,135.41,220.42,236.17,299
		s225.96,128.4,353.29,126.36c62.52-1.01,124.35-14.26,184.09-32.89c156.7-48.87,303.4-137.14,408.79-263.93
		c105.4-126.79,166.84-293.52,153.81-458.48c-9.19-116.3-53.86-226.94-108.16-329.95c-32.01-60.72-67.98-120.13-115.64-169.31
		c-44.72-46.14-98.88-82.29-156.37-110.57c-187.99-92.47-415.55-99-608.44-17.45S-80.24,136.94-146.74,337.01z"/>
</g>
<g class="st1">
	<path class="st3" d="M102.46,744.3c56.8,139.69,185.34,247.3,331.88,277.87c132.2,27.58,273.28-6.13,387.1-79.37
		c60.46-38.91,114.39-89.03,153.83-149.47c102.94-157.79,91.78-379.03-16.58-533.07c-48.75-69.3-115.09-125.9-190.96-162.79
		c-135.3-65.79-300.42-65.46-435.46,0.88S95.12,295.6,62.99,443.64c-9.74,44.84-13.33,91.62-4.61,136.68
		C70.03,640.53,84.92,690.57,102.46,744.3z"/>
</g>
<g class="st1">
	<path class="st4" d="M250.14,436.45c-11.3,26.92-10.99,54.48-10.39,83.43c1.89,90.39,32.26,181.82,95.21,246.15
		s155.93,99.23,244.6,86.19c22.96-3.38,45.36-9.76,67.67-16.19c29.31-8.44,59.2-17.26,84.18-34.9
		c16.67-11.78,30.56-27.09,43.67-42.8c30.93-37.07,58.56-77.58,75.99-122.73c17.43-45.15,24.21-95.38,13.24-142.55
		c-6.25-26.89-18.04-52.16-31.26-76.35c-46.17-84.55-117.33-162.65-210.77-183.39c-23.78-5.28-48.23-6.66-72.57-7.61
		c-20.01-0.78-40.12-1.26-60,1.16c-54.69,6.67-105.19,35.42-144.98,73.85S275.06,386.88,250.14,436.45L250.14,436.45z"/>
</g>
<g class="st1">
	<path class="st5" d="M455.46,418.48c-43.74,25.13-59.08,77.4-56.39,128.11c2.69,50.71,33.33,98.46,76.92,123.86
		c45.58,26.56,106.37,27.88,149.58-2.44c10.47-7.35,19.74-16.3,28.69-25.47c11.35-11.64,22.34-23.83,30.7-37.82
		c34.62-57.89,13.82-140.12-39.87-180.57C591.39,383.69,513.24,384.24,455.46,418.48z"/>
</g>
</svg>
