<?xml version="1.0" encoding="utf-8"?>
<!-- Generator: Adobe Illustrator 25.2.0, SVG Export Plug-In . SVG Version: 6.00 Build 0)  -->
<svg version="1.1" id="Layer_1" xmlns="http://www.w3.org/2000/svg" xmlns:xlink="http://www.w3.org/1999/xlink" x="0px" y="0px"
	 viewBox="0 0 1080 1080" style="enable-background:new 0 0 1080 1080;" xml:space="preserve">
<style type="text/css">
	.st0{fill:#B8F2E6;}
	.st1{fill:#6CE6CE;}
</style>
<rect class="st0" width="1080" height="1080"/>
<path class="st1" d="M414.95,534.93L52.24,646.06c-46.91,14.37-96.59-12.01-110.97-58.92l-111.12-362.71
	c-14.37-46.91,12.01-96.59,58.92-110.97L251.77,2.34c46.91-14.37,96.59,12.01,110.97,58.92l111.12,362.71
	C488.24,470.88,461.86,520.56,414.95,534.93z"/>
<circle class="st1" cx="913.61" cy="212.58" r="345.91"/>
<path class="st1" d="M534.65,654.72l-358.36,206.9c-90.51,52.26-90.51,182.91,0,235.16l358.36,206.9
	c90.51,52.26,203.66-13.06,203.66-117.58l0-413.8C738.31,667.79,625.16,602.46,534.65,654.72z"/>
</svg>
