<?xml version="1.0" encoding="utf-8"?>
<!-- Generator: Adobe Illustrator 25.2.0, SVG Export Plug-In . SVG Version: 6.00 Build 0)  -->
<svg version="1.1" id="Layer_1" xmlns="http://www.w3.org/2000/svg" xmlns:xlink="http://www.w3.org/1999/xlink" x="0px" y="0px"
	 viewBox="0 0 1080 1080" style="enable-background:new 0 0 1080 1080;" xml:space="preserve">
<style type="text/css">
	.st0{fill:#B8F2E6;}
	.st1{fill:#6CE6CE;}
</style>
<rect x="0" y="0" class="st0" width="1080" height="1080"/>
<g>
	<path class="st1" d="M-23.74,166.39c41.54,48.3,110.86,65.55,172.31,48.76s110.79-72.27,119.07-135.44
		c8.28-63.17-25.73-130.07-82.21-159.54c-28-14.61-59.98-20.27-91.56-20.74c-37.39-0.56-76.29,6.53-106.37,28.74
		C-47.97-45.64-66.84-0.56-66.78,43.53C-66.72,87.62-49.33,130.48-23.74,166.39z"/>
</g>
<g>
	<path class="st1" d="M368.15,194.01c12.93,10.66,27.04,20.66,43.31,24.69c31.93,7.9,67.88-11.54,79.99-42.12
		s-0.02-68.5-26.86-87.51c-26.84-19.01-65.65-18.29-92.6,0.56c-13.99,9.78-25.02,24.26-28.94,40.87
		c-3.92,16.61-0.14,35.26,11.32,47.91L368.15,194.01z"/>
</g>
<g>
	<path class="st1" d="M578.54,83.27c7.08,49.51,44.64,91.45,90.32,111.81c45.68,20.36,98.21,21.22,147.18,11.08
		c28.2-5.84,56.78-15.88,76.84-36.55c25.47-26.25,32.87-64.83,36.53-101.23c3.54-35.29,4.33-72.52-11.19-104.41
		c-24.51-50.35-86.31-75.04-141.88-68.08c-55.57,6.96-104.82,40.13-144.17,79.98C598.37,10.1,570.22,35.89,578.54,83.27z"/>
</g>
<g>
	<path class="st1" d="M1015.9,70.42c-24.38,14.84-32.88,32.23-31.14,57.02s23.44,46.89,48.26,48.21c6.3,0.34,12.6-0.52,18.8-1.69
		c15.01-2.82,30.09-7.69,41.76-17.54c23.68-20,26.39-60.15,5.62-83.15C1078.41,50.27,1040.28,55.58,1015.9,70.42z"/>
</g>
<g>
	<path class="st1" d="M67.01,318.43c13.81,6.05,23.33,8.93,31.16-3.95s1.85-32.64-12.48-37.31c-10.54-3.43-23.23,2.17-27.8,12.27
		S57.48,312.77,67.01,318.43z"/>
</g>
<g>
	<path class="st1" d="M133.53,389.35c-2.37,31.37,24.35,57.66,52.53,71.64c27.61,13.7,59.63,20.34,89.64,13.31
		c30.01-7.03,57.24-29.29,65.38-59.02c4.71-17.18,2.98-35.56-1.4-52.83c-2.59-10.21-6.17-20.35-12.32-28.91
		c-12.83-17.84-35.2-26.47-57-29.29c-29.44-3.8-60.34,1.62-85.69,17.07C159.32,336.77,139.32,360.23,133.53,389.35z"/>
</g>
<g>
	<path class="st1" d="M403.44,304.47c-5.73-2.92-17.33-6.29-25.27-2.69c-7.95,3.59-12.73,13.37-10.1,21.69
		c2.24,7.06,8.88,11.91,15.84,14.43c6.46,2.35,13.8,3.07,20.15,0.44s11.33-9.15,10.77-16C414.26,315.48,409.18,307.39,403.44,304.47
		z"/>
</g>
<g>
	<path class="st1" d="M608.6,239.04c-32.97-9.19-73.56,3.48-94.57,31.44s-19.2,71.12,5.11,96.25
		c14.64,15.13,35.14,23.06,55.45,28.58c15.27,4.15,31.61,7.17,46.75,2.58c9.39-2.85,17.7-8.47,25.2-14.8
		c10.19-8.6,19.25-18.77,25.32-30.64c11.63-22.75,11.12-51.29-1.33-73.61C658.08,256.53,641.57,248.24,608.6,239.04z"/>
</g>
<g>
	<path class="st1" d="M881.87,240.89c-45.12,9.5-63.45,26.09-81.24,42.8s-29.93,38.54-39.8,60.87
		c-18.07,40.92-28.7,90.69-5.23,128.77c11.19,18.16,28.89,31.34,47.24,42.22c69.08,40.96,162.45,52.72,227.38,5.47
		c62.65-45.59,80.43-141.76,39.59-207.6C1028.99,247.57,932.75,230.18,881.87,240.89z"/>
</g>
<g>
	<path class="st1" d="M-29.48,699.59c16.75,46.53,80.1,64.12,129.48,66.7c35.93,1.88,73.32-4.26,103.32-24.11
		c30.01-19.85,51.2-55.07,47.97-90.9c-1.92-21.23-11.86-40.87-22.98-59.06c-17.35-28.38-38.97-55.54-68.56-70.73
		c-48.15-24.72-111.19-10.99-149.21,27.53S-40.88,646.69-29.48,699.59z"/>
</g>
<g>
	<path class="st1" d="M310.91,553.43c-6.53,12.64,4.53,25.83,13.33,28.67c8.8,2.84,20.5-2.12,21.32-11.33
		c0.47-5.3-2.62-10.25-6.13-14.24c-3.76-4.29-8.4-8.15-13.97-9.33C319.88,546.02,313.29,548.26,310.91,553.43z"/>
</g>
<g>
	<path class="st1" d="M437.71,445.28c-5.71,7.69-12.04,28.29-0.42,37.77c11.62,9.48,28.18,9.59,43.04,7.56
		c12.42-1.7,25.64-5.15,33.55-14.87c9.52-11.7,7.87-30.27-2.19-41.5c-10.06-11.23-26.82-15.17-41.48-11.64
		C455.56,426.12,443.42,437.58,437.71,445.28z"/>
</g>
<g>
	<path class="st1" d="M327.97,689.91c-0.87,18.06,11.3,52.39,31.52,60.08c20.23,7.7,44.79,4.49,60.94-9.92
		c16.14-14.41,21.89-40.05,11.52-59.04c-8.71-15.96-26.65-25.14-44.62-27.9c-13.04-2-26.92-0.98-38.54,5.27
		C337.16,664.65,328.84,671.86,327.97,689.91z"/>
</g>
<g>
	<path class="st1" d="M561.93,539.41c-35.31,17-81.4,56.73-85.16,104.66s23.83,95.04,63.54,122.14
		c39.71,27.11,89.71,36.05,137.69,33.01c43.27-2.74,88.15-16.08,117.41-48.08c34.88-38.15,40.31-98.49,17.63-144.95
		c-22.68-46.46-70.18-78.4-121.01-87.79C641.18,509.02,597.23,522.41,561.93,539.41z"/>
</g>
<g>
	<path class="st1" d="M902.1,626.33c-12.23,2.34-18.01,18.59-12.57,29.79s18.57,16.99,31.02,17.29c6.66,0.16,13.56-1.06,19.06-4.83
		c10.86-7.43,13.14-24.34,5.37-34.96S913.87,620.45,902.1,626.33z"/>
</g>
<g>
	<path class="st1" d="M1011.18,669.03c-40.31,6.85-71.38,31.58-93.13,59.68c-19.04,24.6-24.35,69.4-11.57,97.76
		c7.71,17.1,24.22,28.63,41.29,36.41c47.53,21.65,105.26,19.39,150.96-5.9c14.82-8.2,28.71-19.02,37.29-33.63
		c7.89-13.43,10.84-29.36,10.45-44.94c-0.83-32.95-16.74-65.22-42.37-85.95C1078.46,671.74,1051.48,662.17,1011.18,669.03z"/>
</g>
<g>
	<path class="st1" d="M51.03,892.34c2.93,23.33,14.78,31.07,26.72,35.49c18.83,6.97,41.99-7.26,45.24-27.07
		c3.25-19.81-13.1-40.27-33.05-42.47S48.1,869.01,51.03,892.34z"/>
</g>
<g>
	<path class="st1" d="M165.29,901.67c-12.49,27.68-12.13,82.52,9.39,117.86s65.47,56.08,106.16,48.55
		c15.54-2.88,30.28-9.49,43.33-18.4c30.14-20.57,51.4-54.28,55.17-90.57c3.77-36.29-10.68-74.4-38.74-97.72
		c-24.08-20.02-56.6-28.44-87.84-26.26c-11.55,0.81-23.12,3.01-33.68,7.76C186.89,857.38,177.78,873.99,165.29,901.67z"/>
</g>
<g>
	<path class="st1" d="M412.68,851.83c-5.02,12.48,1.35,27.56,17.72,33.31c7.14,2.5,18.74,0.39,24.43-4.58
		c6.03-5.27,5.38-14.75,3.53-22.55c-1.97-8.32-5.61-17.42-13.57-20.56c-6.91-2.72-14.97-2.88-20.43,0
		C418.91,840.32,415.84,845.11,412.68,851.83z"/>
</g>
<g>
	<path class="st1" d="M522.41,928.73c-35.65,25.03-56.22,70.03-51.82,113.37c2.14,21.11,10.16,42.11,25.13,57.15
		c10.71,10.76,24.48,18.04,38.74,23.28c49.7,18.26,113.27,8.64,143.26-34.99c10.33-15.03,15.99-32.81,19.41-50.72
		c3.19-16.71,4.52-34.07,0.77-50.66c-8.63-38.11-44.23-66.51-82.65-73.62C576.82,905.42,555.95,908.69,522.41,928.73z"/>
</g>
<g>
	<path class="st1" d="M690.77,883.61c2.59,9.12,22.42,20.13,35.79,16.16c13.28-3.94,20.34-20.99,14.71-33.65
		s-21.87-18.95-34.98-14.5C693.18,856.08,688.19,874.49,690.77,883.61z"/>
</g>
<g>
	<path class="st1" d="M883.68,909c-13.27,1.15-46.95,9.75-64.29,27.5c-17.33,17.75-27.14,41.68-32.31,65.94
		c-6.7,31.44-5.61,66.31,12.22,93.05c15.81,23.7,42.64,37.88,69.93,46.08c40.97,12.31,85.34,13.05,126.71,2.13
		c16.88-4.46,33.72-11.1,46.33-23.18c22.01-21.08,26.97-54.4,25.53-84.84c-1.25-26.37-6.85-53.66-23.26-74.34
		c-17.6-22.18-45.08-33.78-71.78-43.21C940.38,906.69,896.95,907.85,883.68,909z"/>
</g>
</svg>
