<?xml version="1.0" encoding="utf-8"?>
<!-- Generator: Adobe Illustrator 25.2.0, SVG Export Plug-In . SVG Version: 6.00 Build 0)  -->
<svg version="1.1" id="Layer_1" xmlns="http://www.w3.org/2000/svg" xmlns:xlink="http://www.w3.org/1999/xlink" x="0px" y="0px"
	 viewBox="0 0 1080 1080" style="enable-background:new 0 0 1080 1080;" xml:space="preserve">
<style type="text/css">
	.st0{fill:#B8F2E6;}
	.st1{fill:#6CE6CE;}
</style>
<rect class="st0" width="1080" height="1080"/>
<g>
	<path class="st1" d="M-10.44,392.25c18.89,25.32,59.89,22.38,85.15,3.41c25.26-18.98,39.46-48.74,55.54-75.94
		c16.08-27.2,37.38-54.58,68.01-62.34c42.27-10.7,86.62,19.73,129.12,10.04c25.26-5.76,45.51-25.06,59.64-46.77
		c7.58-11.65,13.92-24.61,14.83-38.47c1.73-26.32-15.91-49.64-33.6-69.2c-13.97-15.45-28.93-30.58-47.45-40.12
		s-41.33-12.79-60.19-3.95c-28.66,13.43-43.98,51.68-75.47,54.84c-10.09,1.01-20.1-2-29.83-4.87
		c-33.24-9.79-67.43-18.25-102.07-17.2s-70.17,12.65-93.96,37.85c-32.69,34.63-37.23,88.29-25.66,134.48S-31.37,349.48-10.44,392.25
		"/>
</g>
<g>
	<path class="st1" d="M491.53,129.02c6.41,14.08,16.7,27.87,23.11,41.95c1.96,4.32,7.91,4.73,10.5,0.75
		c22.47-34.49,35.33-76.1,64.28-104.67c2.25-2.22,0.95-6.09-2.17-6.57c-45.1-6.79-90.93-8.68-136.43-5.63
		c-3.02,0.2-4.83,3.5-3.38,6.16C452.55,70.35,484.05,112.58,491.53,129.02z"/>
</g>
<g>
	<path class="st1" d="M659.48-17.19c-12.78,41.78,2.56,75.45,23.63,106c4.28,6.21,9.19,12.21,15.68,16.05
		c6.67,3.95,14.54,5.33,22.27,6.03c32.07,2.88,65.67-5.58,90.43-26.16c24.76-20.58,39.49-53.77,34.8-85.63
		c-6.32-42.94-48.14-76.12-91.52-77.46C711.39-79.72,672.26-58.97,659.48-17.19z"/>
</g>
<g>
	<path class="st1" d="M876.53,165.7c16.82,40.4,33.41,76.24,50.19,115.71c3.03,7.13,12.21,8.93,17.82,3.59
		c21.9-20.9,35.87-49.32,47.98-77.88c3.16-7.46,12.16-10.39,19.1-6.22c38.06,22.89,78.41,41.95,120.26,56.82
		c1.59,0.56,3.31,0.81,4.95,0.46c5.12-1.09,5.48-6.3,5.32-10.58c-2.68-75.16-26.56-149.42-67.97-212.18
		c-5.49-8.33-17.3-9.45-24.27-2.31c-37.12,38.08-71.37,78.95-102.36,122.15c-4.96,6.91-15.04,7.43-20.69,1.07l-30.65-34.53
		c-4.6-5.19-11.87-7.42-18.44-5.21c-7.62,2.56-10.1,7.86-10.65,15.85C866.23,145.56,871.47,154.37,876.53,165.7z"/>
</g>
<g>
	<path class="st1" d="M191.64,391.55c-5.38,22.05,9.62,47.02,31.62,52.62c11.68,2.98,24.19,0.97,35.4-3.45
		c7.75-3.05,15.42-7.6,19.42-14.9c3.01-5.48,3.63-11.92,3.98-18.16c0.59-10.32,0.6-20.88-2.5-30.75
		c-3.09-9.87-9.72-19.06-19.25-23.08c-15.44-6.5-35.27-4.44-49.06,5.08C198.41,367.78,192.87,375.98,191.64,391.55"/>
</g>
<g>
	<path class="st1" d="M219.69,570.78c-7.31,28.44,2.12,60.55,23.65,80.52c32.13,29.8,82.06,29.19,124.68,18.98
		c20.36-4.87,40.41-11.56,58.75-21.65c19.79-10.89,37.23-25.55,54.05-40.63c59.16-53.05,116.24-114.98,192.92-135.8
		c36.03-9.78,74.17-9.66,110.19-19.47c36.02-9.81,72.19-33.52,80.24-69.97c4.08-18.46,0.37-37.83-5.97-55.64
		c-16.36-45.95-50.95-85.31-94.85-106.59s-96.61-23.99-142.13-6.46c-31.43,12.1-58.74,33.1-82.7,56.77
		c-69.26,68.43-113.97,160.67-191.54,219.51c-29.94,22.71-63.8,39.62-97.39,56.47C235.52,553.88,223.62,555.54,219.69,570.78z"/>
</g>
<g>
	<path class="st1" d="M831.07,740.41c21.59,2.27,44.05-6.06,58.93-21.87s21.85-38.72,18.29-60.14
		c-5.47-32.88-33.72-64.75-20.59-95.38c10.3-24.02,40.9-31.51,67.02-30.53c15.89,0.6,33.93,2.45,45.6-8.36
		c13.8-12.79,10.18-35.33,3.59-52.95c-6.59-17.62-15.16-37.02-7.96-54.4c7.11-17.16,27.88-25.27,46.37-23.55
		c18.49,1.73,35.26,11.11,51.41,20.29c13.12,7.46,27.15,15.92,32.77,29.94c5.62,14.01-3.38,34.16-18.44,33.16
		c-5.89-0.39-11.09-3.8-15.99-7.1c-13.75-9.26-27.5-18.52-41.24-27.77c-3.19-2.15-6.88-4.4-10.63-3.52
		c-3.52,0.83-5.86,4.24-6.98,7.69c-4.48,13.75,5.09,27.57,10.61,40.94c15.42,37.29-5.28,85.32-42.98,99.73
		c-18.12,6.93-38.12,6.65-57.48,5.36c-4.36-0.29-9.19-0.49-12.6,2.24c-4.95,3.95-4.08,12.08-0.28,17.14
		c3.8,5.06,9.62,8.11,14.65,11.95c27.16,20.79,27.31,64.01,9.27,93.07c-18.04,29.06-49.11,47.09-79.36,63.05
		c-12.68,6.69-26.03,13.38-40.37,13.63c-14.34,0.25-29.88-7.99-33.19-21.94C796.7,750.84,810.31,738.85,831.07,740.41"/>
</g>
<g>
	<path class="st1" d="M805.67,549.35c6.07,7.17,15.23,3.73,21.97-0.01c6.75-3.74,8.13-14.17,3.04-19.97
		c-5.09-5.8-14.97-6.11-20.87-1.14C803.91,533.21,799.59,542.19,805.67,549.35z"/>
</g>
<g>
	<path class="st1" d="M660.22,562.72c-8.83,5.32-57.98,50.71-83.99,76.65c-1.85,1.85-3.79,3.87-4.26,6.45
		c-0.7,3.84,2.04,7.37,4.6,10.32l70.91,81.54c5.14,5.91,13.75,7.33,20.51,3.38l96.09-56.13c8.68-5.07,11.39-16.45,5.78-24.79
		c-23.6-35.1-51.12-67.56-81.89-96.58c-3.28-3.1-7.24-5.45-11.59-6.63C670.59,555.33,668.87,557.51,660.22,562.72z"/>
</g>
<g>
	<path class="st1" d="M80.44,670.1c1.7,4.74,6.95,7.17,11.65,5.36c17.16-6.59,34.92-11.64,52.98-15.04
		c7.18-1.35,14.88-2.39,21.56,0.57c11.88,5.28,15.23,20.25,17.07,33.12c2.42,16.98,4.84,33.96,7.27,50.94
		c1.27,8.88,2.88,18.57,17.17,20.33c4.92,0.6,9.9-0.11,14.58-1.74c26.51-9.21,53.24-17.8,80.15-25.77c4.5-1.33,9.39-2.64,13.77-0.95
		c4.16,1.6,6.88,5.53,9.25,9.3c19.86,31.64,33.07,67.44,38.51,104.41c1.62,10.97,2.32,23.2-7.63,31.06
		c-8.57,6.76-20.63,6.92-29.92,1.21c-20.53-12.63-23.85-35.94-30.46-56.79c-1.59-5.03-3.57-10.22-7.58-13.65
		c-7.7-6.59-19.32-4.23-29.08-1.5c-28.82,8.05-57.64,16.1-86.46,24.15c-6.28,1.76-13.43,3.41-18.98-0.02
		c-3.57-2.21-5.7-6.11-7.35-9.97c-11.72-27.37-7.02-59.91-21.93-86.17c-1.98-3.49-4.67-6.58-8.04-8.75
		c-14.94-9.61-30.15,4.22-45.57,9.11c-20.33,6.45-43.37-3.99-56.21-21.02C2.31,701.24-1.8,679.03-1.57,657.7
		c0.14-12.75,1.92-26.3,16.82-33.42c11.58-5.54,25.23-4.01,36.03,2.92C67.63,637.69,74.33,653.08,80.44,670.1z"/>
</g>
<g>
	<path class="st1" d="M466.18,887.91c9.68,11.58,19.29,21.87,33.36,25.59c13.42,3.55,28.09,3.75,40.86-1.7
		c8.44-3.6,15.71-9.48,22.17-15.99c14.73-14.85,25.86-33.76,29.17-54.41c3.32-20.65-1.77-43.01-15.62-58.69
		c-9.9-11.2-23.66-18.52-38.08-22.48c-11.55-3.16-24.03-4.25-35.41-0.52c-10.08,3.31-18.59,10.14-26.44,17.28
		c-11.33,10.31-22.1,22.06-26.89,36.61C439.87,842.3,456.5,876.34,466.18,887.91z"/>
</g>
<g>
	<path class="st1" d="M-8.35,972.77c9.4-10.03,26.96-21.05,45.74-32.82c60.32-37.83,138.83-47.76,204.58-20.44
		s115.26,93.36,117.29,164.53c0.21,7.39-0.13,15.09-3.53,21.66c-4.79,9.25-14.67,14.56-24.16,18.84
		c-63.77,28.74-135.46,35.91-205.32,32.35c-26.93-1.37-54.13-4.36-79.35-13.89c-25.22-9.54-48.53-26.25-61.57-49.85
		c-14.82-26.81-14.99-59.15-12.44-89.68C-26.06,991-17.76,982.8-8.35,972.77z"/>
</g>
<g>
	<path class="st1" d="M567.63,994.74c17.69,3.42,34.08-7.9,55.76-19.06c21.68-11.16,40.66-26.8,60.41-41.11
		c25.75-18.65,53.44-35.33,83.92-44.38s64.16-9.97,93.52,2.24c14.64,6.09,27.8,15.22,41.92,22.44
		c54.58,27.9,118.96,25.56,179.27,36.54c12.28,2.24,24.78,5.18,35.12,12.19c17.4,11.79,25.73,32.94,31.04,53.28
		c5.89,22.56,8.97,47.81-2.42,68.15c-13.84,24.72-44.54,34.39-72.74,37.03c-48.21,4.52-99.94-6.55-135.22-39.71
		c-32.12-30.18-51.06-77.87-93.03-91.32c-35.95-11.52-73.67,7.22-108.54,21.7c-59.77,24.82-124.28,38.16-188.99,39.06
		c-13.02,0.18-26.43-0.22-38.38-5.38c-11.95-5.17-22.22-16.16-22.86-29.17c-0.6-12.09,7.25-23.39,17.38-30.02
		C523.27,974.48,549.94,991.32,567.63,994.74z"/>
</g>
</svg>
