<?xml version="1.0" encoding="utf-8"?>
<!-- Generator: Adobe Illustrator 25.2.0, SVG Export Plug-In . SVG Version: 6.00 Build 0)  -->
<svg version="1.1" id="Layer_1" xmlns="http://www.w3.org/2000/svg" xmlns:xlink="http://www.w3.org/1999/xlink" x="0px" y="0px"
	 viewBox="0 0 1080 1080" style="enable-background:new 0 0 1080 1080;" xml:space="preserve">
<style type="text/css">
	.st0{fill:#B8F2E6;}
	.st1{fill:#6CE6CE;}
</style>
<rect class="st0" width="1080" height="1080"/>
<g>
	<path class="st1" d="M-95,362.65c6.3,29.34,34.18,48.87,61.84,60.52c39.67,16.71,84.13,23.36,126.36,15.02
		c42.23-8.34,81.88-32.4,105.64-68.29c23.79-35.94,30.52-80.58,50.82-118.6c27.25-51.03,76.59-86.15,126.02-116.21
		c24.99-15.19,51.38-30.44,67.46-54.86c29.99-45.54,12.78-110.6-26.63-148.29s-95.1-53-149.18-59.93
		c-75.48-9.68-154.01-5.31-224.68,22.92S-90.16-23.01-119.03,47.4c-21.82,53.22-23.88,112.89-15.36,169.77S-113.52,308.19-95,362.65
		"/>
</g>
<g>
	<path class="st1" d="M686.88-18.99c-31.97,38.69-45.75,91.79-36.64,141.15s40.95,94.04,84.62,118.76
		c27.65,15.65,58.99,23.35,88.36,35.49c32.79,13.55,63.65,33.12,86.53,60.24c27.18,32.21,41.82,73.29,67.54,106.68
		s70.67,59.19,109.32,42.39c21.53-9.36,35.98-29.74,48.09-49.85c54.73-90.81,84.73-196.36,85.97-302.38
		c0.31-26.96-1.27-54.35-10.02-79.85c-14.18-41.35-46.65-74.84-84.76-96.25c-38.12-21.41-81.62-31.62-125.08-36.3
		C891.31-90.7,773.3-100.65,686.88-18.99z"/>
</g>
<g>
	<path class="st1" d="M450.87,234.6c-18.54,4.87-32.79,9.71-48.54,29.93c-15.75,20.23-22.24,46.59-21.77,72.22
		c0.27,14.58,2.74,29.36,9.4,42.34c8.04,15.66,21.86,27.9,37.53,35.92c37.85,19.38,87.63,12.96,118.62-16.16
		s40.37-79.15,21.11-117.07C547.97,243.87,492.13,224.31,450.87,234.6z"/>
</g>
<g>
	<path class="st1" d="M690.19,370.82c-8.99,7.83-19.13,17.94-29.1,26.13c-1.58,1.3-3.24,2.77-3.71,4.76c-0.57,2.41,0.74,4.83,2,6.96
		c29.91,50.29,63.83,98.19,101.33,143.1c2.32,2.78,4.87,5.69,8.36,6.64c3.44,0.95,7.08-0.21,10.46-1.35
		c14.48-4.9,31.22-12.26,34.04-27.29c2.14-11.4-4.91-22.29-11.62-31.75c-19.51-27.49-39.01-54.98-58.52-82.47
		c-7.55-10.64-15.1-21.29-22.66-31.93c-4.36-6.15-9.15-12.63-16.24-15.22c-7.08-2.59-16.86,1.02-17.7,8.51"/>
</g>
<g>
	<path class="st1" d="M640.61,494.09c0.27,6.69,24.08,30.42,36.13,45.64c1.98,2.51,4.17,5.15,7.25,6.02
		c4.9,1.39,9.69-2.21,13.55-5.54c38.81-33.47,80.36-63.75,124.12-90.43c3.04-1.85,6.3-3.93,7.54-7.27
		c1.59-4.26-0.66-8.91-2.93-12.84c-9.82-16.99-21.39-32.98-34.45-47.63c-1.48-1.66-3.06-3.36-5.16-4.11
		c-2.98-1.06-6.27,0.05-9.14,1.37c-9.5,4.38-17.66,11.15-25.7,17.84c-30.56,25.42-61.12,50.83-91.68,76.25
		C651.26,480.78,640.34,487.39,640.61,494.09z"/>
</g>
<g>
	<path class="st1" d="M316.32,457.78c9.31,23.34,29.09,41.38,51.4,52.94c22.31,11.56,47.15,17.28,71.89,21.68
		c26.91,4.79,55.97,9.06,75.77,27.91c21.96,20.9,26.73,54.4,45.56,78.16c12.34,15.58,29.91,25.97,44.95,38.95
		c15.05,12.98,28.41,30.81,27.22,50.64c-1.41,23.59-23.07,41.34-45.47,48.91c-39.3,13.28-85.58,3.08-115.64-25.51
		c-31.82-30.25-47.44-79.33-88.24-95.52c-54.02-21.43-113.39,29.45-170.46,18.44c-8.97-1.73-18.02-5.26-23.93-12.23
		c-11.82-13.93-6.58-35.87,4.32-50.54c10.9-14.67,26.4-25.47,36.93-40.41c20.33-28.84,18.82-67.67,33.13-99.92
		c5.45-12.28,14.47-24.43,27.6-27.26S313.5,448.4,316.32,457.78z"/>
</g>
<g>
	<path class="st1" d="M58.41,657.25c2.71,5.73,14.9,6.95,21.32,1.22c6.43-5.73,5.99-17.59-1.19-22.36
		c-7.17-4.76-20.71,0.18-21.78,8.73C56.77,644.83,55.71,651.52,58.41,657.25z"/>
</g>
<g>
	<path class="st1" d="M711.95,656.58c-2.62,6.54-0.91,14.58,4.14,19.5c7.69,7.49,22.53,5.39,27.35-4.2
		c4.81-9.59-3.09-23.11-13.83-23.07C722.57,648.82,716.44,650.03,711.95,656.58z"/>
</g>
<g>
	<path class="st1" d="M941.03,590.14c-1.33,11.23,0.17,20.06,11.25,22.28c7.58,1.52,15.88-3.82,17.63-11.35
		c1.75-7.53-3.34-15.99-10.81-17.97C951.63,581.11,943.23,582.72,941.03,590.14z"/>
</g>
<g>
	<path class="st1" d="M143.03,987.66c-16.72-1.8-16.96,0.44-33.68-1.37c-2.72-0.29-4.55,1.86-6.34,3.94
		c-10.96,12.75-12.08,11.79-23.04,24.54c-4.5,5.23-10.83,2.8-12.25-3.95c-3.45-16.46-6.79-15.76-10.24-32.21
		c-0.56-2.68-1.44-4.3-3.97-5.36c-15.51-6.49-15.6-6.28-31.11-12.77c-6.36-2.66-6.89-13.33-0.91-16.76
		c14.58-8.37,15.63-6.55,30.21-14.91c2.38-1.36,1.29-5.03,1.52-7.76c1.37-16.76,0.8-16.81,2.17-33.56
		c0.56-6.88,10.86-9.34,15.97-4.71c12.47,11.28,14.16,9.41,26.63,20.7c2.03,1.84,3.77,4.36,6.44,3.72
		c16.36-3.87,15.76-6.43,32.12-10.3c6.71-1.59,12.76,7.25,9.94,13.55c-6.88,15.34-5.79,15.83-12.67,31.17
		c-1.12,2.5-1.27,4.5,0.16,6.84c8.74,14.37,6.05,16,14.79,30.37C152.35,984.73,149.88,988.4,143.03,987.66z"/>
</g>
<g>
	<path class="st1" d="M265.75,819.98c-5.25,23.7,2.47,49.99,20.08,66.71c17.61,16.72,44.57,23.04,67.62,15.4
		c23.04-7.64,41.01-29.13,43.93-53.24c2.82-23.31-8.48-47.6-27.72-61.05c-19.24-13.45-45.51-15.82-67.15-6.7
		S273,797.93,265.75,819.98z"/>
</g>
<g>
	<path class="st1" d="M749.72,830c2.29,18.68,53.49,73.73,82.38,109.6c2.04,2.53,4.36,5.23,7.57,5.76c2.72,0.45,5.41-0.81,7.87-2.04
		c40.53-20.24,79.47-43.66,116.35-69.98c3.38-2.41,6.89-5.03,8.5-8.85c2.18-5.15,0.35-11.04-1.64-16.26
		c-16.73-43.79-45.31-82.98-81.89-112.29c-8.13-6.51-13.66-9.1-23.25-5.04C858.71,733.8,747.43,811.32,749.72,830z"/>
</g>
<g>
	<path class="st1" d="M301.93,1097.02c41.44-15.73,73.08-30.52,107.96-63.77c34.88-33.25,65.73-71.37,105.76-98.2
		c40.03-26.83,93.23-40.79,136.65-19.88c43.13,20.78,65.33,69.38,103.42,98.38c33.56,25.55,76.6,33.93,116.86,46.49
		c14.36,4.48,30.26,11.23,35.19,25.44c4.29,12.37-1.87,26.5-11.81,35.02s-22.94,12.46-35.7,15.37
		c-102.36,23.31-209.79-6.93-314,5.74c-84.36,10.26-167.58,48.51-251.14,33.01c-8.65-1.6-17.82-4.16-23.41-10.96
		c-5.87-7.15-6.33-17.43-4.27-26.45C271.53,1119.31,284.85,1103.78,301.93,1097.02z"/>
</g>
</svg>
