<?xml version="1.0" encoding="UTF-8"?>
<!DOCTYPE svg PUBLIC "-//W3C//DTD SVG 1.1//EN" "http://www.w3.org/Graphics/SVG/1.1/DTD/svg11.dtd">
<!-- Creator: CorelDRAW Home & Student X7 -->
<svg xmlns="http://www.w3.org/2000/svg" xml:space="preserve" width="68.3674mm" height="68.3674mm" version="1.1" style="shape-rendering:geometricPrecision; text-rendering:geometricPrecision; image-rendering:optimizeQuality; fill-rule:evenodd; clip-rule:evenodd"
viewBox="0 0 6837 6837"
 xmlns:xlink="http://www.w3.org/1999/xlink">
 <defs>
  <style type="text/css">
   <![CDATA[
    .fil3 {fill:black}
    .fil13 {fill:black}
    .fil10 {fill:#008183}
    .fil8 {fill:#009FA2}
    .fil9 {fill:#59C1C2}
    .fil11 {fill:#62392B}
    .fil6 {fill:#6885C2}
    .fil5 {fill:#8EB6EA}
    .fil12 {fill:#984F46}
    .fil7 {fill:#C9DCF5}
    .fil2 {fill:#EDB9A9}
    .fil4 {fill:#FACA50}
    .fil1 {fill:#FFE1D7}
    .fil14 {fill:white}
    .fil0 {fill:white}
   ]]>
  </style>
 </defs>
 <g id="Layer_x0020_1">
  <metadata id="CorelCorpID_0Corel-Layer"/>
  <rect class="fil0" width="6837" height="6837"/>
  <g id="_357383408">
   <path class="fil1" d="M1208 3572l49 -353c0,0 606,-398 322,-973 -285,-576 1296,-1131 2639,-1131 1343,0 1224,899 1098,1217 -126,317 159,428 271,821 111,393 79,770 -93,1047 -171,278 -674,522 -674,522l-16 44c0,0 -836,245 -1831,269 -996,23 -1361,-225 -1591,-424 -231,-198 -367,-695 -174,-1039z"/>
   <path class="fil2" d="M1208 3572l49 -353c0,0 412,-270 397,-688l0 0c-2,-48 -9,-98 -23,-150 643,-224 1990,-685 2284,-622 301,64 982,872 1227,1172 47,-3 144,-63 262,-150 64,99 138,212 183,372 111,393 79,770 -93,1047 -171,278 -674,522 -674,522l-16 44c0,0 -836,245 -1831,269 -996,23 -1361,-225 -1591,-424 -231,-198 -367,-695 -174,-1039z"/>
   <path class="fil3" d="M5420 3097c-23,8 -47,26 -67,48 -40,43 -69,84 -86,119 -10,20 -20,41 -23,45 -2,5 -4,11 -4,14 0,15 -43,93 -63,114 -15,16 -91,44 -121,44 -4,0 -11,2 -15,4 -5,2 -20,10 -34,16 -49,24 -94,78 -119,145 -10,28 -13,42 -15,96 -1,35 0,77 4,97 2,19 7,51 9,70 2,19 4,37 5,40 4,14 -8,31 -39,54 -73,53 -101,101 -115,201 -5,32 -5,45 -1,56 3,9 6,19 6,24 0,10 21,73 34,100 16,37 22,53 22,71 0,16 -4,22 -22,43 -33,36 -44,64 -44,114 0,23 3,43 5,44 3,2 5,7 5,13 0,4 1,12 4,17 2,4 8,17 12,27 8,20 37,53 46,53 3,0 9,-3 14,-7 5,-4 14,-7 20,-7 6,0 15,-2 21,-4 6,-3 23,-8 39,-12 15,-5 31,-10 35,-13 5,-2 13,-4 18,-4 5,0 10,-2 11,-4 2,-2 9,-5 17,-6 7,-2 23,-8 36,-13 12,-6 26,-12 32,-14 17,-7 111,-53 114,-55 1,-2 9,-7 18,-12 9,-5 21,-11 25,-14 20,-11 91,-61 117,-84 38,-31 121,-114 153,-153 55,-66 136,-201 159,-266 4,-13 10,-28 12,-33 2,-5 8,-21 12,-35 4,-14 9,-30 12,-36 2,-6 4,-16 4,-22 0,-6 2,-12 4,-14 2,-1 5,-10 7,-20 1,-9 6,-41 11,-68 6,-40 8,-81 8,-180 0,-141 -5,-188 -30,-286 -2,-10 -7,-29 -9,-42 -3,-13 -7,-27 -9,-33 -3,-5 -10,-27 -17,-48 -7,-22 -16,-49 -21,-60 -5,-11 -9,-21 -9,-23 0,-5 -39,-83 -46,-89 -19,-19 -103,-27 -142,-12l0 0z"/>
   <path class="fil3" d="M1249 3223c-27,14 -124,193 -155,283 -8,25 -12,34 -20,54 -5,12 -14,43 -18,65 -2,7 -4,16 -7,21 -15,40 -34,184 -34,270 0,70 12,182 25,227 2,10 7,26 10,37 5,21 17,56 23,71 18,47 31,78 41,96 6,11 15,28 21,37 61,112 163,222 279,300 38,25 120,69 166,87 7,3 15,7 19,9 6,3 10,1 16,-5 8,-8 8,-10 1,-28 -13,-32 -8,-69 22,-151 25,-66 26,-73 26,-114 0,-52 -16,-101 -41,-129 -30,-32 -38,-46 -38,-68 0,-19 8,-54 19,-82 10,-24 13,-33 24,-63 22,-60 26,-74 29,-112 4,-53 -4,-99 -24,-141 -17,-35 -24,-44 -62,-77 -18,-17 -20,-20 -17,-37 3,-28 12,-65 17,-71 3,-2 4,-10 4,-16 0,-7 3,-15 6,-18 7,-7 8,-106 0,-114 -3,-3 -6,-8 -6,-12 0,-3 -7,-17 -17,-32 -16,-24 -39,-46 -94,-87 -14,-11 -55,-47 -92,-81 -50,-47 -70,-69 -84,-93 -10,-17 -19,-31 -22,-32 -2,0 -10,3 -17,6l0 0z"/>
   <path class="fil4" d="M2317 4940c0,0 -49,45 -50,125 0,81 2,127 147,209 146,83 491,-23 550,-42 60,-19 85,-28 86,-35 2,-7 -425,-92 -733,-257z"/>
   <path class="fil0" d="M2280 5157c16,36 53,71 134,117 100,57 294,25 425,-7 4,-36 -9,-67 -49,-66 -91,2 -127,-41 -326,-68 -100,-13 -154,4 -184,24z"/>
   <path class="fil4" d="M3931 4897c0,0 153,-43 226,-17 73,25 86,90 84,132 -1,42 -29,158 -131,226 -102,69 -279,52 -279,52 0,0 -128,1 -166,-25 -37,-26 -32,-44 -29,-65 4,-21 -19,-63 -17,-86 3,-22 19,-119 29,-144 9,-24 29,-43 29,-43 0,0 117,11 254,-30z"/>
   <path class="fil0" d="M3931 4897c0,0 153,-43 226,-17 73,25 86,90 84,132 -1,42 -29,158 -131,226 -73,50 -186,55 -243,54 0,0 181,-27 250,-165 69,-138 16,-197 16,-197 0,0 -189,24 -281,41 -92,17 -180,-38 -180,-38l18 -5c34,1 131,2 241,-31z"/>
   <path class="fil5" d="M2025 4429c0,0 47,-51 162,-50 115,2 456,71 456,71 0,0 460,41 602,6 142,-36 574,-198 574,-198 0,0 203,-63 362,-67 160,-3 256,1 319,63 63,62 44,186 -21,253 -64,67 -335,237 -335,237l-274 154c0,0 -138,25 -166,30 -28,4 -44,16 -58,24 -14,9 -59,3 -59,3 0,0 -8,80 -29,147 -21,66 -45,139 -45,139 0,0 -264,-19 -409,-42 -146,-24 -373,-82 -527,-136 -153,-54 -364,-176 -489,-269 -124,-93 -215,-255 -63,-365z"/>
   <path class="fil6" d="M2142 4382c14,-2 29,-3 45,-3 115,2 456,71 456,71 0,0 460,41 602,6 142,-36 574,-198 574,-198 0,0 203,-63 362,-67 60,-1 111,-1 155,2 -26,10 -57,18 -96,22 -135,11 -361,144 -361,144l-476 242c0,0 -214,43 -414,46 -200,3 -439,-94 -493,-130 -55,-37 -343,-118 -343,-118l-11 -17z"/>
   <path class="fil6" d="M2025 4429c0,0 8,-9 25,-19 -10,7 -62,71 -18,148 47,83 143,223 290,317 147,95 261,113 330,147 70,35 128,35 202,68 75,33 487,109 545,130 7,2 12,7 15,13 -90,-7 -222,-20 -310,-34 -146,-24 -373,-82 -527,-136 -153,-54 -364,-176 -489,-269 -124,-93 -215,-255 -63,-365zm25 -19l1 -1c1,1 1,1 0,1 0,0 0,0 -1,0z"/>
   <path class="fil7" d="M4459 4224c15,8 29,18 41,30 63,62 44,186 -21,253 -64,67 -335,237 -335,237l-274 154c0,0 -138,25 -166,30 -28,4 -44,16 -58,24 -14,9 -59,3 -59,3 0,0 -8,80 -29,147l-11 33c-43,-49 -89,-82 -108,-96 -29,-23 -129,-81 -246,-127 -117,-47 -210,-193 -210,-193l475 200c0,0 864,-394 946,-518 42,-62 54,-128 55,-177z"/>
   <path class="fil8" d="M3036 2862c0,0 177,-32 247,-34 70,-1 671,72 780,221 108,149 188,468 241,614 53,145 76,265 78,346 2,81 -43,176 -127,177 -83,1 -218,-90 -281,-176 -63,-86 -126,-208 -126,-208l-33 -88c0,0 -84,196 -124,310 -39,115 -36,293 -36,293l-325 119 -130 30c0,0 -93,-130 -129,-145 -37,-16 -119,-19 -185,41 -65,59 -106,87 -106,87 0,0 -175,8 -239,-8 -65,-15 -291,-58 -291,-58l-49 -6 -74 -71c0,0 -98,-106 -48,-290 49,-183 191,-487 301,-646 110,-160 245,-330 381,-405 136,-74 275,-103 275,-103z"/>
   <path class="fil9" d="M3210 3151c0,0 -33,116 21,199 54,82 138,120 180,97 43,-22 118,-35 152,-84 34,-50 14,-149 18,-147 4,3 -371,-65 -371,-65z"/>
   <path class="fil10" d="M3826 3742l-11 -28c0,0 -84,196 -124,310 -39,115 -36,293 -36,293l-325 119 -130 30c0,0 -93,-130 -129,-145 -12,-5 -27,-9 -46,-10 -2,-5 -3,-9 -5,-12 -17,-37 -137,-104 -137,-104l-256 -129 152 -516 45 -72c0,0 41,177 98,201 56,23 144,16 144,16 0,0 74,123 129,134 56,11 109,-46 109,-46 0,0 2,27 88,73 86,45 83,76 174,42 91,-35 241,-269 228,-265 -10,3 25,25 32,109zm-832 76c0,0 67,141 154,236 87,95 171,126 203,141 32,14 73,31 96,31 23,0 100,-45 100,-45 0,0 -251,-149 -393,-276 -142,-126 -164,-140 -160,-87z"/>
   <path class="fil10" d="M3036 2862c0,0 177,-32 247,-34 15,0 57,3 114,11l-5 62c0,0 -173,-7 -271,13 -98,20 -132,30 -180,44 -48,15 -108,58 -115,70 -6,13 -97,53 -125,83 -28,29 -209,215 -254,304 -45,89 -114,208 -136,255 -21,46 -105,214 -117,276 -12,61 -40,158 -26,188 14,30 78,122 161,130 82,8 116,45 150,50 35,5 206,35 240,26 34,-8 105,45 140,46 -49,43 -79,63 -79,63 0,0 -175,8 -239,-8 -65,-15 -291,-58 -291,-58l-49 -6 -74 -71c0,0 -98,-106 -48,-290 49,-183 191,-487 301,-646 110,-160 245,-330 381,-405 136,-74 275,-103 275,-103z"/>
   <path class="fil9" d="M4023 3012c16,12 30,24 40,37 108,149 188,468 241,614 53,145 76,265 78,346 2,81 -43,176 -127,177 -29,0 -63,-11 -99,-28 103,-3 108,-128 79,-219 -28,-91 -97,-157 -115,-241 -19,-85 -65,-98 -103,-184 -38,-86 -99,-185 -102,-190 -3,-5 -1,-21 -5,-55 -3,-34 -63,-61 -63,-61 0,0 85,-43 83,-47 -1,-4 23,-55 23,-58 0,-2 42,-56 70,-91z"/>
   <path class="fil1" d="M3245 2626c0,0 -28,10 -29,78 0,69 50,110 60,125 9,14 -42,69 -59,170 -17,101 7,263 93,304 86,41 196,0 235,-46 39,-47 56,-104 56,-104 0,0 49,5 83,2 33,-4 49,-8 49,-8 0,0 -19,54 -10,94 8,41 17,52 17,52 0,0 64,-56 107,-85 43,-29 97,-47 97,-47 0,0 21,-69 50,-112 28,-43 46,-96 46,-101 1,-5 10,-17 -12,-57 -22,-39 -52,-73 -52,-73l96 -142c0,0 91,-232 -248,-353 -339,-121 -479,112 -579,303z"/>
   <path class="fil2" d="M3277 2836l-1 1 0 0 0 2 0 1 -1 1 0 0 0 0 0 1 0 0 -1 1 0 0 0 1 0 0 0 1 -1 1 0 0 0 1 0 0 -1 1 0 1 0 0 -1 1 0 1 0 1 0 0 -1 1 0 0 0 1 -1 1 0 0 -1 2 0 0 0 1 -1 1 0 0 -1 2 0 0 0 1 0 0 -1 1 0 1 -1 1 0 1 0 0 -1 2 0 0 -1 1 -1 1 0 1 0 1 -1 0 0 2 -1 1 0 0 -1 2 -1 2 0 0 0 1 -1 1 0 1 -1 2 0 0 -1 1 0 1 -1 1 -1 2 0 0 -1 2 0 0 0 2 -1 1 0 1 -1 1 0 0 -1 2 0 1 -1 1 -1 2 0 0 -1 2 0 1 -1 1 0 1 -1 1c-10,25 -20,55 -26,91 -2,10 -3,19 -4,30 42,26 105,77 144,156 28,56 29,101 23,135 68,3 136,-29 165,-63 23,-28 39,-59 47,-80l0 -1 0 0 1 -1 0 0 0 0 0 -1 1 -1 0 -1 0 0 1 -2 0 -1 0 0 0 -1 1 0 0 0 0 -1 0 0 0 0 0 -1 0 0 0 0 1 -1 0 0 0 0 0 -1 0 -1 0 0 1 -1 0 0 -61 -40 7 -22c0,0 120,25 191,-28 58,-43 86,-118 105,-154 -5,-1 -10,-2 -14,-4 -40,-19 -19,-52 -10,-58 7,-6 36,6 49,11 4,-20 7,-43 21,-55 4,-3 8,-7 13,-11 -23,-15 -61,-38 -96,-43 -1,15 -10,27 -10,27l-51 120c0,0 -21,8 -45,7 -23,-1 -39,-7 -35,-29 5,-21 41,-23 52,-33 10,-10 31,-70 38,-85 3,-9 7,-23 14,-31 -1,-34 -12,-87 -63,-89 -75,-2 76,-54 76,-54l177 99c37,-19 113,-19 113,-19l-8 22 11 -17c0,0 44,-111 -41,-219 -60,-50 -142,-99 -243,-115 -147,-24 -322,48 -432,105 -41,52 -75,111 -104,167 19,31 44,74 55,103 19,50 24,122 10,128 -3,2 -19,-2 -40,-9zm444 314c8,-2 12,-3 12,-3 0,0 -19,54 -10,94 8,41 17,52 17,52 0,0 64,-56 107,-85 8,-6 17,-11 25,-16 -27,-111 34,-178 82,-220 53,-46 34,-106 34,-106l29 6c-16,-24 -32,-44 -38,-51l-27 32 -136 209c0,0 -48,49 -95,88zm-75 -341c0,0 -56,-20 -94,-1 -37,18 22,53 70,53 47,1 46,-47 24,-52z"/>
   <path class="fil11" d="M3298 2607c0,0 34,-5 46,48 12,52 45,95 45,95 0,0 6,-86 48,-100 41,-14 61,-15 61,-15 0,0 48,-4 59,-56 10,-53 5,-86 32,-87 27,0 105,28 137,51 31,24 122,122 193,148 70,25 127,9 127,9 0,0 20,-12 101,-78 80,-66 80,-75 98,-131 18,-55 -2,-120 -2,-120l-26 -24c0,0 -140,-9 -223,-82 -84,-74 -250,-165 -396,-153 -147,13 -205,134 -205,134 0,0 -133,29 -177,152 -43,124 -8,249 0,264 7,15 37,-56 82,-55z"/>
   <path class="fil12" d="M4242 2502l3 -11c18,-55 -2,-120 -2,-120l-26 -24c0,0 -140,-9 -223,-82 -84,-74 -250,-165 -396,-153 -86,8 -141,52 -172,87 -12,17 -18,27 -18,27 0,0 -11,45 40,72 51,26 104,103 139,103 35,0 145,-8 225,24 79,31 220,51 246,46 27,-5 -1,40 -33,49 -26,9 138,51 217,-18zm-979 -7c0,0 15,-70 68,-104 53,-35 62,-35 71,-40 9,-5 -36,82 -32,96 3,14 79,-2 87,-5 8,-4 -87,79 -109,96 -21,16 -33,-61 -45,-49 -13,12 -27,38 -35,36 -8,-1 -5,-30 -5,-30z"/>
   <path class="fil2" d="M3028 4307c0,0 -65,-3 -116,35 -52,39 -122,110 -122,110 0,0 27,200 29,214 1,14 15,109 42,112 27,2 33,-19 33,-19 0,0 28,36 51,36 22,-1 25,-13 25,-13 0,0 12,33 52,28 40,-5 51,-45 51,-45 0,0 11,7 28,-21 18,-28 42,-103 42,-103 0,0 51,13 63,-6 12,-19 -4,-59 -4,-59 0,0 -10,-98 -20,-119 -10,-21 -107,-145 -154,-150z"/>
   <path class="fil1" d="M3028 4307c0,0 -65,-3 -116,35 -23,17 -50,41 -73,62 7,9 74,99 152,116 82,18 86,18 86,18l9 224c4,-3 9,-8 15,-18 18,-28 42,-103 42,-103 0,0 51,13 63,-6 12,-19 -4,-59 -4,-59 0,0 -10,-98 -20,-119 -10,-21 -107,-145 -154,-150z"/>
   <path class="fil3" d="M3557 2104c-13,2 -27,6 -32,8 -4,3 -11,5 -14,5 -15,0 -58,27 -83,51 -14,14 -31,36 -37,50 -9,21 -12,24 -32,28 -52,13 -110,56 -139,104 -52,87 -63,234 -24,312 3,5 4,23 4,41 0,44 11,71 37,99 12,12 23,25 23,27 1,3 -11,30 -26,60 -31,61 -38,87 -41,154 -5,82 25,187 66,232 43,49 114,67 191,50 41,-9 69,-23 94,-48 22,-22 57,-83 57,-99 0,-8 5,-9 57,-10 31,-1 57,-2 58,-1 1,0 -2,11 -6,23 -3,13 -7,30 -7,39 0,15 15,63 21,69 1,1 -1,9 -5,16 -4,8 -5,15 -4,18 2,3 5,16 7,29 7,35 18,91 23,113 2,10 6,32 9,49 8,49 19,89 36,143 8,23 10,36 7,40 -2,3 -14,29 -26,58 -12,29 -25,62 -30,73 -6,11 -10,21 -10,23 0,1 -6,16 -14,33 -8,18 -16,38 -17,45 -1,7 -5,14 -6,16 -3,1 -5,7 -5,13 0,6 -2,12 -4,14 -2,1 -5,9 -7,18 -1,8 -6,27 -10,40 -18,62 -24,113 -25,203 0,48 -2,68 -6,71 -3,2 -18,8 -34,12 -15,5 -32,10 -37,12 -5,3 -26,10 -47,17 -20,6 -41,14 -46,16 -17,8 -153,51 -161,51 -5,0 -10,2 -11,4 -1,3 -9,6 -18,7 -8,1 -27,6 -41,10 -38,12 -46,12 -55,-4 -8,-15 -27,-43 -35,-53 -3,-2 -15,-17 -27,-33 -13,-15 -31,-33 -41,-41 -11,-7 -33,-24 -50,-36 -17,-13 -47,-33 -66,-44 -19,-11 -44,-26 -54,-32 -55,-35 -158,-89 -232,-122 9,-47 36,-191 58,-288 27,-118 77,-277 77,-277l0 0c14,-27 14,-36 0,-36 -11,0 -25,20 -59,82 -5,7 -21,35 -37,62 -16,27 -35,59 -41,70 -7,12 -15,26 -20,33 -12,18 -41,70 -80,144 -48,91 -64,123 -64,129 0,12 -12,16 -39,10 -55,-12 -141,19 -200,71 -12,10 -17,18 -17,28 0,13 11,20 15,10 4,-8 46,-38 74,-52 53,-26 88,-32 136,-24 18,3 38,8 43,10 5,2 17,6 28,9 17,6 29,10 64,26 9,3 18,7 19,7 7,0 128,58 173,83 15,8 37,21 50,28 12,7 21,14 22,17 0,2 -11,10 -27,16 -53,23 -92,54 -111,87 -10,18 3,15 25,-4 43,-38 105,-64 148,-64 24,0 32,2 50,14 12,8 22,16 22,19 0,2 -8,6 -19,9 -24,6 -76,34 -102,55 -12,8 -37,32 -56,52 -21,22 -41,38 -49,40 -28,7 -219,-14 -305,-33 -19,-5 -44,-10 -56,-12 -11,-3 -36,-7 -56,-9 -19,-2 -40,-6 -46,-8 -21,-9 -67,-16 -105,-16 -60,0 -118,13 -161,37 -40,22 -97,87 -97,111 0,6 -2,12 -5,13 -3,1 -5,22 -5,46 0,42 3,54 20,84 3,6 7,14 10,19 13,23 46,67 64,85 49,46 161,127 230,164 20,11 39,21 40,22 2,1 -5,14 -15,28 -10,14 -18,30 -18,34 0,5 -2,10 -5,12 -5,3 -6,82 0,96 17,43 23,56 40,81 28,39 63,70 98,86 16,8 33,14 37,14 4,0 11,1 15,4 36,18 138,27 219,19 33,-3 66,-7 73,-9 8,-3 38,-10 68,-17 48,-11 137,-38 160,-49 5,-2 15,-5 21,-7 7,-1 25,-9 41,-17 20,-9 33,-13 40,-11 12,4 45,9 136,19 130,15 160,17 240,20 82,2 82,2 89,-9 7,-10 10,-11 44,-9 35,1 37,2 44,15 8,17 23,26 71,41 35,11 76,16 172,18 98,1 133,-2 178,-18 89,-32 174,-112 195,-185 5,-14 10,-31 13,-37 6,-15 5,-71 -1,-98 -13,-50 -29,-74 -61,-91 -33,-17 -60,-23 -95,-20 -51,4 -79,8 -83,13 -3,2 -12,4 -22,4 -8,0 -22,2 -30,4 -33,9 -21,-2 28,-28 48,-24 94,-51 132,-75 7,-4 16,-10 19,-11 4,-2 8,-5 10,-6 2,-3 77,-49 122,-74 29,-17 106,-68 124,-83 9,-7 26,-22 38,-32 12,-10 31,-26 42,-34 10,-9 28,-30 39,-47 31,-50 39,-71 43,-115 3,-39 -3,-62 -30,-103 -36,-57 -78,-85 -141,-94 -18,-2 -35,-6 -36,-7 -2,-2 4,-10 11,-18 13,-13 19,-23 35,-56 5,-11 5,-130 0,-136 -2,-3 -5,-15 -7,-28 -2,-25 -11,-66 -30,-146 -11,-42 -16,-59 -19,-68 -2,-5 -7,-18 -9,-28 -11,-41 -31,-103 -34,-107 -1,-3 -4,-12 -6,-21 -2,-9 -5,-19 -7,-23 -7,-13 -13,-30 -21,-54 -5,-13 -10,-27 -12,-32 -2,-6 -10,-27 -17,-49 -12,-41 -15,-47 -26,-75 -3,-9 -10,-24 -13,-32 -3,-9 -7,-21 -9,-26 -2,-5 -7,-19 -12,-30 -4,-12 -10,-25 -11,-31 -3,-5 -7,-16 -11,-25 -17,-46 -60,-120 -90,-156 -17,-19 -20,-34 -11,-50 8,-14 7,-56 -1,-75 -6,-16 -29,-53 -47,-74l-10 -13 10 -11c6,-6 11,-12 11,-14 0,-2 2,-6 4,-9 12,-14 31,-41 42,-58 7,-11 19,-22 30,-27 11,-5 35,-25 54,-45 20,-20 38,-36 39,-36 2,0 12,-8 22,-17 42,-39 71,-140 58,-202 -4,-16 -9,-31 -11,-34 -3,-3 -6,-9 -6,-14 0,-4 -1,-8 -3,-8 -14,-3 -27,-5 -64,-11 -23,-3 -50,-10 -61,-14 -10,-4 -55,-33 -99,-62 -163,-111 -199,-129 -302,-150 -30,-6 -124,-6 -157,1l0 0zm-88 1040c0,0 63,45 86,63 -33,54 -67,76 -132,88 -56,9 -108,-7 -141,-43 -48,-53 -72,-181 -51,-273 7,-30 49,-124 58,-129 2,-2 15,1 27,5 26,8 38,7 38,-5 0,-5 -13,-14 -36,-24 -50,-24 -77,-52 -85,-87 -7,-38 0,-73 21,-94 26,-25 58,-26 70,-1 10,18 18,14 20,-9 1,-17 -1,-21 -14,-30 -21,-15 -53,-14 -81,3 -12,6 -22,15 -24,19 -5,12 -9,7 -14,-17 -11,-44 -4,-164 9,-179 2,-2 4,-8 4,-12 0,-30 62,-105 102,-124 33,-15 46,-20 56,-20 11,0 33,-17 33,-26 0,-13 33,-58 52,-71 38,-26 50,-30 113,-41 49,-7 56,-7 99,-2l0 0c52,8 106,23 145,41 38,18 95,55 207,133 49,34 82,49 115,52 43,5 46,8 20,21 -20,11 -29,12 -82,12 -57,0 -60,0 -58,9 1,13 38,22 85,19 42,-2 68,-12 101,-37l21 -16 6 18c3,9 4,23 3,31 -1,7 -5,27 -8,45 -6,37 -26,81 -46,103 -6,8 -22,20 -34,27 -24,14 -60,17 -101,7 -27,-6 -49,0 -46,13 1,8 23,14 89,24 10,1 17,4 16,7 -1,2 -15,12 -32,21 -29,16 -31,17 -76,17 -29,0 -53,-2 -63,-6 -32,-12 -73,-32 -80,-39 -34,-32 -104,-93 -121,-105 -19,-13 -45,-26 -86,-43 -7,-3 -30,-7 -51,-8 -43,-3 -46,-1 -50,29 -7,48 -9,57 -18,76 -11,25 -30,36 -69,40 -25,3 -35,6 -48,17 -20,16 -34,45 -37,78 -4,29 -1,38 10,38 7,0 10,-6 14,-25 8,-32 21,-60 33,-67 5,-3 24,-8 43,-10 18,-3 40,-10 48,-15 31,-19 49,-57 49,-108 0,-22 1,-31 6,-31 13,0 63,15 86,26 13,6 25,11 27,11 6,0 57,41 98,79 23,22 54,47 68,56 28,18 66,53 75,71 3,6 9,11 14,12 7,2 8,0 5,-16 -2,-10 -6,-21 -8,-24 -5,-6 -2,-6 20,-4 14,2 32,3 41,3 8,0 15,2 15,5 0,2 -14,23 -31,46 -17,24 -55,81 -84,128 -23,36 -42,66 -59,91l-9 13c-61,92 -86,112 -131,126 -52,17 -78,14 -141,-16 -32,-15 -52,-18 -72,-10 -26,12 -44,39 -29,44zm-938 1369c65,13 218,45 261,54 -2,-15 -5,-28 -6,-33 -3,-6 -5,-22 -5,-36l0 -25 -17 2c-10,2 -42,0 -71,-2 -144,-16 -168,-20 -268,-42 -10,-3 -29,-6 -42,-9 -12,-3 -26,-6 -30,-8 -5,-1 -23,-5 -42,-8l0 0c-39,-5 -164,-10 -168,-6 -1,1 -13,5 -26,7 -54,11 -117,56 -138,100 -5,11 -11,23 -13,27 -6,13 -5,71 2,86 4,7 10,20 13,28 4,8 8,15 10,15 2,0 4,2 4,5 0,17 56,77 111,119 17,12 33,25 37,29 10,10 95,64 129,83 18,9 39,20 46,25 67,39 114,62 161,79 9,4 18,8 20,11 3,1 8,3 11,3 3,0 17,5 30,11 33,15 68,31 88,39 31,13 30,12 31,50 1,28 0,36 -4,34 -3,-1 -7,-7 -8,-13 -4,-31 -10,-41 -32,-49 -24,-8 -32,-11 -57,-21 -9,-4 -24,-10 -33,-13 -9,-4 -25,-10 -36,-15 -11,-5 -21,-9 -22,-9 -3,0 -13,-4 -53,-22 -31,-14 -34,-9 -32,46 2,49 12,72 40,99 22,19 34,26 72,42 23,10 31,15 30,21 -1,8 -12,8 -43,1 -53,-11 -105,-58 -123,-109 -10,-30 -11,-65 -3,-93 10,-34 10,-33 -9,-42l-17 -8 -15 15c-20,20 -31,51 -31,87 0,39 12,72 41,114 31,46 62,67 125,84 15,5 33,10 39,12 7,2 37,6 68,9 65,6 116,1 237,-23 28,-5 51,-12 70,-19 5,-2 26,-9 46,-16 21,-7 48,-18 61,-24l23 -10 -17 0c-9,-1 -19,-3 -20,-5 -3,-6 -27,-7 -33,-1 -20,16 -141,36 -152,24 -9,-8 3,-16 30,-20 63,-9 109,-21 85,-22 -13,-1 -26,-12 -24,-22 1,-10 13,-10 59,0 83,20 160,33 263,45 21,2 45,5 54,7 17,3 97,10 174,16 26,2 56,6 68,7 19,3 21,3 27,-9 3,-7 5,-16 5,-19 0,-4 2,-10 5,-15 2,-4 8,-20 12,-36 4,-15 10,-33 11,-39 3,-7 8,-27 12,-45 4,-18 9,-40 12,-48 7,-22 4,-52 -5,-57 -4,-2 -27,-7 -51,-11 -41,-7 -88,-20 -124,-35 -19,-8 -29,-12 -51,-20 -26,-10 -62,-26 -150,-69 -42,-20 -79,-37 -83,-37 -9,0 -42,18 -47,25 -6,9 -28,22 -39,22 -5,0 -17,-7 -27,-16 -11,-10 -20,-15 -22,-12 -3,6 -23,6 -36,0 -5,-3 -14,-11 -20,-18 -8,-8 -12,-10 -14,-7 -6,9 -29,13 -44,6 -17,-7 -32,-38 -37,-76 -6,-49 -9,-53 -30,-63 -32,-15 -55,-24 -77,-31 -12,-4 -27,-10 -35,-13 -7,-4 -27,-11 -42,-17 -15,-5 -37,-14 -47,-19 -12,-4 -22,-9 -23,-9 -2,0 -10,-3 -20,-7 -41,-19 -47,-21 -53,-21 -4,0 -11,-4 -17,-9 -10,-9 -10,-11 -3,-18 6,-6 11,-5 48,6 5,2 11,4 16,6zm688 90c27,-6 111,-29 241,-83 95,-39 247,-103 358,-150 6,-3 12,-6 16,-8 95,-54 213,-113 246,-125 14,-4 30,-9 35,-11 24,-9 39,-14 49,-16l0 0c7,-1 0,-1 -14,-1 -35,0 -77,6 -121,17 -9,2 -30,7 -49,11 -17,5 -36,10 -42,12 -5,2 -21,7 -37,12 -31,9 -149,47 -163,53 -5,2 -19,7 -32,12 -13,4 -28,9 -33,11 -5,3 -27,10 -49,17 -22,7 -44,14 -49,16 -5,2 -19,8 -32,12 -13,4 -28,9 -33,12 -5,2 -38,13 -72,24 -79,27 -101,33 -174,52 -25,6 -49,14 -53,17 -8,7 -6,52 3,95l5 21zm-55 151l-23 12c22,13 53,28 57,28 2,0 25,10 51,23 27,13 50,23 51,23 2,0 14,5 27,12 77,35 155,60 204,66 12,1 25,4 30,6 5,2 19,5 31,7 11,2 28,4 38,5 11,2 17,1 17,-2 0,-9 29,-23 42,-21 16,3 114,-6 125,-12 4,-2 47,-23 94,-47 132,-66 170,-86 229,-124 30,-19 56,-34 57,-34 4,0 119,-74 147,-95 30,-22 79,-64 117,-99 39,-37 62,-89 62,-137 0,-39 -16,-72 -53,-111l-26 -27 -107 1c-111,1 -162,9 -219,30 -42,17 -56,23 -96,43 -61,30 -140,73 -250,136 -16,9 -30,17 -31,17 -1,0 -43,25 -94,56 -192,118 -201,124 -341,194 -62,32 -118,57 -123,57 -7,0 -13,-3 -16,-7zm-85 -1919c-11,2 -25,6 -30,7 -10,5 -25,9 -70,22 -15,4 -32,10 -37,12 -5,2 -22,8 -37,13 -62,20 -141,55 -161,73 -4,4 -9,7 -11,7 -2,0 -24,15 -48,33 -42,31 -122,107 -160,151 -25,29 -63,73 -71,83 -11,14 -36,47 -48,62 -13,17 -90,140 -90,144 0,1 -4,8 -9,15 -8,12 -61,111 -102,191 -37,76 -64,136 -94,212 -2,5 -6,15 -8,21 -3,7 -9,24 -13,40 -5,15 -10,32 -12,37 -2,5 -5,14 -6,21 -2,6 -7,32 -12,56 -11,53 -12,112 -2,159 8,36 11,44 28,81 22,43 86,95 105,83 2,-1 -7,-15 -20,-29 -14,-15 -30,-33 -36,-40 -28,-36 -52,-113 -52,-171 0,-30 9,-91 19,-125 15,-55 25,-88 32,-105 3,-5 9,-22 14,-37 6,-15 13,-35 16,-42 4,-8 13,-27 20,-44 17,-42 96,-196 134,-263 8,-13 17,-31 22,-40 16,-29 57,-91 61,-92 2,-1 3,-4 3,-7 0,-6 64,-89 112,-145 79,-93 212,-217 234,-217 18,0 68,58 96,112 6,12 14,24 17,28 6,5 7,4 7,-13 0,-11 -2,-23 -4,-28 -3,-4 -11,-20 -18,-35 -7,-14 -14,-27 -16,-27 -3,0 -4,-2 -4,-6 0,-3 -10,-16 -23,-28 -13,-13 -22,-25 -21,-27 7,-11 111,-53 207,-84 24,-8 48,-16 53,-18 22,-7 44,-13 62,-16 22,-4 29,-12 20,-23 -7,-8 -16,-8 -47,-1l0 0zm709 2172c-12,18 -18,35 -25,74 -5,30 -4,35 4,51 4,10 12,18 17,19 7,2 8,-2 8,-40 0,-49 6,-80 22,-114 1,-2 -3,-3 -8,-3 -5,0 -13,6 -18,13l0 0zm54 -21c-14,32 -19,56 -19,98 -1,41 0,45 10,56 16,17 19,10 16,-44 -2,-27 0,-54 2,-66 12,-47 6,-79 -9,-44l0 0zm75 -26c-10,12 -20,34 -32,72 -8,26 -11,79 -5,94 6,17 16,14 18,-7 2,-30 16,-104 20,-109 2,-2 4,-9 4,-14 0,-6 2,-12 5,-14 5,-3 6,-30 1,-30 -3,0 -7,4 -11,8l0 0zm68 -11c-12,14 -30,64 -30,81 0,5 -2,11 -4,12 -2,2 -6,14 -7,27 -2,14 -4,30 -6,37 -3,16 7,30 20,26 8,-3 10,-9 13,-32 4,-52 20,-129 26,-136 6,-6 5,-21 -1,-21 -4,0 -8,3 -11,6l0 0zm-399 -2004c-35,7 -64,28 -64,45 0,14 0,14 21,2 9,-5 31,-12 49,-15 45,-7 74,0 116,27 0,1 1,1 2,2 25,15 32,18 37,14 6,-4 4,-13 -2,-22l-19 -22c-10,-8 -22,-16 -36,-22 -23,-11 -77,-15 -104,-9l0 0zm271 -157c-14,15 -16,26 -7,39 10,15 27,14 39,-2 12,-17 12,-23 2,-37 -8,-13 -22,-13 -34,0l0 0zm-74 -22c-3,7 -5,16 -5,20 0,8 -18,60 -30,86 -5,13 -20,20 -51,23 -14,1 -26,14 -20,21 6,6 61,7 73,0 13,-7 30,-37 40,-74 4,-14 9,-32 12,-41 9,-34 10,-38 3,-42 -10,-7 -16,-5 -22,7zm-161 -37c-7,6 -12,15 -12,20 0,11 15,24 27,24 12,0 29,-23 29,-39 0,-20 -26,-23 -44,-5l0 0zm-358 -52c-1,4 2,10 7,15 11,10 11,21 -1,32 -13,13 -11,18 7,16 17,-2 17,-2 30,29 6,15 19,18 19,5 0,-20 -13,-66 -23,-84 -9,-15 -14,-19 -24,-19 -7,0 -13,2 -15,6l0 0zm386 -43c-8,3 -18,7 -22,9 -5,2 -11,4 -15,4 -10,0 -33,21 -29,27 2,4 6,4 11,2 25,-13 36,-15 79,-17 54,-1 64,-6 50,-21 -6,-7 -14,-9 -34,-9 -15,1 -32,3 -40,5l0 0zm362 268c5,10 9,27 9,39 1,20 -9,51 -16,51 -2,0 -4,2 -4,5 0,2 -8,17 -17,33 -23,38 -36,65 -46,95 -8,26 -14,34 -23,34 -21,0 -115,57 -152,92 -16,16 -17,17 -22,7 -6,-11 -6,-43 -1,-58 2,-6 7,-19 10,-29 4,-12 15,-28 32,-44 14,-14 35,-36 45,-49 19,-24 63,-88 63,-93 0,-1 7,-15 16,-29 9,-13 16,-26 16,-27 0,-2 12,-21 26,-43l26 -39 14 19c8,11 18,27 24,36l0 0zm41 165c0,2 2,6 6,10 2,3 8,10 10,15 3,5 11,19 17,31 7,11 14,25 17,30 7,13 24,51 37,86 6,16 14,36 17,44 6,13 18,46 26,65 2,5 5,15 8,21 3,7 9,23 12,37 5,14 10,30 12,35 11,25 52,138 52,144 0,4 2,8 4,10 3,1 5,7 5,13 0,6 2,12 4,15 3,3 6,12 7,21 2,9 2,13 0,9 -2,-4 -4,-8 -6,-9 -1,-2 -5,-7 -8,-12 -3,-5 -10,-20 -18,-33 -7,-13 -19,-34 -27,-48 -15,-28 -73,-122 -78,-126 -1,-2 -7,-10 -13,-19 -5,-10 -16,-25 -24,-35 -25,-32 -22,-28 -64,-108 -37,-72 -54,-97 -72,-108 -11,-6 -12,-9 -11,-18 5,-17 21,-51 40,-81l16 -27 16 17c8,10 15,19 15,21l0 0zm-70 138c9,15 29,49 44,78 31,59 48,88 74,123 19,24 87,129 87,133 0,0 7,16 18,33 38,69 75,146 93,197 10,28 25,65 32,81 13,27 20,49 27,87 2,9 4,44 5,77 1,47 1,64 -5,77 -10,23 -29,45 -54,61 -19,12 -24,13 -64,13 -24,0 -47,-2 -52,-4 -4,-2 -17,-8 -28,-13 -29,-13 -66,-41 -112,-87 -54,-53 -73,-76 -113,-140 -53,-86 -79,-144 -97,-214 -3,-11 -9,-33 -15,-49 -14,-46 -27,-101 -36,-149 -2,-14 -6,-35 -9,-47 -3,-12 -7,-33 -9,-48 -3,-15 -9,-38 -14,-51 -15,-38 -13,-46 18,-79 32,-35 68,-60 117,-84 41,-20 45,-21 62,-21 13,-1 17,3 31,26l0 0zm-133 632c42,89 95,165 162,231 30,30 68,64 86,77 17,12 32,23 33,23 4,4 -3,6 -34,11 -35,5 -64,11 -93,18 -11,3 -32,8 -47,12 -39,10 -55,14 -100,28 -22,7 -44,14 -49,15 -5,2 -11,4 -14,6 -2,2 -12,5 -21,7 -9,2 -19,5 -23,8 -12,6 -76,27 -78,25 -3,-2 8,-152 13,-179 7,-37 24,-103 32,-124 2,-5 7,-21 11,-35 5,-14 11,-30 13,-36 4,-10 6,-15 21,-52 4,-12 12,-30 16,-40 5,-11 10,-25 12,-32 1,-6 5,-13 7,-15 2,-1 4,-6 4,-10 0,-5 3,-11 6,-14 4,-5 7,-4 10,5 2,6 17,38 33,71l0 0zm-788 501c30,20 73,67 98,108 18,31 20,36 23,77 1,25 5,54 8,66 9,41 9,39 -13,41l-20 1 3 -20c7,-47 3,-78 -16,-125 -12,-26 -22,-41 -29,-41 -8,0 -4,28 8,57 19,44 17,105 -3,154 -2,6 -5,17 -7,26 -2,9 -5,19 -7,23 -2,4 -6,14 -10,22 -5,12 -6,1 -6,-91l0 -105 -11 0 -11 0 -1 77c-1,90 -9,132 -31,174 -10,18 -29,22 -39,6 -6,-9 -6,-13 0,-31 13,-44 16,-68 16,-133 0,-67 -5,-96 -17,-96 -4,0 -6,18 -7,85 -2,93 -6,117 -22,150 -9,19 -12,22 -23,21 -9,-1 -16,-8 -25,-24 -13,-20 -14,-23 -9,-43 8,-31 7,-196 -1,-199 -14,-6 -16,4 -18,87 -3,96 -11,161 -22,161 -15,0 -31,-44 -34,-93 -1,-17 -3,-34 -5,-38 -1,-3 -5,-19 -8,-34 -3,-16 -8,-39 -10,-52 -2,-13 -6,-37 -7,-55l-2 -32 34 -35c31,-31 92,-76 120,-88 7,-3 17,-7 24,-10 6,-3 22,-5 35,-5 19,0 28,2 45,14l0 0zm1037 561c21,19 42,69 42,101 0,35 -21,94 -47,131 -23,34 -22,50 2,39 20,-9 44,-50 63,-111 7,-22 7,-89 0,-106 -11,-26 -16,-36 -24,-49 -13,-19 -1,-21 33,-5 23,12 28,17 39,39 12,24 13,29 12,75 -2,53 -6,70 -24,107 -19,42 -86,101 -140,125 -8,3 -18,8 -22,10 -4,3 -17,6 -28,7 -11,2 -24,5 -28,8 -15,7 -208,5 -249,-4 -71,-14 -86,-22 -77,-42 9,-18 7,-39 -6,-65 -10,-20 -11,-30 -11,-70 0,-42 9,-88 20,-98 1,-2 3,-6 3,-10 0,-3 5,-14 11,-24l11 -17 35 1c33,3 91,-3 135,-12 12,-3 32,-7 44,-10 25,-5 88,-16 126,-23 14,-2 26,-5 28,-6 1,-2 11,-3 20,-3 13,0 22,4 32,12l0 0z"/>
   <path class="fil13" d="M3459 2411c-39,23 -58,37 -58,43 0,4 -2,7 -5,7 -2,0 -5,3 -5,7 0,10 11,9 24,-2 5,-5 25,-16 42,-24 26,-13 32,-18 31,-25 -1,-11 -16,-14 -29,-6l0 0zm-73 -86c-45,29 -87,69 -99,93 -5,10 -11,21 -13,26 -6,13 5,23 12,11 27,-43 100,-103 144,-117 5,-1 8,-6 7,-11 -2,-11 -34,-13 -51,-2l0 0zm172 -110c-29,4 -40,8 -63,26 -17,13 -21,34 -6,34 5,0 10,-2 12,-4 4,-8 30,-18 62,-26 23,-6 47,-7 96,-6 36,1 69,3 75,4 5,1 9,-1 10,-5 4,-22 -104,-35 -186,-23l0 0z"/>
   <path class="fil7" d="M2125 4522c-18,15 -18,14 -45,45 -13,14 -20,26 -20,34 0,14 5,14 24,-2 8,-7 21,-18 29,-25 31,-26 49,-42 49,-47 0,-5 -12,-17 -17,-17 -2,0 -11,5 -20,12zm2237 -231c-3,5 7,21 31,53 14,19 34,40 37,40 7,0 5,-27 -3,-44 -12,-26 -39,-54 -51,-54 -6,0 -12,3 -14,5l0 0z"/>
   <path class="fil3" d="M3497 3395c-7,3 -17,7 -21,7 -5,0 -10,1 -12,4 -3,2 -23,8 -46,12 -37,8 -41,10 -41,20 0,11 1,12 34,9 19,-1 38,-4 43,-7 5,-3 16,-8 24,-11 21,-9 44,-27 44,-35 0,-8 -8,-8 -25,1l0 0zm456 -101c-2,2 -10,6 -19,7 -19,4 -75,32 -90,46 -11,10 -14,34 -5,37 3,1 14,-7 25,-17 11,-11 28,-23 38,-29 56,-30 67,-36 65,-41 -2,-6 -11,-9 -14,-3z"/>
   <path class="fil3" d="M2982 3816c0,10 2,19 4,20 2,2 5,9 6,17 3,12 26,64 42,92 17,27 54,79 73,99 33,34 145,121 156,121 2,0 14,7 27,16 52,32 89,47 139,54 43,6 61,3 59,-11 -1,-10 -3,-10 -57,-22 -15,-2 -32,-7 -36,-9 -5,-3 -11,-5 -15,-5 -4,0 -23,-8 -43,-19 -20,-10 -41,-21 -47,-24 -6,-3 -10,-7 -10,-9 0,-2 -3,-3 -5,-3 -14,0 -104,-72 -148,-117 -41,-41 -88,-119 -120,-199 -11,-27 -25,-28 -25,-1l0 0zm321 -23c0,17 3,22 27,46 43,43 129,93 159,93 17,0 19,-9 2,-18 -6,-3 -11,-8 -11,-10 0,-2 -2,-4 -5,-4 -12,0 -102,-65 -132,-94 -17,-17 -33,-32 -35,-32 -3,0 -5,8 -5,19z"/>
   <path class="fil14" d="M1287 4195c61,27 144,107 144,138 0,7 -3,9 -11,9 -8,0 -12,-3 -12,-7 0,-30 -121,-116 -170,-123 -14,-2 -19,-4 -19,-12 0,-15 39,-18 68,-5l0 0zm3 -576c10,5 21,11 24,14 3,3 8,6 10,6 1,0 16,13 32,29 31,32 66,80 66,93 0,4 2,9 5,11 7,5 5,28 -5,37 -11,10 -10,11 -19,-16 -7,-24 -23,-55 -38,-77 -17,-23 -65,-72 -72,-72 -3,0 -6,-2 -6,-4 0,-2 -5,-7 -12,-10 -11,-6 -16,-19 -7,-19 3,0 12,4 22,8z"/>
   <path class="fil14" d="M5107 4105c2,2 7,4 13,4 12,0 55,16 55,20 0,2 2,4 6,4 3,0 12,6 19,14 10,10 12,15 9,19 -5,4 -9,3 -17,-4 -7,-5 -21,-12 -32,-15 -11,-3 -24,-8 -30,-10 -23,-10 -91,-14 -128,-9 -16,3 -15,-9 3,-19 10,-6 24,-9 57,-9 23,0 44,2 45,5zm382 -610c1,2 -10,21 -27,42 -16,21 -31,42 -34,47 -3,4 -8,12 -12,16 -7,9 -78,122 -93,148 -11,19 -18,21 -18,5 0,-22 73,-156 112,-204 8,-11 32,-39 42,-50 8,-9 25,-12 30,-4l0 0zm10 480c17,4 20,7 20,16 0,13 -3,14 -16,4 -10,-8 -27,-9 -55,-3 -73,17 -92,22 -116,34 -30,15 -41,13 -33,-7 15,-33 137,-60 200,-44l0 0z"/>
   <path class="fil2" d="M5008 1758c-1,-43 -2,-87 -6,-131 0,-11 -2,-62 -19,-64 -6,0 -9,4 -12,9 -16,30 -7,349 -5,405 2,60 -3,129 -6,189 -3,48 -5,96 -7,144 0,4 -1,18 -1,32l39 -24c6,-36 8,-77 9,-89 3,-29 3,-61 4,-90 1,-47 2,-94 3,-140 1,-80 1,-160 1,-241zm9 -448c0,0 -2,155 -25,159 -23,4 -26,-45 -24,-95 3,-50 -5,-127 49,-64zm241 192c-1,-32 -2,-65 -6,-97 -1,-12 -3,-48 -19,-50 -5,0 -9,3 -12,7 -16,23 -8,261 -5,304 2,43 -4,97 -6,140 -3,36 -5,72 -7,107 0,10 -5,60 14,57 24,-5 30,-97 33,-116 7,-53 5,-119 6,-172 1,-60 2,-120 2,-180zm-985 -120c-2,-66 -3,-132 -6,-197 -1,-13 -1,-91 -20,-92 -7,0 -10,6 -12,11 -7,20 -7,91 -8,113 -1,69 -1,137 -1,205 1,96 2,192 4,288 3,92 -3,191 -6,284 -3,72 -5,144 -6,216 -1,23 -1,47 0,70 0,8 -2,40 14,34 16,-6 20,-65 22,-80 5,-48 7,-98 10,-146 3,-45 4,-91 4,-136 1,-70 2,-140 3,-210 1,-120 2,-240 2,-360zm285 -79c-1,-44 -2,-88 -6,-131 -1,-12 -2,-63 -19,-64 -6,0 -10,4 -12,8 -16,31 -8,349 -5,406 2,60 -4,128 -7,188 -2,48 -5,96 -6,144 0,10 -7,78 14,72 25,-6 31,-131 33,-152 3,-30 3,-61 4,-91 1,-47 2,-93 2,-140 1,-80 2,-160 2,-240zm237 91c-1,-44 -2,-88 -6,-131 -1,-12 -2,-63 -19,-64 -6,-1 -10,4 -12,8 -17,31 -8,505 -5,561 2,60 -4,128 -7,189 -2,48 -5,96 -6,144 0,9 -7,77 14,72 25,-6 31,-131 33,-153 3,-30 3,-61 4,-91 1,-46 2,-93 2,-140 1,-79 2,-315 2,-395z"/>
   <path class="fil2" d="M2048 2049c1,-44 2,-88 6,-131 1,-12 2,-63 19,-64 6,-1 10,4 12,8 16,31 8,349 5,406 -2,60 4,128 7,188 2,48 5,96 6,144 0,4 1,18 1,32l-39 -23c-6,-37 -8,-78 -9,-90 -3,-29 -3,-60 -4,-90 -1,-47 -2,-93 -2,-140 -1,-80 -2,-160 -2,-240zm-9 -448c0,0 2,154 25,158 23,5 27,-45 24,-95 -2,-49 5,-126 -49,-63zm-241 192c1,-33 2,-66 6,-98 1,-11 3,-48 19,-50 5,0 9,3 12,7 16,23 8,261 5,304 -2,43 4,97 7,140 2,36 5,72 6,108 0,9 6,59 -13,56 -25,-5 -31,-96 -34,-116 -6,-52 -5,-119 -6,-172 -1,-60 -2,-119 -2,-179zm986 -121c1,-66 2,-132 6,-197 0,-12 0,-91 19,-92 7,0 11,6 13,12 7,20 7,90 7,113 1,68 1,136 1,205 0,95 -1,191 -4,287 -2,93 3,191 6,284 3,72 5,144 7,216 0,24 0,47 0,71 -1,8 1,39 -15,33 -16,-6 -20,-65 -21,-79 -5,-49 -8,-98 -11,-147 -3,-45 -3,-91 -4,-136 -1,-70 -2,-140 -2,-210 -2,-120 -2,-240 -2,-360zm-286 -79c1,-43 3,-88 6,-131 1,-12 2,-63 19,-64 6,0 10,4 12,9 17,30 8,349 6,405 -3,60 3,128 6,189 2,48 5,96 6,144 0,9 7,77 -14,72 -24,-6 -31,-131 -33,-153 -2,-30 -3,-61 -4,-91 -1,-46 -1,-93 -2,-140 -1,-80 -2,-160 -2,-240zm-237 91c1,-43 3,-88 6,-131 1,-12 2,-63 19,-64 6,0 10,4 13,9 16,30 7,504 5,560 -3,60 3,129 6,189 2,48 5,96 6,144 0,10 7,77 -14,72 -24,-6 -30,-131 -33,-153 -2,-29 -3,-61 -3,-90 -2,-47 -2,-94 -3,-140 -1,-80 -2,-316 -2,-396z"/>
   <path class="fil2" d="M3806 1355c-1,-43 -2,-88 -6,-131 -1,-12 -2,-63 -19,-64 -6,0 -10,4 -12,9 -16,30 -7,349 -5,405 2,60 -3,128 -6,189 -3,48 -5,96 -7,144 0,4 -1,17 -1,32l39 -24c6,-37 8,-78 9,-89 3,-30 3,-61 4,-91 1,-46 2,-93 2,-140 1,-80 2,-160 2,-240zm245 -62c-1,-33 -2,-66 -6,-98 -1,-11 -3,-48 -19,-50 -5,0 -9,3 -12,7 -5,8 -10,265 -13,358 0,10 -5,60 14,56 51,-9 36,-227 36,-273zm-992 226c-1,-66 -2,-132 -6,-197 0,-12 0,-91 -19,-92 -7,0 -11,6 -13,12 -7,20 -7,90 -7,113 -2,68 -2,136 -1,205 0,152 5,95 3,246 -1,24 -1,48 -1,71 1,8 -1,39 15,33 16,-6 20,-65 22,-79 17,-169 7,-142 7,-312zm294 -163c-1,-44 -3,-88 -6,-131 -1,-12 -2,-63 -19,-64 -6,0 -10,4 -13,9 -13,26 -1,202 -7,312 -2,48 -5,96 -6,144 0,10 -7,78 14,73 24,-7 31,-132 33,-153 2,-30 3,-61 4,-91 3,-126 0,28 0,-99zm230 -5c-1,-44 -3,-88 -6,-131 -1,-12 -2,-63 -19,-64 -6,0 -10,4 -12,9 -2,3 -4,377 -8,532 0,10 -7,78 14,73 24,-7 31,-132 33,-153 18,-193 -2,-73 -2,-266z"/>
  </g>
 </g>
</svg>
