<?xml version="1.0" encoding="UTF-8"?>
<!DOCTYPE svg PUBLIC "-//W3C//DTD SVG 1.1//EN" "http://www.w3.org/Graphics/SVG/1.1/DTD/svg11.dtd">
<!-- Creator: CorelDRAW Home & Student X7 -->
<svg xmlns="http://www.w3.org/2000/svg" xml:space="preserve" width="68.3674mm" height="68.3674mm" version="1.1" style="shape-rendering:geometricPrecision; text-rendering:geometricPrecision; image-rendering:optimizeQuality; fill-rule:evenodd; clip-rule:evenodd"
viewBox="0 0 6837 6837"
 xmlns:xlink="http://www.w3.org/1999/xlink">
 <defs>
  <style type="text/css">
   <![CDATA[
    .str0 {stroke:black;stroke-width:7.62}
    .fil6 {fill:black}
    .fil8 {fill:#008183}
    .fil7 {fill:#009FA2}
    .fil14 {fill:#455797}
    .fil12 {fill:#62392B}
    .fil13 {fill:#6885C2}
    .fil15 {fill:#8EB6EA}
    .fil10 {fill:#984D44}
    .fil9 {fill:#BD9941}
    .fil11 {fill:#C88C87}
    .fil2 {fill:#EDB9A9}
    .fil3 {fill:#FACA50}
    .fil4 {fill:#FBDC8D}
    .fil5 {fill:#FF7345}
    .fil1 {fill:#FFE1D7}
    .fil16 {fill:white}
    .fil0 {fill:white}
   ]]>
  </style>
 </defs>
 <g id="Layer_x0020_1">
  <metadata id="CorelCorpID_0Corel-Layer"/>
  <rect class="fil0" width="6837" height="6837"/>
  <g id="_505688048">
   <path class="fil1" d="M3886 1283c0,0 -298,-278 -847,-132 -549,145 -423,410 -1250,939 -827,529 -842,639 -774,1270 68,631 -129,1272 10,1563 139,291 421,465 653,545 231,80 777,189 777,189 0,0 719,158 1350,4 630,-154 970,-185 1131,-235 160,-49 418,-253 506,-496 87,-243 119,-1204 294,-1664 175,-459 246,-1252 -315,-1557 -561,-305 -915,59 -1535,-426z"/>
   <path class="fil2" d="M1170 2551c-207,220 -198,410 -155,809 68,631 -129,1272 10,1563 139,291 421,465 653,545 231,80 777,189 777,189 0,0 719,158 1350,4 630,-154 970,-185 1131,-235 160,-49 418,-253 506,-496 87,-243 119,-1204 294,-1664 67,-175 118,-398 125,-624 -579,-155 -1558,-402 -1684,-337 -180,94 -744,1634 -916,1714 -172,79 -245,-63 -245,-63 0,0 -248,-940 -334,-992 -65,-41 -1050,-295 -1512,-413z"/>
   <g>
    <path class="fil0" d="M2847 1562c257,0 465,208 465,465 0,151 -72,286 -183,371 -8,13 -20,27 -37,39 -96,75 -275,84 -401,76 -126,-7 -186,-11 -186,-11l91 -82c-129,-83 -215,-228 -215,-393 0,-257 209,-465 466,-465z"/>
    <path class="fil3" d="M2819 1791c0,0 89,-11 145,51 56,62 41,148 20,176 -20,27 -81,44 -89,67 -9,23 -8,49 -8,49l-123 -1c0,0 3,-29 -19,-49 -22,-20 -106,-52 -97,-149 9,-97 98,-141 171,-144z"/>
    <path class="fil4" d="M2819 1791c0,0 89,-11 145,51 56,62 41,148 20,176 -13,17 -42,30 -64,44 -37,-6 -72,-26 -100,-67 -59,-85 -52,-154 -29,-201 9,-1 19,-2 28,-3z"/>
    <path class="fil5" d="M2749 2142l171 -12c0,0 6,34 -1,48 -6,14 -22,17 -22,17 0,0 3,29 -43,41 -46,12 -67,-3 -75,-17 -9,-14 -36,-12 -36,-29 0,-18 6,-48 6,-48z"/>
    <path class="fil6" d="M2779 1551c-35,3 -70,10 -89,18 -6,2 -17,7 -26,9 -78,29 -175,104 -220,173 -20,30 -55,97 -55,105 0,4 -2,10 -4,15 -11,21 -28,115 -28,154 0,43 17,138 28,160 2,4 4,10 4,13 0,8 36,77 54,106 10,15 40,49 69,77l50 51 -15 12c-66,52 -70,67 -26,82 5,1 61,3 125,3 71,0 302,-10 351,-29 5,-1 20,-7 32,-12 78,-27 168,-99 219,-176 27,-42 42,-71 54,-112 25,-78 29,-105 27,-177 -2,-73 -7,-87 -26,-85 -12,1 -13,3 -11,20 5,73 5,146 0,165 -17,69 -25,91 -45,131 -24,45 -41,68 -80,107 -53,54 -114,90 -196,116 -36,11 -74,14 -249,16l-191 3 26 -26c14,-14 27,-25 30,-25 3,0 8,-6 12,-12 5,-9 5,-13 0,-19 -4,-3 -9,-7 -12,-7 -4,0 -26,-19 -50,-43 -45,-44 -76,-87 -100,-139 -13,-26 -17,-38 -29,-78 -11,-36 -15,-73 -13,-133 3,-65 5,-89 12,-107 3,-5 8,-21 12,-35 41,-120 148,-227 273,-272 59,-21 162,-32 201,-22 11,2 35,6 54,8 28,2 34,2 34,-4 0,-13 -37,-25 -98,-31 -49,-6 -51,-6 -104,0l0 0zm4 232c-89,14 -169,113 -152,189 13,53 30,76 90,115 15,10 27,19 27,22 0,2 1,7 3,11 1,6 0,8 -7,8 -13,0 -17,7 -18,32 -1,31 5,44 25,52 8,3 15,9 15,11 0,3 5,11 12,16 9,9 14,10 40,9 52,-4 82,-16 70,-28 -4,-4 -13,-4 -36,1 -37,7 -51,5 -51,-5 0,-5 9,-7 35,-9 38,-3 53,-7 50,-16 -1,-3 -23,-5 -65,-6 -63,-2 -64,-2 -64,-12 0,-11 2,-12 43,-14 62,-5 113,-10 119,-14 3,-2 6,-9 6,-15 0,-10 -3,-11 -14,-11l-14 0 7 -16c5,-10 16,-20 33,-29 37,-19 71,-64 71,-94 0,-9 -1,-11 -7,-9 -4,2 -8,3 -9,3 -1,0 -2,3 -2,6 0,9 -47,54 -65,63 -9,4 -23,15 -32,23 -12,13 -15,20 -15,34 0,16 -1,18 -14,21 -8,2 -15,2 -16,1 -1,0 -3,-31 -3,-69l-1 -67 29 -2c33,-1 52,-7 52,-18 0,-6 -14,-6 -90,-4 -49,2 -90,3 -91,3 0,0 -1,4 -1,9 0,14 10,18 44,20l33 1 1 66 2 67 -24 0 -23 0 0 -18c0,-15 -4,-22 -15,-33 -8,-8 -16,-14 -18,-14 -10,0 -53,-36 -64,-53 -11,-17 -13,-25 -13,-54 0,-25 3,-40 9,-53 11,-23 41,-56 62,-69 18,-11 68,-27 84,-27 14,0 56,13 60,19 5,8 11,4 11,-7 0,-28 -52,-45 -109,-36l0 0z"/>
   </g>
   <g>
    <path class="fil0" d="M3649 1657l650 -25c0,0 42,-11 45,31 2,42 -4,450 -4,450l-92 -63 -491 25c0,0 -74,0 -104,-81 -30,-80 -23,-336 -4,-337z"/>
    <path class="fil6" d="M3719 1634c-13,2 -35,5 -50,5 -19,0 -28,2 -36,9 -10,10 -10,12 -10,140 0,123 4,183 15,210 15,37 26,51 53,70 26,18 95,30 153,26 94,-6 193,-13 234,-17 23,-3 60,-5 81,-5 20,0 47,-2 58,-5 28,-7 40,-2 77,35 28,28 31,30 46,26 19,-3 17,17 22,-182 4,-198 -6,-313 -27,-306 -4,1 -6,68 -6,216 0,117 -2,216 -4,219 -3,4 -10,-1 -23,-14 -24,-27 -38,-32 -77,-29 -17,1 -67,5 -111,7 -43,2 -109,6 -146,10 -38,3 -104,5 -148,6 -77,0 -80,0 -104,-12 -19,-10 -29,-18 -38,-32 -22,-40 -27,-76 -27,-223l0 -115 11 -4c9,-3 57,-8 158,-14 32,-2 45,-5 45,-9 0,-10 -105,-19 -146,-12l0 0zm87 191c-13,21 -3,39 21,37 11,-1 13,-4 14,-17 1,-9 -1,-19 -4,-23 -8,-9 -24,-7 -31,3l0 0zm157 -5c-9,7 -10,10 -6,18 8,15 28,25 45,24 14,-2 15,-3 16,-23 1,-21 1,-22 -14,-25 -22,-5 -30,-3 -41,6zm182 -13c-9,6 -14,12 -14,20 0,13 13,26 26,26 23,0 33,-36 13,-49 -8,-6 -11,-5 -25,3z"/>
   </g>
   <g>
    <path class="fil0" d="M5347 4860l-1383 0 0 167 1057 0 46 346 104 -56 -35 -290 133 0c43,0 78,-35 78,-77l0 -90z"/>
    <path class="fil7" d="M3871 5528l39 119c0,0 202,-51 327,-74 125,-23 185,-32 185,-32 0,0 11,-387 10,-451 -2,-63 -2,-136 -2,-136 0,0 553,-83 663,-126 109,-43 192,-178 192,-178 0,0 53,-179 48,-254 -4,-74 -10,-139 -16,-171 -6,-32 -15,-74 -15,-74 0,0 -599,-59 -647,-59 -48,-1 -173,-4 -173,-4l-573 295c0,0 -203,110 -236,206 -33,97 -28,245 12,377 39,133 158,523 186,562z"/>
    <path class="fil8" d="M4050 5613l2 0 1 0 1 -1 2 0 1 0 2 -1 0 0 2 0 1 -1 2 0 0 0 3 -1 0 0 2 0 1 0 2 -1 1 0 1 0 2 -1 1 0 2 -1 1 0 2 0 0 0 3 -1 0 0 2 0 1 -1 2 0 1 0 1 0 2 -1 1 0 2 -1 0 0 3 0 0 0 3 -1 0 0 2 0 1 -1 2 0 1 0 1 -1 2 0 1 0 2 -1 1 0 2 0 1 0 2 -1 1 0 1 0 2 -1 1 0 2 0 1 -1 2 0 0 0 3 -1 0 0c36,-8 72,-15 103,-21 32,-6 60,-11 83,-15 12,-191 -27,-564 -17,-676 11,-132 228,-140 451,-191 223,-51 382,-121 435,-311 26,-93 5,-179 -22,-242 -180,-17 -478,-46 -512,-46 -48,-1 -173,-4 -173,-4l-33 17c-4,32 -1,70 2,100 -99,41 -284,116 -369,156 -121,56 -338,195 -344,337 -7,143 82,501 129,655 35,116 88,229 113,277 20,-5 44,-11 70,-17z"/>
    <path class="fil2" d="M3646 2883c0,0 39,-5 53,7 14,12 13,27 13,27 0,0 23,15 27,31 5,16 20,51 34,51 15,0 19,-27 19,-27 0,0 -6,-36 -1,-43 6,-8 39,14 39,14 0,0 101,53 114,82 14,28 39,121 39,121 0,0 21,46 27,55 6,8 -33,35 -59,53 -26,18 -46,32 -46,32 0,0 -45,-63 -66,-79 -21,-17 -127,-106 -141,-124 -13,-18 -74,-108 -52,-200z"/>
    <path class="fil1" d="M3646 2883c0,0 39,-5 53,7 14,12 13,27 13,27 0,0 23,15 27,31 5,16 20,51 34,51 15,0 19,-27 19,-27 0,0 -6,-36 -1,-43 6,-8 39,14 39,14 0,0 101,53 114,82 11,23 30,87 37,111 -22,13 -49,22 -70,12 -43,-19 -48,-36 -48,-57 -1,-20 -43,-44 -61,-52 -17,-9 -40,-7 -71,-15 -30,-8 -31,-86 -41,-98 -5,-6 -29,-14 -47,-23 1,-7 2,-13 3,-20z"/>
    <path class="fil2" d="M4203 4379c0,0 74,-125 102,-126 27,-2 185,-5 234,-18 49,-13 80,-24 80,-24 0,0 39,37 62,66 23,29 39,74 39,74 0,0 -46,58 -132,86 -86,29 -208,33 -250,53 -42,19 -69,29 -74,28 -5,0 -20,2 -20,2 0,0 -25,12 -40,10 -16,-2 -42,5 -54,-12 -12,-18 14,-59 32,-81 18,-22 21,-58 21,-58z"/>
    <path class="fil1" d="M4203 4379c0,0 51,-86 84,-116 9,4 34,11 48,17 16,7 20,18 25,23 4,6 47,22 60,43 14,20 57,33 69,55 13,22 112,26 113,28 0,0 -1,2 -3,4 -3,1 -7,3 -11,4 -86,29 -208,33 -250,53 -42,19 -69,29 -74,28 -5,0 -20,2 -20,2 0,0 -25,12 -40,10 -16,-2 -42,5 -54,-12 -12,-18 14,-59 32,-81 18,-22 21,-58 21,-58z"/>
    <path class="fil3" d="M5115 2004c0,0 -46,-62 -172,-87 -126,-25 -199,-14 -262,25 -63,38 -146,121 -201,248 -55,127 -69,249 -43,334 25,84 100,115 101,184 2,70 -36,126 -18,174 18,48 53,60 54,71 2,10 7,27 7,27 0,0 150,296 508,281 359,-15 370,-149 370,-221 0,-72 -26,-116 8,-172 34,-56 28,-130 9,-152 -19,-22 -99,-113 -124,-151 -24,-38 -25,-105 -19,-125 7,-20 25,-180 5,-231 -20,-50 -104,-147 -138,-169 -34,-21 -73,-23 -85,-36z"/>
    <path class="fil9" d="M4438 2528c27,81 99,112 100,180 2,70 -36,126 -18,174 18,48 53,60 54,71 2,10 7,27 7,27 0,0 109,216 365,269 125,-56 427,-222 420,-247 -10,-32 54,-139 35,-228 -19,-89 -90,-63 -148,-208 -58,-146 29,-211 -2,-296 -30,-86 -159,-197 -139,-161 21,37 31,142 18,165 -14,23 -95,-12 -112,-9 -17,4 8,63 -59,54 -68,-10 -177,-111 -177,-111 0,0 -134,14 -187,53 -54,40 -50,161 -50,161 0,0 -11,77 -9,99 3,23 18,68 -58,38 -16,-7 -29,-18 -40,-31zm208 330c0,0 42,-9 31,-58 -11,-50 -29,-66 -29,-66 0,0 -4,48 -23,90 -19,41 21,34 21,34z"/>
    <path class="fil10" d="M4573 2985c0,0 207,-110 269,-129 62,-19 282,1 373,29 90,27 176,65 214,139 39,73 138,630 138,630 0,0 25,205 1,287 -25,81 -188,179 -296,223 -107,44 -461,174 -461,174 0,0 -70,20 -86,9 -16,-11 -65,-99 -78,-114 -12,-15 -23,-28 -23,-28l166 -97 -313 -20c0,0 -18,6 0,-72 17,-79 23,-204 18,-213 -4,-8 -57,66 -146,28 -88,-38 -226,-154 -309,-265 -84,-111 -155,-267 -155,-267l145 -99 100 129c0,0 224,218 261,240 37,22 -13,-62 4,-147 18,-85 65,-259 98,-326 33,-67 80,-111 80,-111zm681 523c0,0 -78,144 -68,231 9,87 61,143 61,143l43 -1c0,0 53,-17 53,-55 -1,-38 -89,-318 -89,-318z"/>
    <path class="fil11" d="M5284 2909c63,25 117,60 145,115 39,73 138,630 138,630 0,0 25,205 1,287 -25,81 -188,179 -296,223 -47,19 -142,55 -234,90l-39 0c0,0 104,-86 185,-105 81,-20 230,-134 297,-216 67,-83 18,-300 13,-343 -5,-43 -35,-87 -49,-190 -14,-102 -66,-323 -87,-352 -22,-29 -72,-23 -72,-23 0,0 32,-21 34,-39 2,-17 -59,-72 -59,-72 0,0 0,-14 0,-11 0,1 8,3 23,6zm-711 76c0,0 97,-51 178,-90 -13,30 -42,89 -42,89 0,0 -134,66 -157,120 -24,55 -68,209 -88,241 -13,22 -41,36 -61,42 21,-91 61,-232 90,-291 33,-67 80,-111 80,-111z"/>
    <path class="fil12" d="M4763 4124l27 -16 -212 -14c25,-25 108,-113 154,-193 55,-96 78,-161 62,-178 -15,-18 -77,-50 -100,-56 -23,-7 -188,105 -183,105 1,-1 -17,22 -49,52 -25,15 -63,29 -113,7 -88,-38 -226,-154 -309,-265 -84,-111 -155,-267 -155,-267l65 -44c33,50 122,180 156,220 43,50 107,132 169,141 43,7 95,-25 121,-45 7,3 9,0 9,-7 5,-4 8,-7 6,-7 -7,1 -4,-102 -12,-102 -7,0 54,78 120,67 65,-11 86,4 143,-25 58,-28 152,61 257,44 105,-16 133,-65 162,-96 29,-30 122,-142 122,-142 0,0 61,129 62,241l0 0c-6,-22 -11,-36 -11,-36 0,0 -78,144 -68,231 9,87 61,143 61,143l1 0 -19 17 -365 182 -101 43zm-104 -829c0,0 22,88 116,83 94,-5 217,-79 260,-117 43,-38 -55,-47 -80,-62 -24,-15 13,-46 -14,-49 -28,-4 -144,58 -213,16 -69,-43 -98,-65 -108,-60 -10,4 -30,37 -30,37l-77 145c0,0 136,3 146,7z"/>
    <path class="fil2" d="M4800 2130c0,0 -31,-10 -75,12 -44,23 -114,64 -121,123 -8,58 0,72 16,194 16,121 40,177 91,200 52,22 99,26 99,26 0,0 -4,160 -20,180 -15,21 -111,73 -111,73 0,0 -42,154 92,178 135,25 312,-119 351,-153 39,-35 76,-87 76,-87 0,0 -113,-31 -147,-99 -33,-69 6,-226 6,-226 0,0 40,-7 72,-36 32,-30 66,-71 50,-125 -17,-55 -54,-61 -85,-53 -32,9 -45,33 -51,49 -6,16 -27,56 -27,56 0,0 -15,-91 -28,-107 -13,-17 -62,-24 -62,-24 0,0 -113,-62 -126,-181z"/>
    <path class="fil1" d="M4719 3025c15,10 38,17 72,22 120,15 310,-116 331,-203 -28,-16 -56,-38 -71,-67 -33,-69 6,-226 6,-226 0,0 16,-3 35,-12 -12,-14 -38,-32 -71,-7 -49,37 -56,97 -106,174 -18,28 -39,50 -59,66 -3,49 -10,127 -30,147 -27,27 -114,60 -107,106z"/>
    <path class="fil1" d="M5065 2549c13,-3 40,-12 64,-34 32,-30 66,-70 50,-124 -2,-7 -5,-13 -7,-18 -17,-37 -48,-43 -74,-37 -5,2 -10,3 -16,5l0 0c-2,5 2,19 19,35 17,16 -38,62 -38,73 0,10 -8,25 -11,31 -3,7 -10,30 -15,34 -4,3 10,29 28,35z"/>
    <path class="fil1" d="M4754 2131l0 0 0 0 -1 0 0 0 -1 1 0 0 0 0 0 0 -1 0 0 0 -1 0 -1 0 0 1 0 0 -1 0 0 0 0 0 -1 0 0 0 0 0 -1 0 0 1 0 0 -1 0 0 0 0 0 -1 0 0 0 -1 0 0 1 -1 0 0 0 0 0 -1 0 0 0 0 0 -1 1 0 0 -1 0 0 0 0 0 -1 0 0 0 -1 1 0 0 0 0 0 0 -1 0 0 0 -1 1 0 0 0 0 -1 0 0 0 -1 0 0 0 0 1 -1 0 0 0 -1 0 0 0 0 0 -1 1 0 0 -1 0 0 0 0 0 0 1 -1 0 0 0 -1 0 0 0 0 1 -1 0 0 0 -1 0 -1 1 0 0 -1 0 0 0 -1 1 -1 0 0 1 0 0 -1 0 -1 0 0 1 -1 0 -1 0 0 1 0 0 -1 0 -1 1 -1 0 0 0 -1 1 -1 0 0 0 -1 1 -1 0 0 0 -1 1 0 0 -1 1 0 0 -1 0 -1 0 -1 1 0 0 0 0 -1 1 -1 0 0 0 -1 1 -1 0 -1 1 0 0 -1 0 0 1 -1 0 0 0 -1 1 -1 0 0 0 -1 1 -1 0 0 1 -1 0 0 0 -1 1 -1 0 0 0 -1 1 -1 0 0 1 -1 0 0 0 -1 1 -1 0 0 1 -1 0 -1 1 0 0 -1 0 -1 1 -1 0 0 0 0 1 -1 0 -1 1 0 0 -1 1 -1 0 -1 1 0 0 -1 0 0 1 -1 0 0 0 -1 1 -1 1c-33,23 -63,53 -68,91 -5,33 -4,51 0,83l1 2 -1 0c3,18 7,41 11,74l0 0 0 1 0 0 1 0 0 1 0 0 0 1 0 0 0 0 0 1 0 0 0 1 0 0 0 0 0 1 0 0 0 1 0 0 0 0 0 1 1 0 0 1 0 0 0 1 0 0 0 1 0 1 0 0 0 0 0 1 0 0 0 1 0 0 0 0 0 1 0 0 1 1 0 0 0 0 0 1 0 0 0 1 0 0 0 1 0 0 0 1 0 0 0 0 0 1 0 0 0 1 0 0 0 1 0 0 1 1 0 0 0 1 0 0 0 0 0 1 0 0 0 1 0 0 0 1 0 0 0 1 0 0 0 1 0 0 0 0 1 1 0 1 0 0 0 0 0 1 0 0 0 1 0 1 1 5 0 1c16,117 40,172 90,194 52,22 99,26 99,26l0 4c21,-9 27,-17 -4,-23 -87,-17 -115,-95 -132,-150 -6,-19 -7,-43 -7,-68 4,-4 6,-8 6,-14 -1,-3 -3,-5 -6,-7 1,-20 3,-39 4,-53 22,0 41,3 42,13 1,16 6,111 30,121 24,9 46,-19 46,-30 0,-10 -20,-4 -30,-11 -11,-7 -1,-71 -2,-99 0,-3 -1,-5 -1,-7 17,-2 36,-5 55,-11 17,19 44,43 76,58 -17,0 -64,3 -71,17 -9,17 13,15 42,14 24,0 39,-18 38,-27 14,5 29,9 44,9 37,1 59,-2 71,-6 -6,-29 -15,-70 -23,-80 -13,-17 -62,-24 -62,-24 0,0 -12,-7 -28,-19l0 0 0 -1 -3 -1 0 -1 -1 0 -1 -1 0 0 -4 -4 -1 0 0 -1 -1 -1 -1 0 -2 -2 0 0 -2 -2 -1 -1 0 0 -1 -1c-33,-30 -73,-79 -80,-146 0,0 -18,-6 -46,1z"/>
    <path class="fil6" d="M4778 1890c-4,3 -12,5 -19,5 -17,0 -58,16 -87,34 -46,28 -114,103 -166,184 -22,35 -68,128 -68,138 0,4 -2,8 -5,10 -2,1 -4,7 -4,12 0,4 -2,12 -5,17 -10,19 -19,76 -19,125 0,74 16,120 67,195 38,55 54,90 54,114 0,11 -5,35 -12,55 -6,19 -13,49 -14,65 -3,37 9,64 38,86 14,9 22,19 26,30 4,16 3,17 -26,45 -29,28 -51,67 -69,117 -5,13 -10,27 -13,33 -2,5 -7,21 -12,37 -4,15 -9,32 -11,37 -2,5 -7,22 -11,37 -4,16 -10,35 -12,43 -3,8 -5,19 -5,25 0,7 -2,14 -4,17 -2,2 -5,12 -6,22 -1,11 -7,36 -13,56 -9,35 -9,38 -2,74 3,20 7,40 7,44 0,18 -176,-148 -247,-234 -17,-20 -32,-38 -35,-42 -7,-8 -31,-36 -51,-60 -12,-15 -21,-22 -29,-22 -16,0 -29,-27 -46,-104 -12,-53 -26,-75 -70,-110 -14,-11 -80,-42 -89,-42 -21,0 -10,12 40,46 75,50 80,55 98,129 11,44 20,71 29,86 5,8 9,15 8,16 -1,1 -9,6 -18,13 -9,6 -20,13 -24,15 -21,14 -45,31 -62,46 -15,13 -18,18 -13,22 3,4 6,11 6,16 0,5 3,15 6,21 4,7 17,32 30,56 38,73 55,96 162,240 21,28 121,125 151,148 68,51 113,71 160,70 25,0 37,-3 50,-10 8,-6 21,-13 29,-17l12 -8 0 30c0,15 -1,45 -4,66 -3,21 -7,54 -9,75 -2,20 -6,42 -8,49 -4,17 8,19 15,3 16,-34 18,-42 26,-92 2,-17 6,-42 8,-56 7,-40 6,-144 -2,-175 -10,-38 -10,-38 15,-42 24,-3 48,-17 48,-27 0,-11 -12,-17 -23,-12 -6,2 -14,7 -19,9 -5,3 -17,5 -27,5 -16,0 -19,-2 -31,-22 -49,-80 -73,-152 -63,-190 6,-22 27,-56 53,-88 23,-28 74,-94 94,-124 17,-24 48,-88 48,-98 0,-8 -8,-18 -16,-18 -5,0 -16,21 -16,31 0,18 -47,90 -99,155 -37,45 -49,58 -53,55 -2,-2 -1,-6 2,-9 3,-3 6,-9 6,-14 0,-5 1,-12 4,-17 3,-4 8,-20 12,-36 5,-15 10,-32 12,-37 2,-5 8,-22 13,-37 40,-125 75,-181 136,-214 46,-25 51,-27 54,-24 1,1 0,11 -3,23 -6,22 -4,37 12,71 16,36 82,72 133,72 22,0 64,-8 81,-14 5,-3 20,-8 32,-12 37,-14 114,-54 151,-81 47,-34 98,-82 129,-121l9 -10 30 9c30,10 36,13 63,24 19,8 72,43 72,47 0,3 -6,4 -14,4 -8,0 -25,3 -39,7 -63,20 -104,51 -115,86 -6,22 3,21 20,-3 19,-27 49,-43 106,-58l39 -10 20 11c31,16 45,51 68,167 11,61 19,96 31,143 3,10 8,34 12,53 3,19 8,41 9,49 2,7 5,23 7,35 17,82 22,98 33,96 4,-1 7,-5 6,-10 -1,-5 -4,-22 -6,-38 -2,-15 -7,-40 -9,-55 -3,-16 -8,-48 -12,-73 -10,-60 -13,-78 -25,-135 -5,-27 -12,-59 -14,-72 -2,-13 -7,-34 -9,-48 -4,-17 -4,-27 0,-34 6,-12 2,-82 -7,-120 -9,-37 -6,-59 16,-106 15,-30 16,-35 16,-83 0,-46 -2,-53 -13,-77 -13,-27 -36,-56 -87,-107 -39,-38 -49,-53 -59,-81 -8,-25 -7,-37 5,-112 12,-69 15,-179 5,-204 -19,-48 -111,-155 -147,-172 -4,-2 -13,-8 -21,-12 -7,-6 -22,-10 -32,-10 -16,0 -23,-4 -41,-22 -39,-36 -99,-65 -169,-81 -62,-14 -154,-21 -165,-14l0 0zm-744 3203c0,2 28,511 26,518 -1,7 99,-14 99,-14l0 0c6,-1 4,-17 -19,-145 -2,-11 -6,-33 -9,-49 -5,-29 -17,-90 -24,-121 -2,-10 -7,-35 -11,-56 -5,-20 -10,-46 -12,-57 -9,-39 -14,-64 -21,-108 -5,-24 -10,-55 -12,-67 -28,-159 -29,-269 -1,-333 9,-21 95,-98 108,-98 3,0 5,-2 5,-5 0,-2 3,-4 7,-4 3,0 9,-4 12,-7 3,-4 12,-7 21,-7 4,0 8,-1 11,-2 12,0 24,-4 32,-6 2,1 3,2 6,3 7,4 15,2 38,-9 16,-7 34,-14 41,-16 6,-2 16,-5 21,-7 17,-7 55,-14 91,-17l7 0 1 0c7,-1 254,-11 531,-117 218,-83 299,-124 325,-138 1,3 1,6 2,8 3,16 7,39 10,52 12,49 5,184 -11,246 -15,56 -47,133 -56,137 -2,1 -4,4 -4,8 0,3 -18,25 -40,47 -34,33 -49,45 -81,60 -46,23 -75,33 -116,43 -59,13 -105,21 -168,31 -49,8 -77,13 -116,21 -46,9 -106,20 -119,22 -8,1 -22,4 -30,6 -9,3 -39,8 -66,12 -27,5 -53,10 -58,12 -5,2 -15,5 -23,5l-14 1 1 161c1,89 -1,190 -3,226 -13,165 -12,212 7,212 10,0 15,-35 18,-114 1,-44 5,-103 8,-131 5,-49 3,-222 -4,-298l-2 -33 20 -3c75,-11 128,-19 192,-31 71,-12 114,-20 139,-23 14,-2 28,-6 31,-7 3,-2 52,-6 109,-8 108,-5 231,-12 282,-16 17,-1 51,-3 75,-3l45 -2 5 24c3,13 6,33 6,46 0,27 11,30 16,4 8,-44 8,-81 0,-92l-8 -13 -79 3c-45,2 -105,4 -135,6 -37,1 -55,1 -55,-3 0,-2 3,-5 7,-5 11,0 66,-26 94,-45 70,-48 125,-133 155,-241 13,-48 20,-123 17,-191 -2,-85 -7,-113 -29,-183 -4,-11 -6,-21 -6,-22 0,-1 13,-8 29,-16 17,-7 44,-22 60,-33 16,-10 33,-20 36,-22 11,-5 47,-31 75,-56 22,-19 51,-65 61,-96 18,-56 19,-62 16,-108 -3,-62 -15,-205 -20,-224 -2,-11 -5,-15 -10,-14 -13,2 -17,48 -10,126 8,103 11,167 6,177 -3,6 -8,22 -13,36 -10,31 -27,55 -59,86 -27,26 -116,83 -171,110 -54,26 -88,41 -93,41 -3,0 -9,2 -14,4 -11,6 -28,13 -54,22 -13,4 -28,10 -34,12 -16,6 -27,11 -78,30 -25,10 -54,20 -63,24 -16,7 -20,8 -56,22 -34,14 -41,17 -52,21 -10,4 -50,17 -105,35 -36,10 -41,10 -50,-11 -13,-27 -47,-78 -68,-101 -10,-11 -18,-21 -17,-22 4,-3 36,-17 39,-17 3,0 40,-18 111,-52 13,-7 34,-18 47,-25 13,-7 44,-25 70,-39 25,-14 57,-32 70,-39 28,-16 193,-97 218,-108 9,-4 24,-10 32,-14 8,-3 23,-9 34,-11 10,-3 21,-7 25,-10 11,-7 2,-19 -13,-19 -9,0 -15,-3 -16,-8 -2,-4 -8,-16 -15,-27 -6,-10 -13,-22 -15,-25 -1,-4 -4,-8 -6,-10 -2,-1 -9,-14 -16,-29 -11,-25 -12,-30 -8,-47 3,-10 6,-26 8,-35 3,-18 10,-43 17,-59 1,-5 5,-14 7,-20 12,-47 29,-76 29,-51 0,12 14,69 19,79 3,5 5,12 5,16 0,4 3,18 7,31 4,14 9,33 12,43 22,81 32,105 46,105 5,0 3,-31 -5,-58 -7,-26 -14,-51 -23,-89 -5,-20 -12,-49 -16,-65 -5,-15 -10,-37 -13,-49 -2,-11 -7,-29 -9,-39 -6,-24 -11,-46 -20,-91 -5,-19 -10,-43 -12,-54 -2,-10 -6,-28 -9,-40 -3,-12 -8,-29 -12,-36 -7,-15 -19,-19 -24,-8l0 0c0,1 0,5 0,9 -2,48 -11,279 -19,341 -1,2 -1,4 -1,7 0,1 0,3 -1,5 0,2 -1,4 -1,4 -1,6 -3,14 -6,21 -3,12 -7,37 -7,56 0,37 7,53 43,103 22,30 24,27 -23,47 -27,12 -89,41 -150,71 -38,19 -64,33 -135,74 -98,55 -103,57 -115,54 -20,-6 -90,-11 -201,-16l-105 -5 -216 108c-120,59 -230,114 -247,123 -58,28 -150,80 -193,108 -67,43 -111,83 -143,129 -26,37 -29,45 -46,128 -10,49 5,205 27,284 3,9 9,33 14,54 14,51 20,72 24,83 2,6 7,22 12,38 5,15 10,30 12,32 2,3 4,9 4,15 0,6 2,11 4,13 3,1 6,10 8,19 1,10 4,21 7,25 2,4 11,29 21,56 9,27 18,53 21,59 2,5 12,33 23,62 11,30 21,58 24,63 2,5 14,42 28,83 24,74 35,96 45,90 9,-5 4,-44 -9,-80 -1,-5 -7,-21 -11,-35 -4,-14 -10,-29 -12,-34 -2,-6 -7,-19 -11,-31 -4,-11 -9,-27 -12,-35 -11,-27 -14,-33 -26,-67 -7,-19 -14,-39 -16,-44 -2,-6 -7,-21 -12,-35 -4,-14 -9,-30 -12,-34 -2,-4 -4,-11 -4,-15 0,-4 -2,-11 -4,-16 -3,-4 -8,-19 -12,-33 -4,-14 -10,-30 -12,-35 -8,-17 -28,-83 -28,-92 0,-4 -2,-9 -4,-10 -2,-1 -5,-9 -7,-18 0,-8 -7,-36 -14,-62 -32,-119 -46,-237 -35,-287l6 -28 30 3c17,1 50,4 73,6 38,3 41,2 39,-6 -3,-16 -26,-23 -85,-24 -62,-2 -59,1 -40,-41 26,-58 103,-128 200,-182 9,-5 27,-15 40,-23 50,-28 72,-40 284,-146 211,-106 239,-121 244,-126 13,-13 29,-14 109,-14 46,0 104,2 129,5 24,2 49,4 55,4 18,0 11,7 -29,26 -41,20 -89,47 -101,57 -4,3 -12,6 -18,6 -5,0 -10,2 -12,4 -2,4 -14,7 -68,14l-22 4c-5,-22 -15,-65 -15,-70 0,-5 -35,51 -51,79 -15,1 -35,1 -52,1 -58,1 -102,9 -117,22 -27,25 -87,127 -87,148 0,6 -7,21 -16,34 -37,53 -44,82 -22,93 9,5 9,5 -17,21 -53,34 -91,70 -107,101 -31,62 -31,187 -2,357 7,34 12,62 16,85zm829 -2444l41 -14c0,0 -2,43 -41,65 -21,11 -35,16 -43,17 -2,10 -3,23 -5,39 -3,25 -6,56 -7,70 -5,43 -14,58 -54,83 -35,23 -50,37 -61,61 -11,27 -11,51 2,75 74,140 309,-8 383,-66 18,-13 100,-92 100,-95 0,-1 -3,-2 -6,-2 -7,0 -36,-14 -58,-28 -10,-6 -15,-28 -6,-28 2,0 16,6 31,12 41,19 43,19 88,32 23,7 46,14 50,17 5,3 11,4 13,4 8,0 56,24 76,38 24,16 44,37 65,70 19,27 21,27 10,-3 -3,-10 -6,-35 -6,-56 -1,-34 1,-41 18,-76 17,-37 19,-43 19,-82 0,-58 -9,-74 -82,-150 -32,-33 -61,-69 -67,-79 -12,-24 -16,-61 -10,-106 6,-48 13,-103 19,-147 7,-48 -2,-84 -35,-130 -29,-44 -85,-103 -106,-113 -31,-15 -62,-25 -91,-30l-19 -2 23 23c34,36 30,54 -5,20 -9,-9 -32,-24 -49,-33 -27,-13 -35,-15 -57,-13 -38,3 -39,8 -9,40 33,34 46,63 44,95 -2,28 -13,37 -13,11 0,-32 -39,-86 -84,-115 -21,-14 -22,-14 -40,-7 -29,13 -57,27 -62,34 -10,11 -15,6 -13,-10 3,-16 2,-17 -14,-19 -23,-5 -108,1 -114,7 -7,7 -27,6 -27,-1 0,-3 7,-9 16,-12 8,-3 18,-8 23,-11 16,-8 87,-13 123,-8 35,5 37,4 66,-8l30 -14 -16 -9c-9,-5 -26,-13 -38,-16 -24,-8 -27,-12 -12,-16 22,-7 69,7 93,28 6,6 14,6 46,2 22,-2 49,-5 61,-5 18,0 22,-1 20,-7 -2,-4 -8,-7 -14,-7 -6,0 -12,-2 -14,-4 -5,-10 -46,-25 -95,-35 -19,-5 -41,-10 -49,-12l0 0c-20,-6 -132,-5 -147,1 -6,3 -20,8 -30,12 -26,10 -70,42 -96,69 -77,82 -144,196 -181,311 -14,43 -14,148 0,182 13,31 18,40 55,99 62,98 67,119 43,191 -14,45 -18,74 -9,91 3,5 18,22 33,36 17,17 27,30 27,36 0,6 1,10 3,10 6,0 123,-63 142,-77 11,-9 27,-20 36,-26l15 -9 0 -74 0 -74 -12 -5c-7,-3 -18,-5 -25,-5 -31,0 -81,-28 -101,-57 -30,-42 -42,-93 -49,-215 -2,-36 -5,-81 -6,-100 -4,-32 -4,-34 -10,-23 -4,6 -6,16 -7,21 0,6 -2,12 -4,13 -2,1 -5,8 -6,15 -2,8 -7,28 -11,46 -7,32 -14,66 -19,101 -2,11 -1,20 2,24 8,7 7,22 -1,22 -13,0 -19,-20 -18,-72 0,-44 9,-103 20,-131 2,-5 6,-18 9,-28 26,-84 85,-144 183,-183 25,-10 45,-4 45,12 0,5 -3,6 -10,4 -28,-7 -127,60 -147,99 -8,14 -5,18 21,21 21,2 36,13 33,24 -1,2 -14,5 -30,7 -20,2 -28,4 -29,10 -1,10 10,43 16,43 24,2 35,19 23,38 -6,10 -10,11 -20,9l-12 -3 4 32c10,102 17,144 31,168 26,48 50,63 113,74 37,6 43,6 75,-8 5,-3 9,-4 13,-5zm-475 1175c11,-15 25,-41 35,-86 19,-90 -20,-142 -20,-142l0 0c-2,-1 -3,-2 -5,-3 -7,-4 -23,-14 -33,-22 -11,-9 -34,-28 -51,-42 -36,-28 -134,-125 -176,-174 -54,-62 -110,-133 -110,-139l0 0c0,-1 -1,-3 -3,-3 -4,0 -25,14 -29,19 -5,5 -90,69 -95,71 -4,1 -4,4 0,10 3,5 18,29 32,53 36,60 79,129 96,152 7,10 21,30 30,44 10,14 20,28 23,31 2,3 18,22 35,42 33,40 45,53 69,73 9,8 28,24 42,36 28,26 62,49 91,62 10,4 23,10 29,13 6,3 23,5 40,5zm-186 677c0,0 -2,7 4,11 1,1 2,1 3,2 2,1 3,2 6,2 11,3 25,-5 33,-10l1 -5c6,-25 24,-51 42,-60 6,-3 22,-13 36,-23 60,-41 89,-50 91,-30 1,7 -3,12 -14,16 -25,11 -98,60 -115,77 -15,16 -14,22 4,12 35,-19 92,-35 139,-39 48,-5 135,-26 160,-40 5,-3 11,-5 14,-5 9,0 81,-37 92,-47 6,-5 10,-11 10,-15 0,-7 -29,-50 -48,-73 -8,-9 -21,-25 -28,-34 -10,-13 -15,-16 -19,-13 -2,3 -9,5 -15,5 -6,0 -15,2 -20,5 -13,7 -70,15 -140,19 -108,7 -132,10 -144,17 -11,7 -56,69 -56,77 0,2 14,-5 31,-17 53,-33 85,-50 90,-47 10,6 3,20 -15,30 -41,21 -68,40 -95,67 -79,80 -111,138 -76,138 6,0 9,-3 9,-10 0,-30 152,-174 174,-165 11,4 5,14 -16,29 -52,37 -121,100 -137,124l-1 2zm728 498c-2,2 -106,5 -231,7 -233,4 -249,5 -246,22 1,7 18,8 215,8 118,0 244,-1 280,-3l65 -2 3 35c2,19 5,60 8,91 2,30 7,72 9,93 3,20 6,45 8,56 6,57 9,65 20,66l11 2 -2 -65c-2,-35 -6,-94 -11,-131 -4,-38 -8,-81 -10,-98 -1,-17 -4,-32 -6,-35 -2,-2 -3,-7 -1,-10 2,-5 12,-6 38,-6l36 0 4 26c2,15 5,42 7,60 2,17 6,48 9,67 3,19 7,56 11,81 4,34 8,48 13,51 5,3 10,4 11,3 4,-4 -10,-171 -20,-244 -3,-18 -5,-36 -5,-39 0,-4 14,-5 57,-6 95,0 129,-8 114,-26 -4,-5 -46,-6 -195,-6 -104,0 -191,1 -192,3l0 0zm-794 -317c-11,4 -15,9 -14,15 2,7 10,8 96,9 92,1 107,-1 95,-14 -14,-14 -150,-22 -177,-10l0 0zm623 -1057c0,40 74,80 138,76 68,-5 126,-27 142,-52 5,-8 9,-16 9,-19 0,-6 -14,-3 -20,5 -3,5 -11,11 -17,14 -35,16 -47,18 -110,18 -76,0 -82,-2 -122,-39 -9,-8 -18,-15 -18,-15 -1,0 -2,5 -2,12l0 0zm-1066 -716c-14,43 7,125 40,158 20,21 39,9 20,-12 -14,-14 -28,-41 -36,-66 -7,-23 -7,-57 0,-55 8,3 21,27 24,45 5,19 29,57 38,57 3,0 8,3 11,6 3,4 15,11 26,17 21,11 30,21 47,53 9,18 18,23 20,11 2,-10 -20,-56 -33,-67 -5,-5 -21,-16 -34,-23 -43,-23 -36,-29 13,-9 16,7 36,12 44,12 14,0 16,-2 15,-10 -1,-7 -8,-12 -23,-17 -52,-16 -68,-34 -66,-72 1,-19 -5,-26 -15,-18 -8,7 -10,45 -3,49 7,4 2,12 -7,12 -10,0 -21,-11 -21,-22 0,-13 -15,-36 -27,-41 -6,-3 -11,-9 -13,-15 -4,-16 -13,-12 -20,7zm-53 -31c-6,4 -8,12 -8,40 0,20 2,42 5,50 2,8 8,27 12,42 5,16 12,36 17,44 12,22 41,61 45,61 1,0 10,7 20,15 17,16 23,21 67,55 15,11 42,35 58,52 25,27 32,31 36,26 5,-6 3,-11 -6,-24 -6,-9 -12,-19 -12,-21 0,-5 -75,-70 -81,-70 -5,0 -36,-27 -67,-56 -24,-23 -45,-57 -56,-91 -12,-34 -15,-48 -18,-77l-2 -33 13 0c8,0 16,0 20,0 3,1 5,-2 4,-7 -1,-7 -6,-9 -20,-9 -11,-1 -23,1 -27,3l0 0zm1197 -386c-7,10 -44,32 -65,38 -11,3 -16,17 -8,22 3,1 11,1 19,0 11,-4 13,-3 14,6 4,25 50,6 67,-27 8,-16 8,-22 1,-38 -6,-14 -19,-15 -28,-1l0 0zm264 -116c-30,31 -57,89 -48,100 4,5 8,1 17,-18 11,-21 13,-23 25,-21 16,3 21,-4 11,-16 -8,-9 -8,-10 0,-18 5,-6 13,-10 17,-10 11,0 17,-12 10,-23 -8,-12 -17,-10 -32,6zm-390 -22c-5,14 -13,105 -10,121 5,24 23,44 40,44 16,0 21,-7 9,-14 -5,-3 -13,-12 -17,-20 -7,-14 -7,-19 1,-92 3,-28 -3,-46 -14,-46 -4,0 -7,3 -9,7zm95 -18c-11,4 -14,11 -14,28 0,12 3,17 11,21 27,12 49,-28 25,-45 -11,-8 -12,-8 -22,-4l0 0zm-12 -213c-6,20 13,94 28,112 11,12 8,14 -14,14 -13,0 -24,3 -31,9 -9,8 -10,10 -4,17 6,7 13,7 45,5 38,-2 38,-2 51,11 16,17 68,43 92,46l19 3 6 32c5,24 5,40 2,61 -13,79 -8,91 19,45 8,-14 16,-29 17,-31 27,-72 47,-96 85,-99 38,-4 60,20 60,67 0,34 -18,65 -55,94 -28,22 -41,26 -52,15 -16,-16 -26,-19 -33,-12 -6,7 -1,20 12,30 4,4 5,8 3,11 -3,3 -8,20 -12,39 -14,58 -7,175 14,224 8,18 13,21 20,13 4,-4 4,-10 1,-17 -5,-13 -16,-103 -16,-135 0,-28 11,-104 16,-109 2,-2 4,1 4,10 0,9 2,16 5,18 3,1 4,7 4,12 0,19 35,76 66,107 29,29 62,47 74,40 6,-4 -5,-17 -14,-17 -3,0 -18,-14 -34,-30 -40,-40 -68,-96 -68,-134 0,-26 0,-26 23,-43 23,-17 56,-59 56,-73 0,-5 2,-10 4,-11 7,-4 6,-55 0,-78 -12,-38 -50,-61 -87,-52 -28,7 -61,37 -61,53 0,9 -16,42 -20,42 -2,0 -4,-16 -4,-35 0,-49 -8,-63 -36,-63 -8,0 -19,-2 -23,-4 -5,-2 -20,-10 -35,-17 -30,-14 -66,-51 -82,-83 -10,-20 -24,-71 -24,-87 0,-12 -17,-12 -21,0z"/>
   </g>
   <g>
    <polygon class="fil0" points="1475,4901 2446,4901 2446,5025 1793,5025 1735,5493 1643,5461 1689,5025 1475,5025 "/>
    <path class="fil2" d="M1851 4491c0,0 382,140 435,107 53,-33 38,-112 38,-112 0,0 24,-44 -92,-112 -115,-68 -277,-71 -277,-71 0,0 -105,147 -104,188z"/>
    <path class="fil1" d="M2285 4411c-13,-11 -30,-24 -53,-37 -115,-68 -277,-71 -277,-71 0,0 -8,11 -20,28 -4,20 -4,42 11,61 35,46 89,82 98,104 9,22 19,61 39,65 20,4 52,-69 94,-85 42,-16 107,-56 108,-65z"/>
    <path class="fil2" d="M2999 3044l29 -121c0,0 54,-116 67,-137 13,-22 45,-138 70,-134 25,4 23,8 25,43 2,35 -34,131 -34,131 0,0 80,9 88,10 7,1 66,35 76,66 9,31 -46,78 -46,78 0,0 -10,19 2,23 12,5 25,6 21,21 -3,14 -28,34 -28,34 0,0 -46,41 -70,41 -24,1 -63,15 -70,28 -7,13 -130,-83 -130,-83z"/>
    <path class="fil1" d="M3085 2804c4,-8 8,-15 10,-18 13,-22 45,-138 70,-134 25,4 23,8 25,43 2,35 -34,131 -34,131 0,0 80,9 88,10 7,1 66,35 76,66 9,31 -46,78 -46,78 0,0 -4,8 -4,15 -20,8 -43,15 -59,20 -39,11 -36,-26 -59,-48 -23,-23 -29,-77 -29,-77 0,0 -2,-4 -25,-24 -9,-7 -12,-33 -13,-62z"/>
    <path class="fil13" d="M1845 2685c0,0 -116,10 -242,78 -127,69 -268,175 -268,175 0,0 120,728 108,783 -12,54 -31,542 -31,542 0,0 760,81 845,40 84,-41 110,-109 110,-109l-6 -126c0,0 -4,-854 -25,-997 -21,-143 -23,-191 -23,-191l-200 -128 -268 -67z"/>
    <path class="fil14" d="M1845 2685c0,0 -116,10 -242,78 -127,69 -268,175 -268,175 0,0 120,728 108,783 -9,44 -25,380 -30,500 21,16 45,33 73,50 194,19 703,65 771,32 84,-41 110,-109 110,-109l-6 -126 0 -31c-53,30 -226,113 -467,79 -291,-41 -346,-446 -351,-594 -5,-147 -71,-464 -36,-534 35,-69 157,-134 157,-134 0,0 127,-13 288,-44 120,-23 286,62 364,107 -3,-26 -3,-37 -3,-37l-200 -128 -268 -67zm-82 983c0,0 63,116 195,180 133,65 228,61 220,51 -8,-9 -164,-56 -415,-231zm139 -99c0,0 96,77 157,101 61,23 -26,-43 -75,-74 -49,-31 -82,-27 -82,-27z"/>
    <path class="fil15" d="M1335 2938c0,0 54,30 85,120 30,89 72,365 72,365l-113 373c0,0 -24,99 -19,105 5,6 238,202 331,255 92,54 264,147 264,147l-101 167c0,0 -83,-12 -208,-57 -125,-46 -336,-166 -336,-166 0,0 -129,-76 -210,-191 -81,-114 -48,-214 -48,-214 0,0 63,-384 127,-592 64,-208 118,-303 156,-312z"/>
    <path class="fil13" d="M1335 2938c0,0 47,26 78,101 -3,5 -7,9 -10,12 -7,3 -74,21 -108,118 -33,96 -186,740 -119,822 66,83 193,204 319,230 125,27 127,74 180,99 53,25 86,26 111,3 18,-18 92,24 128,46l-60 101c0,0 -83,-12 -208,-57 -125,-46 -336,-166 -336,-166 0,0 -129,-76 -210,-191 -81,-114 -48,-214 -48,-214 0,0 63,-384 127,-592 64,-208 118,-303 156,-312z"/>
    <path class="fil15" d="M2302 2891c0,0 40,238 51,387 11,150 25,422 25,422 0,0 69,132 154,123 84,-8 159,-97 159,-97 0,0 76,-33 188,-187 112,-154 265,-384 265,-384 0,0 -41,-41 -45,-41 -3,-1 -123,-73 -123,-73 0,0 -30,26 -74,88 -44,62 -145,156 -187,193 -42,37 -121,99 -121,99l-61 -151c0,0 -169,-378 -231,-379z"/>
    <path class="fil13" d="M2346 3198c3,28 5,56 7,80 6,90 14,222 19,315 10,47 22,103 32,149 28,37 75,86 128,81 84,-8 159,-97 159,-97 0,0 76,-33 188,-187 112,-154 265,-384 265,-384 0,0 -41,-41 -45,-41 -1,-1 -22,-13 -46,-28 -9,-4 -68,102 -54,111 14,10 6,49 -42,117 -48,68 -278,341 -359,318 -81,-24 -99,-264 -140,-355 -41,-91 -27,-122 -67,-197 -41,-75 -76,-175 -76,-175 16,47 25,171 31,293z"/>
    <path class="fil2" d="M2048 1888c13,7 150,142 150,142 0,0 -5,142 1,159 7,17 5,249 -3,276 -9,27 -48,100 -99,116 -52,15 -94,20 -94,20l12 197c0,0 -63,104 -161,76 -97,-28 -128,-119 -128,-119l13 -242c0,0 -172,-127 -142,-266 31,-139 318,-401 451,-359z"/>
    <path class="fil1" d="M2138 1971c32,31 60,59 60,59 0,0 -5,142 1,159 7,17 5,249 -3,276 -9,27 -48,100 -99,116 -29,8 -55,14 -72,17 -34,-11 -58,-21 -58,-21 0,0 24,2 113,-41 72,-34 86,-136 86,-202 -11,-3 -28,-9 -35,-19 -8,-11 17,-27 32,-32 -5,-54 -14,-130 -39,-123 -26,8 -29,64 -28,100 1,36 11,116 -27,132 -37,16 -23,-31 -12,-51 12,-20 -6,-105 -6,-136 0,-31 -7,-49 -82,-55 -75,-5 -73,-131 -69,-125 0,0 133,-37 238,-54zm-405 648l6 -106c0,0 -6,-4 -16,-12 17,-29 44,-59 44,-59 0,0 75,11 66,79 -9,69 42,117 42,117l0 0c81,43 109,77 112,113 3,32 -74,105 -106,127 -8,0 -16,-1 -24,-4 -29,-31 -101,-120 -129,-163l3 -54 2 -38 0 0zm-88 -202c-26,-36 -48,-79 -51,-126 23,-30 59,-61 107,-58 0,0 33,28 32,91 0,63 44,104 5,130 -18,12 -57,-10 -93,-37zm363 -124c0,0 -64,-10 -81,10 -17,20 21,38 57,29 36,-9 44,-30 24,-39z"/>
    <path class="fil15 str0" d="M1704 2644c0,0 -56,81 -61,103 -5,21 -10,123 36,202 45,80 139,295 139,295 0,0 100,191 135,199 36,8 49,-54 49,-54 0,0 92,-347 96,-386 5,-39 -11,-229 -11,-229 0,0 -40,-92 -56,-104 -15,-12 -56,84 -84,128 -28,44 -48,61 -48,61 0,0 -68,-51 -83,-68 -14,-17 -112,-147 -112,-147z"/>
    <path class="fil13" d="M1704 2644c0,0 -56,81 -61,103 -5,21 -10,123 36,202 45,80 139,295 139,295 0,0 100,191 135,199 36,8 49,-54 49,-54 0,0 16,-59 34,-132 -16,-4 -35,-9 -58,-16 -139,-38 -161,-225 -161,-225 0,0 -35,5 -78,-94 -43,-99 -9,-244 -9,-244l0 0 -26 -34zm333 32c-2,-2 -4,-5 -6,-6 -15,-12 -56,84 -84,128 -23,37 -41,55 -46,60l2 3c0,0 112,102 134,92 23,-10 -31,-72 -48,-94 -16,-21 17,-29 41,-119 7,-26 8,-47 7,-64z"/>
    <path class="fil6" d="M1977 1763c-13,3 -23,7 -61,27l-33 17 -23 -12c-45,-21 -113,-19 -148,6 -10,7 -26,27 -36,43 -25,44 -34,51 -61,51 -55,0 -106,27 -129,67 -12,21 -14,29 -14,56 0,23 3,37 8,45 23,35 39,63 39,70 0,7 -5,16 -28,51 -25,38 -28,45 -28,60 0,26 20,52 53,69 28,14 30,17 30,38 0,25 7,45 23,65 17,20 57,42 82,43l19 2 1 23c2,32 19,54 41,54l16 0 0 34c0,42 -6,63 -18,60 -9,-2 -28,17 -53,56 -23,35 -67,67 -234,165 -125,74 -146,99 -198,235 -5,13 -11,29 -13,34 -3,5 -10,25 -17,44 -7,19 -14,39 -17,43 -2,5 -4,12 -4,15 0,4 -2,11 -4,16 -5,9 -35,104 -42,133 -2,11 -7,27 -10,38 -3,10 -8,32 -12,49 -4,16 -9,38 -12,48 -5,22 -9,41 -20,96 -4,22 -10,49 -12,60 -3,12 -9,53 -14,91 -5,38 -11,82 -14,96 -5,32 -6,80 0,94 2,6 8,23 12,38 5,16 13,34 17,41 5,6 9,13 9,15 0,8 35,50 47,56 27,15 30,6 6,-22 -27,-31 -63,-130 -63,-172 0,-11 2,-31 5,-45 2,-15 6,-46 9,-71 3,-24 7,-54 10,-67 2,-13 6,-34 8,-47 7,-37 19,-96 24,-116 2,-10 8,-34 11,-51 4,-18 10,-41 12,-51 3,-11 7,-27 10,-35 2,-9 6,-25 9,-35 2,-11 7,-27 10,-38 3,-10 7,-22 9,-27 1,-6 9,-27 15,-49 7,-22 15,-44 17,-49 2,-5 17,-44 33,-86 30,-79 65,-155 78,-169 10,-12 16,-11 30,4 18,20 30,44 51,106 31,93 42,144 55,263 3,30 7,59 10,65 5,14 5,27 -1,44 -2,8 -8,27 -12,43 -4,15 -9,32 -11,37 -2,5 -7,22 -12,37 -11,42 -17,60 -21,70 -3,9 -13,42 -21,72 -1,7 -4,18 -7,26 -7,27 -28,107 -32,123 -7,32 -8,33 -39,33 -38,0 -70,15 -72,33 -2,16 4,17 28,6 11,-4 32,-7 54,-7l37 0 20 20c41,39 67,61 116,98 19,14 163,112 170,115 3,2 23,15 46,29 22,15 42,27 43,27 2,0 14,8 28,16 14,9 27,17 29,17 12,0 6,14 -16,44 -32,41 -48,75 -48,98 0,15 1,17 7,11 3,-3 7,-8 7,-10 0,-10 42,-68 74,-103l16 -17 24 11c13,6 30,14 38,17 8,4 15,10 15,14 0,4 -7,18 -17,32 -8,14 -23,38 -31,54 -9,16 -22,37 -29,46 -12,16 -15,16 -32,14 -10,-2 -21,-5 -23,-7 -3,-2 -12,-4 -20,-4 -8,0 -16,-2 -18,-5 -1,-2 -7,-4 -12,-4 -10,0 -104,-34 -142,-52 -119,-53 -243,-116 -276,-139 -7,-4 -15,-10 -19,-11 -4,-2 -15,-8 -26,-15 -35,-21 -48,-27 -54,-22 -3,3 -4,9 -2,13 2,6 63,48 122,83 16,9 21,15 18,21 -2,4 -4,13 -5,19 -1,7 -4,16 -6,21 -5,9 -6,19 -15,93 -5,46 -3,174 4,196 3,7 8,23 11,35 3,11 11,30 16,42 38,78 72,113 138,145 18,8 32,16 32,18 0,1 -18,4 -40,5 -22,2 -43,5 -46,9 -9,7 -10,43 -1,78 4,15 8,37 9,50 1,12 4,27 6,31 4,11 21,11 42,-1 14,-8 25,-9 83,-9l68 0 0 28c-1,40 -11,165 -24,281 -3,28 -6,64 -6,79 0,26 1,28 10,30 11,2 12,-1 20,-53 13,-88 20,-153 27,-268 4,-47 7,-89 8,-92 1,-4 13,-5 37,-5l36 0 -3 31c-1,17 -4,47 -7,66 -4,32 -12,103 -24,203 -12,104 -14,139 -7,146 10,10 19,0 24,-26 5,-36 10,-80 15,-125 3,-23 6,-50 7,-60 2,-11 6,-42 8,-70 8,-77 12,-119 16,-144l4 -21 294 0 294 0 4 61c10,173 13,220 28,330 4,32 10,71 12,88 2,17 6,44 9,61 3,16 6,40 7,53 1,22 2,24 19,33 20,11 43,19 65,25 8,3 25,7 39,11 60,16 114,22 215,23 98,1 101,1 116,-10 12,-9 14,-13 12,-23 -2,-7 2,-25 9,-45 7,-18 17,-49 22,-70 5,-20 11,-41 13,-46 2,-5 5,-15 6,-21 1,-7 8,-32 14,-57 7,-25 18,-66 25,-91 6,-25 14,-53 16,-62 3,-9 8,-29 12,-46 4,-17 9,-38 11,-47 14,-58 28,-116 37,-146 2,-8 7,-30 12,-49 4,-19 9,-39 12,-45 2,-5 4,-14 5,-21 2,-6 8,-32 15,-58 32,-120 36,-146 29,-197 -9,-59 -24,-87 -69,-132 -55,-54 -163,-122 -255,-161 -14,-7 -36,-16 -49,-22 -13,-6 -33,-14 -45,-20 -11,-5 -34,-15 -51,-22 -17,-7 -39,-17 -50,-21 -10,-5 -20,-9 -22,-9 -1,0 -15,-6 -31,-14 -16,-7 -42,-18 -57,-25 -14,-7 -27,-12 -28,-12 -4,0 -83,-37 -116,-54 -32,-17 -45,-20 -45,-11 0,24 -298,61 -415,51 -24,-2 -45,-3 -47,-2 -3,2 -39,-17 -60,-31 -7,-5 -14,-9 -16,-9 -1,0 -10,-5 -18,-12 -8,-6 -17,-11 -19,-11 -1,0 -13,-7 -25,-16 -12,-8 -23,-16 -26,-17 -20,-10 -182,-122 -238,-164l30 -569 0 -2 0 0c0,-4 -1,-7 -3,-11 -3,-6 -8,-31 -10,-55 -14,-115 -13,-111 -28,-177 -8,-38 -41,-133 -58,-168 -8,-19 -22,-40 -30,-48 -16,-15 -19,-26 -8,-26 4,0 7,-1 7,-4 0,-2 10,-9 23,-16 12,-7 26,-15 31,-19 42,-25 58,-35 61,-35 4,0 115,-72 124,-81 6,-4 11,-8 14,-8 1,0 3,15 3,34 1,65 20,142 49,187 9,13 22,41 30,63 8,22 19,47 22,56 4,9 9,20 11,26 22,52 70,143 109,204 14,23 27,46 29,50 2,5 4,9 7,9 2,0 4,2 4,5 0,6 20,34 41,56 27,29 48,22 68,-22 5,-10 12,-30 15,-44 4,-14 9,-32 11,-40 2,-7 9,-34 16,-58 7,-24 14,-51 17,-58 2,-8 7,-27 11,-42 4,-15 10,-35 12,-44 6,-20 11,-42 22,-105 9,-54 10,-99 2,-195 -3,-38 -5,-70 -4,-72 2,-1 6,0 9,3 3,2 22,13 41,23 94,50 130,74 130,87 0,6 2,12 4,15 6,7 15,40 20,81 3,22 7,53 9,70 3,17 6,58 9,93 2,34 6,70 7,79 1,9 5,159 7,333 6,357 12,568 16,598 2,12 6,24 9,28 10,13 14,-35 15,-230 1,-108 2,-198 2,-200 0,-3 13,8 29,23 47,46 69,59 106,62 30,2 34,1 71,-18 49,-24 79,-46 95,-69 18,-29 11,-32 -19,-7 -47,36 -126,71 -148,64 -37,-27 -156,-642 -156,-642 -5,-60 -11,-116 -20,-180 -3,-23 -5,-44 -4,-48 2,-6 34,37 49,65 2,5 10,18 17,29 12,19 50,95 50,101 0,1 6,16 14,33 8,17 14,31 14,32 0,1 7,18 16,37 9,20 16,37 16,38 0,2 4,12 9,22 24,53 29,66 29,76 0,11 0,15 15,43 5,7 8,20 8,27 0,8 3,13 9,14 5,2 9,5 9,7 0,8 25,32 33,32 5,0 9,0 9,-1 0,-1 -6,-14 -13,-29 -11,-22 -13,-29 -9,-33 4,-3 26,-22 50,-42 95,-79 168,-148 212,-198 31,-35 37,-42 60,-80 13,-20 29,-41 36,-47 13,-12 13,-12 24,-2 7,4 13,8 15,8 1,0 12,7 24,16 13,9 33,20 45,26 24,11 52,44 47,53 -2,3 -9,12 -16,19 -7,8 -18,20 -24,28l-11 13 -42 -27c-51,-34 -55,-35 -65,-28 -8,6 -8,7 -1,19 9,13 37,32 68,45 11,5 21,12 22,16 2,3 -4,15 -11,26 -7,11 -28,43 -45,71 -30,48 -76,116 -93,136 -28,33 -76,96 -87,114 -13,20 -13,20 -4,29 9,10 9,10 21,-2 7,-6 21,-22 31,-34 9,-13 35,-45 55,-70 41,-51 69,-92 119,-173 17,-28 51,-81 76,-117l44 -67 -6 -17c-6,-16 -5,-17 4,-25 6,-5 18,-9 28,-9 32,0 49,-8 77,-36 14,-16 26,-30 26,-33 0,-11 -18,-4 -44,18 -24,20 -31,23 -47,23 -24,0 -52,11 -59,24 -3,5 -10,9 -15,9 -9,0 -44,-22 -82,-53 -27,-22 -27,-21 -20,-67 3,-29 33,-102 46,-123 12,-17 26,-42 31,-54 5,-12 13,-30 18,-41 4,-10 11,-27 14,-37 3,-10 7,-21 9,-23 2,-3 5,-14 9,-25 9,-26 17,-34 27,-22 14,19 -1,82 -37,160 -10,21 -18,44 -18,50 0,19 13,13 24,-12 6,-13 13,-23 15,-24 34,-2 84,1 95,7 16,9 40,34 49,53 7,13 7,15 -1,28 -11,18 -16,20 -11,4 4,-18 -27,-63 -43,-63 -11,0 -8,23 5,38 12,14 15,34 7,49 -2,5 -6,14 -10,21 -6,14 -22,19 -15,5 2,-5 4,-18 5,-29 2,-19 1,-21 -25,-47 -20,-21 -28,-26 -33,-22 -10,8 -7,17 16,39l21 21 -5 28c-3,16 -7,31 -10,34 -3,3 -17,4 -31,4 -26,-1 -33,5 -18,17 15,12 37,11 70,-4 27,-12 35,-14 52,-12 22,4 26,-1 11,-14 -9,-8 -9,-9 16,-35 14,-15 27,-33 29,-40 4,-17 -12,-47 -40,-73 -35,-33 -59,-43 -80,-31 -6,3 -14,3 -28,-1 -19,-7 -21,-9 -14,-22 2,-4 8,-20 12,-36 4,-15 9,-34 12,-42 2,-8 4,-26 4,-40 0,-31 -8,-41 -34,-41 -19,0 -25,7 -38,44 -9,27 -12,36 -23,59 -4,10 -7,19 -7,20 0,6 -43,93 -47,96 -3,2 -22,37 -31,60 -5,12 -13,46 -19,87 -3,16 -5,18 -18,20 -15,1 -48,31 -64,60 -5,8 -11,15 -13,15 -2,0 -4,2 -4,5 0,6 -46,60 -79,93 -46,45 -220,195 -228,195 -2,0 -5,-2 -5,-6 0,-3 -2,-12 -6,-20 -4,-7 -16,-38 -29,-69 -11,-31 -24,-63 -27,-70 -4,-8 -11,-26 -17,-40 -5,-14 -14,-34 -19,-46 -5,-12 -13,-29 -17,-37 -13,-31 -34,-73 -45,-91 -7,-10 -13,-22 -15,-26 -2,-3 -15,-25 -31,-48 -46,-68 -84,-101 -174,-148 -25,-13 -55,-29 -67,-36 -11,-6 -29,-15 -39,-21 -13,-7 -21,-16 -29,-34 -12,-28 -36,-56 -51,-62 -8,-3 -11,-8 -11,-18 0,-13 0,-13 36,-16 41,-3 73,-17 103,-45 31,-29 39,-45 53,-103 6,-25 7,-184 2,-252 -4,-45 -4,-50 3,-50 10,0 10,-11 1,-19 -5,-4 -7,-15 -7,-35 0,-23 -1,-30 -7,-30 -4,0 -7,9 -9,28l-4 28 -23 0c-28,0 -49,12 -44,25 3,8 19,10 24,3 1,-3 12,-5 23,-5l20 0 3 87c4,128 4,164 -4,197 -16,75 -30,97 -77,122 -22,12 -70,23 -102,23 -33,0 -86,-11 -99,-20 -19,-13 -31,-2 -16,13 10,9 52,30 62,30 5,0 16,2 26,5l17 5 0 43c0,41 -1,46 -14,71 -13,23 -37,54 -80,102l-12 14 -22 -21c-50,-48 -93,-95 -110,-120 -20,-29 -20,-27 -9,-102 3,-18 5,-58 5,-89 0,-54 1,-58 10,-60 14,-4 8,-13 -10,-16 -43,-7 -88,-39 -103,-73 -11,-26 -11,-37 1,-60 12,-27 31,-39 57,-39 23,0 34,8 48,34 5,10 15,24 24,30l16 12 11 -11c11,-11 12,-14 11,-44 -2,-32 -1,-33 9,-34 7,-1 17,-5 22,-9 10,-6 11,-11 12,-64 2,-54 2,-57 15,-74 23,-31 55,-46 136,-68 11,-3 57,-5 104,-5l84 0 12 -16c12,-15 26,-58 26,-80 0,-6 -5,-21 -10,-32 -13,-26 -40,-46 -74,-53 -31,-7 -34,-8 -44,-26 -8,-18 -28,-36 -51,-49 -17,-9 -61,-16 -80,-11l0 0zm-216 1335c7,-1 16,-4 24,-11 16,-13 79,-95 105,-129 2,15 3,33 5,51l0 0c6,96 12,154 18,206 3,18 7,54 10,79 3,26 8,57 10,70 3,13 5,29 4,37 -2,14 -2,14 -19,-11 -9,-14 -30,-50 -47,-79 -16,-30 -37,-66 -45,-80 -16,-28 -49,-96 -65,-133zm155 -145l51 34c-3,2 -6,4 -8,6l0 0c-11,13 -7,32 9,39 11,5 13,4 24,-7 6,-6 10,-10 10,-14l66 44c-7,47 -12,67 -25,116 -6,24 -13,49 -15,56 -2,6 -4,16 -7,21 -3,9 -10,33 -18,67 -5,23 -24,90 -26,97 -5,16 -14,-6 -17,-42 -1,-21 -7,-63 -11,-92 -11,-76 -14,-109 -20,-189 -3,-38 -8,-88 -10,-110 -1,-8 -2,-17 -3,-26zm1221 -7c-11,11 13,48 33,48 15,0 17,-8 3,-16 -6,-5 -14,-14 -16,-22 -5,-13 -13,-17 -20,-10zm-1154 -527c-8,8 -3,35 6,44 17,15 52,30 60,25 11,-7 12,-20 1,-20 -13,0 -38,-19 -47,-35 -8,-14 -15,-19 -20,-14l0 0zm-298 -120c-7,6 -3,18 8,24 17,9 18,18 2,24 -9,4 -14,9 -14,16 0,13 7,14 25,5 14,-7 16,-5 27,19 9,24 20,17 15,-10 -3,-17 -23,-62 -33,-74 -7,-7 -25,-10 -30,-4zm389 -76c-1,4 -1,14 0,23 2,8 5,25 7,38 2,12 5,26 7,30 5,7 -4,39 -15,56 -15,21 -1,32 17,13 17,-19 25,-44 23,-65 -4,-36 -13,-85 -18,-94 -5,-10 -17,-10 -21,-1zm65 -10c-4,3 -6,10 -6,16 0,10 2,11 13,10 10,-1 13,-4 14,-17 2,-12 0,-15 -7,-15 -5,0 -11,2 -14,6zm-171 6c-14,13 -15,22 -4,32 8,9 11,9 22,1 9,-8 10,-32 1,-40 -5,-4 -9,-2 -19,7l0 0zm-16 -76c-15,8 -23,20 -16,27 4,4 10,4 25,-2 10,-4 30,-8 44,-8 27,0 37,-7 23,-17 -11,-7 -61,-8 -76,0zm32 1037c-11,11 -11,16 -5,29 6,9 24,11 32,3 12,-12 4,-41 -12,-41 -3,0 -10,4 -15,9zm-266 -488c21,46 79,111 136,151 14,9 27,19 29,21 2,1 -10,16 -26,33 -16,16 -45,47 -63,68 -37,39 -43,44 -54,40 -14,-5 -53,-69 -63,-104 -3,-12 -8,-28 -10,-35 -3,-8 -6,-37 -7,-66 -3,-43 -2,-55 6,-74 10,-28 29,-58 36,-58 3,0 10,11 16,24l0 0zm324 19c27,65 33,92 40,167 2,21 5,43 7,47 5,11 -7,38 -15,34 -13,-5 -100,-65 -120,-82 -30,-27 -29,-39 8,-78 26,-28 44,-57 59,-95 7,-17 12,-16 21,7l0 0zm-626 1116c0,54 -1,98 -3,98 -2,0 -13,-9 -25,-21l-22 -21 6 -20c3,-11 6,-23 8,-26 1,-4 6,-20 10,-35 4,-16 10,-35 12,-43 3,-8 5,-17 5,-22 0,-4 2,-7 4,-7 3,0 5,35 5,97l0 0zm552 498c3,2 36,8 74,12 70,8 76,10 103,22 27,12 72,48 72,57 0,3 -1,3 -4,-1 -2,-3 -15,-10 -30,-17 -19,-8 -27,-10 -31,-6 -6,7 -6,17 1,17 2,0 25,14 50,31 44,29 70,54 84,79 8,15 1,22 -8,8 -30,-44 -127,-108 -164,-108 -12,0 -15,2 -14,7 1,4 5,9 9,11 4,2 11,6 17,9 6,3 14,5 17,5 3,0 22,10 41,21 40,24 88,71 88,86 0,18 -30,9 -53,-15 -47,-48 -120,-89 -139,-77 -4,2 -4,5 3,13 5,5 11,10 14,10 9,0 58,26 78,41 27,21 33,27 29,33 -3,6 -36,3 -46,-4 -9,-7 -100,-32 -135,-38 -36,-5 -62,-14 -101,-34 -40,-19 -44,-23 -42,-42 1,-19 69,-124 80,-124 1,0 4,2 7,4l0 0zm-259 599c27,4 61,9 75,11 14,3 35,5 46,5 12,0 33,2 47,5 14,2 82,7 151,10 70,3 154,7 189,9 34,2 91,5 125,7 54,3 61,4 58,11 -1,4 -4,11 -5,15 -2,8 -27,8 -427,9 -233,0 -436,2 -449,4 -14,2 -27,2 -29,0 -2,-1 -4,-22 -6,-47 -3,-45 -3,-45 8,-43 6,1 40,0 75,-2 72,-5 72,-5 142,6l0 0z"/>
    <path class="fil0" d="M1950 1879c4,10 -9,20 -35,26 -10,3 -21,7 -22,9 -2,2 -6,4 -11,4 -4,0 -17,8 -27,17 -11,9 -21,16 -24,16 -12,0 -4,-19 16,-36 40,-36 96,-55 103,-36l0 0zm190 33c12,4 8,14 -8,20 -8,3 -21,9 -28,12 -8,4 -16,7 -18,7 -9,0 -4,-14 10,-28 14,-13 28,-17 44,-11zm-492 61c27,18 28,25 4,25 -37,0 -58,-13 -52,-31 5,-10 27,-8 48,6l0 0zm73 126c4,8 -2,17 -18,27 -8,4 -27,20 -41,34 -21,20 -28,23 -30,18 -4,-10 22,-46 44,-63 9,-7 18,-14 19,-16 2,-5 23,-5 26,0l0 0z"/>
    <path class="fil16" d="M2414 4472c14,9 27,17 28,17 2,0 14,6 27,15 14,9 61,34 106,56 45,23 87,44 93,49 7,5 15,10 19,11 24,11 81,53 108,80 51,50 64,99 51,182 -3,18 -8,57 -12,86 -7,54 -12,90 -21,142 -2,15 -8,49 -11,75 -4,25 -10,58 -12,72 -3,14 -9,48 -12,77 -12,83 -15,105 -20,130 -3,13 -7,32 -8,43 -2,11 -6,22 -10,25 -6,5 -7,0 -5,-38 2,-45 14,-138 22,-179 11,-58 20,-109 21,-128 2,-12 5,-25 7,-30 2,-5 5,-19 7,-31 6,-53 17,-135 21,-160 19,-127 20,-139 14,-164 -14,-54 -40,-85 -109,-131 -49,-32 -127,-77 -159,-91 -10,-4 -23,-10 -27,-13 -5,-3 -19,-11 -31,-17 -11,-6 -27,-15 -34,-20 -6,-5 -13,-9 -14,-9 -2,0 -15,-8 -30,-19 -15,-10 -31,-21 -35,-24 -9,-6 -11,-22 -3,-22 2,0 15,7 29,16l0 0zm677 227c13,11 -7,18 -90,31 -12,2 -26,3 -29,2 -8,-3 -5,-16 4,-20 4,-2 12,-6 17,-8 6,-4 19,-6 28,-6 10,-1 24,-3 32,-5 15,-3 29,-1 38,6l0 0zm-436 102c-1,7 -68,41 -80,41 -10,0 -12,-10 -3,-17 3,-3 18,-9 33,-14 14,-5 28,-11 30,-12 5,-6 20,-3 20,2l0 0z"/>
   </g>
   <g>
    <path class="fil0" d="M5067 1402c0,0 -49,3 -49,43 0,40 20,377 20,377l57 -60 251 -10c0,0 67,9 75,-43 7,-52 15,-267 15,-267 0,0 19,-60 -32,-57 -50,2 -337,17 -337,17z"/>
    <path class="fil5" d="M5199 1545c0,0 -38,-41 -65,-13 -27,28 20,80 44,99 25,19 40,28 40,28 0,0 61,-28 72,-82 12,-54 -12,-89 -91,-32z"/>
    <path class="fil6" d="M5232 1379c-26,2 -76,6 -112,8 -81,5 -92,8 -106,22 -10,12 -10,13 -9,106 1,51 4,107 6,124 2,17 4,55 4,86 1,76 11,118 30,119 6,0 26,-24 39,-47l12 -22 47 -3c26,-2 93,-4 150,-5 90,0 104,-2 117,-9 8,-5 16,-14 19,-19 2,-6 6,-40 8,-75 3,-58 2,-66 -5,-71 -14,-13 -20,2 -26,69 -2,35 -7,65 -8,66 -11,9 -49,13 -109,13 -43,-1 -70,1 -77,5 -13,6 -67,6 -90,-1 -23,-7 -35,-1 -53,27 -7,11 -14,21 -17,21 -1,0 -4,-29 -6,-65 -7,-176 -12,-256 -14,-273 -5,-28 4,-33 58,-36 91,-5 204,-13 240,-17 20,-3 50,-6 66,-7l28 -1 2 40c1,24 3,40 6,41 6,1 16,-32 17,-63 1,-11 3,-22 5,-23 2,-1 4,-5 4,-9 0,-5 -15,-6 -90,-5 -49,0 -111,2 -136,4l0 0zm15 127c-7,3 -18,10 -24,16 -12,11 -15,11 -38,-4 -19,-12 -49,-12 -62,0 -15,14 -14,44 2,67 19,29 79,87 90,87 21,0 57,-32 77,-68 18,-33 19,-75 3,-93 -13,-13 -27,-14 -48,-5l0 0zm33 48c1,19 -1,28 -11,44 -18,27 -38,46 -51,46 -13,0 -51,-40 -67,-71 -21,-39 -1,-49 34,-18 22,21 30,23 30,10 0,-10 24,-31 40,-34 20,-6 23,-2 25,23l0 0z"/>
   </g>
   <g>
    <g>
     <path class="fil15" d="M3977 2318c0,0 144,-10 184,15 40,26 36,85 36,85l-4 158 89 56c0,0 -92,21 -181,32 -89,11 -193,-6 -193,-6l-20 -254c0,0 -23,-96 89,-86z"/>
     <path class="fil0" d="M4034 2576c-13,13 -2,31 15,24 12,-5 6,-30 -7,-30 -1,0 -5,3 -8,6l0 0zm-43 -192c-14,15 -19,34 -8,40 2,2 8,-2 13,-9 8,-11 13,-12 32,-12 18,0 24,2 30,9 10,15 1,35 -23,53 -12,7 -22,18 -24,23 -4,12 16,50 27,50 7,0 8,-3 6,-21 -3,-19 -2,-21 13,-35 10,-8 22,-24 27,-36 9,-18 10,-23 5,-39 -7,-25 -27,-37 -59,-37 -21,0 -27,2 -39,14l0 0z"/>
    </g>
    <path class="fil6" d="M3972 2300c-6,2 -23,4 -38,4 -26,1 -27,1 -27,12l0 12 102 1c55,1 109,5 121,7 25,6 40,20 47,43 6,21 6,84 0,144 -5,61 -1,70 40,90l32 15 -16 3c-25,5 -162,15 -239,17 -54,1 -71,0 -73,-4 -3,-3 -5,-18 -5,-33 0,-35 -8,-92 -15,-100 -3,-5 -6,-5 -11,-1 -8,7 -9,107 -2,137 8,33 14,35 102,35 43,0 117,-3 165,-7 72,-6 91,-8 107,-17 11,-6 26,-10 34,-9 10,0 16,-2 18,-7 2,-5 -6,-13 -29,-28 -18,-11 -34,-21 -35,-21 -2,0 -12,-5 -23,-12l-19 -12 4 -78c3,-86 -2,-133 -16,-154 -11,-15 -43,-31 -70,-35 -35,-5 -141,-6 -154,-2l0 0z"/>
   </g>
  </g>
 </g>
</svg>
