<?xml version="1.0" encoding="UTF-8"?>
<!DOCTYPE svg PUBLIC "-//W3C//DTD SVG 1.1//EN" "http://www.w3.org/Graphics/SVG/1.1/DTD/svg11.dtd">
<!-- Creator: CorelDRAW Home & Student X7 -->
<svg xmlns="http://www.w3.org/2000/svg" xml:space="preserve" width="68.3674mm" height="68.3674mm" version="1.1" style="shape-rendering:geometricPrecision; text-rendering:geometricPrecision; image-rendering:optimizeQuality; fill-rule:evenodd; clip-rule:evenodd"
viewBox="0 0 6837 6837"
 xmlns:xlink="http://www.w3.org/1999/xlink">
 <defs>
  <style type="text/css">
   <![CDATA[
    .fil10 {fill:black}
    .fil4 {fill:#6885C2}
    .fil3 {fill:#8EB6EA}
    .fil9 {fill:#BD9941}
    .fil6 {fill:#C66F7A}
    .fil5 {fill:#C9DCF5}
    .fil7 {fill:#ED98A7}
    .fil2 {fill:#EDB9A9}
    .fil8 {fill:#FACA50}
    .fil1 {fill:#FFE1D7}
    .fil0 {fill:white}
   ]]>
  </style>
 </defs>
 <g id="Layer_x0020_1">
  <metadata id="CorelCorpID_0Corel-Layer"/>
  <rect class="fil0" width="6837" height="6837"/>
  <g id="_506376040">
   <path class="fil1" d="M4014 981c0,0 -781,-410 -1409,33 -629,444 -655,543 -1085,728 -430,185 -668,840 -554,1115 114,274 304,618 326,816 21,199 -4,1009 -4,1009l384 371c0,0 590,307 1404,43 814,-265 1491,-112 1742,-189 251,-78 495,-590 495,-590 0,0 -84,-739 22,-977 106,-239 335,-404 335,-404 0,0 277,-384 -127,-741 -403,-357 -886,-949 -1529,-1214z"/>
   <path class="fil2" d="M1007 2951c113,255 266,546 285,722 21,199 -4,1009 -4,1009l384 371c0,0 590,307 1404,43 814,-265 1491,-112 1742,-189 251,-78 495,-590 495,-590 0,0 -84,-739 22,-977 106,-239 335,-404 335,-404 0,0 31,-42 57,-112 -171,-162 -415,-338 -730,-419 -669,-172 -1806,708 -1806,708 0,0 -437,-575 -1085,-622 -418,-30 -847,254 -1099,460z"/>
   <path class="fil2" d="M3231 5160c0,0 -35,276 -35,299 0,23 83,140 83,140l226 18 130 -65c0,0 -81,-124 -94,-207 -12,-84 -20,-144 -20,-144l-290 -41z"/>
   <path class="fil1" d="M3612 5514c-25,-43 -63,-115 -71,-169 -3,-26 -7,-49 -10,-69 -6,-12 -9,-20 -8,-20 5,0 -106,26 -106,26 0,0 -71,62 -18,181 53,119 174,87 174,87l39 -36z"/>
   <path class="fil2" d="M3668 5009l-4 288c0,0 146,160 315,177 168,16 288,-44 288,-44 0,0 -130,-70 -175,-132 -45,-62 -98,-95 -99,-219 -2,-124 -325,-70 -325,-70z"/>
   <path class="fil1" d="M4186 5458c51,-13 81,-28 81,-28 0,0 -130,-70 -175,-132 -43,-61 -94,-93 -99,-207 -82,35 -159,75 -152,95 15,41 72,45 154,144 43,53 119,100 191,128z"/>
   <path class="fil3" d="M3205 5366c0,0 19,106 90,160 71,54 207,54 249,39 42,-16 69,-47 69,-47 0,0 61,81 63,151 2,70 0,98 -110,134 -110,36 -280,24 -332,1 -51,-24 -90,-73 -86,-111 4,-38 57,-327 57,-327zm445 -139c0,0 -31,101 -29,177 3,76 -9,111 38,135 48,24 315,95 315,95 0,0 355,73 465,31 110,-42 89,-81 62,-114 -26,-33 -140,-81 -146,-87 -6,-6 -115,-43 -115,-43 0,0 -74,54 -187,36 -113,-17 -211,-65 -280,-106 -69,-41 -123,-124 -123,-124z"/>
   <path class="fil4" d="M3205 5366c0,0 17,96 80,152 -51,89 -6,227 27,303 -34,-4 -61,-10 -78,-17 -51,-24 -90,-73 -86,-111 4,-38 57,-327 57,-327zm430 186c2,3 4,7 6,10 -2,-3 -4,-6 -6,-10zm341 83c-15,-54 -49,-144 -125,-242 -29,-14 -55,-28 -78,-42 -69,-41 -123,-124 -123,-124 0,0 -31,101 -29,177 3,76 -9,111 38,135 48,24 315,95 315,95l2 1z"/>
   <path class="fil5" d="M3448 5573c41,2 77,-1 96,-8 42,-16 69,-47 69,-47 0,0 6,8 13,20 3,5 6,9 9,14l0 0 0 0c18,30 40,75 41,117 2,70 0,98 -110,134 -26,8 -56,14 -87,18 20,-20 44,-50 51,-89 14,-72 -61,-141 -80,-151 -2,-1 -3,-4 -2,-8zm1001 88c-9,-28 -28,-63 -70,-93 -66,-49 -191,-86 -257,-108 73,-7 118,-39 118,-39 0,0 109,37 115,43 6,6 120,54 146,87 26,32 47,69 -52,110z"/>
   <path class="fil6" d="M4277 3399c0,0 -2,255 -5,286 -2,31 -89,453 -89,453l-76 426c0,0 197,37 281,-45 85,-81 124,-288 124,-288 0,0 29,-294 -3,-454 -31,-161 -50,-308 -80,-372 -30,-65 -40,-85 -40,-85l-112 79z"/>
   <path class="fil7" d="M4435 4456c53,-95 77,-225 77,-225 0,0 29,-294 -3,-454 -31,-161 -50,-308 -80,-372 -30,-65 -40,-85 -40,-85l-65 46c-3,5 -5,11 -8,17 0,0 60,198 70,269 10,71 38,141 31,185 -6,45 20,90 22,141 1,51 19,145 13,175 -6,29 2,85 -8,86 -10,1 -60,-105 -74,-135 -14,-31 -38,-67 -38,-67 0,0 -36,86 -45,96 -8,10 37,133 42,166 5,33 40,16 53,76 7,34 28,66 53,81z"/>
   <path class="fil8" d="M2127 4700c0,0 74,-140 129,-177 55,-37 101,-85 101,-85l339 -517c0,0 345,-412 458,-515 113,-102 173,-162 309,-190 136,-28 237,30 260,62 22,33 175,-197 382,-106 206,91 181,356 173,488 -7,133 -81,474 -87,472 -6,-1 -158,811 -158,875 0,65 -16,85 -58,104 -42,20 -308,-25 -308,-25l-3 59 -101 -5c0,0 4,71 -28,90 -31,19 -164,19 -212,13 -48,-6 -123,-38 -132,-47 -9,-9 -20,-37 -20,-37 0,0 -240,62 -493,6 -253,-56 -516,-251 -551,-465z"/>
   <path class="fil1" d="M4180 4178c-36,171 -147,774 -147,829 0,65 -16,85 -58,104 -16,8 -65,6 -119,0 34,-33 67,-71 67,-89 0,-36 57,-369 71,-420 15,-51 15,-89 29,-157 11,-61 109,-283 157,-267z"/>
   <path class="fil9" d="M4212 4050c-11,50 -19,83 -21,82 -1,0 -2,5 -4,13l-4 6c0,0 -254,-22 -297,24 -43,47 -33,128 -48,172 -15,45 -65,576 -78,663 -4,35 -3,65 0,90 -52,-7 -93,-14 -93,-14l-1 20 -43 -23c0,0 19,-556 7,-557 -13,-1 103,-697 103,-697 0,0 29,-251 27,-332 -1,-81 33,-205 33,-205 13,17 84,126 91,204 6,77 31,203 31,203 0,0 201,-11 221,12 15,19 58,244 76,339z"/>
   <path class="fil1" d="M3602 5141l-39 -1c0,0 4,71 -28,90 -9,5 -25,9 -46,11 -39,5 -77,5 -90,5l-1 0c1,0 60,-43 65,-104 5,-61 125,-525 151,-479 22,39 -4,349 -12,478z"/>
   <path class="fil9" d="M2127 4700c0,0 74,-140 129,-177 55,-37 101,-85 101,-85l25 -39c221,-27 555,-63 581,-40 40,35 202,-23 202,-23 0,0 169,36 183,27 14,-9 280,47 280,47l32 83c0,0 -239,38 -288,122 -50,85 3,159 -22,238 -25,80 2,240 -3,306 -3,32 2,63 7,86 -12,0 -23,-1 -31,-2 -48,-6 -123,-38 -132,-47 -9,-9 -20,-37 -20,-37 0,0 -240,62 -493,6 -253,-56 -516,-251 -551,-465zm496 -668l73 -111c0,0 29,-34 73,-86 6,26 27,88 85,114 74,33 183,73 183,73l-23 57c0,0 -348,-14 -391,-47z"/>
   <path class="fil1" d="M4084 3164c7,2 14,5 21,8 206,91 181,356 173,488 0,16 -2,35 -5,56l-127 -5c0,0 5,-176 -6,-226 -10,-50 5,-72 -95,-91 -99,-19 -109,-178 -109,-178 55,-31 103,-50 148,-52z"/>
   <path class="fil1" d="M3440 3222c8,-2 15,-4 23,-6 136,-28 237,30 260,62 4,6 12,3 24,-4 12,19 17,33 17,33 0,0 10,161 10,217 0,56 -96,661 -96,661 0,0 -91,-58 -148,-99 33,-2 55,-2 51,3 -12,17 24,-101 17,-149 -6,-48 29,-109 32,-212 3,-102 3,-203 5,-244 1,-41 -11,-74 -85,-86 -37,-6 -81,-2 -116,4 -31,-35 -1,-146 6,-180z"/>
   <path class="fil2" d="M3323 4103c0,0 -47,247 -36,262 12,15 110,13 180,41 69,28 170,63 170,63l7 40c0,0 57,2 71,-23 14,-24 15,-60 33,-81 17,-22 2,-66 7,-86 5,-19 16,-40 6,-62 -11,-22 -7,-75 -40,-100 -34,-24 -76,-64 -76,-64 0,0 -54,-85 -140,-53 -86,31 -149,70 -182,63z"/>
   <path class="fil1" d="M3502 4420c64,25 135,49 135,49l7 40c0,0 57,2 71,-23 14,-24 15,-60 33,-81 17,-22 2,-66 7,-86 5,-19 16,-40 6,-62 -11,-22 -7,-75 -40,-100 -34,-24 -76,-64 -76,-64 0,0 -54,-85 -140,-53 -34,12 -64,26 -90,37 -10,4 -30,272 87,343l0 0z"/>
   <path class="fil2" d="M3987 3734c0,0 71,-39 166,-37 95,1 154,61 161,76 7,15 23,105 23,163 0,58 0,127 -34,176 -33,48 -74,73 -91,78 -18,5 -35,2 -35,2 0,0 19,-77 -7,-87 -27,-9 -111,-17 -153,-39 -43,-21 -26,-52 -26,-52 0,0 -40,-11 -41,-43 0,-32 13,-57 13,-57 0,0 -50,-30 -39,-59 10,-29 50,-42 50,-42 0,0 -24,-58 13,-79z"/>
   <path class="fil1" d="M4206 3704c64,17 102,57 108,69 7,15 23,105 23,163 0,58 0,127 -34,176 -33,48 -74,73 -91,78 -18,5 -35,2 -35,2 0,0 14,-60 0,-81l0 0c8,7 56,-75 54,-83 -3,-9 -40,-26 -40,-26 0,0 -21,-16 -19,-50 2,-35 52,-46 24,-65 -28,-19 -61,-100 -37,-107 24,-8 69,16 69,16 0,0 -8,-11 -25,-49 -7,-18 -3,-32 3,-43z"/>
   <path class="fil6" d="M3141 2711c0,0 -402,-1 -541,98 -58,40 -163,137 -250,266 -126,187 -233,432 -271,588 -63,264 -97,488 -54,724 42,236 102,313 102,313 0,0 106,-148 158,-193 52,-46 90,-68 90,-68 0,0 148,25 324,21 176,-4 388,-40 428,-46 40,-7 140,-6 140,-6l21 -74 36 -239c0,0 -383,-38 -479,-39 -96,-2 -210,-26 -210,-26 0,0 39,-75 54,-99 16,-24 258,-296 282,-329 24,-34 230,-252 296,-298 66,-46 124,-77 125,-70 2,7 -251,-523 -251,-523z"/>
   <path class="fil7" d="M2892 2727c-110,13 -229,37 -292,82 -58,40 -163,137 -250,266 -106,158 -199,356 -248,508 -25,168 -34,326 -23,435 30,302 271,196 352,211 81,15 137,22 204,-8 66,-30 287,12 410,-2 88,-9 203,4 260,1l19 -125c0,0 -383,-38 -479,-39 -96,-2 -210,-26 -210,-26l8 -15c-75,-3 -168,13 -168,13 0,0 -68,20 -117,5 -50,-14 -21,-101 -19,-217 1,-116 29,-222 41,-323 11,-100 169,-284 185,-297l379 -357 -52 -112z"/>
   <path class="fil2" d="M3236 2776c0,0 -45,234 -3,326 42,93 146,142 146,142 0,0 217,-53 266,-48 50,5 348,-7 348,-7 0,0 298,-177 272,-263 -27,-86 -138,-392 -138,-392 0,0 -97,-66 -385,23 -288,90 -506,219 -506,219z"/>
   <path class="fil1" d="M3719 2564l0 1c0,0 -17,74 29,119 47,46 78,52 123,67 14,8 21,29 18,45 -4,16 -67,102 -100,113 -32,12 -54,25 -23,51 31,26 88,-30 95,-37 6,-7 53,-79 73,-100 21,-21 87,-39 87,-39 45,2 89,-6 117,-38 64,-76 -71,-196 -71,-196l-348 14zm63 243c0,0 -64,-58 -97,-54 -33,5 -38,55 14,83 51,28 108,6 83,-29zm213 185c0,0 -60,-51 -73,-29 -13,21 7,59 51,60 45,1 22,-31 22,-31z"/>
   <path class="fil10" d="M3725 2054c-112,18 -200,50 -278,102 -23,15 -64,51 -109,95 -81,80 -91,89 -121,105 -31,17 -60,25 -151,41 -160,29 -264,74 -342,150 -65,62 -99,125 -106,191 -3,36 -3,36 -25,50 -48,34 -134,115 -176,166 -66,80 -91,114 -105,137 -3,4 -10,14 -15,21 -34,48 -108,192 -146,286 -6,14 -14,35 -19,45 -5,11 -10,26 -12,33 -2,7 -4,15 -6,18 -2,2 -8,20 -14,39 -6,19 -15,50 -21,68 -6,18 -14,47 -18,65 -5,18 -10,40 -12,49 -14,53 -17,70 -29,170 -2,18 -9,94 -14,170l-10 137 10 114c5,63 12,126 14,140 8,50 21,104 29,123 2,5 8,22 13,38 20,62 78,190 110,242 6,10 13,22 15,25 1,4 4,8 5,10 2,1 15,18 31,38 38,51 86,94 155,140 66,44 102,63 143,78 16,5 32,11 37,13 12,5 50,17 75,23 41,11 60,14 175,33 38,7 160,7 187,1 11,-3 46,-9 78,-14 32,-5 64,-11 71,-13 10,-2 13,0 20,14 4,10 15,21 24,27l17 10 -4 33c-6,65 -13,108 -40,250 -12,64 -20,125 -22,171 -2,50 -1,53 10,73 11,18 47,49 57,49 1,0 9,3 17,7 69,30 215,34 322,8 11,-3 28,-7 40,-10 55,-13 82,-31 97,-63 11,-23 13,-61 5,-93 -3,-10 -8,-31 -12,-47 -4,-15 -9,-32 -12,-38 -6,-13 -1,-19 10,-12 4,2 42,15 84,29 43,13 81,26 86,28 19,8 99,30 138,38 92,20 135,27 214,36 56,7 69,7 77,2 5,-3 22,-6 38,-6 25,0 30,-1 34,-10 4,-7 4,-11 0,-16 -6,-6 -13,-7 -40,-4 -59,7 -138,-2 -298,-35 -39,-8 -80,-18 -100,-25 -11,-3 -39,-12 -63,-19 -22,-7 -46,-15 -51,-17 -5,-1 -27,-9 -49,-16 -22,-7 -52,-18 -68,-25 -26,-12 -28,-14 -34,-34 -9,-35 1,-180 15,-205 3,-6 6,-11 6,-12 1,-1 21,18 45,42 24,25 54,52 67,60 43,31 112,62 184,84 69,21 88,24 151,24 51,0 65,-2 88,-11 15,-6 32,-16 38,-22 14,-14 10,-15 104,28 17,7 37,17 45,20 49,21 68,31 83,46 9,8 20,17 23,18 3,2 10,12 13,24 7,20 7,22 -1,32 -4,6 -17,14 -29,20 -10,6 -29,15 -42,21 -12,6 -21,13 -20,15 2,9 27,9 54,0 31,-9 40,-14 58,-30 13,-12 14,-16 14,-40 -1,-23 -3,-32 -17,-53 -24,-37 -36,-46 -126,-85 -9,-4 -18,-8 -20,-8 -7,0 -135,-66 -165,-86 -36,-23 -139,-120 -155,-146 -5,-9 -11,-18 -12,-19 -2,-1 -8,-12 -14,-25 -3,-5 -5,-9 -7,-12l-12 -53c6,-2 13,-7 19,-12 15,-13 16,-15 19,-60 3,-48 15,-141 29,-225 2,-8 6,-36 10,-60 4,-24 9,-55 11,-68 4,-22 7,-36 12,-75 5,-27 11,-31 39,-25 40,8 120,6 147,-3 91,-34 137,-72 174,-142 17,-33 43,-103 43,-118 0,-3 1,-10 4,-15 4,-8 16,-75 21,-117 11,-94 12,-272 3,-322 -3,-11 -8,-44 -12,-72 -4,-28 -9,-60 -12,-72 -9,-47 -14,-75 -21,-121 -4,-27 -9,-57 -11,-68 -17,-70 -20,-85 -25,-100 -2,-9 -6,-20 -8,-25 -2,-5 -9,-27 -16,-49 -7,-22 -16,-46 -19,-55 -4,-8 -7,-16 -7,-17 0,-1 -4,-12 -9,-23 -14,-32 -19,-54 -25,-110 -9,-81 -2,-120 29,-177 14,-23 30,-52 37,-62 41,-62 74,-128 86,-173 16,-62 19,-94 13,-127 -12,-61 -18,-81 -41,-132 -40,-84 -137,-186 -214,-223 -17,-8 -29,-17 -29,-21 0,-4 -6,-15 -13,-25 -37,-57 -151,-121 -274,-154 -62,-17 -185,-24 -244,-13l0 0zm-271 958c-13,17 -30,52 -32,118 -2,41 -3,65 -3,79 -14,3 -26,6 -29,8 -4,2 -10,2 -14,0 -71,-33 -101,-59 -123,-103 -40,-84 -19,-187 46,-213 3,-1 23,-14 44,-30 23,-15 43,-27 46,-27 3,0 9,-2 14,-4 11,-5 37,-13 59,-16 71,-12 135,-61 170,-131 9,-19 49,-62 65,-70 46,-24 115,-34 181,-26 73,8 173,7 189,-2 8,-4 14,-7 14,-7 0,0 -1,19 -2,42l0 0c-1,39 6,90 18,119 2,5 10,24 17,42 7,17 26,54 42,79l30 48 -18 18c-9,10 -21,23 -27,29 -5,7 -16,18 -25,25 -18,14 -92,64 -95,64 -2,0 -19,7 -39,17 -20,9 -42,19 -50,22 -8,4 -21,10 -31,14 -30,13 -91,28 -151,38 -111,17 -161,13 -205,-21 -18,-13 -27,-25 -42,-56 -12,-22 -20,-44 -20,-50 0,-10 -8,-20 -17,-20 -5,0 -10,6 -12,14zm95 211l6 0c1,0 3,0 4,1 6,1 19,4 31,7l0 0c30,6 51,16 78,37 19,15 28,27 45,61 11,24 23,55 26,69 8,35 11,174 5,203 -2,12 -8,57 -12,98 -4,41 -9,79 -10,86 -1,6 -4,27 -7,46 -7,57 -18,136 -23,161 -2,13 -6,39 -9,58 -8,53 -6,52 -39,20 -45,-44 -60,-52 -97,-52 -31,0 -39,2 -101,30 -19,9 -36,16 -38,16 -3,0 -8,2 -13,4 -4,3 -20,7 -35,11 -21,4 -29,4 -36,0 -6,-4 -34,-6 -81,-6l-72 0 0 -22c0,-12 2,-34 5,-50 2,-15 7,-41 9,-58 3,-17 7,-41 9,-53 2,-13 7,-45 11,-70 4,-26 9,-58 12,-70 24,-109 29,-154 18,-157 -2,-1 -3,-1 -5,0 -6,1 -14,6 -28,26 -32,30 -81,86 -124,178 -53,118 -93,220 -108,259 -42,-4 -88,-9 -132,-15 -18,-2 -50,-7 -70,-9 -21,-3 -48,-7 -60,-10 -12,-2 -28,-4 -36,-4 -7,0 -13,-2 -13,-4 0,-4 36,-57 41,-62 2,-1 27,-34 56,-72 56,-73 71,-92 135,-167 117,-137 380,-403 398,-403 2,0 10,-5 19,-12 40,-30 123,-59 197,-67 21,-3 40,-6 42,-7 1,-1 1,-1 2,-1zm-774 360l-11 227c18,-24 41,-52 88,-109 98,-118 339,-365 400,-410 34,-25 67,-46 71,-46 3,0 6,-3 10,-6 4,-4 -1,-8 -19,-17 -54,-27 -103,-96 -110,-154l0 0c-2,-15 -4,-29 -6,-30 -5,-5 -13,49 -16,102 -3,74 -12,151 -16,154 -3,1 -5,6 -5,11 0,13 -29,71 -53,101 -54,72 -156,139 -252,164 -27,7 -55,12 -81,13zm-597 -158c13,-8 26,-16 30,-17l0 0c1,0 2,0 4,0 10,0 12,13 4,35 -2,8 -7,27 -9,44 -3,17 -7,39 -9,51 -2,12 -6,34 -9,49 -3,15 -6,33 -7,40 -2,6 -5,26 -8,44 -3,17 -7,44 -9,58 -17,104 -29,227 -29,286 0,45 7,126 15,175 20,123 74,185 185,215 86,22 250,35 357,27 41,-3 79,-7 84,-8 5,-1 42,-4 82,-6 124,-7 206,-14 226,-19 27,-6 86,-6 86,2 0,3 -5,8 -11,10 -10,5 -10,7 -12,77 0,39 1,97 5,128 13,146 25,315 29,435 4,92 9,126 22,139 5,4 19,10 33,14 24,6 31,8 87,20 15,3 57,4 102,3 72,-1 79,-2 98,-12 15,-9 19,-15 19,-24 1,-27 9,-133 16,-203 13,-115 15,-135 23,-200 5,-33 10,-76 13,-95 6,-51 9,-68 16,-114 3,-24 7,-56 8,-72l1 -30 -44 -15c-24,-8 -49,-16 -54,-18 -15,-5 -45,-18 -56,-21 -29,-11 -39,-15 -63,-19 -13,-3 -34,-6 -46,-8 -12,-1 -23,-4 -25,-6 -10,-9 -30,-5 -37,7 -6,8 -13,12 -22,12 -13,0 -13,-1 -12,-23 7,-76 14,-134 15,-140 2,-4 5,-16 7,-26 2,-10 7,-34 11,-53 4,-19 9,-41 10,-48l3 -13 -100 1c-54,0 -102,0 -105,-3 -4,-2 -34,-5 -68,-8 -86,-5 -179,-16 -278,-31 -29,-5 -97,-13 -165,-20 -26,-3 -51,-7 -56,-9 -6,-3 -19,-3 -34,0 -14,3 -39,5 -55,5 -29,0 -30,-1 -29,-11 2,-9 5,-10 32,-11 58,-2 68,-5 71,-19 6,-28 15,-61 19,-64 2,-2 3,-8 3,-14 0,-5 2,-11 4,-14 2,-3 8,-17 12,-32 9,-30 15,-46 22,-60 2,-4 4,-10 4,-14 0,-5 16,-52 28,-80 2,-5 7,-20 12,-33 4,-13 10,-29 14,-37 14,-32 26,-68 24,-75 -1,-4 -13,-11 -29,-17 -69,-24 -154,-93 -182,-148 -6,-12 -13,-34 -16,-50 -6,-26 -6,-34 1,-69 17,-78 45,-126 126,-209 29,-32 58,-65 63,-73 10,-20 11,-109 1,-163l0 0c-4,-20 -9,-36 -11,-36 -6,0 -59,46 -103,90 -45,46 -88,95 -127,147 -18,24 -35,46 -37,49 -31,40 -105,177 -147,272 -8,17 -15,35 -23,55zm1816 1756c1,5 4,11 8,19 38,79 109,157 188,208 33,22 33,21 -21,30 -72,12 -79,12 -167,-8 -83,-18 -179,-62 -233,-104 -15,-12 -43,-38 -62,-58 -33,-34 -34,-36 -32,-53 1,-3 2,-9 2,-16 25,6 88,17 186,6 68,-7 108,-17 131,-24zm-762 141c31,7 95,16 171,2 60,-10 91,-23 107,-32 6,34 20,83 31,106 4,10 17,38 28,62 11,24 21,44 21,46 0,3 -28,26 -40,32 -33,18 -58,22 -117,20 -73,-2 -101,-12 -138,-46 -27,-25 -32,-27 -40,-17 -7,8 -1,20 20,45 24,26 54,41 111,56 32,8 126,1 156,-12 8,-4 16,-7 17,-7 2,0 14,-7 27,-16 13,-9 24,-16 24,-15 1,1 5,11 10,24 4,13 9,28 12,33 4,11 15,50 22,84 6,23 5,26 -5,46 -13,28 -29,37 -90,52 -17,4 -40,9 -48,11 -9,3 -37,7 -62,10 -84,9 -204,-11 -245,-41 -32,-24 -40,-54 -29,-114 3,-14 7,-38 10,-55 2,-17 6,-41 8,-54 3,-13 8,-43 13,-67 4,-24 9,-55 12,-68 7,-41 11,-62 14,-85zm964 -1113c0,0 3,173 35,253 19,47 38,74 50,89l45 -22c35,-17 50,-28 70,-50 51,-55 83,-148 102,-296 8,-62 7,-263 -2,-314 -11,-70 -13,-80 -17,-103 -2,-11 -7,-42 -11,-67 -4,-26 -10,-59 -12,-75 -16,-93 -20,-117 -34,-163l0 0c-5,-18 -15,-51 -22,-73l-12 -42 -15 30c-15,30 -56,78 -67,78 -5,0 -6,14 -6,62 0,67 -10,172 -17,188 -4,8 -2,12 14,29 37,37 46,64 52,150 9,127 8,124 27,181 3,12 8,25 10,30 2,6 11,27 19,49 15,43 30,77 37,90 8,14 -11,10 -22,-5 -17,-24 -41,-68 -58,-110 -16,-39 -27,-55 -27,-38 0,14 -33,62 -56,83 -24,22 -65,46 -79,46 -2,0 -3,0 -4,0zm-1254 242c2,28 11,112 69,272 51,143 106,238 134,281l0 4c4,73 6,134 5,136 -1,2 -9,5 -18,7 -8,2 -25,5 -38,8 -115,22 -274,20 -384,-5 -9,-2 -32,-8 -51,-12 -46,-11 -127,-37 -159,-53 -36,-17 -122,-72 -158,-101 -42,-33 -89,-84 -119,-130 -21,-33 -67,-117 -73,-137 -3,-10 11,-38 43,-83 52,-73 97,-120 148,-154l40 -26 91 8c102,9 201,10 253,3 31,-4 79,-8 217,-18zm1062 -1065c-8,4 -12,10 -12,17l0 12 49 -2c44,-1 116,7 144,16 15,5 13,-9 -3,-20 -15,-11 -24,-14 -57,-23 -32,-8 -106,-8 -121,0l0 0zm-479 -8c-7,1 -27,4 -46,7 -41,6 -63,18 -61,33 1,9 5,11 18,10 9,0 31,-4 49,-9 22,-5 54,-8 104,-8 45,-1 70,-3 69,-6 -1,-2 -11,-9 -22,-15 -21,-9 -84,-17 -111,-12l0 0zm117 -403c-17,4 -29,12 -29,21 0,5 7,7 28,7 39,0 61,12 75,42 17,35 26,29 23,-14 -1,-17 -13,-34 -31,-43 -17,-10 -51,-16 -66,-13zm243 -111c-10,11 -29,33 -42,49 -18,20 -31,30 -45,35 -19,6 -25,15 -18,25 3,6 14,8 35,7 13,-1 44,-28 64,-57 52,-76 52,-79 35,-79 -7,0 -17,7 -29,20l0 0zm85 -31c-6,7 -3,54 4,70 9,19 37,45 60,56 15,7 18,7 25,1 6,-7 5,-9 -9,-18 -33,-24 -52,-51 -58,-88 -4,-20 -14,-29 -22,-21l0 0zm-251 -181c-6,6 -4,27 6,42 10,18 44,43 56,43 5,0 10,2 11,5 4,6 54,6 54,0 0,-5 -26,-19 -36,-19 -3,0 -6,-2 -6,-3 0,-2 -7,-7 -16,-10 -17,-6 -49,-38 -49,-49 0,-4 -4,-8 -8,-9 -9,-4 -9,-4 -12,0l0 0zm402 587c61,19 115,99 135,199 10,48 3,238 -9,250 -3,3 -11,1 -22,-3 -19,-8 -124,-11 -143,-3 -6,2 -19,6 -29,10 -31,9 -75,32 -90,44 -17,14 -20,37 -7,57 8,11 8,12 -2,19 -5,4 -16,11 -23,16 -18,9 -31,33 -27,49 1,6 11,20 21,30 14,14 18,20 14,24 -3,4 -5,17 -6,29 0,20 2,24 16,35 8,7 18,13 21,13 9,0 12,9 5,18 -8,14 5,38 27,50 18,10 86,27 130,32 35,5 37,7 34,36 -2,14 -5,35 -8,48 -3,13 -8,40 -11,61 -10,50 -17,89 -22,111 -2,11 -7,37 -11,59 -5,22 -10,48 -12,58 -6,25 -18,92 -24,123 -5,28 -9,54 -20,121 -4,25 -9,57 -12,73 -9,54 -27,180 -31,223 -2,15 -5,31 -7,34 -3,4 -3,8 1,13 8,9 3,14 -28,20 -77,15 -165,15 -224,1 -9,-3 -36,-9 -61,-14 -43,-10 -45,-11 -48,-25 -7,-35 0,-422 10,-495l2 -24 26 -8c15,-4 31,-13 37,-18 12,-11 20,-36 20,-62 0,-8 6,-21 14,-32 15,-20 18,-40 9,-65 -4,-12 -4,-18 5,-35 13,-27 12,-46 -2,-67 -8,-12 -12,-23 -12,-38 0,-29 -18,-59 -40,-68 -9,-3 -11,-7 -11,-24 0,-11 2,-22 4,-25 5,-4 11,-36 22,-99 4,-25 9,-55 11,-67 3,-12 5,-30 5,-38 0,-8 2,-26 5,-38 2,-12 7,-54 11,-92 5,-39 10,-82 12,-96 8,-51 12,-97 12,-175 0,-68 1,-81 8,-95 40,-74 101,-123 185,-145 9,-3 23,-6 30,-9 25,-6 84,-5 110,4l0 0zm110 481c37,20 64,52 75,90 14,49 20,197 10,230 -11,32 -29,66 -47,87 -19,21 -63,52 -68,48 -1,-2 0,-17 2,-33 4,-28 4,-31 -7,-43 -11,-13 -17,-15 -75,-26 -58,-11 -69,-13 -87,-18 -24,-8 -31,-13 -29,-25 1,-8 7,-11 25,-14 32,-7 144,-6 172,1 12,3 24,4 25,3 6,-6 -8,-19 -24,-23 -9,-3 -18,-6 -20,-9 -5,-4 -136,-4 -145,1 -5,2 -16,5 -26,7 -16,2 -20,1 -36,-14 -10,-9 -18,-18 -18,-21 0,-2 5,-12 11,-22 12,-20 28,-25 96,-34 56,-8 124,-7 159,1 15,3 28,5 30,4 5,-6 -11,-23 -29,-30 -22,-9 -145,-10 -191,-2 -75,13 -74,13 -85,6 -16,-10 -17,-19 -5,-32 22,-24 84,-46 163,-58 52,-8 82,-5 110,13 28,18 29,18 29,4 0,-13 -17,-32 -39,-42 -28,-14 -110,-7 -195,15 -24,6 -32,3 -30,-13 1,-9 7,-15 34,-28 18,-8 37,-17 42,-19 5,-2 15,-5 23,-8 8,-2 40,-5 73,-5 51,-1 61,1 77,9zm-642 349c31,21 37,31 16,25 -36,-8 -43,-8 -43,2 0,7 6,13 24,22 13,6 27,11 30,11 4,0 10,2 15,5 4,2 17,7 29,12 55,21 63,28 66,61 1,15 6,29 14,41 15,22 15,29 3,57 -9,21 -10,34 -1,65 1,7 -2,14 -12,25 -15,16 -17,23 -15,48 2,21 -9,38 -27,45 -9,3 -20,7 -22,8 -4,1 -6,-1 -6,-5 0,-4 4,-8 9,-9 5,-2 9,-5 9,-7 0,-8 -30,-23 -59,-32 -15,-4 -35,-11 -46,-16 -10,-4 -26,-10 -34,-14 -9,-3 -24,-9 -33,-13 -9,-3 -21,-8 -26,-10 -30,-13 -75,-22 -132,-27 -19,-2 -38,-5 -41,-7 -5,-3 -6,-13 -4,-47 2,-23 5,-49 7,-56 3,-8 8,-32 12,-54 5,-22 11,-50 14,-63l6 -23 29 -5c29,-5 39,-8 58,-16 115,-50 119,-50 160,-23l0 0zm52 1107c0,10 -3,21 -7,27 -3,5 -7,18 -8,30 -2,11 -6,44 -11,72 -4,28 -9,71 -11,95l-3 45 -15 -33c-9,-18 -17,-36 -19,-39 -2,-4 -8,-20 -12,-35 -4,-16 -10,-33 -12,-40 -5,-13 -8,-45 -5,-48 2,-1 9,-6 17,-12 15,-10 19,-19 24,-60l2 -20 30 0 30 0 0 18 0 0z"/>
   <path class="fil10" d="M946 2861c-2,7 9,58 18,79 2,5 7,22 11,37 9,29 15,50 21,65 3,5 10,25 17,44 7,19 14,40 16,45 2,5 8,22 13,37 18,52 29,84 34,95 14,32 60,157 60,163 0,3 2,9 4,13 8,14 47,142 52,171 16,84 23,157 23,247 0,97 -7,151 -35,275 -4,17 -9,41 -11,51 -7,31 -20,92 -24,112 -26,137 -30,163 -36,218 -3,40 -3,43 4,94 16,128 83,225 214,312 112,73 186,109 276,134 47,14 79,7 71,-14 -2,-5 1,-19 6,-32 5,-13 11,-33 15,-44 3,-12 7,-26 9,-32 7,-15 6,-83 -1,-103 -3,-9 -10,-28 -16,-41 -6,-14 -11,-26 -11,-28 0,-2 -8,-14 -19,-27 -20,-24 -76,-65 -96,-70 -24,-6 -53,-20 -53,-26 0,-3 25,-30 54,-60 69,-69 88,-101 109,-179 6,-24 6,-94 1,-112 -2,-8 -8,-26 -12,-40 -7,-24 -33,-70 -50,-88 -3,-4 -12,-14 -20,-22l-14 -15 42 -43c24,-24 47,-51 53,-61 26,-44 34,-90 23,-137 -21,-90 -54,-139 -122,-186 -18,-12 -36,-27 -41,-34 -10,-14 -10,-16 31,-98 33,-67 41,-96 41,-146 0,-44 -4,-64 -23,-104 -22,-44 -77,-88 -138,-109 -32,-10 -112,-22 -155,-22 -15,0 -33,-3 -39,-7 -11,-5 -12,-7 -31,-87 -20,-84 -62,-142 -137,-182 -25,-14 -63,-27 -77,-27 -6,0 -17,-5 -24,-12 -16,-13 -28,-15 -33,-4l0 0z"/>
   <path class="fil10" d="M5464 2921c-29,8 -35,11 -72,29 -113,55 -190,144 -219,252 -9,33 -12,99 -8,160 5,68 4,68 -46,78 -89,16 -162,81 -197,175 -11,29 -12,39 -12,95 0,75 3,90 38,165 11,22 20,43 20,46 0,3 -9,9 -21,12 -33,10 -98,52 -131,83 -37,36 -66,81 -83,127 -11,31 -13,42 -13,89 0,58 6,85 29,133 17,37 61,94 102,135 18,17 33,34 33,35 0,2 -16,11 -36,21 -58,28 -85,51 -111,92 -14,26 -16,31 -16,65 0,61 25,137 57,173 20,22 29,25 60,16 8,-3 24,-7 34,-9 37,-8 94,-23 101,-28 5,-3 12,-5 16,-5 4,0 11,-2 15,-4 4,-2 17,-8 29,-12 43,-16 137,-61 165,-79 11,-7 22,-13 26,-15 17,-7 79,-58 110,-88 70,-69 132,-189 159,-307 7,-31 8,-57 8,-149 -1,-112 -4,-143 -25,-228 -12,-46 -28,-122 -36,-165 -25,-137 -25,-293 0,-384 21,-75 26,-93 31,-103 2,-5 9,-25 16,-44 25,-70 48,-118 94,-190 21,-34 39,-62 39,-63 0,-1 11,-19 25,-40 28,-41 31,-55 17,-68 -9,-8 -12,-8 -31,-3 -25,7 -79,7 -83,1 -4,-6 -61,-5 -84,2l0 0z"/>
   <path class="fil0" d="M3645 2228c1,8 -2,10 -18,12 -19,3 -79,31 -94,44 -3,3 -8,6 -10,6 -8,0 -75,54 -91,73 -18,22 -24,25 -24,12 0,-17 32,-57 70,-85 8,-6 21,-16 28,-22 7,-6 14,-10 16,-10 1,0 13,-7 27,-16 33,-20 49,-26 73,-25 18,1 22,3 23,11l0 0zm365 8c60,7 158,85 146,117 -4,11 -16,8 -22,-4 -4,-13 -55,-64 -71,-72 -5,-3 -18,-8 -29,-12 -10,-5 -22,-10 -26,-13 -5,-2 -15,-4 -22,-4 -17,0 -38,-9 -35,-14 1,-2 10,-3 20,-2 9,1 27,3 39,4zm272 188c5,4 13,11 18,13 10,6 41,45 51,65 14,27 5,36 -11,11 -16,-26 -67,-74 -81,-77 -12,-2 -17,-10 -10,-17 6,-6 23,-3 33,5l0 0zm-260 6c-2,12 -11,18 -56,32 -21,7 -118,7 -131,0 -5,-3 -32,-6 -59,-6 -39,0 -51,1 -61,8 -24,17 -32,3 -8,-17 8,-7 18,-12 22,-12 5,0 11,-3 12,-5 4,-6 73,-6 87,-1 6,3 26,7 44,11 36,6 84,1 122,-13 25,-9 30,-8 28,3l0 0zm-519 113c9,35 -55,94 -143,129 -21,8 -36,6 -36,-5 0,-7 5,-11 18,-16 71,-29 137,-77 143,-105 4,-16 14,-18 18,-3l0 0zm731 67c1,35 5,72 8,81 17,48 28,69 42,80 13,10 14,17 0,17 -8,0 -38,-27 -38,-35 0,-4 -2,-6 -4,-6 -1,0 -7,-13 -12,-27 -4,-15 -10,-31 -12,-36 -16,-39 -12,-138 5,-138 7,0 8,8 11,64l0 0zm-1168 -21c4,5 -11,22 -19,22 -9,0 -67,32 -97,53 -25,18 -50,42 -57,58 -6,11 -9,14 -13,11 -5,-5 -5,-9 2,-23 11,-21 70,-78 96,-92 10,-4 23,-12 30,-16 21,-14 53,-22 58,-13zm1170 495c4,15 7,34 8,42 2,7 5,18 7,23 2,5 5,18 6,29 3,15 2,20 -3,20 -9,0 -19,-25 -36,-84 -3,-11 -7,-25 -9,-31 -3,-6 -5,-15 -5,-20 0,-8 3,-10 13,-8 12,1 13,4 19,29l0 0zm-1252 70c0,16 -1,31 -4,32 -2,1 -5,8 -7,15 -4,18 -49,79 -73,102 -19,19 -52,39 -60,39 -2,0 -5,-3 -6,-7 -2,-4 1,-8 8,-11 23,-9 77,-74 107,-126 6,-12 13,-32 14,-45 5,-31 6,-34 14,-31 6,2 7,10 7,32z"/>
   <path class="fil0" d="M1363 4168c17,14 87,136 82,143 -5,8 -15,4 -24,-9 -16,-27 -63,-91 -75,-104 -6,-7 -14,-13 -18,-13 -8,0 -8,-22 0,-25 7,-3 27,1 35,8l0 0zm-38 -793c14,11 41,35 59,53 38,38 55,65 46,74 -3,3 -12,-2 -34,-21 -33,-29 -44,-37 -74,-62 -11,-9 -24,-19 -29,-23 -4,-4 -14,-10 -22,-14 -15,-8 -18,-15 -8,-25 9,-10 35,-2 62,18l0 0z"/>
   <path class="fil0" d="M5228 4033c9,8 6,17 -7,20 -58,14 -220,130 -268,192 -7,8 -11,10 -14,6 -9,-9 7,-33 55,-78 64,-62 108,-96 161,-124 42,-23 62,-27 73,-16l0 0z"/>
   <path class="fil2" d="M1679 2212c2,-44 3,-88 6,-132 1,-11 2,-62 20,-63 5,-1 9,3 12,8 16,31 7,349 5,406 -3,60 3,128 6,188 3,48 5,96 6,144 1,10 7,77 -13,72 -25,-6 -31,-131 -33,-153 -3,-29 -3,-61 -4,-90 -1,-47 -2,-93 -3,-140 -1,-80 -2,-160 -2,-240zm2736 -714c0,0 -25,-74 17,-89 41,-15 49,157 26,175 -23,18 -49,-36 -43,-86zm-2744 266c0,0 2,154 25,158 23,4 26,-45 24,-95 -3,-49 5,-126 -49,-63zm2515 -89c-8,-26 -9,-380 -9,-412 2,-14 6,-77 35,-61 20,11 11,375 8,396 -2,12 4,42 6,54 2,12 17,74 -6,72 -21,-1 -29,-33 -34,-49zm1080 336c1,-32 2,-66 6,-98 1,-11 3,-48 18,-49 6,-1 10,2 12,6 17,24 8,262 6,304 -2,43 4,97 6,141 3,35 5,71 7,107 0,10 5,60 -14,56 -24,-4 -31,-96 -33,-116 -7,-52 -6,-118 -6,-172 -2,-59 -2,-119 -2,-179zm-3836 -55c1,-33 2,-66 6,-98 1,-11 3,-48 18,-50 6,0 10,3 12,7 17,23 8,261 6,304 -2,43 3,97 6,140 3,36 5,72 7,108 0,9 5,59 -14,56 -24,-5 -31,-96 -33,-116 -7,-52 -6,-119 -7,-172 -1,-60 -1,-119 -1,-179zm3616 -50c0,60 -1,120 -2,179 -1,54 0,120 -6,172 -3,20 -9,111 -34,116 -19,4 -13,-46 -13,-56 1,-36 4,-72 6,-108 3,-43 9,-97 7,-140 -3,-43 -11,-281 5,-304 3,-4 7,-7 12,-6 16,1 18,38 19,49 4,32 5,65 6,98zm-158 -43c0,60 -1,384 -2,444 -1,53 0,119 -7,172 -2,20 -9,111 -33,116 -19,3 -14,-47 -13,-57 1,-35 3,-71 6,-107 3,-43 8,-97 6,-140 -2,-43 -11,-546 6,-569 3,-4 7,-7 12,-6 15,1 17,38 19,49 3,32 4,65 6,98zm-248 -149c0,60 -1,120 -2,179 -1,54 0,120 -6,173 -3,19 -9,111 -34,115 -19,4 -13,-46 -13,-56 1,-36 4,-72 6,-107 3,-44 9,-97 7,-140 -3,-43 -11,-281 5,-305 3,-4 7,-7 12,-6 16,1 18,38 19,49 4,33 5,66 6,98zm-716 -330c0,60 -1,119 -2,179 -1,53 0,120 -7,172 -2,20 -9,111 -33,116 -19,3 -14,-47 -13,-56 1,-36 4,-72 6,-108 3,-43 9,-97 6,-140 -2,-43 -11,-281 6,-304 3,-4 7,-7 12,-7 15,2 18,39 19,50 3,32 4,65 6,98zm-207 -263c0,80 -1,160 -2,240 0,46 -1,93 -2,140 -1,29 -1,61 -4,90 -2,22 -8,147 -33,153 -21,5 -14,-62 -14,-72 1,-48 4,-96 6,-144 3,-60 9,-129 7,-189 -3,-56 -11,-375 5,-405 2,-5 6,-9 12,-8 17,1 18,52 19,63 4,44 5,88 6,132zm-281 66c0,80 -1,368 -2,448 0,47 -1,93 -2,140 -1,30 -1,61 -4,91 -2,21 -8,146 -33,153 -21,5 -14,-63 -14,-73 1,-48 4,-96 6,-144 3,-60 9,-128 7,-188 -3,-56 -12,-584 5,-614 2,-5 6,-9 12,-8 17,1 18,52 19,63 4,44 5,88 6,132zm-274 -151c1,-32 3,-65 6,-98 1,-11 3,-48 19,-49 5,-1 9,3 12,6 17,24 8,556 6,599 -3,43 3,97 6,140 2,36 5,72 6,108 0,9 6,59 -13,56 -25,-5 -31,-96 -34,-116 -6,-53 -5,-119 -6,-172 -1,-60 -2,-414 -2,-474zm-256 86c1,-32 2,-65 6,-98 1,-11 3,-48 19,-49 5,0 9,3 12,6 16,24 8,695 5,738 -2,43 4,97 7,140 2,36 5,72 6,108 0,9 6,59 -14,56 -24,-5 -30,-96 -33,-116 -7,-53 -5,-119 -6,-172 -1,-60 -2,-553 -2,-613zm-248 12c2,-44 3,-88 6,-131 1,-12 2,-63 20,-64 5,0 9,4 12,9 16,30 7,349 5,405 -3,60 3,128 6,189 3,48 5,96 6,144 1,9 7,77 -14,72 -24,-6 -30,-131 -32,-153 -3,-30 -3,-61 -4,-91 -1,-46 -2,-93 -3,-140 -1,-80 -2,-160 -2,-240zm-243 195c1,-66 3,-132 6,-197 1,-12 1,-91 20,-92 7,0 10,6 12,12 7,20 7,90 8,112 1,69 1,137 1,206 -1,95 -2,191 -4,287 -3,93 3,191 6,284 2,72 5,144 6,216 1,23 1,47 0,71 0,8 1,39 -15,33 -16,-6 -19,-65 -21,-79 -5,-49 -7,-98 -11,-147 -2,-45 -3,-91 -3,-136 -2,-70 -2,-140 -3,-210 -1,-120 -2,-240 -2,-360zm-285 176c1,-44 2,-88 6,-131 1,-12 2,-63 19,-64 6,-1 10,4 12,8 16,31 7,349 5,406 -2,60 3,128 6,188 3,48 5,96 7,144 0,10 7,78 -14,72 -25,-6 -31,-131 -33,-153 -3,-29 -3,-60 -4,-90 -1,-47 -2,-93 -2,-140 -1,-80 -2,-160 -2,-240zm-237 342c1,-44 2,-88 6,-131 1,-12 2,-63 19,-64 6,0 10,4 12,9 16,30 8,504 5,560 -2,60 4,129 7,189 2,48 5,96 6,144 0,10 7,77 -14,72 -25,-6 -31,-131 -33,-153 -3,-29 -3,-61 -4,-90 -1,-47 -2,-94 -2,-140 -1,-80 -2,-316 -2,-396z"/>
   <path class="fil2" d="M1679 2212c2,-44 3,-88 6,-132 1,-11 2,-62 20,-63 5,-1 9,3 12,8 16,31 7,349 5,406 -3,60 3,128 6,188 3,48 5,96 6,144 1,4 2,18 2,32l-39 -23c-6,-37 -8,-78 -9,-90 -3,-29 -3,-61 -4,-90 -1,-47 -2,-93 -3,-140 -1,-80 -2,-160 -2,-240zm-8 -448c0,0 2,154 25,158 23,4 26,-45 24,-95 -3,-49 5,-126 -49,-63zm-241 192c1,-33 2,-66 6,-98 1,-11 3,-48 18,-50 6,0 10,3 12,7 17,23 8,261 6,304 -2,43 3,97 6,140 3,36 5,72 7,108 0,9 5,59 -14,56 -24,-5 -31,-96 -33,-116 -7,-52 -6,-119 -7,-172 -1,-60 -1,-119 -1,-179zm985 -627c1,-66 3,-132 6,-197 1,-12 1,-91 20,-92 7,0 10,6 12,12 7,20 7,90 8,112 1,69 1,137 1,206 -1,95 -2,191 -4,287 -3,93 3,191 6,284 2,72 5,144 6,216 1,23 1,47 0,71 0,8 1,39 -15,33 -16,-6 -19,-65 -21,-79 -5,-49 -7,-98 -11,-147 -2,-45 -3,-91 -3,-136 -2,-70 -2,-140 -3,-210 -1,-120 -2,-240 -2,-360zm-285 176c1,-44 2,-88 6,-131 1,-12 2,-63 19,-64 6,-1 10,4 12,8 16,31 7,349 5,406 -2,60 3,128 6,188 3,48 5,96 7,144 0,10 7,78 -14,72 -25,-6 -31,-131 -33,-153 -3,-29 -3,-60 -4,-90 -1,-47 -2,-93 -2,-140 -1,-80 -2,-160 -2,-240zm-237 342c1,-44 2,-88 6,-131 1,-12 2,-63 19,-64 6,0 10,4 12,9 16,30 8,504 5,560 -2,60 4,129 7,189 2,48 5,96 6,144 0,10 7,77 -14,72 -25,-6 -31,-131 -33,-153 -3,-29 -3,-61 -4,-90 -1,-47 -2,-94 -2,-140 -1,-80 -2,-316 -2,-396z"/>
  </g>
 </g>
</svg>
