<?xml version="1.0" encoding="UTF-8"?>
<!DOCTYPE svg PUBLIC "-//W3C//DTD SVG 1.1//EN" "http://www.w3.org/Graphics/SVG/1.1/DTD/svg11.dtd">
<!-- Creator: CorelDRAW Home & Student X7 -->
<svg xmlns="http://www.w3.org/2000/svg" xml:space="preserve" width="68.3674mm" height="68.3674mm" version="1.1" style="shape-rendering:geometricPrecision; text-rendering:geometricPrecision; image-rendering:optimizeQuality; fill-rule:evenodd; clip-rule:evenodd"
viewBox="0 0 6837 6837"
 xmlns:xlink="http://www.w3.org/1999/xlink">
 <defs>
  <style type="text/css">
   <![CDATA[
    .str0 {stroke:black;stroke-width:7.62}
    .fil13 {fill:black}
    .fil10 {fill:#008183}
    .fil9 {fill:#59C1C2}
    .fil7 {fill:#62392B}
    .fil8 {fill:#8EB6EA}
    .fil6 {fill:#984D44}
    .fil5 {fill:#BD9941}
    .fil12 {fill:#C14D2D}
    .fil3 {fill:#C9DCF5}
    .fil2 {fill:#EDB9A9}
    .fil4 {fill:#FACA50}
    .fil11 {fill:#FF7345}
    .fil1 {fill:#FFE1D7}
    .fil0 {fill:white}
   ]]>
  </style>
 </defs>
 <g id="Layer_x0020_1">
  <metadata id="CorelCorpID_0Corel-Layer"/>
  <rect class="fil0" width="6837" height="6837"/>
  <g id="_506375344">
   <path class="fil1" d="M1443 4130c0,0 174,-270 189,-515 15,-244 124,-1591 1020,-1609 896,-17 463,-979 1627,-899 1164,79 715,926 992,1786 278,860 429,1223 349,1561 -79,337 -21,321 -158,507 -138,187 -425,425 -587,502 -162,76 -867,191 -1654,-14 -787,-205 -1459,37 -1687,-248 -228,-284 -314,-608 -91,-1071z"/>
   <path class="fil2" d="M1443 4130c0,0 174,-270 189,-515 2,-31 5,-80 11,-142l575 428c0,0 204,192 350,50 146,-143 732,-864 732,-864 0,0 89,-119 225,-119 135,0 1098,552 1098,552 0,0 113,51 211,-33 98,-84 295,-608 295,-608 0,0 23,-90 109,-101 10,38 21,76 33,115 278,860 429,1223 349,1561 -79,337 -21,321 -158,507 -138,187 -425,425 -587,502 -162,76 -867,191 -1654,-14 -787,-205 -1459,37 -1687,-248 -228,-284 -314,-608 -91,-1071z"/>
   <path class="fil3" d="M4994 5393c-43,29 -84,53 -119,70 -162,76 -867,191 -1654,-14 -787,-205 -1459,37 -1687,-248 -29,-36 -56,-74 -80,-112 233,-46 523,-101 682,-123 295,-39 1660,76 1827,131 168,55 621,150 793,206 110,36 193,70 238,90z"/>
   <path class="fil4" d="M4700 4759c6,-13 90,110 85,257 -4,117 -37,235 -51,280 -186,-57 -610,-146 -771,-199 -45,-15 -181,-35 -360,-54l1097 -284z"/>
   <path class="fil5" d="M4700 4759c5,-10 55,60 76,160 -167,-24 -477,86 -423,158 48,64 279,128 398,158 -6,26 -13,47 -17,61 -186,-57 -610,-146 -771,-199 -39,-13 -145,-29 -287,-46 16,-13 32,-26 48,-40l976 -252z"/>
   <path class="fil6" d="M3677 3132l185 -68c0,0 -83,151 -78,258 4,106 23,286 161,299 138,13 215,-89 215,-89 0,0 102,-79 170,-204 68,-125 130,-285 130,-285 0,0 63,6 112,24 48,17 55,20 55,20 0,0 -154,321 -185,501 -31,180 8,316 69,364 62,48 112,57 112,57l-44 178c0,0 -33,82 -11,171 22,88 132,401 132,401 0,0 -329,152 -704,171 -376,18 -489,-113 -489,-113 0,0 40,-268 37,-442 -2,-175 -65,-261 -102,-311 -38,-51 -78,-131 -81,-152 -3,-22 -13,-99 73,-224 87,-125 208,-354 243,-556z"/>
   <path class="fil7" d="M4551 3979c42,25 72,30 72,30l-44 178c0,0 -33,82 -11,171 22,88 132,401 132,401 0,0 -329,152 -704,171 -376,18 -489,-113 -489,-113 0,0 40,-268 37,-442 -2,-175 -65,-261 -102,-311 -30,-41 -62,-101 -75,-134 0,0 85,88 248,71 162,-16 243,-105 291,-41 48,65 110,81 220,79 109,-1 186,-100 219,-74 31,24 101,132 206,14zm-611 501c0,0 157,7 269,-99 113,-106 126,-146 126,-146 0,0 -352,52 -445,32 -93,-20 -30,168 50,213z"/>
   <path class="fil0" d="M2300 4569c0,0 142,-87 474,-120 332,-33 556,2 713,31 156,29 264,51 310,139 47,87 -32,230 -32,230 0,0 -106,239 -289,319 -183,79 -430,110 -686,86 -255,-23 -388,-153 -453,-268 -66,-116 -105,-316 -99,-351 7,-35 62,-66 62,-66z"/>
   <path class="fil8" d="M3774 4744c-65,39 -199,90 -420,116 -276,32 -466,18 -633,8 -166,-11 -366,-92 -384,-102 -12,-7 -38,-24 -62,-42 0,-1 -19,-72 122,-152 143,-81 493,-96 692,-95 200,0 478,43 587,93 108,50 121,111 100,161 -2,4 -2,8 -2,13z"/>
   <path class="fil9" d="M2725 4650c0,0 20,-31 62,-34 42,-3 56,22 95,-22 40,-44 113,-32 136,-23 23,9 40,24 40,24 0,0 14,6 35,-22 22,-28 55,-46 81,-29 26,16 57,62 57,62 0,0 25,1 51,9 25,9 32,27 43,55 11,29 45,89 43,118 -2,30 -14,72 -14,72 0,0 -237,13 -298,16 -60,3 -293,6 -319,-8 -26,-14 -12,-218 -12,-218z"/>
   <path class="fil10" d="M3364 4818c-4,22 -10,42 -10,42 0,0 -237,13 -298,16 -42,2 -168,4 -249,0l6 -155c0,0 47,11 67,2 21,-9 19,-58 63,-61 44,-2 86,13 95,61 10,48 46,75 57,62 11,-12 16,-95 84,-91 68,5 91,60 91,60l94 64z"/>
   <path class="fil11" d="M3277 4870c0,0 -33,-38 -21,-78 13,-40 18,-56 47,-58 29,-3 33,-4 33,-4 0,0 -3,-48 31,-72 34,-24 65,-19 80,-17 14,2 35,13 37,15 2,2 40,-37 81,-28 42,9 67,54 68,63 0,9 4,21 4,21 0,0 23,2 49,13 27,11 38,24 38,24 0,0 -96,57 -147,69 -51,11 -300,52 -300,52z"/>
   <path class="fil12" d="M3672 4778c-20,11 -43,22 -64,30 -7,0 -13,-1 -15,-3 -9,-11 -39,-45 -66,-56 -27,-10 -60,-8 -76,13 -16,21 -23,27 -21,44 2,17 -3,-21 52,-19 31,1 49,21 59,38 -74,14 -214,37 -253,43 -13,-14 -20,-25 -20,-25 -1,-4 6,-49 58,-64 51,-15 64,-5 64,-5 0,0 -31,-33 -32,-43 0,-10 38,-60 91,-48 53,11 62,37 62,37 0,0 6,-41 58,-31 53,10 60,34 60,34 0,0 -17,25 -14,27 2,2 42,-11 56,19 1,3 2,6 1,9z"/>
   <path class="fil11" d="M2481 4823c-1,-2 -36,-57 -12,-119 23,-63 72,-76 169,-63 96,13 153,57 186,91 33,34 34,81 26,97 -8,16 -48,45 -48,45l-321 -51z"/>
   <path class="fil4" d="M2513 4717c0,0 48,-46 108,-39 59,6 86,13 123,37 37,25 59,41 59,75 1,35 -43,61 -97,61 -54,-1 -130,-12 -171,-64 -42,-52 -38,-52 -22,-70z"/>
   <path class="fil8" d="M2086 2841l458 -142c0,0 512,-148 535,-141 22,8 49,20 39,62 -11,43 -74,123 -134,123 -60,0 -127,-27 -155,-43 -27,-15 -86,4 -86,4l-534 144c0,0 -89,47 -127,35 -38,-12 -44,-34 -37,-37 8,-2 41,-5 41,-5z"/>
   <path class="fil2" d="M3571 3169l114 -40c0,0 -62,245 -121,356 -60,111 -166,283 -185,338 -20,54 -25,99 -25,99 0,0 -242,178 -252,183 -10,6 -157,159 -285,138 -128,-22 -235,-230 -235,-230 0,0 -191,-385 -227,-520 -36,-136 -105,-362 -105,-362 0,0 -52,-237 -41,-283 10,-45 41,-88 65,-113 24,-26 71,-70 104,-68 34,3 90,52 90,52 0,0 37,47 51,53 14,6 48,15 48,15 0,0 7,52 24,62 18,10 27,22 27,22 0,0 -13,187 -40,204 -27,16 -50,18 -50,18 0,0 -36,146 -11,197 25,51 106,241 198,357 93,115 154,200 154,200 0,0 45,-35 83,-51 38,-16 348,-366 348,-366 0,0 117,-220 271,-261z"/>
   <path class="fil1" d="M3571 3169l114 -40c0,0 -21,82 -50,173 -41,9 -96,27 -148,66 -101,76 -240,271 -376,399 -135,127 -206,147 -206,147 0,0 -26,-32 -43,-77l7 10c0,0 45,-35 83,-51 38,-16 348,-366 348,-366 0,0 117,-220 271,-261z"/>
   <path class="fil1" d="M2905 4234c-29,9 -59,14 -88,9 -128,-22 -235,-230 -235,-230 0,0 -191,-385 -227,-520 -36,-136 -105,-362 -105,-362 0,0 -52,-237 -41,-283 10,-45 41,-88 65,-113 24,-26 71,-70 104,-68 34,3 90,52 90,52 0,0 37,47 51,53 14,6 48,15 48,15 0,0 7,52 24,62 18,10 27,22 27,22 0,0 0,4 -1,12 -4,1 -8,1 -12,1 -56,0 -204,17 -203,54 0,0 -35,246 -35,305 0,60 176,543 282,728 87,153 165,249 256,263z"/>
   <path class="fil2" d="M4632 3098l-121 255c0,0 -90,242 -86,378 5,136 56,190 97,232 41,42 108,61 108,61l43 -86 89 525 -251 123c0,0 -233,128 -256,137 -23,10 -199,99 -231,88 -31,-11 -110,-10 -119,-22 -10,-13 -114,-15 -114,-15 0,0 -34,120 -74,167 -40,47 -63,106 -63,106 0,0 143,9 286,-32 143,-40 222,-63 300,-70 78,-7 608,-183 608,-183 0,0 184,-44 235,-173 51,-128 -26,-719 -14,-720 12,0 -39,-441 -99,-547 -61,-105 -136,-220 -338,-224z"/>
   <path class="fil1" d="M4593 4845l6 -2 1 0 5 -2 6 -2 2 0 5 -2 6 -2 2 -1 4 -1 6 -2 12 -4 3 -1 3 -1 6 -1 4 -2 2 0 6 -2 4 -2 2 0 6 -2 4 -2 1 0 6 -2 5 -1 0 0 6 -2 5 -2 1 0 5 -2 5 -1 1 -1 4 -1 6 -2 1 0 4 -2 5 -1 1 -1 4 -1 4 -1 2 -1 3 -1 5 -1 2 -1 2 -1 5 -1 2 -1 2 -1 4 -1 3 -1 2 0 4 -2 3 -1 0 0 4 -1 4 -1 0 -1 4 -1 3 -1 0 0 3 -1 4 -1 0 0 3 -1 3 -1 0 0 3 -1 2 -1 1 0 2 -1 2 -1 1 0 2 0 2 -1 1 0 1 -1 2 0 1 -1 1 0 1 0 1 -1 0 0 2 0 1 -1 0 0 1 0 0 0 1 0 0 0 1 -1 0 0 0 0 0 0c0,0 184,-44 235,-173 51,-128 -26,-719 -14,-720 12,0 -39,-441 -99,-547l-2 -2 0 -1 -2 -2 0 -1 -1 -2 -1 -1 -1 -2 -1 -2 -1 -1 -1 -2 0 0 -2 -3 0 0 -2 -3 0 0 -1 -3 -1 -1 -1 -2 -1 -1 -1 -1 -1 -2 0 -1 -2 -3 0 0 -2 -3 0 0 -1 -3 -1 0 -1 -2 -1 -1 -1 -2 -1 -2 -1 -1 -1 -2 -1 -1 -1 -2 0 -1 -2 -2 0 0 -2 -3 0 -1 -2 -2 -1 -1 -2 -3 -1 -1 -1 -2 -1 -1 -1 -2 -1 -1 -2 -3 0 0 -2 -2 0 -1 -2 -3 -2 -2 -1 -1 -2 -3 -1 -1 -1 -2 -3 -3 0 0 -5 -6 -1 -2 -1 -2c-3,-3 -6,-5 -8,-8l0 0 -3 -3 -2 -2 -1 -1c-5,-6 -11,-12 -17,-17l0 -1c-5,-4 -10,-8 -15,-12l0 -1c-4,-3 -9,-7 -13,-10l-1 0c-2,-2 -4,-3 -6,-4l0 0c-10,-8 -21,-15 -34,-21 -67,27 -128,84 -92,202 69,230 111,290 149,505 38,215 41,362 36,454 -5,93 -12,117 -40,171 -28,54 -186,114 -256,165 -69,51 -116,68 -236,119 -121,51 -330,123 -357,78 -27,-45 -172,-17 -177,139 -1,26 0,49 3,69 35,-5 73,-12 111,-23 143,-40 222,-63 300,-70 41,-3 205,-53 353,-100z"/>
   <path class="fil2" d="M4198 2018c0,0 -210,-77 -370,-48 -161,29 -242,112 -242,112 0,0 -13,83 -5,186 9,102 45,431 78,485 33,55 62,117 139,126 77,9 115,-10 115,-10 0,0 26,127 0,153 -27,26 -55,45 -55,45 0,0 -114,197 -75,343 39,145 89,206 189,209 101,3 230,-111 230,-111 0,0 181,-289 215,-348 34,-59 46,-116 46,-116 0,0 -111,-19 -121,-27 -11,-9 -64,-21 -69,-105 -6,-83 -11,-243 17,-282 28,-40 117,-51 137,-190 20,-139 52,-368 -229,-422z"/>
   <path class="fil1" d="M3764 1986c-118,35 -178,96 -178,96 0,0 -7,45 -7,109l0 1 0 3 0 1 0 1 0 0 0 1 0 1 0 1 0 1 0 0 0 1 0 3 0 0 0 1 0 1 0 1 0 1 0 0 0 1 0 2 0 1 0 0 0 1 0 1 0 1 0 1 0 0 0 2 0 1 0 1 0 1 0 0 0 1 0 2 0 1 0 0 0 1 0 1 0 1 0 1 0 1 0 1 0 1 0 1 0 0 0 1 0 2 1 1 0 0 0 1 0 1 0 2 0 1 0 0 0 1 0 1 0 1 0 1c0,7 1,14 1,21 9,102 45,431 78,485 33,55 62,117 139,126 77,9 115,-10 115,-10 0,0 3,14 6,33 29,-14 48,-26 48,-26 0,0 -29,-33 -147,-44 -117,-12 -145,-194 -159,-290 -9,-68 -14,-214 -17,-291 29,7 50,20 59,28 14,13 33,70 25,123 -7,53 -20,95 37,155 57,61 82,0 87,-27 4,-26 -50,4 -67,-12 -18,-17 2,-134 5,-170 2,-35 39,-56 63,-73 24,-17 89,-15 138,-38 49,-23 54,-183 54,-183 0,0 -45,-66 -152,-71 -33,-1 -80,0 -129,3zm567 1314c38,-61 73,-118 86,-140 34,-59 46,-116 46,-116 0,0 -111,-19 -121,-27 -11,-9 -64,-21 -69,-105 -3,-39 -6,-95 -5,-148 -32,28 -104,95 -111,157 -10,81 -33,198 -80,255 -46,56 -110,54 -133,51 -24,-3 -53,160 94,228 108,50 208,-48 293,-155zm-438 -836c0,0 133,-73 145,-78 11,-5 16,89 -72,103 -89,14 -73,-25 -73,-25zm397 166c28,-40 117,-51 137,-190 5,-33 10,-71 12,-110l-53 -113 -195 6c0,0 -13,186 26,238 40,52 24,155 73,169z"/>
   <path class="fil0" d="M3827 2651c0,0 22,57 48,66 27,9 62,1 92,-22 30,-22 41,-62 41,-86 0,-23 -31,-56 -28,-59 3,-2 -65,56 -86,65 -21,9 -69,16 -67,36z"/>
   <path class="fil4" d="M4256 1852c0,0 -76,6 -104,-8 -29,-14 -93,6 -150,5 -57,-1 -152,-16 -235,0 -84,17 -176,66 -195,116 -19,50 -13,77 -3,95 10,17 28,18 50,16 22,-2 41,-3 41,-3 0,0 45,32 99,34 53,1 135,-29 135,-29 0,0 17,55 67,68 50,13 88,5 107,17 20,12 27,19 26,39 0,19 -16,28 -14,43 1,15 -15,70 42,87 56,18 50,36 59,59 9,23 6,51 29,67 22,16 17,-40 29,-73 12,-32 37,-82 87,-76 51,6 78,30 91,72 13,41 -18,103 -39,126 -22,24 -87,67 -100,88 -12,20 -18,144 -11,148 8,4 52,-14 97,-42 45,-29 110,-127 122,-164 11,-37 12,-82 12,-82 0,0 69,-122 72,-174 3,-52 -19,-142 -27,-175 -9,-32 -21,-75 -21,-75 0,0 63,8 90,8 26,0 60,12 72,-16 13,-29 6,-65 6,-65 0,0 155,12 186,-50 31,-62 27,-67 21,-96 -6,-30 -60,-72 -57,-105 2,-33 43,-129 11,-179 -32,-50 -132,-65 -173,-54 -40,11 -91,28 -145,4 -54,-24 -144,-40 -202,5 -58,45 -84,126 -90,212 -6,87 25,116 21,126 -3,10 -6,31 -6,31z"/>
   <path class="fil9" d="M4262 1821c-2,7 -4,21 -6,27 11,6 28,14 54,28 47,25 135,84 156,101 22,18 64,49 64,49 0,0 6,-66 1,-79 -5,-12 -44,-70 -118,-103 -53,-24 -119,-24 -151,-23z"/>
   <path class="fil1" d="M4846 1674c12,-43 29,-108 5,-146 -32,-50 -132,-65 -173,-54 -40,11 -91,28 -145,4 -54,-24 -144,-40 -202,5 -2,1 -3,3 -5,4l-1 28c0,0 40,-38 116,-12 76,27 90,63 170,37 80,-27 148,-25 192,26 45,52 29,114 29,114l14 -6z"/>
   <path class="fil5" d="M3572 1965c-19,50 -13,77 -3,95 10,17 28,18 50,16 22,-2 41,-3 41,-3 0,0 45,32 99,34 53,1 135,-29 135,-29 0,0 17,55 67,68 50,13 88,5 107,17 20,12 27,19 26,39 0,19 -16,28 -14,43 1,15 -15,70 42,87 56,18 50,36 59,59 9,23 6,51 29,67 22,16 17,-40 29,-73 12,-32 37,-82 87,-76 51,6 78,30 91,72 13,41 -18,103 -39,126 -22,24 -87,67 -100,88 -12,20 -18,144 -11,148 8,4 52,-14 97,-42 45,-29 110,-127 122,-164 11,-37 12,-82 12,-82 0,0 69,-122 72,-174 3,-52 -19,-142 -27,-175 -9,-32 -21,-75 -21,-75l3 1 -14 -14c0,0 5,96 -59,156 -65,60 -205,96 -216,57 -11,-39 115,-121 115,-121 0,0 10,-43 -107,-15 -116,28 -153,22 -130,-24 22,-47 187,-95 185,-103 -2,-8 -36,-24 -165,-21 -130,4 -224,68 -291,67 -67,-2 -94,-39 -47,-69 47,-30 111,-19 119,-30 7,-11 -84,-17 -164,-9 -80,8 -179,59 -179,59l0 0zm961 68c20,2 59,6 79,6 26,0 60,12 72,-16 13,-29 6,-65 6,-65 0,0 155,12 186,-50 4,-9 8,-17 11,-24 -12,5 -25,10 -39,15 -169,58 -164,-126 -169,-126 -4,0 -131,25 -132,-57 -1,-82 73,-113 30,-101 -43,12 -137,84 -160,85 -22,2 -20,-56 -92,-52 -26,2 -56,15 -82,32 -1,5 -1,10 -2,15 -5,72 15,104 20,119 28,-1 68,0 103,10 63,18 137,71 158,113 22,42 11,96 11,96l0 0z"/>
   <path class="fil13" d="M4401 1431c-67,9 -135,70 -157,143 -25,79 -24,194 2,231 8,12 8,13 -2,29 -10,18 -9,31 3,31 4,0 12,4 17,9 6,5 14,9 18,9 11,1 95,44 97,50 1,4 -5,6 -19,6 -22,0 -78,26 -82,37 -2,7 2,6 44,-5 10,-3 38,-6 63,-7l44 -2 21 18c12,9 26,21 31,24 6,4 12,12 12,19 6,24 12,45 24,79 22,61 25,71 30,103 8,51 5,100 -9,132 -2,5 -9,22 -16,36 -10,24 -34,62 -59,93 -11,14 -9,27 5,27 10,0 13,11 5,17 -2,1 -5,6 -5,9 0,13 -42,92 -62,119 -30,38 -73,68 -118,83 -16,5 -20,9 -20,17 0,6 -4,13 -8,15 -11,7 -14,92 -4,148 16,96 20,103 71,121 38,13 53,16 53,9 0,-9 -29,-33 -56,-47 -25,-12 -22,-5 -35,-90 -4,-28 -6,-70 -6,-96l1 -46 19 -3c27,-3 72,-29 102,-58 39,-38 68,-88 89,-151 4,-14 10,-30 12,-34 2,-4 4,-17 4,-28 0,-15 3,-23 11,-30 9,-9 39,-63 50,-92 13,-34 18,-62 18,-100 0,-60 -13,-113 -47,-184 -8,-19 -9,-22 -3,-29 20,-25 23,-58 8,-98 -8,-20 -18,-34 -42,-58 -18,-17 -36,-32 -41,-34 -25,-8 -3,-70 52,-145 10,-14 18,-27 18,-30 0,-11 -15,-1 -48,33 -26,26 -40,45 -50,67 -8,17 -14,34 -14,38 0,8 -8,9 -24,1 -6,-4 -27,-11 -45,-15 -28,-8 -37,-8 -53,-4 -26,7 -29,3 -37,-53 -12,-88 13,-182 62,-230 33,-33 58,-43 106,-43 38,0 41,1 81,22 50,26 77,27 126,8 54,-22 115,-19 165,9 26,15 51,61 52,95 0,14 -21,75 -29,84 -2,2 -4,12 -4,21 0,14 4,22 20,40 18,20 26,32 41,63 8,15 5,55 -5,74 -10,19 -24,31 -53,44 -14,7 -30,9 -79,9l-60 0 -10 14c-8,10 -8,14 -4,21 8,13 7,29 -2,41 -6,10 -10,11 -49,11 -47,0 -61,4 -51,15 6,6 71,12 94,9 7,-1 19,-7 25,-13 10,-10 12,-15 12,-39l0 -28 58 0c32,0 62,-2 67,-4 4,-3 16,-8 26,-13 24,-12 55,-47 62,-71 14,-47 0,-98 -42,-146 -25,-29 -25,-30 -7,-68 38,-85 6,-175 -75,-207 -38,-15 -116,-15 -156,0 -46,17 -62,18 -87,4 -57,-33 -94,-42 -146,-36l0 0zm-1541 3809c57,-5 251,20 426,-9 1,-2 4,-3 7,-4 5,-1 13,-3 18,-5 5,-2 27,-10 49,-16 91,-29 173,-77 237,-140 69,-67 97,-109 142,-207 11,-25 36,-103 35,-109 -1,-2 -10,1 -19,7 -14,11 -62,34 -90,45 -5,2 -14,6 -21,9 -6,3 -20,7 -30,10 -10,3 -26,8 -35,10 -79,23 -174,40 -272,50 -28,3 -68,8 -89,10 -48,6 -377,6 -422,0 -19,-2 -56,-6 -83,-10 -90,-9 -169,-24 -230,-41 -11,-3 -27,-7 -36,-9 -24,-6 -67,-22 -96,-36 -14,-6 -26,-11 -27,-11 -1,0 -13,-7 -27,-16 -14,-9 -26,-15 -28,-14 -4,5 43,131 75,198 36,74 97,145 169,196 52,36 74,47 160,74 38,11 100,19 126,16 46,-5 57,-6 61,2zm712 -103c113,-11 152,84 101,167 -66,107 -676,112 -915,51 -160,-41 -178,-93 -173,-122 -17,-7 -29,-12 -35,-15 -112,-68 -192,-150 -230,-233 -7,-14 -8,-15 -30,-13 -12,2 -55,5 -96,8 -41,2 -82,6 -91,7 -9,1 -41,6 -72,9 -31,4 -66,9 -79,11 -53,10 -76,14 -105,19 -17,2 -39,7 -49,10 -22,6 -40,10 -84,20 -17,5 -37,10 -42,12 -5,2 -22,7 -37,11 -29,8 -78,23 -113,34 -11,3 -23,6 -27,6 -3,0 -10,5 -14,12 -8,11 -11,12 -29,9 -19,-3 -22,-6 -44,-37 -26,-38 -42,-69 -58,-119 -38,-118 -52,-213 -52,-354 0,-100 5,-143 22,-225 12,-54 35,-131 52,-168 44,-97 82,-164 100,-178 26,-21 103,-1 144,35 34,31 55,79 61,135 4,32 5,34 35,43 54,17 94,52 122,108 19,39 30,90 25,124 -3,23 -16,70 -21,77 -7,11 -15,45 -12,52 2,6 7,7 29,5 71,-8 137,-9 152,-2 16,8 41,33 49,49 9,18 16,66 16,115l1 46 28 8c47,12 67,32 74,72l4 17 53 -2c29,-1 55,-4 57,-6 5,-5 2,-16 -18,-65 -7,-16 -27,-78 -34,-105 -15,-54 -18,-71 -18,-103 0,-31 2,-37 14,-56 55,-82 249,-150 503,-176 250,-26 525,-17 738,24 13,2 31,5 39,7l15 3 -2 -86c-2,-92 -9,-142 -26,-190 -13,-35 -21,-48 -81,-123 -24,-31 -51,-68 -59,-84 -9,-16 -16,-29 -17,-30 -1,-1 -28,20 -64,52 -11,9 -24,17 -29,17 -5,0 -37,20 -72,45 -85,60 -96,67 -107,69 -20,1 -15,-13 11,-35 20,-18 71,-54 109,-80 -1,-38 13,-147 119,-251 127,-126 295,-417 295,-417l0 0c3,-8 6,-17 9,-27 7,-20 14,-41 16,-46 3,-5 10,-29 17,-51 6,-24 13,-48 16,-56 5,-18 2,-22 -13,-16 -7,3 -17,7 -22,9 -83,32 -107,44 -139,71 -20,17 -65,65 -89,98 -24,30 -49,63 -79,101 -18,22 -39,49 -47,58 -100,128 -156,187 -240,253 -27,21 -66,53 -88,71 -22,17 -45,36 -51,41 -9,7 -10,10 -6,17 15,29 27,73 22,82 -5,7 -21,-4 -26,-18 -14,-37 -72,-142 -83,-150 -1,-2 -15,-16 -28,-33 -14,-17 -27,-31 -28,-33 -24,-21 -89,-111 -117,-161 -36,-62 -84,-158 -108,-216 -3,-6 -6,-15 -9,-19 -2,-5 -4,-11 -4,-15 0,-4 -3,-13 -6,-20 -20,-40 -20,-33 -6,-106 8,-42 19,-132 18,-156 0,-9 -2,-29 -4,-45l-3 -27 19 -18c28,-28 52,-16 26,11 -11,13 -11,15 -11,72 0,32 1,58 3,58 9,0 29,-21 31,-34 4,-27 16,-80 22,-99 8,-29 11,-71 4,-79 -5,-6 -18,-7 -86,-6 -45,0 -82,0 -84,-2 -3,-2 -2,-8 1,-12 4,-7 15,-8 73,-9l67 -2 -8 -22 -7 -21 -26 0c-30,1 -82,12 -118,25 -53,19 -82,23 -82,13 0,-4 6,-9 13,-12 7,-4 16,-8 20,-10 4,-2 26,-9 49,-16 23,-7 46,-15 52,-17 6,-3 15,-4 20,-4 15,0 16,-10 2,-24 -9,-9 -18,-14 -27,-14 -22,1 -67,28 -135,79 -23,18 -31,18 -31,3 0,-9 7,-16 27,-31 38,-28 70,-51 73,-51 1,0 10,-4 19,-10 12,-9 15,-12 10,-17 -4,-4 -2,-5 6,-5 7,0 14,1 15,3 5,5 32,6 32,1 0,-2 5,-4 11,-4 6,0 12,-2 14,-4 1,-3 10,-6 20,-7 31,-5 75,-15 78,-19 2,-1 9,-3 16,-3 7,0 14,-1 16,-3 3,-4 42,-14 72,-19 8,-1 16,-4 17,-6 2,-3 9,-4 16,-4 8,0 15,-2 16,-5 1,-1 12,-5 22,-7 20,-2 41,-8 62,-16 24,-9 60,-19 71,-19 5,0 12,-2 13,-5 2,-2 9,-4 16,-4 7,0 14,-2 16,-4 4,-3 47,-14 74,-18 10,-2 19,-4 20,-7 4,-6 37,-5 52,2 18,8 30,23 24,30 -3,4 -7,5 -10,2 -13,-9 -47,-15 -61,-10 -7,2 -20,5 -28,5 -9,0 -18,2 -19,4 -1,3 -8,5 -14,5 -6,0 -20,3 -31,7 -36,10 -84,25 -113,33 -16,4 -32,9 -38,11 -5,3 -27,9 -48,14 -22,6 -47,12 -56,15 -21,6 -69,18 -84,21 -7,1 -16,4 -21,6 -15,6 -52,14 -79,17 -14,2 -26,4 -26,5 0,0 7,11 15,22 12,18 17,21 25,19 15,-3 41,9 47,22 3,6 7,21 9,33 2,17 6,23 20,32l17 11 -1 35c0,19 -4,50 -8,69 -3,20 -9,47 -12,61 -3,14 -7,32 -8,40 -1,7 -5,16 -7,19 -7,9 -32,20 -44,20 -6,0 -11,1 -11,1 -4,17 -16,104 -17,131 -3,41 -4,38 46,138 78,157 124,231 202,321 55,65 84,102 94,123 10,19 17,20 39,2 126,-102 240,-217 334,-340 18,-24 37,-49 41,-54 5,-5 25,-30 46,-56 20,-27 39,-51 42,-54 2,-2 17,-20 32,-39 43,-53 80,-84 130,-109 24,-12 46,-22 49,-22 3,0 10,-2 16,-6 16,-8 22,-10 53,-20 12,-3 90,-32 98,-35 12,-5 24,-10 50,-19 85,-34 96,-41 103,-62 3,-10 6,-38 6,-62l0 -44 -15 4c-8,2 -34,3 -57,3 -38,0 -46,-2 -70,-14 -57,-29 -104,-93 -127,-173 -4,-12 -8,-26 -11,-33 -12,-37 -27,-143 -39,-270 -11,-129 -15,-164 -18,-176 -1,-2 -1,-4 -1,-5 0,0 -12,-91 4,-120 9,-17 5,-29 0,-36 -2,-3 -5,-5 -7,-8 -11,-13 -13,-18 -13,-49 0,-29 3,-40 13,-61 22,-45 72,-87 134,-113 17,-7 70,-19 89,-19 10,-1 23,-2 30,-4l0 0c17,-5 65,-6 92,-1 69,14 95,16 127,7 35,-10 113,-11 143,-3 30,9 52,25 52,38 0,9 -1,10 -6,6 -21,-17 -124,-22 -175,-8 -26,7 -38,7 -77,4 -73,-6 -193,-5 -219,2 -82,23 -131,55 -158,104 -17,31 -20,72 -5,88 0,0 1,1 1,2 1,1 18,14 11,34 -6,20 -17,103 -11,125l0 1 0 0c1,2 2,5 3,10 15,-2 38,-4 62,2 46,11 65,27 65,29 0,3 -5,29 -14,29 -8,0 -39,-33 -78,-37 -14,-1 -24,-2 -31,-2 2,14 5,33 8,59 6,45 10,57 16,51 7,-7 29,-6 37,3 12,11 14,28 6,41 -8,13 -25,19 -32,12 -11,-11 -14,-4 -11,31 8,85 20,159 39,234 14,55 49,117 82,147 52,47 110,51 199,12 6,-2 18,-7 29,-10l0 0 1 0 0 0c5,-2 98,-28 100,-20 2,8 -97,86 -131,103 0,33 -4,70 -13,115 -2,16 -5,20 -19,24 -15,4 -19,10 -47,65 -17,33 -33,65 -34,72 -26,97 -33,190 -16,241 14,45 21,61 35,85 23,36 42,55 73,70 24,12 32,14 65,14 52,0 84,-13 141,-56 96,-72 150,-149 264,-379 60,-119 68,-133 77,-123 5,6 -1,39 -13,66 -2,5 -7,17 -10,26 -7,20 -83,175 -102,208 -23,41 -62,100 -79,122 -68,86 -147,147 -228,172 -26,9 -79,6 -107,-4 -80,-29 -129,-96 -158,-216 -7,-27 -7,-103 -1,-132 3,-12 7,-33 10,-45 7,-35 17,-61 38,-105 11,-22 20,-42 22,-44 2,-6 -24,0 -47,11 -12,4 -33,13 -48,19 -44,16 -49,20 -49,44 0,11 -2,21 -4,23 -3,1 -6,9 -7,18 -4,25 -14,63 -19,67 -1,1 -3,8 -3,13 0,5 -2,12 -4,15 -2,2 -7,16 -12,32 -8,27 -14,43 -22,59 -2,4 -4,10 -4,13 0,6 -54,118 -75,153 -8,14 -23,42 -33,61 -10,19 -23,40 -27,47 -4,6 -17,29 -28,51 -18,36 -26,50 -41,77 -14,25 -29,61 -34,84 -6,27 -2,48 15,82 10,18 48,70 71,96 27,29 49,64 45,69 -3,3 0,14 8,30 31,62 44,135 43,238 0,39 0,74 0,77 0,3 6,6 12,6 6,0 13,2 14,4 1,3 7,5 12,5 5,0 13,2 17,4 63,30 73,37 75,44 1,8 -1,9 -14,7 -14,-2 -45,-11 -85,-22 -38,-11 -68,-19 -93,-24 -16,-3 -38,-7 -49,-9 -229,-46 -610,-46 -848,0 -78,15 -98,20 -156,37 -42,13 -43,14 -95,39 -63,31 -98,66 -98,97 0,15 21,46 44,64 22,16 91,52 101,52 4,0 9,2 11,3 7,6 40,16 43,13 1,-1 -1,-9 -4,-17 -11,-25 -8,-69 6,-88 18,-28 58,-56 78,-56 5,0 10,-2 13,-5 8,-8 130,0 143,10 3,2 12,5 20,7 13,3 15,2 18,-9 5,-21 20,-26 78,-26l53 0 21 -20c31,-30 74,-49 98,-44 36,9 46,13 65,26 12,8 23,15 25,15 2,0 11,-10 18,-22 10,-15 21,-24 40,-33 23,-10 27,-11 42,-6 20,7 43,29 59,55l11 20 29 0c20,0 31,3 38,8 13,10 26,34 26,48 0,12 2,11 18,-5 29,-30 71,-36 114,-16 30,13 33,14 37,4 1,-4 10,-10 19,-14 50,-21 108,6 121,56 6,23 6,24 26,26 11,2 31,9 43,16 12,6 24,12 27,12 9,0 49,-45 55,-62 8,-22 -2,-45 -31,-71 -22,-20 -26,-37 -10,-42 17,-5 57,30 72,64 4,10 10,18 12,18 5,0 5,43 0,56 -4,10 -7,20 -17,58 -2,10 0,10 31,13 19,2 47,5 62,7 16,3 41,7 56,9 38,6 56,11 59,16 3,5 24,-1 58,-15 10,-5 30,-13 44,-19 14,-5 35,-14 46,-19 12,-6 35,-16 52,-23 52,-24 174,-87 188,-97 9,-7 62,-35 112,-59 72,-36 82,-41 84,-44 1,-2 -5,-17 -14,-35 -15,-31 -42,-103 -53,-137 -9,-27 -6,-88 4,-129 5,-20 11,-42 12,-49 2,-7 5,-14 7,-16 2,-1 4,-7 4,-13 0,-5 1,-11 3,-13 3,-3 34,-92 34,-98 0,-2 -4,-3 -9,-3 -44,0 -140,-95 -164,-163 -27,-78 -27,-176 1,-319 3,-16 7,-33 9,-40 2,-6 6,-21 10,-32 7,-25 18,-59 23,-73 2,-5 8,-21 14,-37 6,-15 13,-35 17,-44 4,-9 9,-20 11,-26 10,-24 19,-45 25,-59 10,-23 44,-97 54,-117 9,-18 9,-26 -1,-26 -4,0 -18,-6 -32,-13 -17,-9 -26,-16 -27,-23 -1,-9 1,-11 11,-11 7,0 16,2 20,5 13,7 52,19 64,19 6,0 12,1 13,4 2,2 9,5 16,6 20,4 91,22 101,27 5,2 17,6 26,9 38,14 94,45 118,66 34,31 67,77 93,130 24,50 31,77 47,177 25,149 34,238 35,321 1,48 7,129 19,247 6,63 18,198 21,250 4,50 -4,104 -14,104 -10,0 -16,-24 -16,-60 0,-19 -2,-53 -5,-75 -2,-22 -7,-73 -10,-112 -6,-78 -10,-120 -18,-182 -2,-22 -7,-88 -9,-146 -3,-60 -7,-121 -10,-138 -2,-17 -5,-38 -7,-49 -24,-201 -44,-284 -85,-353 -48,-81 -96,-119 -196,-153 -27,-10 -59,-19 -70,-22 -12,-3 -26,-7 -31,-8 -11,-2 -15,5 -60,108 -4,7 -11,24 -16,35 -5,12 -13,33 -19,47 -5,14 -11,29 -13,34 -11,26 -14,35 -22,56 -4,13 -9,28 -11,33 -6,13 -17,51 -33,112 -28,109 -32,226 -11,298 16,52 53,106 94,135 10,-23 25,-63 41,-126 24,-91 28,-161 28,-185 -1,-11 2,-15 7,-17 15,-3 22,18 35,104 3,26 9,60 11,75 3,17 6,43 9,59 4,28 16,103 23,150 4,23 16,103 24,161 2,16 6,43 9,58 4,28 14,93 24,165l6 38 21 -2c56,-9 73,-9 76,-2 4,11 -6,17 -46,24 -20,4 -46,9 -56,11 -16,4 -264,123 -307,149 -8,4 -24,14 -37,22 -46,27 -167,89 -193,100 -9,3 -24,9 -33,13 -31,13 -44,18 -60,24 -9,3 -21,8 -26,10 -9,3 -29,10 -68,22 -23,8 -54,7 -57,-1 -1,-4 -11,-7 -22,-9 -12,-1 -31,-4 -44,-7 -44,-9 -107,-19 -112,-19 -4,0 -6,3 -6,7 0,3 -2,10 -5,15 -2,4 -8,18 -12,31 -17,50 -41,100 -70,143 -14,21 -25,39 -25,40 0,0 24,1 55,1 63,0 94,-5 171,-32 30,-10 72,-21 92,-26 20,-4 39,-8 42,-10 2,-2 13,-5 24,-7 36,-7 93,-18 116,-23 39,-7 68,-13 100,-21 17,-4 38,-9 47,-11 51,-12 96,-24 105,-28 5,-2 22,-8 37,-12 15,-4 33,-9 40,-11 6,-2 20,-7 32,-10 47,-12 65,-18 119,-35 31,-9 60,-18 65,-21 5,-2 21,-7 35,-11 14,-4 29,-10 33,-12 5,-3 12,-5 16,-5 4,0 11,-1 15,-4 4,-2 29,-12 55,-22 106,-40 139,-63 163,-117 7,-14 14,-31 16,-36 9,-18 19,-56 19,-70 0,-15 7,-25 17,-25 4,0 6,9 6,32 0,81 -57,182 -121,213 -61,29 -117,52 -187,75 -23,7 -42,14 -44,16 -2,1 2,12 7,23 12,27 28,94 36,153 4,33 4,122 0,151 -6,41 -32,125 -42,137 -4,5 -3,8 4,13 5,3 12,6 15,6 3,0 10,2 14,4 5,3 29,12 55,22 25,10 49,19 51,21 3,2 9,5 15,6 11,4 11,4 -2,-21 -16,-32 -20,-75 -9,-104 11,-29 55,-68 102,-91 21,-10 41,-18 43,-18 3,0 12,-6 21,-14 19,-15 24,-30 35,-100 4,-26 9,-51 12,-55 2,-5 4,-11 4,-15 0,-15 28,-58 54,-85 27,-26 87,-62 105,-62 4,0 9,-2 12,-4 9,-9 63,-17 111,-17 49,1 52,1 84,16 40,21 53,39 53,72 0,14 -4,29 -8,36 -102,161 -101,159 -138,204 -63,78 -113,124 -222,204 -83,61 -161,106 -192,112 -14,2 -17,0 -19,-9 -6,-18 -17,-28 -26,-23 -11,6 -91,-16 -149,-41 -15,-6 -164,-56 -186,-62 -9,-2 -28,-7 -42,-11 -14,-3 -33,-8 -42,-11 -21,-6 -72,-19 -93,-24 -9,-2 -24,-6 -33,-9 -24,-6 -70,-19 -91,-24 -43,-10 -52,-13 -81,-19 -17,-4 -42,-11 -56,-14 -14,-4 -41,-10 -61,-15 -62,-14 -71,-16 -93,-21 -11,-2 -34,-7 -51,-10 -17,-3 -40,-7 -53,-9 -43,-9 -70,-13 -112,-18 -23,-3 -49,-7 -56,-10 -8,-2 -23,-4 -34,-4 -10,0 -20,-3 -22,-5 -5,-9 -24,-4 -38,10 -15,17 -42,39 -69,59zm251 -2860c0,0 9,-28 85,-43 75,-14 102,12 102,19 0,7 -47,-14 -99,9 -53,23 -58,40 -64,38 -7,-2 -24,-23 -24,-23zm129 1848c-4,4 -3,9 4,17 23,30 84,42 165,33 82,-10 128,-24 128,-39 0,-5 -6,-4 -111,5 -30,3 -66,4 -82,2 -30,-2 -67,-14 -67,-21 0,-6 -31,-4 -37,3zm-1653 -810c0,14 1,30 4,36 2,6 6,20 10,32 11,43 71,226 79,244 2,5 8,22 13,37 9,29 35,92 55,137 6,13 11,25 11,26 0,4 49,104 66,133 9,17 27,49 39,72 51,96 110,172 160,206 35,23 63,31 107,31 50,0 72,-10 74,-33 1,-16 -6,-20 -16,-10 -9,9 -44,12 -75,8 -61,-9 -106,-42 -168,-123 -19,-24 -72,-121 -121,-223 -49,-100 -51,-103 -80,-177 -2,-5 -7,-17 -11,-27 -4,-9 -8,-19 -8,-22 0,-2 -2,-8 -4,-13 -6,-13 -13,-30 -16,-41 -2,-8 -43,-125 -51,-146 -1,-4 -6,-19 -10,-33 -4,-14 -10,-29 -12,-33 -3,-5 -5,-13 -5,-17 0,-5 -1,-10 -3,-12 -5,-5 -15,-36 -18,-58 -2,-15 -5,-20 -12,-20 -7,0 -8,4 -8,26l0 0zm46 -653c-12,6 -45,35 -80,69 -46,47 -64,61 -81,67 -13,4 -27,10 -32,12 -12,4 -23,8 -71,18 -47,10 -50,13 -48,39 1,21 69,37 84,21 6,-9 1,-13 -11,-10 -10,2 -45,-10 -45,-16 0,-4 34,-15 47,-15 5,0 13,-2 17,-4 14,-8 67,-21 69,-18 2,2 1,10 -2,17 -4,8 -5,22 -4,32 5,39 13,84 20,120 4,20 9,46 11,58 13,65 23,97 34,104 5,3 9,4 11,2 3,-3 -2,-46 -12,-99 -8,-45 -13,-70 -19,-105 -3,-19 -7,-39 -9,-45 -8,-20 -5,-72 5,-90 4,-9 10,-20 13,-25 6,-12 77,-85 99,-102 20,-14 49,-17 71,-6 26,14 35,7 16,-13 -12,-11 -36,-21 -52,-21 -6,0 -19,4 -31,10l0 0zm765 -42c-4,3 -6,7 -6,9 0,12 -60,70 -90,86 -20,11 -28,12 -63,12 -34,0 -44,-2 -66,-12 -30,-15 -42,-22 -53,-30 -16,-13 -99,1 -145,24 -7,4 -9,8 -7,12 4,5 6,6 15,1 12,-6 59,-15 96,-18 22,-2 27,-1 37,9 15,13 55,33 83,41 20,6 68,4 97,-4 27,-7 66,-37 89,-68 17,-23 21,-32 21,-48 0,-22 0,-22 -8,-14l0 0zm841 -63c-18,19 -65,53 -85,61 -9,4 -15,5 -19,1 -7,-7 -19,-6 -27,4 -10,10 -11,43 -2,60 16,30 60,57 77,48 15,-8 13,-19 -3,-19 -15,0 -37,-20 -49,-45 -10,-19 -10,-20 3,-20 24,-1 61,-19 99,-51 16,-13 31,-24 33,-24 10,0 17,29 14,59 -3,31 -1,34 11,24 26,-20 25,-74 -2,-105 -14,-15 -31,-13 -50,7l0 0zm-225 -203c-1,4 -3,19 -5,34 -2,41 -11,104 -13,109 -4,6 6,44 16,57 11,16 51,37 69,37 14,0 26,-10 21,-19 -1,-2 -6,-4 -11,-4 -4,0 -18,-6 -30,-14 -28,-18 -38,-40 -33,-72 2,-13 3,-48 4,-77 0,-48 -1,-54 -8,-55 -4,-1 -9,1 -10,4zm173 -2c-15,6 -17,9 -17,23 0,12 3,18 15,27 20,15 33,15 42,2 10,-13 11,-55 2,-55 -3,0 -10,-1 -15,-2 -5,-1 -17,1 -27,5zm-1314 2419c-5,4 -13,10 -18,14 -5,5 -11,8 -13,8 -2,0 -4,4 -4,7 0,10 19,9 51,-2 22,-7 26,-10 26,-19 0,-9 -2,-11 -16,-12 -9,-1 -21,1 -26,4l0 0zm151 -51c-9,5 -22,15 -30,22 -12,12 -13,14 -5,17 8,3 31,-2 52,-13 14,-7 19,-21 11,-30 -7,-8 -8,-8 -28,4l0 0zm-133 -35c-24,9 28,67 53,58 6,-2 2,-12 -18,-38 -15,-23 -21,-26 -35,-20zm554 -2c-27,10 -44,26 -44,40 0,18 5,18 31,0 26,-18 66,-24 76,-12 7,9 19,10 19,2 0,-8 -14,-25 -26,-31 -13,-6 -37,-6 -56,1l0 0zm-221 -31c-13,5 -27,21 -24,28 2,5 4,5 12,-1 23,-16 62,-4 94,29 15,15 20,18 25,13 2,-4 5,-9 5,-12 0,-10 -24,-35 -43,-46 -18,-9 -56,-16 -69,-11l0 0zm1742 -611c12,64 14,77 21,128 8,55 10,70 23,152 17,107 20,123 27,131 3,4 1,7 -7,10 -6,3 -28,12 -48,22 -21,9 -43,20 -51,23 -17,8 -21,6 -21,-13 0,-16 -1,-20 -27,-94 -16,-49 -17,-55 -17,-110 0,-54 1,-61 17,-114 19,-56 25,-76 32,-93 1,-5 9,-25 16,-44 7,-19 15,-41 18,-48l5 -13 3 18c3,10 7,30 9,45l0 0zm-1491 532c44,51 40,48 70,48 25,0 29,1 38,14 5,7 9,15 9,17 0,3 5,17 12,33 6,16 12,30 12,31 0,2 -6,3 -14,3 -19,0 -52,20 -65,40 -16,25 -10,76 10,89 12,7 -64,14 -151,15 -72,0 -92,-1 -92,-6 0,-7 -40,-46 -55,-54 -16,-8 -25,-6 -25,6 0,7 7,16 24,29 12,10 23,20 23,21 0,6 -125,5 -128,0 -1,-3 2,-12 7,-21 14,-25 11,-49 -10,-89 -9,-16 -68,-77 -75,-77 -6,0 -31,-18 -31,-23 0,-2 3,-7 7,-11 6,-6 18,-8 56,-8 47,0 51,-1 66,-12 10,-7 20,-17 23,-21 12,-17 35,-24 71,-24 36,0 41,2 82,32 13,9 22,5 42,-17 23,-27 39,-37 58,-37 15,0 20,3 36,22l0 0zm-542 79c21,3 43,8 51,10 7,1 14,4 15,6 2,2 6,4 10,4 20,0 94,50 94,63 0,2 6,11 13,22 6,10 13,28 14,41 2,20 1,23 -13,39 -13,15 -17,17 -37,17 -40,0 -47,-3 -69,-33 -17,-24 -22,-28 -32,-27 -17,2 -19,17 -4,34 7,7 12,14 12,15 0,2 -48,-3 -65,-8 -9,-2 -37,-7 -63,-12 -43,-7 -48,-10 -71,-29 -42,-35 -45,-76 -8,-111 11,-11 25,-20 30,-20 4,0 9,-1 11,-4 4,-4 47,-13 64,-14 6,0 28,3 48,7l0 0zm798 -3c35,15 43,20 48,28 7,13 11,12 18,-7 8,-20 25,-28 54,-24 27,3 43,15 55,38 9,19 8,29 -5,33 -9,4 -27,21 -39,40l-8 10 -17 -13c-14,-11 -23,-14 -51,-16 -30,-1 -37,0 -51,8 -25,16 -33,31 -32,64l0 29 -26 2c-15,2 -42,5 -61,7 -36,5 -47,4 -47,-5 0,-3 -4,-11 -9,-17 -13,-16 -12,-36 2,-54 28,-37 72,-40 103,-8 14,14 16,13 16,-3 0,-10 -5,-18 -17,-28 -10,-8 -20,-14 -24,-14 -3,0 -6,-6 -6,-15 0,-25 42,-57 76,-59 4,-1 14,2 21,4l0 0zm246 89c9,4 16,7 16,9 0,9 -102,49 -109,42 -5,-5 14,-34 31,-46 17,-11 40,-13 62,-5zm-148 36c33,17 34,28 3,35 -116,26 -105,25 -105,8 0,-18 18,-45 35,-52 14,-6 46,-1 67,9zm1192 76c23,60 31,116 31,213 0,86 -5,116 -26,170 -2,5 -6,17 -9,25 -3,8 -8,15 -10,15 -3,0 -29,-8 -59,-18 -30,-10 -64,-21 -75,-24 -31,-7 -57,-14 -68,-19 -5,-2 -25,-7 -44,-11 -19,-4 -40,-10 -47,-12 -6,-2 -20,-6 -30,-8 -10,-3 -31,-9 -46,-13 -16,-4 -34,-9 -42,-12 -8,-1 -39,-9 -70,-16 -31,-7 -60,-14 -65,-16 -5,-2 -22,-7 -38,-9 -27,-6 -47,-10 -87,-19 -75,-15 -143,-28 -179,-31 -21,-2 -24,-3 -19,-9 2,-4 8,-7 12,-7 7,0 31,-7 50,-14 5,-2 22,-7 37,-11 16,-4 33,-10 40,-12 6,-2 28,-7 49,-12 20,-4 44,-12 53,-17 9,-5 31,-11 49,-13 41,-5 82,-12 109,-17 12,-3 34,-7 49,-10 16,-3 33,-8 40,-10 15,-5 41,-12 81,-21 19,-5 37,-10 42,-12 5,-1 19,-6 31,-9 11,-3 30,-8 41,-12 12,-3 30,-8 40,-11 43,-11 72,-20 105,-30 19,-7 37,-12 40,-12 3,0 10,11 15,24l0 0zm-1032 -2887c-34,26 -52,60 -52,100 0,27 5,35 29,45 40,17 76,21 122,12 30,-5 36,-7 64,-19 10,-4 18,-6 18,-4 0,2 8,13 19,26 32,36 64,49 123,49 46,0 54,4 60,29 3,9 1,15 -6,23 -9,8 -10,16 -10,47 0,33 1,39 11,52 12,16 47,35 63,35 14,0 22,17 26,51 6,61 50,120 82,110 6,-2 9,-8 9,-15 0,-13 18,-43 27,-43 3,0 14,5 23,11 9,7 20,12 23,12 10,0 3,-23 -11,-38 -6,-6 -11,-14 -11,-17 0,-2 8,-12 19,-21 22,-21 24,-36 5,-36 -10,0 -20,7 -43,32 -16,18 -34,37 -38,43 -8,11 -8,11 -6,-14 4,-62 12,-78 47,-100 19,-13 53,-13 70,0 20,14 34,47 34,76 0,43 -18,74 -83,137 -31,29 -54,55 -53,56 11,11 53,-14 105,-65 44,-42 63,-83 64,-130 0,-38 -22,-87 -46,-102 -37,-23 -52,-25 -80,-15 -29,10 -45,21 -58,38 -14,19 -35,73 -35,92 0,7 -2,13 -4,13 -3,0 -5,-11 -5,-25 0,-47 -15,-75 -42,-81 -31,-6 -49,-14 -59,-29 -14,-20 -14,-50 -1,-73 12,-20 9,-41 -7,-61 -10,-12 -17,-15 -39,-17 -59,-6 -74,-9 -97,-20 -28,-13 -42,-27 -46,-44 -3,-11 -1,-14 18,-27 11,-8 25,-14 30,-14 5,0 12,-4 15,-7 5,-6 3,-7 -18,-7 -18,0 -29,3 -44,12 -11,7 -21,14 -22,15 -8,9 -62,28 -82,28 -7,0 -22,3 -32,6 -19,5 -63,-1 -85,-12 -22,-10 -10,-68 21,-102 16,-17 8,-26 -12,-12l0 0zm680 -113c38,17 83,47 102,67 26,28 48,78 37,85 -2,1 -19,-11 -36,-28 -64,-62 -123,-100 -182,-117 -16,-4 -29,-10 -29,-11 0,-7 27,-13 51,-13 17,1 37,7 57,17l0 0z"/>
   <path class="fil0" d="M1670 4405c9,10 1,22 -17,26 -18,3 -61,22 -83,36 -10,6 -23,14 -28,17 -33,18 -44,27 -44,35 0,10 -10,12 -18,3 -9,-9 -6,-16 14,-39 50,-54 157,-101 176,-78l0 0zm-164 341c42,21 54,29 90,61 29,25 51,54 51,66 0,13 -7,11 -29,-11 -37,-37 -111,-87 -129,-87 -9,-1 -24,-11 -24,-18 0,-13 24,-20 41,-11z"/>
   <path class="fil0 str0" d="M5380 4918c1,7 -13,25 -53,68 -30,32 -56,59 -57,59 -12,-1 -14,-9 -9,-23 3,-8 7,-15 9,-15 2,0 4,-2 4,-5 0,-7 27,-41 58,-73 18,-18 26,-24 35,-23 8,1 12,5 13,12l0 0z"/>
  </g>
 </g>
</svg>
