<?xml version="1.0" encoding="UTF-8"?>
<!DOCTYPE svg PUBLIC "-//W3C//DTD SVG 1.1//EN" "http://www.w3.org/Graphics/SVG/1.1/DTD/svg11.dtd">
<!-- Creator: CorelDRAW Home & Student X7 -->
<svg xmlns="http://www.w3.org/2000/svg" xml:space="preserve" width="68.3674mm" height="68.3674mm" version="1.1" style="shape-rendering:geometricPrecision; text-rendering:geometricPrecision; image-rendering:optimizeQuality; fill-rule:evenodd; clip-rule:evenodd"
viewBox="0 0 6837 6837"
 xmlns:xlink="http://www.w3.org/1999/xlink">
 <defs>
  <style type="text/css">
   <![CDATA[
    .fil8 {fill:black}
    .fil9 {fill:black}
    .fil5 {fill:#6885C2}
    .fil3 {fill:#8EB6EA}
    .fil7 {fill:#BD9941}
    .fil4 {fill:#C9DCF5}
    .fil2 {fill:#EDB9A9}
    .fil6 {fill:#FACA50}
    .fil1 {fill:#FFE1D7}
    .fil0 {fill:white}
   ]]>
  </style>
 </defs>
 <g id="Layer_x0020_1">
  <metadata id="CorelCorpID_0Corel-Layer"/>
  <rect class="fil0" width="6837" height="6837"/>
  <g id="_505389000">
   <path class="fil1" d="M4758 1634c0,0 -825,-364 -1556,-7 -731,358 -1468,473 -1109,1236 358,762 150,828 -416,1503 -566,675 707,1541 2578,933 1871,-609 1250,-1562 936,-2150 -315,-589 904,-1045 -433,-1515z"/>
   <path class="fil2" d="M2270 3441c2,296 -216,475 -593,925 -566,675 707,1541 2578,933 1848,-602 1265,-1538 947,-2128 -80,94 -180,209 -247,278 -131,134 -151,80 -166,66 -15,-13 -112,-504 -155,-602 -43,-97 -136,-115 -136,-115 0,0 -929,23 -977,23 -48,0 -78,78 -78,78 0,0 -231,1217 -317,1177 -86,-40 -374,-802 -497,-778 -42,8 -187,68 -359,143z"/>
   <g>
    <path class="fil3" d="M1540 2252c0,0 329,-64 364,-58 35,5 70,14 108,45 37,32 82,77 113,153 16,40 35,81 48,136 52,-11 113,-23 117,-21 5,2 41,18 42,62 0,44 -7,77 -13,78 -3,1 -77,15 -131,26 0,13 -1,27 -2,41 -11,167 -36,228 -60,277 -24,48 -41,78 -85,96 -44,19 -281,96 -281,96 0,0 -110,10 -170,-33 -59,-43 -174,-220 -200,-390 -27,-170 -33,-449 150,-508z"/>
    <path class="fil4" d="M1540 2252c0,0 329,-64 364,-58 35,5 70,14 108,45l2 2 1 1 1 1 1 1 0 0 2 1 0 1 2 1 0 0 1 2 1 0 1 1 1 0 1 2 0 0 2 2 0 0 2 1 0 0 2 2 0 0 1 2 1 0 1 1 0 0 2 2 2 2 0 0 2 2 0 0 2 2 0 0 1 1 1 1 1 1 0 1 2 1 0 0 2 2 0 0 2 2 0 0 2 2 0 0 1 2 1 1 1 1 1 1 1 1 1 1 1 1 0 1 2 1 0 1 2 2 0 0 1 2 1 1 1 1 1 1 1 1 1 1 1 2 0 0 2 2 0 1 1 1 1 1 1 2 1 1 1 1 1 1 1 1 1 2 0 1 1 1 1 1 1 2 1 1 1 1 1 2 1 1 0 1 1 2 1 1 1 1 1 1 1 2 1 1 1 2 0 1 1 2 2 3 1 1 1 2 0 0 2 2 0 1 1 2 1 1 1 2 0 1 2 3 0 0 1 3 0 0 2 3 0 0 1 3 1 0 1 3 0 1 2 2 0 1 1 3 0 0 2 3 0 0 1 4 0 0 2 3 0 0 1 3 0 0 2 4 0 0 0 1 0 0 0 0 0 1 0 0 1 0 0 1 0 0 0 0 0 1 0 0 0 0 0 1 1 0 0 0 0 1 0 0 0 0 0 1 0 0 1 0 0 0 0 1 0 0 0 0 0 1 0 0 0 0 1 1 0 0 0 0 0 1 0 0 0 0 0 1 1 0 0 0 0 1 0 0 0 0 0 1 0 0 1 0 0 1 0 0 0 0 0 1 0 0 0 0 1 1 0 0 0 0 0 0 0 1 0 0 0 1 0 0 1 0 0 0 0 1 0 0 0 1 0 0 0 0 1 0 0 1 0 0 0 1 0 0 0 0 0 0 1 1 0 0 0 1 0 0 0 0c14,33 28,67 38,111l11 -3c5,71 7,134 7,134l1 13 -4 1c0,13 -1,27 -2,41 -11,167 -36,228 -60,277 -24,48 -41,78 -85,96 -9,4 -27,11 -49,18 80,-92 173,-309 121,-526 -38,-158 -121,-255 -170,-300 -85,1 -321,49 -321,49l-96 -71c4,-2 9,-4 14,-5z"/>
    <path class="fil5" d="M1540 2252l5 -1c35,3 71,10 93,23 51,32 133,90 203,280 69,189 38,401 38,401 0,0 -4,128 -114,226l-5 2c0,0 -110,10 -170,-33 -59,-43 -174,-220 -200,-390 -27,-170 -33,-449 150,-508z"/>
    <path class="fil3" d="M2985 2004c0,0 -157,19 -211,68 -54,48 -120,148 -118,317 0,18 1,36 3,54l-19 4c0,0 6,36 1,66 -6,29 -8,55 -8,55 0,0 33,11 40,11 1,0 4,0 7,-1 23,97 60,180 98,223 60,70 119,116 193,118 75,2 177,-38 177,-38 0,0 190,-62 205,-67 16,-6 52,-47 69,-115 16,-67 53,-225 10,-374 -44,-149 -143,-277 -173,-308 -30,-31 -93,-45 -132,-38 -39,7 -142,25 -142,25z"/>
    <path class="fil4" d="M2985 2004c0,0 -157,19 -211,68 -4,3 -9,8 -13,12l107 59c0,0 223,-64 333,-70 1,0 81,43 144,236 63,194 34,375 -4,442 -16,29 -36,59 -54,84 33,-11 61,-19 66,-21 16,-6 52,-47 69,-115 16,-67 53,-225 10,-374 -22,-76 -59,-146 -94,-201l0 -1 -1 -2 -2 -2 0 0 -1 -2 -2 -3 0 0 -1 -2 -2 -2 0 -1 -1 -2 -2 -1 0 -1 -2 -2 0 -2 -1 -1 -2 -2 0 -1 -1 -1 -2 -2 0 -1 -1 -2 -2 -2 0 0 -1 -2 -1 -2 -1 0 -1 -2 -1 -2 0 0 -2 -2 -1 -1 0 -1 -2 -2 0 -1 -1 -1 -2 -2 0 -1 -1 -1 0 0 -3 -4 -1 -1 0 -1 -1 -1 -2 -2 0 0 -1 -2 -1 -1 0 -1 -2 -1 0 -1 -1 -1 -1 -2 -1 0 -1 -1 -1 -2 0 0 -1 -1 -1 -2 0 0 -1 -1 -1 -2 -1 0 -1 -1 -1 -1 0 -1 -1 -1 -1 -1 0 0 -1 -2 -1 0 0 -1 -1 -1 -1 -1 0 0 -1 -2 0 0 -1 -1 -1 -1c-4,-4 -8,-8 -10,-11 -30,-31 -93,-45 -132,-38 -39,7 -142,25 -142,25z"/>
    <path class="fil5" d="M2845 2035c-29,10 -55,22 -71,37 -54,48 -120,148 -118,317 0,18 1,36 3,54l-19 4c0,0 6,36 1,66 -6,29 -8,55 -8,55 0,0 33,11 40,11 1,0 4,0 7,-1 23,97 60,180 98,223 60,70 119,116 193,118 18,1 37,-1 56,-4 140,-88 155,-252 155,-323 0,-71 -4,-342 -102,-450 -97,-108 -214,-113 -213,-108 0,1 -8,1 -22,1z"/>
    <path class="fil2" d="M2234 2512c0,0 -4,-96 45,-93 48,4 34,-3 70,-21 37,-19 49,-7 79,-15 31,-8 55,-11 71,-4 16,6 70,-20 87,-2 16,17 37,65 47,85 9,20 9,96 9,96 0,0 28,9 33,39 6,29 -19,87 -19,87 0,0 -86,103 -83,128 2,25 229,550 229,550l224 -56 22 320c0,0 -315,88 -380,64 -64,-24 -122,-157 -122,-157 0,0 -152,-521 -156,-531 -4,-11 -62,-192 -64,-197 -1,-5 -51,-142 -51,-142l54 -11c0,0 17,-58 -1,-90 -17,-33 -18,-76 -94,-50z"/>
    <path class="fil1" d="M2235 2493c1,-28 9,-76 44,-74 48,4 34,-3 70,-21 37,-19 49,-7 79,-15 31,-8 55,-11 71,-4 16,6 70,-20 87,-2 16,17 37,65 47,85 9,20 9,96 9,96 0,0 28,9 33,39 3,12 0,29 -4,44 -30,28 -45,9 -95,28 -50,20 -88,-25 -88,-25 0,0 -5,-46 9,-55 14,-8 -40,-19 -98,-13 -32,4 -52,8 -64,6 -2,-7 -4,-14 -7,-20 -16,-30 -18,-69 -76,-55 -4,-3 -8,-5 -12,-8 -2,-2 -4,-4 -5,-6zm346 296c-6,10 -9,18 -8,23 2,25 229,550 229,550l20 -5c1,18 2,34 3,45 5,59 -3,89 -37,89 -35,0 -133,-79 -159,-193 -27,-114 -117,-329 -124,-380 0,0 -57,-54 -58,-114 -1,-59 90,-100 108,-78 14,15 11,40 23,65l3 -2z"/>
    <path class="fil2" d="M4714 3860l131 185c0,0 -2,30 -23,53 -20,23 -290,408 -288,411 3,2 -63,61 -93,66 -30,5 -198,53 -198,53 0,0 -53,6 -76,45 -22,40 -16,77 -16,77 0,0 -37,45 -36,82 2,38 21,146 21,146l155 39c0,0 74,-24 101,-45 28,-20 23,-42 21,-47 -1,-5 -12,-27 -12,-27l150 -165 378 -290c0,0 265,-249 275,-306 10,-57 -151,-417 -151,-417l-339 140z"/>
    <path class="fil1" d="M4404 4904l-3 -6 150 -165 378 -290c0,0 265,-249 275,-306 10,-57 -151,-417 -151,-417l-100 41 -30 36c0,0 119,188 132,279 13,91 -137,221 -185,263 -48,42 -118,113 -152,148 -34,35 -154,181 -175,187 -21,6 -151,191 -199,225 -48,34 -55,54 -46,60 3,3 49,-22 106,-55z"/>
    <path class="fil2" d="M3681 2301c0,0 5,75 5,97 0,22 -27,285 -25,349 2,65 34,112 81,133 46,21 107,32 107,32l-25 124 -106 19c0,0 -146,223 122,284 267,61 451,-73 525,-122 75,-50 101,-106 101,-106 0,0 -201,-85 -228,-107 -26,-21 -60,-110 -60,-122 0,-13 1,-109 1,-109 0,0 103,-50 138,-217 34,-167 -85,-364 -336,-380 -251,-17 -294,38 -300,125z"/>
    <path class="fil1" d="M3681 2301c0,0 5,75 5,97 0,22 -27,285 -25,349 2,65 34,112 81,133 12,6 26,11 39,15 -3,-18 -4,-43 4,-71 17,-66 50,-77 18,-113 -33,-36 -67,-9 -80,-20 -14,-12 6,-143 5,-188 0,-44 29,-55 35,-54 5,1 36,17 40,22 3,6 -13,88 -13,94 0,5 3,59 30,63 26,5 28,-30 15,-44 -13,-15 11,-114 11,-114 0,0 84,-50 95,-51 12,-2 52,-28 60,-60 7,-32 0,-117 0,-117 0,0 -25,-39 -83,-69 -196,-4 -232,49 -237,128zm167 620l-24 115 -106 19c0,0 -93,141 4,229 99,3 254,-3 309,-10 81,-11 122,-74 115,-93 -8,-19 -43,18 -174,0 -131,-19 -99,-93 -92,-127 8,-34 6,-143 6,-143l-38 10z"/>
    <path class="fil6" d="M2988 3247c0,0 5,185 31,322 27,136 38,147 38,147l282 -68 39 -6 -63 679 -83 476c0,0 217,91 346,99 129,7 299,45 525,-47 6,-3 11,-5 16,-7 3,-20 10,-58 18,-67 11,-13 23,-71 24,-75 1,-5 8,-53 60,-67 36,-9 98,-23 133,-32 -2,-116 -3,-308 12,-361 20,-77 228,-454 228,-454 0,0 81,85 94,110 13,25 27,54 27,54 0,0 187,-70 248,-106 61,-37 65,-28 94,-68 29,-39 26,-63 26,-63l-221 -326c0,0 -100,-141 -174,-175 -74,-34 -222,-101 -222,-101l-87 -38c0,0 -22,72 -218,158 -196,85 -336,60 -381,-5 -44,-66 -31,-176 -31,-176 0,0 -148,4 -272,57 -124,54 -261,104 -489,140z"/>
    <path class="fil1" d="M2988 3247c0,0 0,23 2,58 70,-7 203,-25 285,-55 115,-43 156,-13 168,-23 12,-10 32,-45 63,-68 23,-18 174,-40 242,-48 -2,-35 1,-61 1,-61 0,0 -148,4 -272,57 -124,54 -261,104 -489,140zm1917 626c24,-11 44,-21 58,-29 61,-37 65,-28 94,-68 29,-39 26,-63 26,-63l-221 -326c0,0 -100,-141 -174,-175 -74,-34 -222,-101 -222,-101l-87 -38c0,0 -9,27 -60,68 47,13 100,29 134,42 76,28 163,64 173,74 10,10 77,38 125,141 48,102 207,234 227,330 17,88 -63,105 -73,145z"/>
    <path class="fil7" d="M3010 3514c3,19 6,37 9,55 27,136 38,147 38,147l282 -68 39 -6 -63 679 -83 476c0,0 217,91 346,99 129,7 299,45 525,-47 6,-3 11,-5 16,-7 3,-20 10,-58 18,-67 11,-13 23,-71 24,-75 1,-5 8,-53 60,-67 36,-9 98,-23 133,-32 -2,-116 -3,-308 12,-361 20,-77 228,-454 228,-454 0,0 15,16 33,36 0,-5 0,-9 0,-9 5,-4 -143,-182 -143,-182 0,0 -51,195 -81,255 -30,59 -109,396 -231,405 -123,8 -351,-185 -341,-111 10,74 142,261 111,270 -32,8 -255,-131 -422,-308 -167,-177 -148,-430 -148,-430l37 -343c0,0 -81,104 -150,114 -43,6 -162,21 -249,31zm796 178c0,0 286,-89 327,-111 42,-21 -28,182 -137,182 -109,0 -319,-31 -319,-31l129 -40zm-345 870c0,0 55,165 113,190 58,25 216,17 216,10 -1,-7 176,-17 175,-24 -1,-7 -203,-66 -299,-118 -97,-52 -161,-121 -169,-122 -8,-1 -42,42 -36,64z"/>
    <path class="fil6" d="M3947 1983c0,0 -146,50 -211,105 -66,54 -78,94 -75,143 2,48 21,82 21,82 0,0 12,-69 107,-72 94,-3 207,14 225,31 19,16 38,35 39,64 1,30 -19,107 1,141 20,35 54,103 58,103 4,0 37,-60 79,-63 41,-4 74,7 76,62 1,55 -45,106 -45,106 0,0 -41,44 -45,62 -4,17 12,93 12,93 0,0 54,-111 93,-141 38,-29 127,-132 127,-161 0,-29 -12,-168 -28,-231 -17,-63 -32,-141 -145,-149 -113,-8 -218,-151 -246,-164 -28,-13 -43,-11 -43,-11z"/>
    <path class="fil7" d="M3782 2241c2,0 5,0 7,0 94,-3 207,14 225,31 19,16 38,35 39,64 1,30 -19,107 1,141 20,35 54,103 58,103 4,0 37,-60 79,-63 41,-4 74,7 76,62 1,55 -45,106 -45,106 0,0 -41,44 -45,62 -4,17 12,93 12,93 0,0 54,-111 93,-141 38,-29 127,-132 127,-161 0,-7 -1,-21 -2,-39 -22,-19 -44,-45 -49,-75 -10,-65 -10,-207 -95,-183 -85,23 -121,-39 -163,-60 -43,-20 -177,7 -184,-15 -7,-23 49,-77 44,-80 -5,-2 -98,-5 -142,37 -28,28 -35,84 -36,118zm373 145c0,0 41,-38 72,-36 31,2 84,0 76,12 -7,12 -60,24 -66,42 -6,17 55,44 55,44 0,0 -82,29 -151,4 -69,-25 11,-23 23,-38 13,-14 -19,-21 -9,-28z"/>
    <path class="fil8" d="M3134 1964c-1,2 -15,5 -32,7 -30,4 -91,15 -132,24 -12,2 -33,6 -46,8 -89,15 -137,34 -174,70 -33,32 -52,62 -76,119 -16,40 -29,110 -35,194 -2,40 -4,44 -8,35 -4,-6 -7,-16 -9,-23 -2,-6 -11,-18 -19,-26 -19,-17 -38,-19 -66,-7 -16,6 -19,6 -36,0 -25,-10 -54,-10 -66,-1 -6,4 -20,7 -34,7 -13,0 -30,3 -37,5 -32,14 -43,19 -45,23 -2,3 -14,5 -28,5 -19,0 -27,2 -37,11 -16,15 -26,41 -27,69 -1,20 -2,23 -13,25 -6,1 -14,3 -17,4 -8,3 -16,-7 -16,-18 0,-6 -2,-12 -3,-14 -2,-3 -8,-17 -13,-31 -8,-27 -38,-75 -48,-78 -13,-4 -11,15 3,43 14,29 32,80 42,122 15,60 15,250 1,305 -3,11 -8,29 -11,39 -18,68 -28,92 -61,143 -23,35 -23,36 -56,46 -18,6 -36,12 -40,14 -4,2 -24,9 -44,16 -21,6 -42,14 -47,16 -39,16 -78,29 -80,26 -1,-1 1,-6 4,-10 19,-22 45,-82 56,-130 9,-36 14,-80 16,-139 3,-64 1,-84 -9,-98 -6,-8 -8,-8 -14,-3 -7,5 -8,13 -5,53 2,47 -3,122 -12,162 -13,60 -15,67 -34,104 -23,44 -52,74 -87,89 -17,8 -61,9 -74,3 -4,-3 -20,-11 -35,-18 -66,-32 -130,-119 -184,-251 -4,-8 -21,-62 -33,-104 -12,-40 -24,-143 -25,-201 0,-57 13,-152 25,-179 2,-5 7,-19 12,-30 12,-33 27,-56 52,-81 33,-33 44,-37 87,-37 40,0 66,8 99,33 13,9 17,10 22,6 4,-4 6,-8 5,-10 -5,-7 -53,-42 -58,-42 -12,0 -3,-13 10,-15 8,-1 26,-5 39,-8 28,-6 60,-11 118,-18 25,-3 51,-7 59,-10 8,-3 29,-5 45,-5 40,0 67,14 118,62 36,35 53,44 53,30 0,-4 -7,-15 -15,-25 -8,-10 -19,-24 -24,-30 -13,-15 -42,-37 -68,-51 -17,-9 -27,-11 -58,-11 -21,1 -49,4 -64,7 -25,5 -72,12 -115,17 -12,1 -25,3 -28,5 -4,2 -21,5 -38,9 -16,3 -40,8 -52,10 -52,12 -63,14 -84,19 -13,3 -29,9 -37,15 -19,13 -64,56 -64,61 0,3 -4,10 -9,17 -5,7 -12,22 -17,34 -4,11 -9,24 -11,29 -7,18 -14,48 -20,83 -7,49 -10,165 -4,192 2,13 6,40 9,61 5,38 11,66 19,95 2,9 7,27 11,40 26,90 85,195 142,253 31,31 78,66 91,66 3,0 8,2 11,5 4,4 23,5 52,5 40,0 52,-2 97,-17 28,-9 55,-18 60,-21 5,-2 21,-8 35,-11 14,-5 29,-10 34,-13 9,-3 47,-17 122,-42 34,-12 45,-21 67,-55 31,-49 48,-93 70,-177 9,-33 19,-113 19,-149l0 -37 25 0c14,0 27,-1 29,-2 4,-1 11,14 29,62 6,14 14,34 19,45 5,11 9,22 9,24 0,2 5,8 10,14 9,10 11,10 17,4 7,-6 6,-10 -1,-30 -4,-12 -14,-35 -21,-50 -21,-46 -33,-72 -33,-74 0,-7 20,-5 30,2 14,11 40,12 40,2 0,-4 -3,-7 -6,-7 -8,0 -14,-12 -8,-16 2,-1 4,-21 4,-43l1 -42 -22 -37c-25,-39 -23,-38 -62,-33 -11,1 -12,0 -10,-15 1,-9 5,-23 9,-32 6,-13 9,-15 28,-15 22,0 41,-7 54,-22 8,-9 15,-10 46,-10 33,0 39,-2 53,-12 18,-14 33,-13 48,3 13,14 44,80 59,125 5,14 11,27 12,29 3,1 4,7 3,11 -2,8 -6,9 -32,9 -29,0 -30,0 -32,-12 0,-6 -3,-13 -6,-16 -2,-2 -4,-7 -4,-11 0,-5 -7,-23 -26,-63 -4,-8 -11,-20 -18,-28 -9,-12 -12,-13 -18,-8 -7,6 -7,8 -1,20 4,7 7,17 7,21 0,4 4,11 9,15 4,4 12,19 17,33 5,14 11,28 13,30 7,10 2,38 -11,59 -8,11 -15,24 -16,28 -2,6 -34,23 -42,23 -5,0 -2,-8 8,-18 8,-9 10,-17 9,-47 0,-29 -2,-40 -12,-61 -7,-14 -13,-28 -14,-31 0,-3 -6,-11 -11,-17 -6,-7 -14,-17 -17,-22 -7,-15 -20,-22 -25,-14 -6,9 2,31 20,56 41,58 45,95 19,146 -13,26 -14,31 -8,31 5,0 10,-2 13,-4 2,-2 15,-2 29,-1l25 3 -10 13c-8,9 -9,15 -6,18 4,4 12,-2 29,-19 26,-25 30,-27 35,-19 1,2 17,5 35,5 18,0 33,-3 35,-5 1,-3 8,-5 15,-5 17,0 29,-10 24,-18 -3,-6 -7,-6 -17,-3 -9,4 -20,4 -36,0 -29,-6 -43,-13 -47,-25 -5,-18 1,-21 55,-28 29,-3 54,-8 57,-10 6,-7 45,-5 43,1 -1,3 2,10 7,14 15,15 -2,58 -43,113 -12,15 -23,31 -26,34 -2,5 -7,11 -10,14 -8,9 -7,29 1,29 4,0 7,-2 7,-5 0,-3 14,-19 32,-36 18,-19 36,-43 45,-60 11,-22 16,-27 20,-24 3,4 5,8 5,10 0,3 11,26 23,52 48,98 103,159 178,196 22,11 31,13 72,13 26,0 51,-1 54,-4 4,-3 19,-9 34,-13 16,-5 32,-10 36,-13 5,-2 14,-4 20,-4 6,0 13,-2 14,-5 2,-2 7,-4 12,-4 5,0 18,-3 29,-7 35,-11 84,-25 113,-33 15,-5 33,-10 39,-12 7,-2 18,-5 26,-7 24,-4 43,-19 60,-46 9,-14 17,-27 17,-28 0,-1 5,-13 11,-27 16,-35 21,-49 26,-75 7,-37 15,-114 15,-152 0,-64 -16,-170 -34,-216 -1,-5 -7,-21 -11,-35 -16,-47 -62,-123 -76,-125 -16,-2 -13,10 18,71 15,31 27,58 27,62 0,3 3,15 7,25 6,19 8,29 21,78 6,22 16,109 15,140 0,35 -9,122 -15,147 -18,76 -57,151 -80,151 -4,0 -12,2 -16,4 -8,5 -74,25 -111,34 -10,3 -22,7 -26,9 -5,3 -11,4 -16,4 -3,0 -16,4 -28,8 -12,4 -26,6 -31,5 -10,-1 -9,-1 3,-15 13,-17 49,-92 49,-105 0,-4 2,-9 5,-11 2,-1 5,-9 6,-18 1,-8 5,-28 8,-45 8,-40 8,-198 0,-238 -3,-16 -7,-38 -8,-48 -3,-20 -16,-30 -26,-19 -5,5 -6,10 -3,19 13,42 16,75 16,172 0,107 -1,114 -25,184 -18,55 -41,91 -74,121 -35,31 -80,50 -107,45 -35,-7 -43,-10 -70,-23 -28,-13 -67,-47 -96,-83 28,-50 145,-267 154,-302 4,-9 6,-17 6,-21 0,-15 -16,-49 -28,-62 -18,-20 -35,-25 -73,-23 -20,1 -46,5 -59,7 -13,3 -35,7 -49,10 -68,13 -71,13 -73,6 -4,-8 1,-94 7,-127 2,-14 7,-37 12,-51 3,-14 8,-31 10,-37 4,-15 21,-46 42,-78 17,-27 40,-48 66,-60 10,-4 21,-10 25,-12 18,-9 66,-4 106,10 28,10 41,12 44,9 6,-6 -14,-24 -39,-36l-16 -7 18 -4c10,-2 34,-5 51,-8 19,-3 37,-7 42,-9 26,-7 141,-21 156,-17 6,2 24,12 40,23 41,30 51,22 18,-14 -31,-33 -44,-40 -82,-40 -19,0 -36,2 -38,3l0 0zm-414 593l0 0 -54 1c-3,0 -5,-1 -8,-1 -9,0 -11,-2 -11,-11 0,-6 2,-13 5,-14 6,-4 6,-47 -1,-58 -3,-5 -5,-12 -3,-16 3,-6 34,-15 76,-20 10,-1 23,-4 28,-6 22,-10 123,-12 143,-3 17,9 27,26 27,49 0,13 -4,20 -15,32 -17,14 -20,16 -81,27 -20,4 -47,9 -60,12 -13,2 -32,6 -41,7 -2,0 -3,1 -5,1zm1142 397c10,-4 26,-11 47,-23 53,-30 82,-71 77,-74 -4,-2 -31,4 -42,7l0 0 -1 0 0 0 0 0 -1 1 -1 0 0 0 0 0 0 0 -1 0 0 0 0 0 0 0 0 0 0 0c-4,1 -9,3 -14,4 -16,6 -35,12 -43,14 -34,12 -102,1 -140,-21 -28,-16 -52,-43 -60,-67 -5,-14 -7,-38 -7,-74 0,-52 3,-83 17,-190 3,-28 6,-62 6,-76 0,-31 7,-33 40,-12 20,13 28,16 30,11 6,-9 -13,-31 -44,-52 -21,-14 -26,-20 -26,-31 0,-16 -10,-25 -18,-17l0 0c-3,3 -5,20 -5,42 -1,21 -2,54 -5,73 -32,245 -35,304 -14,352 19,45 76,84 138,96l29 5 -2 45c-1,24 -3,47 -4,50 -2,4 -12,6 -33,6 -16,0 -39,2 -50,5 -20,4 -71,13 -102,17 -10,1 -19,4 -20,6 -2,3 -7,5 -12,5 -9,0 -49,10 -67,18 -5,3 -25,10 -44,17 -19,7 -39,14 -45,16 -36,14 -102,38 -125,45 -16,4 -40,11 -54,15 -62,20 -134,35 -214,44 -30,3 -60,9 -68,13 -13,6 -14,8 -15,42 -1,39 -1,39 -36,46 -10,2 -26,6 -35,9 -9,2 -28,8 -42,11 -14,4 -30,9 -35,10 -9,3 -11,1 -11,-7 0,-5 -2,-13 -4,-18 -3,-4 -12,-24 -22,-45 -10,-20 -23,-45 -30,-56 -12,-19 -65,-125 -65,-130 0,-1 -5,-14 -12,-28 -6,-14 -12,-26 -12,-27 0,-2 -4,-14 -9,-26 -13,-28 -16,-35 -25,-63 -9,-25 -12,-33 -23,-60 -4,-9 -8,-20 -8,-23 0,-4 -2,-9 -4,-11 -3,-1 -5,-7 -5,-13 0,-13 -16,-33 -23,-28 -6,3 -4,16 8,55 7,24 13,41 20,55 2,5 4,10 4,13 0,5 29,83 41,112 4,9 9,20 11,25 16,42 29,69 55,119 62,121 84,168 84,179 0,4 2,11 4,16 3,4 8,20 13,34 8,30 12,35 21,24 5,-5 5,-10 0,-22 -3,-8 -5,-22 -5,-31 0,-16 0,-16 31,-24 18,-5 35,-11 40,-13 4,-3 12,-5 17,-5 5,0 10,-2 11,-4 3,-4 25,-9 38,-10 7,0 11,25 16,96 6,75 17,144 31,187 3,11 -2,13 -45,20 -13,2 -35,6 -48,9 -13,2 -45,7 -70,12 -26,4 -57,10 -70,13 -13,2 -44,5 -69,7 -44,2 -46,1 -62,-11 -27,-21 -70,-98 -100,-182 -5,-15 -11,-31 -14,-37 -7,-18 -18,-54 -18,-62 0,-5 -2,-10 -4,-12 -3,-1 -5,-8 -7,-15 -3,-16 -15,-63 -21,-85 -11,-38 -14,-50 -19,-70 -4,-12 -7,-25 -10,-30 -2,-5 -7,-22 -11,-38 -12,-40 -18,-59 -21,-69 -2,-5 -15,-44 -28,-86 -14,-43 -26,-82 -28,-87 -2,-5 -5,-13 -7,-17 -3,-11 -21,-11 -21,-1 0,8 12,54 18,70 2,5 6,16 8,25 19,63 31,101 35,108 2,5 4,11 4,16 0,3 5,21 11,40 6,19 15,48 19,64 5,17 10,36 12,42 4,12 14,51 24,86 3,11 7,24 9,31 1,6 7,24 11,39 9,32 11,38 28,86 17,49 17,48 46,108 14,30 29,57 33,60 4,3 7,8 7,11 0,9 24,29 49,40 20,9 28,10 63,8 21,-2 51,-5 65,-7 14,-3 37,-7 51,-10 14,-2 46,-8 70,-12 65,-10 85,-14 102,-20 17,-5 18,-4 30,38 9,36 21,41 71,26 21,-6 69,-18 86,-21 6,-1 16,-4 21,-6 5,-2 26,-8 46,-12 21,-4 41,-10 46,-12 4,-3 13,-4 19,-4 7,0 13,-3 15,-5 1,-3 9,-5 17,-5l14 0 -3 31c-2,18 -5,48 -7,67 -5,37 -16,154 -24,240 -3,28 -7,70 -9,93 -2,23 -6,69 -9,102 -5,65 -12,121 -19,147 -2,9 -5,22 -6,30 -5,29 -19,105 -29,154 -1,7 -6,33 -10,56 -4,23 -9,48 -11,56 -3,8 -4,22 -4,31 0,9 -2,22 -5,30 -2,7 -6,30 -7,50 -3,30 -5,37 -12,39 -5,1 -9,6 -9,12 0,8 5,13 20,20l20 9 -1 44c0,24 -3,93 -6,154 -3,60 -7,214 -9,342 -2,128 -5,235 -6,238 -3,3 0,10 5,16 6,8 14,11 29,12 11,0 37,3 57,7 95,15 389,0 599,-31 47,-7 85,-13 116,-19 19,-3 42,-7 49,-9 27,-4 109,-23 133,-30 8,-2 34,-10 56,-16 47,-14 109,-39 117,-48 4,-5 4,-9 0,-16 -3,-5 -6,-25 -6,-45 0,-19 -2,-59 -4,-87 -3,-28 -7,-89 -10,-135 -9,-147 -11,-177 -15,-183 -2,-4 4,-9 19,-16 12,-6 32,-18 44,-28 18,-16 22,-21 22,-34 0,-9 -2,-20 -5,-25 -5,-7 -4,-12 5,-24 12,-17 52,-66 68,-82 5,-5 21,-23 35,-38 18,-21 34,-34 57,-46 18,-8 42,-23 54,-32 101,-77 130,-100 156,-124 11,-9 24,-21 31,-26 182,-151 347,-320 382,-392 10,-19 10,-23 5,-52 -8,-44 -64,-192 -104,-273 -31,-63 -32,-67 -25,-77 4,-5 7,-16 7,-23 0,-15 -17,-50 -27,-53 -3,-2 -14,-18 -26,-35 -10,-18 -22,-38 -26,-44 -4,-6 -24,-36 -44,-68 -42,-66 -137,-201 -174,-247 -13,-17 -31,-36 -40,-42 -18,-14 -66,-39 -101,-54 -58,-25 -85,-37 -158,-74 -42,-21 -81,-38 -86,-38 -5,-1 -15,-4 -21,-7 -7,-4 -19,-7 -27,-7 -12,0 -15,2 -15,9 0,8 20,28 29,28 2,0 13,4 23,9 11,5 23,10 27,10 4,0 19,6 33,14 25,13 124,62 142,70 5,2 21,9 36,15 14,7 27,13 27,14 0,1 -14,9 -32,17 -67,33 -123,78 -130,106 -4,18 2,17 26,-4 22,-21 37,-30 94,-58 55,-27 65,-32 84,-32 18,0 21,2 40,23 12,13 26,31 32,39 6,9 23,34 39,56 16,22 36,51 45,65 75,109 146,208 177,244 23,26 24,43 6,76 -8,15 -19,33 -23,39 -11,15 -14,33 -6,36 3,1 14,-9 24,-22l18 -23 20 43c11,24 27,61 35,85 16,43 41,110 49,125 19,42 24,90 11,110 -29,43 -129,149 -228,240 -151,140 -296,262 -354,298 -38,23 -115,96 -163,153 -58,71 -115,119 -140,119 -8,0 -11,2 -10,7 2,13 15,19 28,13 49,-22 61,-30 78,-45 16,-16 19,-16 19,2 0,9 -2,14 -7,14 -3,0 -9,3 -12,7 -8,9 -41,25 -51,25 -5,0 -10,2 -11,4 -5,9 -53,11 -69,4 -8,-4 -23,-9 -32,-12 -18,-7 -37,-23 -37,-31 0,-9 -15,-20 -30,-22 -13,-1 -14,-2 -17,-24 -1,-13 -5,-28 -8,-34 -8,-15 -7,-56 2,-71 5,-8 30,-35 56,-60 34,-33 46,-48 42,-51 -8,-9 -11,-7 -38,19 -14,13 -27,22 -28,21 -4,-3 5,-31 16,-54 5,-12 13,-18 31,-24 13,-5 28,-9 33,-9 6,0 12,-3 13,-5 2,-3 9,-5 16,-5 8,0 15,-1 16,-4 2,-2 13,-5 25,-7 23,-3 49,-10 63,-17 5,-2 12,-4 16,-4 5,0 17,-3 27,-7 11,-4 21,-5 24,-2 3,2 9,1 15,-3 8,-6 10,-9 5,-14 -9,-11 -47,-7 -82,9 -8,3 -13,3 -16,0 -5,-6 3,-282 9,-309 11,-42 22,-75 34,-100 6,-16 17,-39 23,-51 13,-30 52,-109 71,-142 8,-14 18,-33 22,-40 7,-13 43,-79 61,-111 4,-8 9,-15 12,-15 7,-3 90,108 90,121 0,4 4,12 10,18 7,10 13,13 27,13 10,0 20,-3 21,-5 8,-13 21,-2 52,40 18,26 34,48 36,51 1,3 -4,12 -12,21 -33,35 -167,227 -192,276 -5,9 -11,17 -13,17 -2,0 -4,2 -4,5 0,3 -7,16 -16,28 -9,13 -16,24 -16,26 0,1 -6,10 -13,19 -7,10 -15,20 -17,24 -3,3 -21,24 -41,45 -36,38 -40,44 -33,50 3,4 71,-61 71,-68 0,-1 4,-8 9,-14 8,-9 31,-37 59,-71 6,-9 11,-17 11,-20 0,-3 2,-5 5,-6 1,-1 13,-17 24,-34 19,-30 87,-128 96,-140 2,-3 17,-24 34,-47 16,-23 35,-48 41,-56 7,-8 16,-19 21,-25 9,-11 10,-19 2,-27 -4,-4 -5,-8 -1,-14 4,-6 0,-16 -24,-52 -16,-24 -28,-46 -27,-48 1,-1 21,-12 45,-24 83,-42 106,-57 106,-73 0,-10 -6,-11 -18,-5 -4,3 -15,8 -24,12 -9,3 -33,14 -53,23 -20,10 -37,17 -38,17 -1,0 -16,6 -32,14 -17,8 -38,17 -47,21l-17 7 -9 -21c-5,-12 -14,-27 -19,-35 -6,-7 -17,-21 -25,-31 -8,-9 -23,-28 -34,-41 -11,-12 -20,-26 -20,-29 0,-8 -11,-20 -18,-20 -3,0 -19,-18 -36,-40 -47,-60 -73,-87 -83,-83 -2,1 -3,2 -5,3 -1,2 -2,3 -2,5 0,1 1,3 2,5 -1,49 -4,262 -7,331 -49,93 -107,210 -107,221 0,3 -2,9 -4,13 -22,42 -31,203 -19,324 7,55 4,64 -17,64 -6,0 -15,2 -19,4 -14,7 -40,14 -63,17 -12,2 -23,5 -25,7 -1,3 -6,4 -12,4 -13,0 -35,17 -42,32 -4,9 -13,15 -29,20 -30,9 -40,13 -50,18 -4,3 -15,6 -24,7 -10,2 -18,5 -20,8 -1,2 -7,4 -12,4 -5,0 -16,2 -24,4 -34,10 -73,17 -166,29 -44,6 -184,7 -236,2 -54,-6 -42,12 15,22 37,6 185,6 235,0 56,-7 102,-15 123,-20 72,-19 98,-27 122,-38 55,-24 65,-26 54,-8 -3,5 -6,18 -6,29 0,15 -2,23 -11,31 -7,6 -12,9 -12,7 0,-2 -2,-2 -5,1 -4,4 -11,6 -16,6 -6,0 -12,2 -14,5 -1,2 -6,4 -10,4 -4,0 -14,4 -23,7 -9,4 -23,11 -31,14 -9,4 -18,7 -19,7 -2,0 -18,7 -37,16 -32,15 -47,20 -93,31 -11,3 -26,7 -34,10 -22,8 -135,10 -181,4 -23,-3 -51,-7 -63,-8 -12,-1 -25,-4 -30,-6 -5,-2 -18,-5 -28,-7 -18,-2 -67,-12 -107,-21 -10,-2 -28,-6 -40,-9 -11,-2 -33,-8 -49,-12 -15,-5 -33,-9 -41,-10 -7,-2 -14,-4 -15,-7 -1,-2 -7,-4 -13,-4 -10,0 -24,-10 -19,-14 2,-3 14,-67 25,-137 2,-16 8,-47 12,-70 5,-23 10,-51 12,-63 16,-93 19,-112 22,-132 1,-12 4,-23 6,-24 2,-2 4,-11 4,-21 0,-29 12,-24 16,6 7,51 9,59 13,62 2,1 4,8 4,13 0,32 35,115 46,108 4,-3 2,-23 -4,-38 -2,-5 -6,-22 -10,-39 -2,-17 -7,-40 -9,-51 -6,-28 -13,-68 -18,-114 -6,-49 -6,-271 0,-333 9,-98 14,-143 18,-182 3,-22 6,-59 9,-83 2,-24 7,-46 10,-50 5,-6 5,-9 1,-16 -4,-6 -5,-12 -4,-14 5,-6 13,-110 15,-187 2,-57 1,-63 -6,-66 -8,-4 -16,4 -19,16l0 0c-1,1 -21,43 -60,127 -26,58 -83,128 -117,167 -21,4 -44,9 -69,15 -85,20 -87,20 -92,-10 -7,-43 -12,-68 -17,-82 -12,-40 -23,-120 -28,-210 -3,-44 -6,-89 -7,-101 -4,-26 -6,-25 63,-32 73,-8 115,-15 172,-30 17,-5 36,-9 43,-11 7,-1 14,-4 16,-6 1,-2 6,-4 10,-4 8,0 72,-20 92,-28 11,-4 37,-15 67,-26 11,-4 21,-6 23,-5 1,1 -2,8 -7,15 -19,28 -25,37 -25,48 0,8 2,10 7,8 5,-2 9,-3 10,-3 1,0 2,-3 2,-7 0,-3 19,-25 43,-48 45,-42 55,-48 106,-61 11,-3 27,-7 35,-10 7,-2 29,-6 48,-7l34 -3 -6 10c-6,11 -4,80 4,110 24,97 96,133 233,119 48,-5 80,-11 103,-20 4,-2 18,-7 31,-11 42,-16 147,-72 195,-105 5,-3 16,-11 25,-16 8,-5 15,-12 15,-15 0,-7 -10,-10 -19,-5 -4,1 -15,7 -26,11 -22,10 -36,17 -102,50 -129,65 -190,81 -289,76 -55,-2 -76,-9 -103,-36 -25,-24 -39,-68 -39,-121 0,-47 3,-55 15,-55 6,0 18,-3 29,-6 15,-5 19,-5 21,0 2,9 14,7 17,-4 2,-6 4,-19 4,-30 1,-11 4,-24 7,-29 2,-4 4,-18 5,-33zm-1576 817c-7,19 -2,31 33,66 35,37 57,52 76,52 6,0 10,-3 10,-7 0,-4 -2,-7 -4,-7 -13,0 -85,-87 -85,-104 0,-10 -26,-10 -30,0l0 0zm91 -98c-12,14 10,49 58,98 28,28 61,55 79,65 50,28 55,30 77,30 15,0 23,-2 21,-5 -1,-3 -6,-5 -10,-5 -9,0 -44,-15 -44,-19 0,-2 -2,-4 -5,-4 -13,0 -130,-107 -130,-119 0,-3 -1,-6 -4,-7 -2,-1 -8,-10 -12,-20 -10,-20 -21,-26 -30,-14l0 0zm1408 -308c-4,11 2,14 41,26 51,15 147,8 192,-15 20,-9 13,-15 -19,-14 -68,3 -165,2 -187,-1 -21,-3 -25,-3 -27,4zm-24 -672c-6,6 0,18 10,18 7,0 4,22 -2,26 -9,5 -5,37 6,50 9,12 14,14 23,11 25,-6 39,-34 33,-63 -6,-29 -55,-58 -70,-42zm411 -110c-22,23 -47,69 -42,76 5,9 14,6 20,-6 7,-15 17,-19 27,-12 11,10 18,0 10,-16 -5,-12 -5,-14 12,-28 21,-18 23,-35 4,-35 -8,0 -18,6 -31,21l0 0zm-272 -83c-12,15 -13,28 -3,43 9,12 26,13 36,1 11,-11 11,-39 0,-48 -12,-12 -22,-10 -33,4zm-182 -3c-8,8 -10,13 -7,25 6,28 20,34 32,15 10,-15 8,-35 -5,-43 -9,-6 -11,-6 -20,3l0 0zm78 -25c-1,7 -7,29 -13,48 -12,44 -12,71 0,91 12,20 30,29 40,21 6,-6 6,-7 -4,-17 -13,-14 -16,-53 -8,-92 9,-46 9,-61 -3,-62 -8,-1 -11,1 -12,11zm135 -69c-19,6 -33,15 -49,30 -17,16 -16,24 2,16 37,-14 60,-22 67,-22 4,0 11,-3 16,-6 7,-6 8,-8 3,-14 -7,-8 -19,-9 -39,-4l0 0zm8 -428c-5,2 -22,8 -37,13 -16,4 -32,9 -35,12 -4,2 -16,7 -26,11 -78,34 -163,106 -187,157 -10,24 -12,31 -9,61 4,54 35,124 45,104 2,-3 4,-13 6,-23 4,-18 19,-35 45,-49 14,-7 27,-9 82,-9 85,0 173,18 199,40 19,16 28,59 18,86 -3,10 -7,36 -7,56 0,42 9,66 36,96 10,10 17,25 21,41 6,23 18,42 28,42 2,0 6,-5 9,-13 11,-31 60,-70 88,-70 6,0 17,6 25,13 12,12 13,17 13,42 0,19 -3,34 -9,47 -10,20 -51,62 -69,71l-13 6 -1 99c-2,121 1,137 40,179 14,15 32,30 39,34 13,7 32,9 32,4 0,-2 -13,-17 -29,-34 -44,-47 -57,-82 -45,-121 24,-77 63,-134 155,-224 25,-25 50,-54 57,-66 10,-21 11,-27 11,-93 -1,-106 -18,-185 -41,-180 -6,1 -8,6 -7,22 0,11 4,27 6,34 4,9 6,45 6,103l1 90 -13 16c-7,9 -20,24 -29,32 -37,35 -130,143 -139,162 -5,10 -11,18 -13,17 -2,-2 -4,-13 -4,-26 0,-20 2,-25 13,-36 8,-7 23,-21 35,-32 31,-30 45,-63 45,-105 0,-52 -19,-80 -59,-86 -26,-3 -65,16 -87,41 -17,20 -18,20 -23,-2 -2,-7 -14,-23 -26,-35 -28,-27 -34,-52 -25,-100 3,-18 5,-37 3,-42 -2,-9 1,-14 14,-24 16,-13 55,-30 70,-30 4,0 7,-3 7,-7 0,-5 -4,-7 -14,-7 -15,0 -60,13 -67,19 -9,9 -15,4 -22,-15 -9,-29 -31,-40 -120,-58 -120,-24 -190,-18 -235,21 -9,9 -18,14 -20,13 -1,-2 -3,-20 -5,-40 -2,-45 5,-61 47,-103 56,-59 145,-109 219,-126 33,-7 48,0 95,43 81,75 201,139 236,125 17,-7 15,-13 -4,-13 -36,0 -142,-65 -211,-129 -58,-53 -85,-66 -115,-54l0 0zm-1344 430c4,9 9,21 13,29 3,8 9,22 13,32l9 19 -20 16c-11,9 -19,18 -19,20 0,6 21,4 27,-2 10,-9 15,2 9,21 -4,12 -9,17 -17,19 -7,1 -15,3 -19,4 -4,1 -7,-2 -8,-8 -5,-26 -20,-72 -30,-92 -2,-4 -4,-10 -4,-14 0,-3 -5,-16 -11,-28l-12 -22 11 -4c5,-2 15,-6 21,-8 16,-7 30,0 37,18l0 0zm-287 147c10,19 18,40 18,45 0,16 -12,40 -19,40 -3,0 -13,1 -21,4 -7,2 -26,7 -40,10 -14,2 -29,6 -33,7 -8,2 -8,-1 -8,-23 0,-14 -2,-36 -5,-48 -11,-57 -11,-53 9,-53 10,0 20,-2 21,-4 2,-3 12,-5 22,-5 11,0 23,-2 27,-5 4,-2 8,-4 9,-4 2,0 11,16 20,36l0 0z"/>
    <path class="fil0" d="M3701 5201c1,12 5,36 7,52 3,17 8,58 12,91 10,89 22,160 27,169 2,3 3,8 1,10 -4,7 -15,1 -20,-13 -10,-23 -27,-117 -41,-224 -12,-95 -13,-102 -6,-110 8,-10 17,0 20,25l0 0z"/>
    <path class="fil9" d="M1559 2537c0,0 106,-48 152,176 46,223 -61,238 -136,163 -74,-74 -92,-357 -16,-339z"/>
   </g>
   <path class="fil9" d="M1681 4861c0,0 -17,-102 115,-119 133,-16 93,-36 215,-139 123,-102 278,7 288,60 10,53 10,139 10,139 0,0 122,-23 165,83 43,105 76,29 172,86 96,56 103,248 103,248 0,0 102,-33 175,56 73,89 -7,116 81,117 88,2 119,121 93,121 -27,0 -541,13 -915,-136 -373,-148 -484,-287 -531,-353 -46,-67 -68,-94 -62,-97 7,-4 37,-100 91,-66z"/>
   <path class="fil0" d="M2008 4969c0,0 45,-18 100,-18 55,0 88,8 82,1 -6,-8 -46,-26 -102,-21 -56,4 -85,35 -80,38zm710 439c0,0 7,-26 32,-47 24,-20 43,-15 37,-26 -7,-11 -30,1 -51,20 -22,20 -28,48 -18,53zm-413 -257c0,0 77,-7 158,21 80,28 101,75 105,66 4,-9 -22,-64 -110,-89 -89,-26 -154,-13 -153,2z"/>
  </g>
 </g>
</svg>
