<?xml version="1.0" encoding="UTF-8"?>
<!DOCTYPE svg PUBLIC "-//W3C//DTD SVG 1.1//EN" "http://www.w3.org/Graphics/SVG/1.1/DTD/svg11.dtd">
<!-- Creator: CorelDRAW Home & Student X7 -->
<svg xmlns="http://www.w3.org/2000/svg" xml:space="preserve" width="68.3674mm" height="68.3674mm" version="1.1" style="shape-rendering:geometricPrecision; text-rendering:geometricPrecision; image-rendering:optimizeQuality; fill-rule:evenodd; clip-rule:evenodd"
viewBox="0 0 6837 6837"
 xmlns:xlink="http://www.w3.org/1999/xlink">
 <defs>
  <style type="text/css">
   <![CDATA[
    .fil3 {fill:black}
    .fil7 {fill:#008183}
    .fil6 {fill:#009FA2}
    .fil8 {fill:#59C1C2}
    .fil5 {fill:#BD9941}
    .fil2 {fill:#EDB9A9}
    .fil4 {fill:#FACA50}
    .fil1 {fill:#FFE1D7}
    .fil0 {fill:white}
   ]]>
  </style>
 </defs>
 <g id="Layer_x0020_1">
  <metadata id="CorelCorpID_0Corel-Layer"/>
  <rect class="fil0" width="6837" height="6837"/>
  <g id="_505705520">
   <path class="fil1" d="M3999 1853c0,0 -615,-523 -1217,-93 -602,430 -265,569 -972,907 -708,337 -843,927 -857,1232 -14,305 195,876 493,1056 297,180 640,353 1262,269 621,-84 1440,-351 1919,-327 480,25 663,60 923,-145 883,-698 -182,-1683 -906,-1996 -466,-202 -268,-549 -645,-903z"/>
   <path class="fil0" d="M4513 2685c-189,-131 -210,-302 -285,-490 -88,12 -135,78 -135,78 0,0 -34,-38 -98,-33 -63,6 -97,88 -97,88 0,0 -85,-22 -149,39 -5,7 -10,14 -14,22 -34,74 -19,124 -19,124 0,0 -91,0 -176,51 -84,51 -106,121 -106,121l1079 0z"/>
   <path class="fil2" d="M1092 3352c-101,208 -132,407 -139,547 -14,305 195,876 493,1056 297,180 640,353 1262,269 621,-84 1440,-351 1919,-327 480,25 663,60 923,-145 479,-378 385,-840 84,-1235 -208,-131 -469,-290 -544,-301 -129,-20 -453,284 -611,307 -159,23 -1538,-856 -1697,-896 -117,-29 -1149,462 -1690,725z"/>
   <path class="fil3" d="M940 3904c-23,74 -12,292 22,443 13,56 36,126 55,169 4,11 9,21 9,23 0,6 48,97 68,128 64,100 158,197 309,314 70,55 152,100 247,134 19,7 39,15 45,17 19,8 59,6 67,-4 14,-16 29,-55 31,-83 1,-22 0,-31 -8,-47 -14,-28 -28,-36 -70,-38l-35 -3 -7 -44c-12,-71 -26,-94 -75,-120 -29,-16 -29,-15 -16,-71 14,-64 17,-81 20,-121 4,-64 -19,-133 -54,-163 -30,-27 -95,-51 -139,-51 -47,0 -62,-22 -62,-88 0,-35 -2,-47 -12,-69 -12,-28 -36,-56 -62,-72 -17,-11 -60,-27 -71,-27 -22,0 -30,-9 -36,-40 -3,-16 -5,-34 -5,-39 0,-5 -2,-13 -5,-18 -1,-4 -7,-16 -12,-27 -20,-40 -80,-86 -135,-101 -32,-8 -67,-10 -69,-2l0 0z"/>
   <path class="fil3" d="M5698 4330c-31,6 -68,36 -97,77 -5,7 -10,13 -12,13 -2,0 -17,-12 -33,-26 -41,-37 -52,-41 -96,-41 -38,0 -48,2 -94,23 -46,21 -91,75 -112,134 -9,25 -19,97 -19,134 0,74 -30,102 -85,80 -11,-5 -31,-8 -45,-9 -23,0 -26,2 -42,19 -9,11 -21,24 -25,29 -6,8 -13,10 -29,10 -26,0 -42,10 -54,33 -10,21 -12,69 -3,85 2,6 5,16 4,23 -2,22 5,23 100,21 81,-3 132,-7 167,-15 44,-9 75,-18 82,-21 5,-3 12,-5 16,-5 4,0 11,-1 15,-4 4,-2 17,-8 29,-12 100,-38 205,-99 285,-164 67,-54 123,-127 150,-194 7,-19 15,-37 17,-42 6,-17 13,-37 21,-65 4,-16 9,-35 12,-43 11,-38 2,-44 -80,-43 -34,0 -67,1 -72,3l0 0z"/>
   <g>
    <path class="fil2" d="M2587 5410c0,0 57,49 192,26 135,-23 260,-56 333,-73 72,-17 250,-55 250,-55l-804 -143c0,0 -33,174 29,245z"/>
    <path class="fil2" d="M3771 5121c0,0 144,-12 207,-33 62,-22 126,-27 208,-4 82,23 230,33 242,58 12,26 10,55 -14,64 -23,10 -20,57 -20,57 0,0 -8,112 -107,145 -99,33 -316,-6 -316,-6l-242 -53c0,0 53,-201 42,-228z"/>
    <path class="fil1" d="M4170 5080c5,1 11,2 16,4 82,23 230,33 242,58 12,26 10,55 -14,64 -23,10 -20,57 -20,57 0,0 -8,112 -107,145 -29,9 -68,13 -108,13 -13,-64 30,-131 -7,-197 -28,-52 -13,-114 -2,-144z"/>
    <path class="fil4" d="M2519 4652l803 33c0,0 374,0 492,-2 118,-2 136,-27 136,-27 0,0 373,-42 398,-37 25,5 229,-12 303,23 74,35 127,80 131,162 5,82 -43,148 -97,200 -54,52 -189,102 -189,102 0,0 -93,22 -126,20 -33,-1 -198,-54 -243,-54 -46,0 -205,38 -225,36 -20,-2 -126,11 -126,11 0,0 -38,252 -65,262 -27,10 -157,-20 -157,-20 0,0 -469,-86 -537,-87 -69,-1 -567,-99 -567,-99 0,0 -207,-48 -294,-155 -88,-108 -56,-215 -16,-275 40,-59 165,-128 379,-93z"/>
    <path class="fil1" d="M4494 4619c60,2 122,7 157,23 74,35 127,80 131,162 5,82 -43,148 -97,200 -54,52 -189,102 -189,102 0,0 -93,22 -126,20 -18,-1 -71,-15 -124,-29 66,-20 160,-49 257,-79 180,-56 186,-121 171,-162 -15,-42 -43,-175 -130,-195 -87,-19 -108,-13 -108,-13 0,0 22,-15 58,-29z"/>
    <path class="fil5" d="M2519 4652l803 33c0,0 374,0 492,-2 118,-2 136,-27 136,-27 0,0 373,-42 398,-37 15,3 91,-2 167,1 -19,9 -47,21 -71,26 -42,9 -303,107 -337,123 -34,16 -309,131 -309,131 0,0 40,36 86,78 46,42 70,48 170,93 6,2 13,5 21,7 -65,11 -158,31 -173,30 -16,-1 -90,7 -116,10 -7,-6 -12,-10 -13,-13 -12,-25 -105,-44 -110,-47 -4,-2 -80,-51 -60,-73 13,-14 87,-44 140,-64 -71,25 -194,65 -259,69 -96,5 -420,-103 -420,-103 0,0 -126,-50 -215,-69 -89,-19 -255,-52 -289,-52 -33,0 -90,-33 -133,-76 -43,-43 -104,-41 -106,-41 55,-9 120,-9 198,3zm1863 474c-4,0 -9,0 -12,0 -5,0 -12,-1 -22,-3 12,1 23,2 34,3zm-627 112c-13,67 -30,138 -44,143 -27,10 -157,-20 -157,-20 0,0 -469,-86 -537,-87 -69,-1 -567,-99 -567,-99 0,0 -207,-48 -294,-155 -88,-108 -56,-215 -16,-275 18,-27 53,-55 106,-76 -23,40 -51,117 35,175 122,82 252,74 386,133 134,60 291,106 354,116 63,10 267,69 493,109 93,17 176,29 241,36z"/>
    <path class="fil2" d="M1563 4031c0,0 -18,15 -11,36 8,21 16,46 37,76 22,29 48,67 48,67 0,0 -55,-50 -74,-70 -20,-20 -45,-19 -44,1 1,21 65,93 73,97 7,4 -11,14 -4,35 7,22 89,113 146,125 57,12 142,14 180,27 37,13 58,22 58,22 0,0 14,-171 10,-173 -4,-3 -39,-5 -37,-29 1,-24 24,-77 24,-89 0,-12 -13,-56 -46,-80 -33,-24 -45,-19 -45,3 1,23 17,59 -3,97 -19,39 -50,47 -70,35 -20,-12 -42,-43 -32,-78 9,-34 54,-58 71,-75 16,-18 -2,-36 -30,-26 -27,10 -87,31 -88,65 -1,33 -6,76 -11,81 -6,6 -45,-17 -74,-54 -28,-37 -78,-93 -78,-93z"/>
    <path class="fil1" d="M1563 4031c0,0 -18,15 -11,36 8,21 16,46 37,76 22,29 48,67 48,67 0,0 -55,-50 -74,-70 -20,-20 -45,-19 -44,1 1,21 65,93 73,97 7,4 -11,14 -4,35 3,8 13,22 29,39 47,25 112,53 168,53 42,0 71,-4 93,-6l0 0c-6,-45 6,-57 56,-104 4,-4 7,-8 11,-12 2,-24 24,-75 24,-87 0,-12 -13,-56 -46,-80 -33,-24 -45,-19 -45,3 1,23 17,59 -3,97 -19,39 -50,47 -70,35 -20,-12 -42,-43 -32,-78 9,-34 54,-58 71,-75 16,-18 -2,-36 -30,-26 -27,10 -87,31 -88,65 -1,33 -6,76 -11,81 -6,6 -45,-17 -74,-54 -28,-37 -78,-93 -78,-93z"/>
    <path class="fil2" d="M4935 4238c-3,0 27,-21 27,-38 0,-17 -32,-59 -20,-99 12,-40 54,-90 74,-89 19,1 20,8 11,45 -8,37 -8,89 21,104 28,16 69,7 79,-23 11,-30 -1,-62 -18,-80 -17,-19 -66,-45 -59,-52 6,-8 26,-26 69,-5 44,22 65,55 71,84 5,28 6,63 6,63 0,0 62,-43 93,-89 31,-46 61,-78 68,-62 7,17 -16,65 -33,96 -16,31 -60,74 -60,74 0,0 41,-22 69,-55 28,-33 50,-28 52,-11 2,17 -75,99 -75,99 0,0 25,9 8,43 -17,34 -114,102 -162,113 -48,12 -125,7 -159,24 -34,16 -58,26 -58,26l-4 -168z"/>
    <path class="fil1" d="M4962 4203c0,-1 0,-2 0,-3 0,-17 -32,-59 -20,-99 12,-40 54,-90 74,-89 19,1 20,8 11,45 -8,37 -8,89 21,104 28,16 69,7 79,-23 11,-30 -1,-62 -18,-80 -17,-19 -66,-45 -59,-52 6,-8 26,-26 69,-5 44,22 65,55 71,84 5,28 6,63 6,63 0,0 62,-43 93,-89 31,-46 61,-78 68,-62 7,17 -16,65 -33,96 -16,31 -60,74 -60,74 0,0 41,-22 69,-55 28,-33 50,-28 52,-11 2,17 -75,99 -75,99 0,0 25,9 8,43 -1,1 -1,3 -2,4 -36,23 -86,49 -146,61 -62,12 -103,20 -127,24 -15,-17 -19,-39 -35,-53 -39,-32 -30,-71 -36,-72 -1,0 -5,-2 -10,-4z"/>
    <path class="fil2" d="M3073 2800c0,0 16,213 104,250 88,36 132,124 132,124 0,0 2,90 -31,116 -32,27 -153,80 -153,80 0,0 -132,174 10,420 143,247 541,76 624,-56 82,-132 37,-369 37,-369 0,0 -136,-51 -147,-70 -12,-19 111,-350 111,-350 0,0 55,-255 -201,-349 -256,-93 -393,23 -486,204z"/>
    <path class="fil1" d="M3228 3321c-46,24 -103,49 -103,49 0,0 -113,149 -17,366 64,46 150,36 150,36 0,0 -63,-96 -67,-222 -4,-125 61,-216 61,-216l-24 -13z"/>
    <path class="fil1" d="M3076 2828c7,59 33,194 101,222 31,12 56,32 77,51 -11,-35 -25,-82 -34,-101 -15,-33 -27,-114 -37,-145 -10,-32 -51,-86 -51,-86 -11,-20 -36,19 -56,59zm222 328c7,10 11,18 11,18 7,-4 76,23 90,30 14,7 56,46 66,68 10,22 73,60 109,74 36,14 70,53 73,196 4,143 -97,262 -97,262l151 -79 106 -172c2,-32 2,-64 0,-92l-41 -108c-40,-16 -109,-45 -117,-58 -12,-19 111,-350 111,-350 0,0 0,-3 1,-6l2 -86c-2,-22 -6,-47 -15,-72l-102 -57c0,0 -74,26 -63,99 11,73 -58,106 -50,102 9,-4 52,12 9,38 -43,26 -86,0 -86,0 0,0 -16,31 -2,32 15,1 46,30 26,64 -21,34 -57,25 -43,29 15,4 40,28 38,55 -7,78 -114,39 -177,13z"/>
    <path class="fil1" d="M3556 2595c-18,-6 -35,-12 -52,-16l-305 126 1 65c0,0 55,68 88,82 33,13 73,-15 91,-14 19,2 28,-1 30,22 2,23 -5,112 1,124 7,11 62,14 67,8 6,-6 -2,-19 -12,-23 -11,-5 -20,-12 -21,-44 -2,-31 -3,-82 5,-85 8,-3 42,-4 46,0 5,4 53,28 84,-6 32,-34 73,-56 73,-56l-96 -183zm-310 306c0,0 63,7 98,2 34,-5 -9,43 -47,41 -39,-2 -51,-43 -51,-43zm253 -1c0,0 70,8 96,-7 26,-16 -6,46 -58,46 -52,0 -64,-35 -59,-38 5,-4 21,-1 21,-1z"/>
    <path class="fil6" d="M3178 3356c0,0 -59,127 -54,194 5,67 44,203 162,253 117,50 221,15 264,1 42,-14 143,-84 184,-191 41,-106 21,-197 14,-219 -7,-23 -19,-51 -19,-51 0,0 201,46 271,111 69,65 125,236 137,304 12,68 121,516 121,516 0,0 265,-16 414,-19 148,-3 253,-30 258,-26 5,5 9,177 9,177l-117 38 -314 103c0,0 -214,69 -302,60 -89,-10 -161,-128 -168,-143 -8,-15 -131,-355 -131,-355 0,0 -69,60 -82,129 -12,69 -18,151 17,239 35,88 101,184 101,184 0,0 -267,32 -508,35 -241,3 -462,-35 -462,-35 0,0 83,-177 83,-263 0,-87 -57,-214 -57,-214 0,0 -49,115 -64,186 -15,72 -108,258 -209,267 -100,10 -373,-68 -373,-68l-386 -124 11 -178 54 8c0,0 472,28 532,35 59,8 85,10 86,-3 1,-14 87,-457 131,-606 44,-149 91,-193 188,-251 98,-58 209,-94 209,-94z"/>
    <path class="fil7" d="M3924 4155l-17 -46c0,0 -69,60 -82,129 -12,69 -18,151 17,239 35,88 101,184 101,184 0,0 -267,32 -508,35 -241,3 -462,-35 -462,-35 0,0 83,-177 83,-263 0,-87 -57,-214 -57,-214 0,0 -14,35 -30,77 -13,-110 -30,-224 -30,-224l-4 -53c0,0 65,83 229,102 164,19 228,-54 308,-31 79,23 156,46 278,20 122,-25 184,-99 187,-108 2,-9 -10,113 -10,113 0,0 -2,31 -3,75zm-601 -255c0,0 60,36 124,20 65,-17 82,-37 79,-43 -3,-6 -60,15 -127,8 -67,-6 -91,7 -76,15zm-96 441c0,0 60,57 186,66 125,9 240,-50 234,-58 -5,-8 -86,26 -251,2 -165,-24 -184,-19 -169,-10zm99 161c0,0 26,31 112,20 86,-12 113,-23 103,-33 -11,-9 -155,18 -216,-9 -61,-26 1,22 1,22z"/>
    <path class="fil8" d="M3178 3356c0,0 -26,56 -42,112 -62,24 -140,55 -180,82 -73,48 -94,114 -108,162 -14,48 -70,600 -118,661 -48,61 -75,80 -159,65 -85,-14 -382,-59 -470,-74 -50,-8 -96,-24 -127,-36l4 -61 54 8c0,0 472,28 532,35 59,8 85,10 86,-3 1,-14 87,-457 131,-606 44,-149 91,-193 188,-251 98,-58 209,-94 209,-94z"/>
    <path class="fil8" d="M3759 3466c-1,-36 -8,-62 -11,-72 -7,-23 -19,-51 -19,-51 0,0 201,46 271,111 69,65 125,236 137,304 12,68 121,516 121,516 0,0 265,-16 414,-19 148,-3 253,-30 258,-26 2,2 5,37 6,76 -5,1 -9,3 -14,4 -57,16 -173,35 -309,57 -136,21 -187,54 -311,64 -124,10 -152,-117 -170,-246 -18,-129 -83,-442 -91,-475 -8,-33 -58,-150 -123,-192 -31,-20 -98,-38 -159,-51z"/>
    <path class="fil3" d="M3228 2376c-4,2 -13,4 -20,4 -17,0 -56,19 -78,37 -18,15 -45,66 -58,110 -4,15 -10,32 -12,37 -7,16 -42,165 -52,219 -10,56 -23,159 -30,234 -3,32 3,96 13,141 6,29 25,65 42,83 31,31 98,55 168,60 23,1 41,4 41,6 0,3 -10,9 -63,30 -10,4 -22,10 -26,12 -5,2 -11,4 -14,4 -5,0 -11,3 -56,23 -12,5 -24,10 -25,10 -3,0 -48,20 -84,38 -47,23 -98,62 -128,101 -47,59 -64,97 -99,226 -2,11 -6,24 -8,31 -2,6 -9,36 -16,65 -7,29 -14,62 -17,72 -6,27 -19,90 -27,133 -6,28 -19,111 -24,149 -3,22 -16,96 -18,100 0,0 -19,-3 -41,-6 -23,-3 -97,-9 -167,-11 -210,-8 -318,-15 -402,-26 -14,-1 -28,-2 -31,-1 -2,1 -10,1 -18,1 -11,1 -15,-1 -18,-12 -5,-11 -3,-18 12,-47 20,-39 21,-47 7,-77 -17,-36 -82,-95 -96,-87 -2,1 -8,-1 -12,-7 -17,-18 -74,-9 -114,17 -21,14 -42,39 -42,50 0,4 -2,9 -5,10 -2,2 -5,18 -5,36l0 33 -24 -22c-13,-11 -35,-36 -48,-54 -59,-84 -71,-95 -86,-81 -10,9 -12,31 -5,50 21,55 33,75 65,114 19,23 36,36 43,31 6,-3 0,-14 -28,-49 -13,-17 -26,-33 -30,-37 -9,-12 -31,-61 -31,-70 0,-12 11,-1 35,36 28,42 82,99 106,112 22,12 27,6 27,-34 1,-52 16,-87 46,-103 21,-12 57,-25 60,-22 4,3 -18,20 -26,21 -3,0 -6,1 -6,3 0,2 -4,6 -10,8 -14,6 -31,32 -35,52 -6,32 2,57 25,79 18,19 22,21 42,21 29,0 57,-21 57,-42 0,-17 -12,-29 -19,-18 -2,3 -4,10 -4,15 0,15 -24,24 -42,17 -21,-9 -28,-22 -28,-52 0,-21 3,-28 11,-38 11,-11 64,-47 66,-44 0,1 3,10 7,21 8,26 19,26 19,1 0,-10 2,-19 4,-19 6,0 45,44 53,60 10,19 10,41 -1,56 -24,34 -22,78 5,92l13 7 0 53c0,28 -1,59 -3,67l-2 14 -18 -7c-9,-5 -21,-10 -26,-12 -5,-2 -30,-4 -56,-5 -94,-4 -144,-19 -200,-60 -22,-16 -30,-24 -60,-62 -11,-14 -21,-13 -21,1 0,12 27,51 53,75 27,24 81,53 114,61 12,3 41,7 65,10 25,3 57,7 73,8 27,4 68,19 81,31 4,3 21,10 37,16 17,6 35,12 40,14 14,6 182,60 214,68 16,5 32,10 37,12 6,1 22,7 38,11 43,12 59,17 69,22 6,1 26,7 45,11 19,5 36,10 38,11 2,2 -33,3 -77,3 -46,0 -89,3 -99,5 -10,3 -29,8 -43,11 -35,7 -84,30 -105,50 -29,28 -43,53 -63,106 -17,45 -19,112 -5,156 33,100 134,174 300,221 16,4 32,10 37,12 14,5 57,17 88,24 21,5 26,7 23,13 -5,10 -7,130 -2,136 2,4 5,12 7,19 8,32 53,62 106,71 55,10 177,-3 251,-25 42,-12 107,-30 125,-34 11,-2 28,-6 39,-8 11,-3 36,-7 55,-10 38,-7 63,-18 63,-28 0,-11 -38,-11 -89,0 -25,6 -55,12 -65,14 -39,8 -61,14 -86,21 -14,4 -30,9 -35,10 -5,1 -14,4 -19,6 -10,5 -56,14 -102,20 -115,15 -173,7 -204,-29 -21,-25 -27,-49 -26,-109l2 -52 14 -1c13,-2 71,8 109,18 17,4 21,5 100,16 76,12 99,15 135,22 18,3 63,5 100,6 59,0 68,-1 69,-8 2,-8 -7,-10 -80,-18 -26,-2 -55,-6 -65,-9 -20,-5 -34,-7 -80,-14 -115,-18 -152,-24 -204,-35 -21,-4 -45,-8 -54,-10 -9,-1 -24,-4 -33,-6 -8,-3 -33,-8 -53,-12 -21,-4 -42,-9 -47,-11 -17,-7 -89,-28 -96,-28 -3,0 -8,-2 -11,-4 -3,-2 -16,-8 -30,-13 -38,-13 -88,-38 -119,-61 -69,-48 -100,-103 -100,-174 0,-44 7,-69 31,-119 31,-63 76,-87 209,-109 32,-6 58,-5 163,4 88,8 140,10 307,15 92,2 185,6 205,9 39,5 73,7 261,21 250,19 578,5 637,-27 5,-2 38,-6 75,-8 94,-7 165,-14 296,-28 27,-3 62,-5 77,-4l28 2 -26 6c-14,3 -30,8 -35,10 -5,2 -28,9 -51,16 -23,8 -44,15 -47,17 -2,1 -12,6 -21,9 -18,7 -61,26 -142,65 -30,15 -69,33 -86,41 -17,8 -49,23 -72,34 -23,10 -55,25 -72,33 -4,2 -8,4 -13,6 -74,19 -186,42 -323,51 -143,11 -267,-7 -349,-24l-51 -18c-24,-9 -51,-20 -59,-23 -8,-4 -24,-10 -34,-14 -10,-3 -26,-10 -34,-13 -37,-17 -108,-38 -196,-57 -53,-11 -167,-24 -243,-28 -46,-3 -53,-2 -53,4 0,13 -8,11 189,38 28,4 61,9 74,12 60,11 72,14 98,21 15,4 33,9 39,10 7,2 14,4 17,6 2,2 12,5 21,7 8,2 19,5 23,7 7,4 19,9 51,21 12,5 26,10 32,12 5,3 15,6 21,9 30,12 50,19 80,30 18,6 50,18 71,26 21,7 48,17 60,21 13,4 27,9 32,12 5,1 21,7 35,11 14,5 29,10 33,12 5,3 13,5 17,5 6,0 11,1 13,4 1,3 12,6 23,8 11,1 22,4 24,7 1,2 8,4 15,4 8,0 15,2 16,4 2,2 12,5 23,7 18,2 53,10 103,22 22,5 86,16 123,21 14,2 26,6 27,9 1,3 -1,29 -5,58 -4,30 -9,61 -10,70 -1,9 -4,20 -7,25 -2,5 -5,16 -6,24 -1,7 -4,23 -7,35 -7,30 -7,60 1,60 12,0 29,-54 39,-123 1,-11 4,-23 6,-28 2,-5 6,-20 7,-33 2,-13 5,-32 7,-42l2 -18 49 -4c27,-1 66,-6 86,-10 21,-4 45,-8 54,-10 9,-2 20,-4 26,-7 9,-4 20,-6 62,-14 39,-8 98,-1 145,15 20,7 41,13 58,16 10,1 21,5 23,7 7,4 30,8 79,14 50,5 65,14 54,34 -9,18 -23,23 -70,26 -37,2 -44,4 -46,10 -1,8 3,9 31,9 40,0 50,8 46,36 -10,59 -20,84 -46,111 -22,24 -65,38 -121,42 -39,3 -130,-3 -183,-12 -15,-3 -44,-7 -63,-10 -19,-2 -41,-7 -48,-9 -8,-3 -26,-5 -42,-5 -24,0 -27,1 -21,7 3,4 10,7 16,7 6,0 12,2 13,5 2,2 10,5 18,6 8,1 31,6 50,10 117,25 242,36 288,26 92,-19 113,-31 139,-79 15,-27 29,-81 31,-122 0,-8 6,-16 13,-21 19,-14 23,-22 21,-43 -1,-12 -2,-24 -3,-28 -2,-7 2,-8 49,-19 13,-3 25,-7 28,-10 2,-2 7,-4 10,-4 3,0 17,-5 31,-12 14,-6 27,-11 29,-11 2,0 26,-16 55,-35 45,-30 115,-92 115,-103 0,-2 3,-7 7,-11 17,-19 25,-57 25,-113 0,-30 -1,-59 -4,-63 -24,-50 -40,-70 -74,-93 -65,-46 -115,-61 -213,-65 -28,-1 -53,-4 -55,-7 -3,-2 -10,-4 -16,-4 -7,0 -10,-1 -8,-2 3,-1 14,-4 26,-7 11,-3 26,-8 32,-9 7,-2 25,-8 40,-12 15,-4 32,-9 37,-12 5,-2 18,-6 28,-9 56,-14 76,-20 84,-23 5,-3 22,-7 37,-12 16,-4 32,-9 36,-12 5,-2 12,-4 15,-4 4,0 11,-2 16,-5 4,-2 25,-10 47,-16 22,-7 44,-14 49,-17 5,-1 21,-7 35,-12 14,-4 31,-12 37,-16 13,-8 36,-19 59,-26 7,-3 33,-6 55,-8 76,-5 119,-15 159,-35 52,-27 86,-58 108,-99 10,-17 10,-20 3,-27 -6,-6 -7,-6 -14,5 -21,28 -64,69 -87,83 -45,27 -86,38 -155,41 -59,2 -71,5 -103,19 -9,3 -17,6 -18,5 -1,-1 -2,-31 -3,-66l-1 -64 17 -14c15,-13 18,-17 18,-35 0,-14 -5,-28 -14,-45 -8,-14 -14,-31 -14,-37 0,-14 21,-47 44,-70l19 -18 1 19c1,15 3,19 10,19 6,0 9,-5 12,-18 2,-9 4,-19 5,-20 3,-5 53,29 69,46 18,19 17,51 -2,73 -16,17 -28,20 -49,11 -7,-3 -12,-9 -12,-15 0,-7 -2,-13 -6,-16 -14,-11 -23,21 -11,36 13,17 29,24 53,24 23,0 27,-2 43,-18 22,-22 33,-59 24,-81 -12,-32 -17,-39 -51,-61l-35 -23 19 3c22,3 49,16 65,32 20,18 30,47 30,86 0,44 4,51 25,40 27,-14 110,-102 110,-116 0,-1 2,-5 5,-8 22,-28 27,-33 27,-27 0,13 -16,51 -30,70 -26,36 -51,68 -54,69 -7,3 -4,20 3,20 9,0 58,-50 58,-60 0,-3 3,-7 6,-10 4,-2 11,-14 17,-24 32,-65 32,-113 -1,-105 -8,2 -24,20 -49,56 -20,28 -41,56 -46,61 -15,16 -43,40 -46,40 -1,0 -2,-14 -2,-32 0,-26 -2,-35 -14,-55 -14,-25 -47,-51 -71,-56 -7,-1 -14,-5 -15,-7 -2,-2 -14,-4 -27,-4 -19,0 -27,3 -34,10 -4,5 -14,9 -21,9 -10,0 -21,7 -45,30 -54,50 -64,86 -38,133 22,42 18,64 -12,59 -11,-1 -36,-1 -58,2 -85,9 -232,18 -356,23 -121,4 -172,8 -220,16l-19 3 -2 -18c-4,-25 -20,-89 -41,-162 -2,-8 -7,-27 -12,-42 -4,-15 -9,-34 -11,-42 -21,-73 -24,-90 -32,-149 -8,-57 -16,-90 -31,-140 -9,-28 -16,-55 -16,-59 0,-4 -2,-9 -5,-10 -2,-2 -5,-8 -5,-14 0,-6 -2,-13 -4,-14 -3,-2 -5,-6 -5,-10 0,-6 -21,-53 -39,-83 -40,-73 -80,-103 -192,-147 -5,-2 -43,-14 -86,-28 -42,-13 -80,-26 -84,-28 -5,-3 -12,-5 -16,-5 -4,0 -7,-4 -7,-11 0,-11 0,-11 53,-30 16,-6 35,-14 42,-18 24,-13 68,-57 80,-82 25,-47 27,-61 27,-141 0,-41 -2,-85 -5,-98 -3,-12 -10,-46 -15,-74 -6,-28 -12,-59 -15,-69 -2,-11 -6,-30 -9,-42 -5,-27 -12,-56 -18,-70 -2,-5 -8,-20 -12,-33 -22,-66 -48,-112 -80,-147 -40,-42 -58,-51 -110,-51 -24,0 -46,-9 -52,-9 -4,0 -23,-7 -43,-17 -54,-25 -52,-24 -85,-30 -87,-15 -201,-22 -214,-13l0 0zm483 2574c2,0 4,0 7,0 12,0 23,-2 24,-4 2,-3 6,-5 11,-5 6,0 18,-5 59,-23 25,-12 74,-34 103,-47 13,-5 38,-17 56,-25 18,-9 51,-25 74,-35 22,-11 54,-25 69,-33 88,-41 111,-51 115,-51 3,0 8,-2 13,-4 28,-14 102,-39 157,-52 23,-6 47,-12 53,-14 38,-12 87,-20 122,-18 34,2 44,5 74,19 47,24 50,26 74,50 51,51 62,130 27,198 -19,37 -59,80 -101,110 -40,28 -107,60 -140,67 -17,3 -42,11 -58,16 -5,3 -16,7 -25,10 -19,7 -58,6 -94,-3 -28,-7 -85,-24 -100,-29 -22,-10 -76,-23 -109,-27 -25,-2 -81,7 -133,21 -17,6 -57,14 -114,24 -14,3 -39,6 -56,7l-30 2 -7 -15c-7,-14 -9,-16 -33,-19l-10 -1c-39,-32 -95,-83 -87,-90 3,-3 27,-14 59,-29zm270 -1010l0 0c0,0 -19,196 -25,284 4,11 8,24 12,37 11,35 25,72 31,82 6,11 15,32 21,47 28,74 87,157 129,182 20,12 26,13 78,13 31,0 64,-3 76,-6 26,-8 46,-13 96,-24 43,-11 51,-13 95,-26 47,-14 53,-16 95,-27 22,-6 42,-13 44,-14 1,-2 9,-3 16,-3 6,0 14,-3 15,-5 2,-3 7,-5 12,-5 8,0 48,-11 67,-18 6,-2 22,-8 38,-12 43,-12 59,-17 70,-21 24,-10 56,-18 66,-18 13,0 13,1 5,-97l-5 -71 -26 3c-15,2 -30,5 -34,7 -5,2 -16,4 -26,4 -10,0 -25,2 -32,4 -17,6 -146,15 -284,20 -58,2 -125,6 -149,8 -95,10 -91,10 -111,28 -47,44 -71,48 -42,7 9,-12 16,-26 16,-30 0,-5 2,-10 5,-12 7,-4 4,-18 -16,-95 -9,-34 -21,-80 -26,-102 -11,-46 -18,-72 -24,-89 -6,-20 -19,-83 -34,-177 -5,-24 -10,-49 -12,-56 -2,-6 -7,-24 -12,-39 -54,-196 -99,-259 -219,-307 -45,-19 -48,-20 -74,-28 -13,-5 -28,-10 -33,-12l0 0c-23,-10 -30,-10 -30,-1 0,6 2,11 5,13 3,1 4,8 4,15 0,7 3,15 6,18 2,3 4,28 2,69 -2,68 -6,98 -13,103 -2,1 -4,6 -4,10 0,12 -30,67 -51,96 -23,32 -80,84 -110,101 -22,13 -63,29 -104,42 -27,8 -127,8 -154,0 -54,-16 -75,-26 -105,-47 -35,-26 -69,-65 -86,-101 -29,-58 -32,-75 -32,-141 0,-53 3,-77 14,-99 2,-5 4,-10 4,-13 0,-2 6,-16 12,-30 7,-15 11,-27 11,-29 -2,0 -9,1 -16,6 -8,3 -15,7 -17,7 -2,0 -15,5 -30,12 -143,64 -191,97 -233,161 -29,44 -44,79 -62,143 -3,12 -9,30 -12,42 -4,11 -7,25 -7,31 0,6 -2,11 -4,13 -2,1 -5,9 -6,18 -2,8 -6,28 -10,45 -11,44 -34,150 -45,207 -16,80 -19,100 -21,114 -2,9 -4,21 -7,26 -4,10 -6,19 -15,74 -5,28 -4,32 3,36 4,3 8,9 8,14 0,5 7,20 16,32 19,26 19,28 7,28 -5,0 -23,-13 -39,-28 -27,-26 -31,-28 -51,-28 -11,0 -32,-2 -46,-5 -14,-2 -78,-7 -144,-9 -234,-10 -356,-20 -412,-38 -8,-2 -15,-4 -17,-4 -2,0 -4,25 -5,55 -2,30 -4,68 -6,83 -3,29 -2,30 9,30 6,0 13,2 15,4 1,3 8,5 14,5 6,0 12,2 14,5 1,2 6,4 10,4 7,0 77,20 97,28 5,2 25,9 44,14 49,15 59,18 91,26 60,16 122,34 135,40 15,6 124,34 198,49 44,10 100,13 115,7 7,-2 18,-6 26,-7 28,-7 93,-89 126,-159 18,-37 20,-42 28,-74 5,-16 10,-32 12,-38 3,-8 7,-17 10,-28l-12 -284c-5,-12 -14,-44 -21,-76 -11,-51 0,-146 23,-198 2,-5 9,-23 14,-40 6,-17 13,-37 16,-44 4,-8 7,-18 9,-22 3,-11 17,-16 22,-8 3,6 1,18 -5,35 -2,5 -8,21 -12,37 -4,15 -12,39 -17,53 -27,86 -27,175 2,236 19,42 90,100 122,100 8,0 12,2 12,7 0,13 -49,7 -74,-10 -10,-7 -21,-12 -21,-10 -2,0 7,22 20,48 54,112 70,163 70,231 0,34 -3,53 -22,115 -13,47 -20,65 -46,115 -21,42 -21,44 12,44 10,0 24,2 32,5 7,3 53,7 101,9 49,2 126,6 172,9 158,11 486,1 550,-16 13,-4 58,-9 101,-12 72,-6 78,-6 76,-15 -3,-8 0,-8 37,-8 49,0 50,-4 11,-43 -32,-31 -67,-85 -96,-144 -11,-22 -20,-41 -20,-43 0,-2 -5,-14 -11,-28 -7,-14 -12,-27 -12,-28 0,-2 -4,-12 -9,-23 -11,-24 -16,-40 -26,-75 -4,-16 -10,-33 -12,-40 -1,-6 -6,-21 -9,-33 -3,-13 -8,-21 -10,-20 -2,1 -15,24 -27,50 -41,84 -47,163 -20,252 6,23 48,108 73,151 12,22 16,42 7,42 -13,0 -26,-13 -52,-55 -42,-64 -58,-100 -71,-151 -8,-34 -8,-147 1,-186 6,-26 33,-83 56,-118 8,-14 15,-26 15,-26 0,-2 -14,5 -31,13 -33,16 -56,20 -66,10 -9,-9 -6,-15 16,-22 64,-19 124,-70 138,-119 18,-63 19,-75 14,-94 -3,-11 -6,-25 -6,-32 0,-7 -2,-19 -4,-27 -3,-8 -8,-26 -12,-40 -4,-14 -9,-30 -12,-35 -5,-12 -26,-75 -29,-91 -2,-6 -1,-14 1,-18 5,-8 18,-3 22,8 2,4 6,17 12,27 4,11 9,26 11,33 2,7 5,15 6,18 2,2 9,21 16,42 26,83 35,131 30,165zm-609 1396c0,7 4,10 16,12 8,1 22,4 31,5 65,11 294,35 297,32 5,-4 -12,-16 -24,-16 -9,0 -17,-1 -19,-4 -3,-2 -14,-5 -26,-6 -12,-2 -47,-6 -79,-11 -32,-4 -73,-9 -91,-12 -18,-2 -49,-5 -68,-7 -34,-2 -37,-2 -37,7l0 0zm-1112 -551c-9,12 -30,72 -36,105 -2,9 -5,18 -6,21 -2,2 -5,15 -7,29 -2,18 -1,25 5,31 9,9 17,7 19,-5 2,-9 4,-13 17,-45 4,-9 7,-19 7,-23 0,-4 2,-8 5,-11 7,-8 28,-73 28,-88 0,-26 -16,-34 -32,-14l0 0zm2338 -62c-6,6 -2,18 13,34 11,13 32,54 48,93 16,37 20,44 29,44 22,0 -23,-127 -57,-161 -17,-16 -24,-19 -33,-10l0 0zm-3083 -583c0,16 18,51 37,72 34,37 111,85 129,81 11,-2 13,-18 3,-18 -10,0 -74,-43 -99,-67 -26,-24 -47,-55 -47,-67 0,-8 -3,-10 -12,-10 -8,0 -11,2 -11,9zm3857 -43c-10,28 -17,39 -42,65 -32,30 -75,61 -98,69 -19,7 -21,21 -2,21 24,0 101,-48 130,-82 19,-21 34,-54 32,-68 -2,-13 -17,-17 -20,-5zm-1902 -1035c-20,21 -44,23 -61,5 -10,-10 -32,-16 -32,-9 0,8 21,31 33,37 19,10 47,9 61,-2 12,-9 27,-34 27,-43 0,-9 -13,-3 -28,12l0 0zm-72 -139c-2,49 -2,69 2,74 12,15 70,15 70,0 0,-4 -3,-7 -7,-7 -4,0 -15,-3 -26,-5l-18 -6 0 -62c0,-57 -1,-62 -9,-62 -8,0 -9,6 -12,68zm171 -100c-3,5 -13,13 -22,16 -15,8 -15,7 -34,-5 -29,-19 -42,-2 -16,23 17,16 51,17 71,3 14,-10 29,-36 25,-43 -4,-7 -18,-4 -24,6l0 0zm-310 -7c-16,16 23,62 53,62 24,0 56,-24 56,-42 0,-11 -4,-11 -23,0 -24,15 -44,13 -59,-6 -12,-16 -20,-20 -27,-14l0 0zm248 -148c0,10 59,63 95,87 22,14 42,28 44,32 1,3 4,26 6,51 2,37 3,47 10,52 8,5 13,2 15,-8 4,-21 19,-41 30,-41 25,0 32,42 11,72 -6,11 -13,20 -15,21 -1,2 -10,12 -20,24 -11,14 -22,23 -27,23 -7,0 -13,7 -22,26 -34,78 -44,96 -58,110 -20,21 -61,50 -70,50 -3,0 -9,3 -12,6 -8,8 -92,6 -116,-2 -38,-13 -102,-62 -113,-85 -3,-6 -10,-18 -16,-28 -7,-11 -13,-22 -15,-26 -13,-33 -26,-56 -35,-61 -18,-10 -55,-47 -71,-72 -16,-25 -23,-52 -17,-62 5,-8 25,-4 43,9 7,5 15,9 17,9 4,0 7,10 14,45 2,14 15,31 15,22 0,-2 1,-29 1,-60l1 -56 29 -3c26,-2 35,-5 69,-18 58,-22 169,-87 191,-111 9,-10 16,-13 16,-6l0 0zm-158 524c33,14 49,17 90,17 39,0 74,-6 85,-15 8,-7 15,-3 18,11 9,41 38,80 72,95 9,4 29,14 43,21 15,8 30,14 33,14 23,0 59,92 59,150 0,23 -7,68 -17,99 -25,80 -89,152 -176,198 -57,29 -152,46 -195,33 -8,-3 -26,-8 -40,-12 -14,-4 -38,-15 -53,-25 -31,-18 -82,-65 -82,-74 0,-3 -2,-6 -4,-6 -2,0 -9,-13 -16,-29 -8,-16 -15,-33 -17,-36 -2,-4 -6,-25 -10,-46 -5,-31 -5,-45 0,-77 3,-21 7,-42 10,-47 2,-5 9,-24 16,-42 8,-18 15,-35 17,-37 2,-3 4,-8 4,-13 0,-8 35,-27 49,-27 42,-21 57,-52 62,-59 14,-20 24,-52 24,-76 0,-21 3,-29 9,-26 1,1 10,5 19,9l0 0zm-325 1089c13,53 15,126 3,169 -8,31 -27,85 -46,135 -10,25 -19,50 -20,54 -3,8 -11,9 -83,8 -44,0 -85,-2 -90,-4 -5,-2 -7,-4 -4,-4 9,-1 51,-45 72,-76 29,-43 61,-109 76,-155 7,-23 15,-46 17,-51 1,-5 7,-22 11,-38 5,-15 10,-32 12,-37 2,-5 6,-17 9,-28 15,-45 14,-44 26,-17 6,14 14,34 17,44l0 0zm1404 351c-2,1 -6,2 -9,0 -4,-1 -2,-2 3,-2 5,-1 8,0 6,2z"/>
    <path class="fil0" d="M3438 2476c35,7 46,13 46,24 0,5 -4,5 -17,3 -10,-2 -20,-5 -23,-7 -7,-6 -176,-7 -184,-1 -11,6 -46,15 -48,11 -5,-8 22,-21 60,-30 38,-9 124,-9 166,0l0 0zm190 44c4,2 16,7 27,12 13,5 20,11 20,17 0,4 -3,8 -7,8 -4,0 -7,-1 -7,-4 0,-5 -34,-14 -70,-17 -33,-4 -46,-12 -32,-21 7,-5 57,-1 69,5l0 0zm-232 77c0,5 -6,7 -28,7 -15,0 -29,2 -31,4 -1,3 -9,5 -18,5 -9,0 -17,2 -18,4 -2,3 -11,6 -20,8 -15,2 -33,10 -39,16 -8,7 -23,13 -28,9 -7,-4 14,-22 31,-26 6,-2 11,-4 11,-7 0,-2 4,-4 9,-4 5,0 10,-2 10,-5 0,-2 4,-4 10,-4 6,0 13,-2 16,-5 5,-5 24,-8 63,-9 25,0 32,1 32,7l0 0zm197 8c25,16 68,61 68,69 0,13 -6,11 -21,-6 -16,-16 -69,-55 -76,-55 -7,0 -11,-8 -8,-14 5,-7 21,-5 37,6z"/>
   </g>
   <path class="fil0" d="M1434 4602c12,11 6,17 -18,20 -24,2 -37,4 -116,17 -19,3 -42,6 -51,6 -14,0 -16,-1 -16,-11 0,-15 16,-23 54,-28 16,-3 30,-5 31,-7 5,-5 111,-3 116,3l0 0zm-281 -306c9,14 18,30 20,37 1,7 4,13 7,15 6,4 4,16 -3,16 -10,0 -68,-67 -68,-80 0,-9 13,-18 22,-15 3,1 13,14 22,27l0 0z"/>
   <path class="fil0" d="M5507 4525c11,4 8,13 -8,28 -39,35 -98,102 -107,121 -6,12 -22,15 -22,4 0,-7 1,-10 16,-40 16,-31 73,-99 93,-110 11,-6 17,-7 28,-3l0 0zm205 -59c5,8 -7,24 -36,55 -40,40 -55,37 -29,-5 25,-41 56,-64 65,-50z"/>
   <path class="fil0" d="M2678 3122c-2,-32 -17,-136 -111,-199 -111,-75 -263,-11 -263,-11 0,0 -15,-117 -164,-164 -149,-46 -215,109 -215,109 0,0 -54,-35 -117,-24 -64,11 -88,84 -88,84 0,0 -89,-19 -167,30 -67,42 -98,145 -106,175l1231 0z"/>
  </g>
 </g>
</svg>
