<?xml version="1.0" encoding="UTF-8"?>
<!DOCTYPE svg PUBLIC "-//W3C//DTD SVG 1.1//EN" "http://www.w3.org/Graphics/SVG/1.1/DTD/svg11.dtd">
<!-- Creator: CorelDRAW Home & Student X7 -->
<svg xmlns="http://www.w3.org/2000/svg" xml:space="preserve" width="68.3674mm" height="68.3674mm" version="1.1" style="shape-rendering:geometricPrecision; text-rendering:geometricPrecision; image-rendering:optimizeQuality; fill-rule:evenodd; clip-rule:evenodd"
viewBox="0 0 6837 6837"
 xmlns:xlink="http://www.w3.org/1999/xlink">
 <defs>
  <style type="text/css">
   <![CDATA[
    .str0 {stroke:black;stroke-width:7.62}
    .fil4 {fill:black}
    .fil14 {fill:black}
    .fil11 {fill:#008183}
    .fil9 {fill:#59C1C2}
    .fil6 {fill:#62392B}
    .fil5 {fill:#984D44}
    .fil10 {fill:#9DDBDB}
    .fil13 {fill:#BD9941}
    .fil3 {fill:#C6877B}
    .fil8 {fill:#C9DCF5}
    .fil2 {fill:#EDB9A9}
    .fil12 {fill:#FACA50}
    .fil1 {fill:#FFE1D7}
    .fil7 {fill:white}
    .fil0 {fill:white}
   ]]>
  </style>
 </defs>
 <g id="Layer_x0020_1">
  <metadata id="CorelCorpID_0Corel-Layer"/>
  <rect class="fil0" width="6837" height="6837"/>
  <g id="_505401960">
   <path class="fil1" d="M3751 871c0,0 -344,-497 -1042,-180 -699,318 -387,969 -1080,1255 -693,285 -341,695 -317,1151 24,455 -148,743 -185,971 -37,227 10,687 10,687 0,0 88,1111 1373,798 1286,-313 2532,211 2765,-1208 233,-1418 -1016,-1413 -1085,-2132 -68,-720 37,-688 -439,-1342z"/>
   <path class="fil0" d="M4155 1728c-12,-145 -31,-247 -93,-377 -141,-36 -205,112 -205,112 0,0 -53,-35 -117,-24 -63,10 -87,84 -87,84 0,0 -89,-19 -167,30 -67,42 -98,145 -106,175l775 0z"/>
   <path class="fil2" d="M1202 2477c9,190 98,400 109,620 24,455 -148,743 -185,971 -37,227 10,687 10,687 0,0 88,1111 1374,798 1285,-313 2532,211 2765,-1208 223,-1361 -919,-1411 -1071,-2050 -171,107 -365,220 -421,220 -106,0 -1312,-677 -1460,-698 -124,-18 -818,460 -1121,660z"/>
   <path class="fil3" d="M1142 4792c23,152 154,735 805,809l54 -786 -179 0 -210 -116 -410 56 -60 37z"/>
   <path class="fil4" d="M1384 3567c-82,19 -124,49 -154,108 -46,88 -61,123 -88,205 -14,43 -40,146 -53,210 -3,15 -8,36 -10,46 -21,92 -32,194 -35,337 -3,129 -1,158 24,233 28,84 49,123 74,134 13,6 17,7 23,2 5,-4 49,-6 185,-8 102,0 186,-3 197,-6 10,-3 62,-5 114,-5 113,0 176,-6 188,-19 5,-4 11,-22 15,-39 12,-57 36,-89 86,-111 79,-35 99,-46 121,-67 93,-86 54,-221 -72,-256 -11,-3 -31,-8 -47,-11 -42,-8 -50,-12 -47,-24 1,-6 10,-35 21,-64 23,-65 35,-132 31,-170 -7,-59 -22,-104 -50,-150 -47,-75 -117,-108 -232,-109 -69,0 -74,-5 -93,-81 -22,-96 -60,-138 -135,-154 -34,-7 -36,-8 -63,-1l0 0z"/>
   <path class="fil0" d="M1537 4461c4,10 3,15 -3,21 -6,6 -9,6 -15,1 -9,-7 -31,1 -91,32 -77,41 -122,75 -126,96 -1,5 -5,10 -10,11 -6,1 -8,-1 -8,-13 0,-39 70,-102 160,-145 32,-15 42,-18 64,-17 23,1 25,2 29,14l0 0zm52 -462c52,27 138,140 108,140 -4,0 -29,-23 -57,-51 -36,-35 -59,-54 -78,-63 -18,-9 -27,-16 -27,-21 0,-17 27,-19 54,-5zm-358 121c59,27 129,88 127,111 -2,14 -13,19 -16,7 -2,-8 -28,-29 -42,-34 -2,-1 -8,-4 -11,-7 -4,-3 -15,-10 -24,-15 -77,-43 -74,-41 -74,-55 0,-18 12,-20 40,-7l0 0z"/>
   <path class="fil0" d="M1241 2254c-61,130 -41,274 -7,427l953 0c0,0 -23,-112 -140,-184 -118,-71 -191,-41 -191,-41 0,0 0,-117 -110,-164 -109,-46 -158,7 -158,7l0 0 0 0c-2,-3 -55,-109 -160,-110 -108,-1 -167,81 -167,81 0,0 -7,-8 -20,-16z"/>
   <path class="fil5" d="M4911 5024c0,0 121,39 246,57 126,17 562,41 569,31 8,-10 4,-98 -15,-108 -19,-10 -135,-22 -278,-103 -143,-80 -170,-109 -179,-111 -8,-1 -88,50 -146,42 -57,-8 -114,-33 -114,-33 0,0 -76,42 -80,45 -4,3 -23,78 -3,180z"/>
   <path class="fil6" d="M4911 5024c0,0 121,39 246,57 126,17 562,41 569,31 6,-8 5,-68 -6,-95 -49,17 -134,31 -286,22 -176,-10 -378,-100 -525,-180 -6,27 -13,88 2,165z"/>
   <path class="fil0" d="M3724 4610l235 1610c0,0 37,21 62,23 25,2 38,-3 38,-3l-22 -166 -220 -1460 -93 -4z"/>
   <path class="fil0" d="M2620 4607l106 -8 -153 1607c0,0 -52,36 -73,25 -20,-11 -29,-30 -29,-30l149 -1594z"/>
   <path class="fil7" d="M2721 2098c0,0 -671,23 -717,66 -46,43 -49,139 -47,193 3,54 81,370 81,370 0,0 194,1296 243,1392 49,97 89,124 127,146 39,22 24,148 96,192 71,43 946,23 946,23 0,0 452,53 505,-132 53,-185 24,-198 24,-198l-513 0 -421 -1805c0,0 -57,-242 -324,-247z"/>
   <path class="fil8" d="M2721 2098c0,0 -276,9 -486,27 -44,39 -85,88 -115,148 -64,129 -79,328 -81,460 7,51 69,460 130,822 46,30 146,118 165,115 24,-2 127,528 127,528 0,0 -38,22 -68,58 5,3 10,6 15,9 19,10 25,43 34,80 147,-1 446,2 611,46 113,31 176,67 210,92 110,-1 187,-3 187,-3 0,0 452,53 505,-132 6,-20 11,-39 14,-55 -54,-18 -225,-73 -275,-68 -6,0 -21,-27 -41,-75l-187 0 -421 -1805c0,0 -57,-242 -324,-247z"/>
   <path class="fil9" d="M2519 3634l-5 8c0,0 7,304 123,445 116,141 279,155 358,151 79,-4 192,28 192,28l725 58c0,0 185,621 230,758 45,138 113,581 134,585 21,4 364,-17 374,-37 10,-21 -17,-170 -17,-170l-160 -1087c0,0 365,509 387,513 23,5 300,-135 313,-160 13,-25 -324,-624 -324,-624 0,0 -404,-707 -522,-780 -117,-73 -218,-76 -317,-52 -99,24 -543,114 -543,115 -51,16 -286,93 -497,156 -238,72 -450,98 -450,98l-1 -5z"/>
   <path class="fil10" d="M4553 4917l0 0c-1,-5 -134,-891 -166,-972 -32,-80 -122,-155 -122,-155 0,0 -87,16 -90,91 -2,76 24,97 54,94 31,-3 67,54 98,168 32,113 135,777 170,791 34,14 56,-17 56,-17z"/>
   <path class="fil10" d="M5052 4472c-92,-173 -203,-370 -203,-370 0,0 -404,-707 -522,-780 -117,-73 -218,-76 -317,-52 -99,24 -543,114 -543,115 -38,12 -181,59 -339,108l4 21c0,0 390,-39 591,-97 201,-58 478,-51 495,-30 17,21 282,292 376,445 88,145 368,621 458,640z"/>
   <path class="fil11" d="M2576 3977c16,41 36,79 61,110 116,141 279,155 358,151 79,-4 192,28 192,28l725 58c0,0 185,621 230,758 45,138 113,581 134,585 21,4 364,-17 374,-37 2,-5 2,-19 1,-36 -278,-119 -241,-371 -326,-556 -95,-206 -209,-751 -233,-860 -23,-108 -108,41 -153,-121 -45,-163 55,-246 51,-256 -3,-10 79,-47 146,-50 67,-3 193,85 221,134 28,49 116,488 116,488 0,0 365,509 387,513 12,3 94,-35 171,-75 -149,-275 -600,-1080 -794,-1179 -236,-119 -789,286 -1112,413 -322,127 -548,-67 -549,-68zm291 -274c0,0 68,47 111,78 43,32 82,27 68,38 -15,11 -52,7 -104,-32 -52,-39 -75,-60 -75,-84zm45 144c0,0 60,51 102,71 42,20 -38,10 -69,-13 -31,-23 -37,-43 -33,-58z"/>
   <path class="fil12" d="M2709 1843c0,0 -67,10 -75,39 -7,29 1,126 1,126 0,0 -276,119 -371,250 -94,130 -100,317 -130,482 -29,166 -53,523 17,618 69,94 186,133 236,126 51,-6 74,-35 93,10 18,44 40,145 40,145 0,0 212,-26 450,-98 238,-71 507,-160 507,-160l351 -74 -214 -379c0,0 -60,-454 -74,-527 -15,-73 -54,-179 -144,-247 -90,-69 -273,-129 -273,-129 0,0 12,-62 -20,-93 -33,-31 -74,-26 -74,-26 0,0 -51,-88 -320,-63z"/>
   <path class="fil1" d="M2709 1843c0,0 -67,10 -75,39 -7,29 1,126 1,126 0,0 -276,119 -371,250 -94,130 -100,317 -130,482 -3,21 -7,45 -10,71l23 17c0,0 24,-287 121,-406 96,-119 133,-128 133,-128 0,0 61,-110 135,-151 75,-41 167,-87 167,-87 0,0 -26,-128 51,-122 76,5 171,-82 171,-83 -48,-11 -117,-17 -216,-8zm894 1006c-17,-133 -53,-394 -63,-448 -15,-73 -54,-179 -144,-247 -90,-69 -273,-129 -273,-129 0,0 12,-62 -20,-93 -33,-31 -74,-26 -74,-26 0,0 -21,-35 -104,-55 1,1 88,88 109,131 21,42 27,86 30,92 4,6 319,121 388,250 69,130 128,548 128,548 0,0 9,-9 23,-23z"/>
   <path class="fil13" d="M2110 3207c7,66 19,121 41,151 69,94 186,133 236,126 51,-6 74,-35 93,10 18,44 40,145 40,145 0,0 212,-26 450,-98 238,-71 507,-160 507,-160l214 -45c0,0 -88,-198 -102,-295 -13,-98 -293,-15 -293,-15l-47 36c0,0 -78,1 -72,0 6,-1 -19,59 -71,77 -51,19 -60,23 -60,23 0,0 -281,105 -528,145 -248,39 -368,6 -392,-78 -5,-20 -11,-26 -16,-22z"/>
   <path class="fil2" d="M2609 1422c0,0 -114,36 -63,124 51,87 141,75 151,102 9,27 14,263 14,263 0,0 66,50 176,45 110,-4 147,-31 147,-31 0,0 -29,-102 -26,-109 2,-6 50,17 129,-55 78,-72 63,-166 70,-256 6,-90 8,-260 8,-260 0,0 -77,-320 -378,-250 -301,70 -254,276 -228,427z"/>
   <path class="fil1" d="M2609 1422c0,0 -114,36 -63,124 51,87 141,75 151,102 9,27 14,263 14,263 0,0 65,50 174,46 -39,-30 -95,-84 -109,-167 -25,-138 -24,-167 -41,-168 -18,-1 0,-35 -68,-145 -18,-28 -38,-49 -59,-63l1 8z"/>
   <path class="fil1" d="M3035 1814c22,-2 57,-12 102,-53 78,-72 63,-166 70,-256 6,-90 8,-260 8,-260 0,0 -24,-98 -96,-174l-321 114c0,27 31,180 59,188 28,7 65,-19 93,-10 29,9 33,69 35,80 2,11 23,92 0,100 -24,7 -26,22 1,32 26,11 46,-6 48,-10 3,-3 18,-36 10,-64 -9,-28 -27,-137 -9,-139 18,-2 58,1 58,1l60 11c0,0 4,51 8,139 5,87 -2,177 -75,233 -72,55 -103,53 -103,53 0,0 20,6 52,15zm-195 -291c4,0 88,-12 100,-18 12,-5 -14,53 -51,53 -37,0 -49,-35 -49,-35z"/>
   <path class="fil5" d="M2574 1056c0,0 20,-137 215,-174 195,-37 308,116 367,123 59,8 143,-19 149,60 6,80 16,118 -69,174 -85,57 -192,76 -249,43 -57,-34 -110,-68 -149,-63 -38,5 -57,57 -55,102 2,44 33,59 -9,100 -41,40 -12,109 -37,104 -26,-5 -38,-73 -90,-92 -51,-18 -84,14 -84,14 0,0 -114,-147 -86,-265 29,-119 97,-126 97,-126z"/>
   <path class="fil6" d="M3283 1020c12,9 21,23 22,45 6,80 16,118 -69,174 -85,57 -192,76 -249,43 -57,-34 -110,-68 -149,-63 -38,5 -57,57 -55,102 2,44 33,59 -9,100 -41,40 -12,109 -37,104 -26,-5 -38,-73 -90,-92 -51,-18 -84,14 -84,14 0,0 -114,-147 -86,-265 17,-70 48,-101 70,-115 50,-4 97,18 114,-2 22,-25 75,-65 75,-65 0,0 43,-29 122,-17 80,12 168,50 135,56 -33,6 -68,-6 -87,22 -19,28 125,78 258,52 96,-19 117,-62 119,-93zm-611 100c0,0 -66,42 -70,114 -3,73 19,92 32,82 13,-10 -9,-23 13,-82 21,-59 37,-61 37,-61 0,0 -22,32 -5,58 17,26 29,-40 75,-65 45,-25 46,-25 46,-25 0,0 -85,-58 -106,-40 -22,19 -22,19 -22,19z"/>
   <path class="fil5" d="M4356 5714c0,0 -23,200 -34,248 -11,49 -14,78 3,90 17,12 281,80 486,121 205,40 316,67 335,43 19,-25 40,-95 26,-103 -14,-8 -173,-71 -277,-147 -104,-76 -217,-204 -217,-204 0,0 -97,54 -181,28 -84,-27 -141,-76 -141,-76z"/>
   <path class="fil6" d="M4337 5869c-6,40 -11,76 -15,93 -11,49 -14,78 3,90 17,12 281,80 486,121 205,40 316,67 335,43 19,-25 40,-95 26,-103 -2,-1 -8,-4 -16,-7 -359,32 -645,-113 -819,-237z"/>
   <path class="fil14" d="M4356 5714c0,0 48,62 141,76 92,13 168,-32 168,-32l-26 -123 -272 30c0,0 -24,9 -11,49z"/>
   <path class="fil2 str0" d="M3309 2824c0,0 -36,43 -63,69 -28,26 -77,79 -77,79l34 204c0,0 218,18 248,11 30,-7 68,-58 66,-76 -2,-19 -5,-47 -2,-55 3,-7 -8,-50 -8,-81 -1,-31 -16,-46 -2,-66 14,-21 3,-38 -17,-40 -19,-2 -85,-6 -85,-6 0,0 -34,-41 -94,-39z"/>
   <path class="fil8" d="M3577 2719l286 -27c0,0 67,-16 79,30 13,45 15,144 11,215 -5,70 -28,171 -106,201 -78,29 -197,18 -245,-68 -47,-86 -45,-313 -43,-319 2,-7 4,-31 18,-32z"/>
   <path class="fil0" d="M3937 2710c2,3 4,7 5,12 13,45 15,144 11,215 -3,39 -11,88 -32,129 -165,-19 -219,-171 -237,-292 43,6 126,14 171,-5 47,-20 76,-37 82,-59z"/>
   <path class="fil13" d="M2519 2666l20 -128c0,0 169,267 327,341 157,74 377,-8 383,-2 6,6 -80,95 -80,95 0,0 -94,33 -139,24 -44,-8 -26,-35 -107,-18 -82,17 -356,68 -356,68l-64 -4 16 -376zm337 -581c0,0 -88,-14 -76,-5 13,8 43,68 159,73 116,5 173,-103 173,-103 0,0 -154,56 -256,35zm24 434c0,0 118,162 243,160 125,-1 157,-118 157,-118 0,0 -122,66 -400,-42z"/>
   <path class="fil4" d="M2790 865c-5,3 -16,5 -24,5 -8,0 -16,2 -17,4 -2,2 -11,5 -20,7 -19,3 -71,28 -90,43 -35,28 -49,47 -60,84 -7,21 -15,39 -20,42 -21,11 -61,46 -71,62 -27,39 -38,96 -26,132 2,8 7,27 12,43 11,43 25,77 42,103 12,19 18,25 28,25 7,0 11,-3 11,-7 0,-4 -2,-7 -4,-7 -2,0 -8,-10 -12,-22 -5,-13 -10,-27 -12,-32 -12,-30 -23,-71 -32,-121 -5,-23 -5,-32 2,-55 10,-34 20,-54 30,-58 4,-1 16,-8 25,-14 16,-11 24,-12 54,-12 19,1 41,3 49,6l14 6 -31 29c-41,39 -60,75 -45,90 11,11 18,6 18,-9 0,-13 5,-20 29,-43 16,-16 39,-33 52,-39 26,-12 28,-22 7,-37 -7,-6 -13,-14 -13,-17 0,-25 93,-91 128,-91 8,0 10,-2 8,-7 -3,-10 -45,-9 -70,2 -32,12 -80,49 -88,68 -8,16 -10,16 -25,14 -9,-1 -22,-3 -29,-3 -12,0 -13,-2 -13,-14 0,-13 5,-29 20,-58 7,-15 51,-45 92,-62 91,-38 206,-33 291,11 15,8 47,29 70,47 60,45 74,51 128,51 53,0 70,-4 70,-16 0,-8 -6,-9 -50,-11 -60,-3 -72,-8 -132,-54 -68,-53 -93,-65 -169,-84 -25,-6 -113,-7 -127,-1l0 0zm785 1908c25,13 67,22 155,21 113,0 162,-32 169,-44 7,-12 -182,29 -255,11 -72,-17 -15,-31 -14,-31l2 -1c5,0 11,-1 20,-2 60,-6 206,-30 211,-35 10,-10 -76,-11 -108,-1 -7,2 -42,5 -80,7l-67 3 -2 -18c-6,-47 -22,-146 -31,-193 -2,-11 -6,-34 -9,-50 -3,-16 -9,-41 -13,-56 -4,-15 -8,-33 -11,-40 -9,-34 -26,-73 -48,-107 -39,-61 -39,-61 -126,-112 -47,-27 -134,-72 -139,-72 -2,0 -17,-7 -34,-15 -17,-7 -37,-15 -45,-16 -7,-2 -14,-5 -16,-7 -4,-7 -27,-4 -36,5l0 0c-11,10 -45,29 -68,37 -27,10 -60,15 -119,18 -55,2 -67,0 -110,-16 -20,-7 -27,-5 -27,7 0,13 13,22 47,33 28,9 39,10 101,8 98,-3 132,-12 175,-47 11,-9 24,-17 29,-17 11,0 31,8 69,26 75,35 91,42 107,53 10,6 27,16 39,22 55,31 95,60 108,79 8,11 14,22 14,23 0,2 5,11 12,19 6,8 11,16 11,18 0,2 5,11 9,23 11,25 24,65 24,76 0,5 2,11 4,13 2,3 7,20 10,40 3,19 7,46 10,59 10,60 13,76 20,127 4,29 9,60 10,69 1,5 1,9 1,13 -29,1 -29,44 -27,71 -6,-1 -17,-1 -36,-1 -27,1 -46,3 -55,8 -26,14 -26,13 -24,-48 2,-29 4,-105 5,-168 3,-130 -1,-164 -20,-167 -12,-2 -11,-9 -13,106 0,50 -2,146 -3,212 -2,67 -3,124 -3,127 0,5 -7,2 -17,-7 -25,-19 -47,-29 -65,-29 -17,0 -46,23 -67,54 -8,10 -29,35 -49,55 -31,32 -36,34 -57,37 -12,1 -37,5 -55,10 -71,16 -72,16 -85,10 -7,-3 -18,-8 -24,-9 -14,-3 -90,4 -122,11 -53,11 -64,13 -97,20 -19,4 -43,9 -54,12 -28,6 -90,19 -114,24 -4,1 -9,2 -14,3l-39 -496c2,-17 4,-30 5,-35 2,-9 1,-13 -5,-15 -22,-9 -25,3 -49,149 -7,39 -19,115 -23,140 -17,90 -28,177 -32,229 -2,26 -6,50 -8,52 -3,2 -11,5 -19,6 -10,1 -14,4 -15,12 -1,9 1,10 20,10 12,0 21,3 21,6 0,3 3,3 8,1 8,-3 50,-11 111,-21 43,-6 119,-21 167,-32 11,-2 42,-8 70,-14 29,-5 59,-12 68,-14 9,-2 39,-7 67,-10 45,-5 55,-4 76,2 22,7 28,7 47,1 73,-21 103,-26 104,-15 0,13 9,77 13,99 2,12 6,35 9,49 2,14 6,28 7,33 3,6 -7,13 -47,32l-49 24 -8 -11c-5,-5 -12,-23 -17,-38 -4,-16 -9,-33 -12,-39 -2,-7 -4,-21 -4,-34 0,-24 -4,-30 -16,-25 -5,2 -7,10 -7,35 0,17 2,36 4,42 15,39 22,54 30,66 4,7 8,15 6,18 -2,6 -77,46 -84,46 -1,0 -14,5 -27,11 -14,6 -38,16 -53,21 -15,6 -32,12 -37,14 -10,5 -62,22 -115,39l0 0 0 0 0 0 0 0c-56,18 -112,36 -116,36 -4,0 -9,2 -11,4 0,0 0,1 0,1 -11,3 -22,5 -33,8 -9,1 -20,2 -35,4 -13,2 -20,4 -23,7 -89,15 -200,29 -200,29 -57,-19 -118,-59 -149,-99 -25,-34 -31,-56 -43,-169 -10,-91 11,-418 41,-640 4,-35 17,-102 21,-114 1,-6 7,-24 11,-39 5,-16 17,-47 29,-71 20,-41 22,-43 42,-48 11,-3 27,-5 35,-3 8,2 31,5 50,8 19,2 42,9 51,14 19,11 19,11 19,-2 0,-20 -17,-30 -87,-50 -7,-2 -21,-4 -31,-4 -9,0 -17,-2 -17,-5 0,-14 137,-116 157,-116 4,0 13,-5 18,-10 6,-6 43,-27 84,-47 55,-27 76,-36 84,-34 12,4 12,3 9,-24 -9,-93 -9,-111 1,-124 6,-7 17,-15 24,-19 12,-6 15,-6 19,0 5,5 5,9 1,16 -11,17 -7,26 19,45 40,29 62,37 123,44 86,9 159,-2 220,-34 10,-5 47,12 50,24 3,11 15,12 16,1 2,-27 -6,-39 -35,-54 -13,-7 -24,-8 -39,-7 -17,2 -20,1 -20,-6 0,-5 -2,-10 -5,-11 -2,-2 -4,-15 -4,-30l0 -27 22 -4c68,-9 115,-48 149,-124 21,-44 24,-83 28,-273 1,-93 4,-168 6,-168 2,0 16,-12 31,-26 16,-14 30,-26 33,-26 7,0 26,-27 32,-47 7,-20 8,-80 1,-93 -2,-4 -9,-9 -15,-9 -11,0 -11,1 -11,53l0 -1c1,54 -6,83 -17,83 -4,0 -12,7 -20,15 -12,12 -28,21 -65,36 -5,2 -14,6 -21,9 -11,5 -44,13 -98,25 -15,2 -32,4 -37,2 -43,-10 -57,-15 -99,-37 -71,-37 -92,-42 -114,-27 -12,8 -3,19 14,19 15,0 74,27 102,47 7,5 14,9 17,9 2,0 9,3 15,6 46,24 98,22 185,-9 19,-6 36,-11 37,-9 1,0 0,27 -3,57 -2,30 -6,106 -7,169 -2,63 -5,124 -8,135 -12,54 -52,114 -88,131 -9,4 -22,10 -29,14 -9,4 -32,7 -71,7l-2 0c-1,-1 -1,-2 -3,0l-9 0c-29,-4 -115,-29 -134,-35 -24,-8 17,50 76,88 40,26 71,32 85,35 5,18 11,35 14,35 9,0 3,8 -9,13 -18,7 -96,20 -122,20 -26,0 -103,-14 -110,-19 -2,-3 -7,-5 -10,-5 -3,0 -14,-5 -25,-12l-18 -12 0 -96c0,-107 -8,-156 -24,-161 -14,-5 -20,2 -16,18 3,15 10,76 15,139 2,34 2,36 -7,36 -13,0 -50,20 -62,33 -9,10 -9,16 -7,72l3 60 -25 11c-13,6 -55,27 -94,46 -68,33 -71,34 -114,36 -120,7 -239,19 -275,28 -16,4 -37,10 -46,12 -29,7 -74,33 -95,53 -31,32 -40,55 -40,106 0,23 2,49 4,57 2,8 8,27 13,42 4,16 12,34 16,41 5,6 9,14 9,17 0,3 3,5 7,5 8,0 10,-18 3,-26 -7,-6 -16,-65 -18,-113 -2,-52 4,-73 32,-102 27,-27 61,-42 139,-61 21,-5 75,-11 166,-19 26,-2 49,-5 52,-7 3,-1 8,-1 10,0 3,2 -3,9 -15,18 -70,49 -120,106 -153,173 -12,26 -23,51 -23,55 0,4 -2,8 -4,10 -3,1 -5,8 -7,15 -1,7 -6,27 -10,46 -20,82 -43,294 -53,479 -4,70 -7,61 -35,-112 -13,-77 -24,-134 -32,-170 -5,-21 -8,-26 -16,-27 -6,-1 -12,2 -13,6 -3,6 4,71 16,147 3,14 8,47 12,72 14,90 32,198 44,275 9,54 14,91 19,135 3,26 6,50 7,54 4,8 10,44 19,109 8,54 12,75 20,121 19,96 24,128 45,268 13,86 15,100 35,198 1,10 9,38 16,62 7,25 13,50 15,58 1,7 4,14 6,15 3,2 4,5 4,9 0,13 29,67 47,88 20,21 68,49 88,49 10,0 14,17 22,73 3,22 7,39 17,69 16,47 62,74 135,80l27 3 -1 17c0,9 -2,34 -4,56 -3,22 -7,62 -9,89 -8,87 -14,141 -16,163 -4,28 -12,120 -18,186 -6,80 -11,137 -20,240 -10,121 -14,172 -20,254 -3,37 -6,77 -8,90 -2,13 -5,48 -8,77 -2,29 -6,70 -8,91 -2,20 -6,63 -9,95 -3,33 -6,67 -8,77 -8,56 -18,252 -14,271 4,16 34,34 58,34 41,0 71,-25 71,-59 0,-10 2,-35 4,-55 3,-20 7,-65 10,-98 3,-33 7,-78 9,-100 2,-22 7,-73 11,-114 4,-41 10,-95 13,-121 3,-26 6,-63 9,-84 1,-20 7,-70 11,-111 14,-137 16,-154 21,-208 3,-29 7,-72 10,-95 7,-66 13,-129 15,-154 1,-13 5,-59 10,-102 4,-44 10,-101 12,-128 3,-27 7,-67 9,-89 2,-22 7,-77 11,-124 4,-47 8,-87 9,-88 1,-2 193,-3 426,-4 232,-1 444,-3 469,-5l47 -3 3 36c3,33 11,98 22,170 11,69 27,185 31,216 1,10 4,29 6,42 3,13 8,48 12,77 4,29 8,61 9,70 2,9 5,30 7,46 15,102 20,140 24,163 2,14 5,34 7,45 6,45 18,128 25,176 2,16 8,53 12,82 4,29 9,67 12,84 6,44 12,83 20,144 5,29 10,67 12,82 7,43 12,82 18,135 4,25 8,53 10,61 3,7 5,22 5,32 0,38 16,71 40,84 16,8 87,9 104,0 13,-6 19,-21 8,-21 -4,0 -8,-4 -10,-9 -4,-8 -14,-65 -21,-115 -3,-15 -6,-35 -7,-44 -2,-9 -6,-37 -10,-63 -3,-26 -7,-55 -9,-65 -1,-10 -5,-32 -7,-49 -4,-28 -12,-89 -23,-163 -2,-17 -7,-44 -9,-60 -3,-17 -8,-55 -12,-84 -4,-30 -9,-66 -12,-82 -10,-70 -14,-91 -21,-142 -4,-29 -9,-66 -11,-81 -5,-31 -18,-120 -24,-163 -2,-16 -7,-42 -9,-58 -8,-56 -19,-133 -24,-159 -2,-14 -5,-39 -8,-56 -2,-16 -5,-35 -7,-41 -1,-7 -5,-29 -7,-49 -3,-21 -7,-50 -9,-66 -26,-177 -26,-176 -30,-182 -2,-3 5,-7 19,-11 47,-12 62,-23 78,-54 8,-16 11,-20 11,-12 0,5 2,15 5,21 2,6 7,23 12,38 10,37 26,84 46,140 10,26 21,59 26,74 5,16 11,33 14,38 2,5 6,17 9,28 8,26 14,46 18,63 11,35 40,151 61,237 5,22 11,46 14,54 3,8 5,19 5,26 0,7 2,13 4,15 2,1 5,11 7,20 1,10 5,34 10,55 4,20 9,45 10,53 1,9 4,21 6,26 2,5 8,32 14,61 5,27 12,58 14,67 8,32 26,112 32,144 15,79 20,90 48,104 9,4 24,8 35,8 11,0 22,1 26,2 7,3 7,34 0,47 -3,5 -6,38 -8,72 -3,73 -11,119 -30,182 -14,43 -2,65 40,84 34,15 38,16 83,30 23,7 47,14 53,17 44,14 201,46 326,65 38,6 70,11 109,17 23,4 111,18 148,23 19,3 29,-6 16,-14 -6,-3 -7,-5 -3,-8 4,-2 5,-7 4,-11 -4,-10 -18,-10 -18,-1 0,9 -8,14 -15,8 -3,-2 -12,-5 -19,-7 -8,-1 -30,-6 -49,-10 -40,-8 -66,-14 -105,-20 -34,-6 -104,-19 -133,-25 -11,-2 -34,-6 -51,-8 -28,-5 -51,-9 -89,-19 -8,-3 -32,-8 -51,-12 -19,-4 -40,-10 -46,-11 -7,-2 -25,-8 -40,-12 -45,-13 -82,-26 -109,-38l-24 -11 3 -27c2,-14 4,-29 7,-31 5,-7 13,-64 23,-172 3,-32 7,-59 8,-59 2,0 19,11 38,23 66,41 91,49 144,46 36,-3 59,-9 108,-29 5,-2 12,4 22,18 15,21 79,81 169,159 75,65 154,110 263,151 52,19 50,18 47,30 -2,5 -6,20 -8,33 -3,14 -9,27 -14,32 -8,6 -10,10 -5,16 19,32 61,-27 61,-86 0,-21 -1,-26 -12,-34 -7,-5 -18,-11 -24,-13 -7,-1 -14,-4 -17,-6 -2,-2 -11,-4 -18,-6 -19,-5 -98,-42 -145,-68 -24,-14 -82,-57 -112,-84 -13,-12 -36,-32 -51,-44 -44,-37 -68,-59 -90,-82 -20,-20 -47,-59 -53,-76 -5,-10 -18,-15 -22,-7 -3,3 -3,12 -2,18 3,15 1,16 -45,33 -22,8 -40,11 -65,11 -31,0 -39,-2 -72,-19 -43,-21 -100,-58 -98,-63 1,-2 20,-4 43,-6 40,-3 52,-6 93,-20 24,-8 28,-14 20,-23 -6,-5 -16,-5 -56,-1 -27,3 -75,6 -107,7 -57,2 -60,2 -72,-8 -7,-7 -14,-21 -19,-39 -7,-29 -5,-34 14,-35 11,0 78,-8 117,-14 112,-15 149,-20 186,-22l42 -2 6 13c3,7 5,16 5,20 0,10 13,28 19,28 7,0 3,-84 -7,-142 -4,-25 -9,-60 -12,-76 -2,-17 -5,-38 -7,-47 -1,-9 -5,-38 -9,-65 -4,-27 -9,-60 -12,-72 -2,-13 -9,-60 -15,-105 -7,-45 -13,-89 -15,-98 -1,-9 -4,-24 -5,-33 -1,-8 -4,-27 -6,-41 -5,-27 -13,-87 -19,-142 -4,-34 -8,-68 -21,-161 -4,-29 -9,-68 -12,-84 -2,-18 -6,-44 -9,-59 -2,-14 -5,-28 -5,-31 0,-5 18,17 35,44 7,11 47,66 88,121 106,142 118,158 159,220 40,60 59,77 91,81l19 3 -2 27c-2,15 -5,39 -6,54 -6,56 19,73 138,95 59,11 166,25 244,32 131,12 399,14 406,3 7,-11 -12,-14 -85,-18 -232,-12 -371,-22 -449,-35 -9,-1 -28,-4 -42,-6 -88,-13 -136,-23 -161,-35 -17,-9 -18,-10 -18,-35 0,-14 2,-42 5,-62l4 -36 48 -26 49 -25 26 5c14,3 34,7 43,9 41,11 86,0 130,-29l28 -18 19 17c21,18 92,65 137,91 77,42 135,67 198,83 11,3 27,7 35,10 8,2 24,5 38,7 28,3 32,9 36,56 4,40 4,41 2,48 -1,5 2,7 8,7 24,0 27,-108 2,-130 -5,-4 -24,-11 -43,-14 -68,-13 -105,-24 -155,-44 -20,-9 -39,-17 -42,-19 -2,-2 -12,-8 -21,-12 -9,-5 -28,-16 -44,-25 -26,-14 -89,-54 -98,-61 -2,-3 -19,-15 -37,-28 -25,-20 -33,-23 -39,-19 -5,4 -13,8 -21,12l-45 -71c3,-5 5,-9 5,-11 0,-8 -13,-33 -84,-164 -7,-13 -21,-40 -33,-61 -11,-20 -25,-48 -32,-60 -12,-23 -31,-59 -77,-145 -12,-23 -26,-48 -30,-56 -8,-13 -23,-40 -55,-100 -17,-30 -30,-54 -46,-83 -5,-9 -17,-29 -25,-45 -8,-15 -26,-48 -40,-72 -13,-24 -28,-52 -33,-60 -19,-37 -50,-84 -55,-84 -3,0 -7,2 -10,5 -5,5 2,22 27,72 42,81 101,195 111,214 7,12 24,44 37,70 14,25 31,56 38,70 27,48 41,75 61,114 12,21 26,48 32,58 6,10 20,36 31,58 11,22 26,49 33,61 28,50 53,98 51,100 0,1 -38,25 -83,55 -44,29 -84,55 -86,57 -9,7 -23,16 -30,19 -4,2 -9,5 -12,7 -10,8 -54,36 -57,36 -1,0 -6,3 -10,7 -7,7 -12,2 -55,-59 -26,-37 -61,-83 -77,-104l-24 -32 0 0c-1,-1 -22,-46 -66,-148 -37,-84 -142,-372 -180,-475 -4,-13 -9,-25 -13,-37l-1 0c-3,-9 -7,-17 -10,-24 -26,-56 -57,-85 -135,-126 -23,-13 -47,-27 -53,-32 -15,-14 -66,-17 -100,-6 -25,8 -82,28 -99,35 -5,2 -17,7 -25,9 -20,8 -38,15 -67,28 -12,5 -23,10 -24,10 -7,0 -145,68 -279,137 -7,3 -15,7 -22,11l0 0 -1 0c-26,13 -50,24 -60,27 -16,5 -21,9 -22,16l-407 211c-117,14 -136,13 -182,2 -111,-25 -182,-62 -233,-119 -30,-34 -64,-97 -91,-167 -7,-19 -19,-64 -32,-132 -6,-29 -19,-121 -19,-132 0,-7 5,-8 28,-8 27,0 40,-3 119,-26 66,-19 141,-40 179,-48 9,-2 30,-7 46,-12 17,-3 52,-12 77,-19 26,-7 54,-14 63,-16 9,-2 29,-7 44,-12 16,-4 35,-9 44,-12 69,-19 116,-33 149,-44 57,-19 123,-44 137,-52 7,-4 39,-12 70,-18 31,-7 64,-14 73,-16 9,-2 30,-7 46,-11 17,-4 40,-10 52,-12 11,-3 28,-7 37,-9 95,-23 138,-32 233,-47 118,-19 212,-26 255,-19l33 6 0 62c0,41 2,63 5,66 8,4 14,-7 16,-31 5,-40 13,-84 16,-84 2,0 14,7 27,14 40,23 85,72 146,159 32,44 59,82 60,83 2,2 15,18 31,38 34,42 60,69 66,69 10,0 10,-8 -1,-25 -7,-9 -12,-19 -12,-21 0,-2 -2,-5 -4,-6 -2,-1 -14,-20 -28,-43 -14,-23 -26,-43 -28,-44 -2,-2 -12,-18 -24,-35 -82,-129 -129,-182 -196,-218 -40,-22 -121,-39 -167,-35 -106,10 -151,15 -242,32 -12,2 -34,6 -51,9l-3 0 -73 -115c16,1 32,0 44,-2 36,-5 87,-29 103,-47 60,-68 85,-170 73,-289 -6,-58 -13,-72 -29,-56 -7,8 -8,13 -2,66 16,182 -55,301 -180,300 -49,0 -100,-20 -130,-49 -14,-15 -18,-22 -30,-50 -8,-18 -16,-68 -20,-121 -4,-47 -6,-76 -8,-94 0,0 0,-28 -1,-52zm-77 138l0 0c0,0 -49,18 -56,39 -4,16 31,44 52,57 0,1 1,3 2,5 9,18 9,22 4,38 -5,16 -4,49 3,65 2,5 -3,13 -15,25 -32,31 -38,32 -159,32 -73,0 -110,-2 -115,-6 -8,-7 -17,-53 -26,-139l-6 -49 35 -35c19,-20 43,-47 53,-59 35,-47 49,-52 86,-34l0 0c26,13 28,20 6,24 -26,4 -33,9 -25,19 5,6 13,6 42,4 19,-1 39,-4 44,-6 6,-2 23,-7 39,-9 23,-5 30,-5 36,0 9,7 9,18 0,29zm339 966c0,0 -296,198 -353,282 -33,51 -52,85 -61,105 20,2 41,3 61,5 61,5 396,28 427,30 26,1 31,4 24,17 -4,5 -4,13 -2,21 2,7 8,29 12,48 4,20 9,40 11,45 2,5 10,27 16,49 7,21 15,43 17,48 2,6 7,20 12,33 4,13 10,28 12,34 20,50 61,166 69,199 2,7 8,26 12,42 4,15 10,35 12,44 2,9 7,30 11,47 5,16 10,38 12,47 10,41 24,96 37,148 2,9 8,34 12,56 4,22 9,46 12,54 2,8 4,20 4,27 0,6 2,16 4,22 3,6 8,32 12,58 5,25 10,50 12,55 2,6 5,17 7,26 1,9 6,30 9,47 4,16 9,39 11,49 3,25 9,27 54,21 18,-3 42,-6 54,-7 12,-2 34,-5 49,-7 62,-9 137,-20 165,-24 44,-5 48,-7 44,-27 -1,-10 -5,-24 -7,-33 -2,-9 -4,-23 -4,-30 0,-8 -2,-20 -4,-28 -5,-16 -23,-122 -36,-215 -1,-10 -5,-37 -9,-60 -4,-23 -8,-50 -9,-61 -6,-38 -12,-76 -19,-121 -4,-25 -9,-62 -12,-81 -2,-19 -5,-44 -7,-54 -1,-10 -5,-48 -9,-84 -4,-35 -9,-72 -12,-82 -2,-9 -4,-23 -4,-32 0,-8 -2,-23 -4,-32 -3,-9 -8,-42 -13,-72 -4,-31 -8,-61 -9,-68 -2,-6 -5,-23 -7,-37 -6,-42 -23,-140 -27,-166 -3,-13 -8,-42 -12,-65 -13,-66 -35,-162 -47,-195 -6,-17 -8,-19 -20,-17 -7,0 -14,3 -17,6 -3,2 -7,4 -10,4 -4,0 -27,10 -51,21 -27,13 -46,20 -49,17 -7,-7 17,-35 43,-53 23,-15 32,-19 66,-32 13,-4 13,-4 5,-17 -15,-24 -32,-40 -70,-65 -22,-14 -40,-25 -41,-25 -1,0 -13,-6 -26,-14 -22,-14 -26,-15 -55,-12 -17,1 -49,9 -71,17 -22,8 -49,18 -60,21 -21,8 -33,12 -66,27 -10,4 -18,8 -20,8 -1,0 -16,6 -33,14 -17,7 -32,14 -33,14 -1,0 -7,3 -19,8zm-125 -713l76 126 -6 2c-30,8 -49,12 -84,20 -32,8 -56,14 -84,22 -23,6 -92,23 -105,26 -11,2 -12,1 -15,-16 -1,-10 -6,-36 -10,-59 -5,-29 -6,-44 -2,-47 6,-6 6,-19 -1,-38 -6,-15 -5,-16 11,-30 10,-8 18,-17 18,-21 0,-4 4,-13 10,-21 8,-11 9,-15 5,-25 -7,-15 -8,-43 -1,-47 2,-1 4,-11 4,-20l0 -18 20 3c17,2 20,4 24,17 10,31 26,61 43,77 16,14 27,21 67,42 6,3 17,5 30,7zm-560 163c-85,43 -326,165 -432,191 -88,22 -173,22 -210,20 5,16 11,36 18,61 7,22 21,30 42,24 20,-7 105,-31 160,-46 23,-7 48,-14 56,-16 26,-7 32,-9 111,-28 80,-19 86,-20 112,-28 8,-2 35,-9 61,-16 25,-6 53,-14 60,-16 8,-2 27,-8 42,-12 15,-4 35,-9 42,-11 19,-5 100,-32 112,-37 5,-3 18,-8 30,-12 12,-5 24,-10 28,-11 4,-2 19,-7 35,-12 47,-15 44,-9 35,-68 -6,-41 -12,-49 -29,-43 -15,6 -32,11 -134,36 -48,12 -94,24 -103,26 -24,6 -34,6 -36,-2zm-686 184l0 0 0 0c-2,-5 -3,-10 -2,-14 -3,-9 -8,-17 -21,-14 -23,4 -65,5 -66,5 -17,4 -44,4 -64,-2 -53,-16 -88,-35 -135,-68l-10 -8 2 24c1,20 7,49 22,130 9,43 13,65 20,116 5,28 11,65 13,82 3,16 7,41 9,55 7,48 18,114 23,133 2,10 6,29 9,42 11,53 41,149 54,176 11,20 40,50 58,59 9,4 31,11 50,14 32,6 40,6 111,-5 68,-9 146,-18 170,-18 44,-1 46,-5 14,-25 -69,-43 -114,-100 -160,-203 -30,-68 -53,-184 -63,-322 -3,-29 -7,-62 -10,-72 -2,-10 -7,-29 -9,-42 -3,-13 -9,-29 -12,-36 -2,-2 -3,-4 -3,-7zm460 -1897c-7,7 -2,24 10,32 21,15 38,20 63,20 20,0 27,-2 35,-10 9,-10 10,-13 4,-17 -5,-4 -8,-4 -10,-1 -8,12 -67,-2 -82,-21 -6,-7 -15,-8 -20,-3l0 0zm-335 -145c-7,7 -2,21 10,28 17,11 19,16 14,25 -6,13 -5,14 11,13 13,-1 16,1 28,24 14,26 23,32 26,18 3,-15 -28,-70 -54,-93 -14,-13 -30,-20 -35,-15l0 0zm511 -55c-10,6 -12,21 -4,32 13,20 34,11 34,-15 0,-18 -16,-27 -30,-17zm-198 0c-12,4 -18,16 -18,34 0,15 2,19 11,23 28,13 50,-10 38,-39 -7,-16 -18,-22 -31,-18l0 0zm105 -16c-2,5 2,31 12,70 3,11 6,32 8,47 2,28 2,29 -15,43 -19,17 -21,23 -5,27 14,4 36,-8 46,-23 9,-14 9,-45 -1,-87 -3,-11 -7,-29 -9,-39 -7,-33 -14,-44 -24,-44 -5,0 -11,2 -12,6l0 0zm61 -44c-19,21 3,30 46,18 16,-4 24,-4 30,-1 8,6 19,4 19,-4 0,-2 -5,-8 -10,-13 -16,-13 -74,-13 -85,0l0 0zm-175 -1c-28,7 -45,20 -40,31 3,8 17,10 30,3 9,-5 36,-16 49,-21 4,-1 8,-5 7,-8 -4,-10 -20,-12 -46,-5l0 0zm-110 -82c-22,25 -25,50 -13,98 8,31 5,39 -17,55 -8,6 -13,13 -12,17 2,4 0,16 -4,26 -4,11 -7,26 -7,33 0,21 -14,14 -30,-16 -31,-58 -68,-84 -111,-77 -26,5 -42,15 -56,37 -16,25 -18,73 -4,101 20,39 95,91 127,88 20,-2 22,-11 5,-17 -37,-13 -86,-54 -99,-84 -22,-50 0,-94 46,-94 17,0 23,3 40,20 11,11 25,29 30,41 17,34 32,46 54,46 15,0 20,-7 23,-35 6,-53 9,-67 12,-67 2,0 11,-7 19,-16l15 -14 -4 -40c-5,-52 -4,-74 6,-87 14,-22 -3,-34 -20,-15l0 0zm-63 -85c-12,7 -32,36 -32,47 0,10 12,5 23,-10 6,-7 15,-16 22,-19 12,-5 15,-20 5,-23 -3,-2 -12,1 -18,5l0 0zm101 -110c-8,2 -26,10 -40,17 -22,11 -25,15 -27,28 -1,8 0,14 3,14 3,0 50,-21 81,-37 5,-3 15,-4 22,-4 16,0 18,-6 8,-17 -8,-8 -26,-8 -47,-1l0 0zm730 1795c2,35 5,78 7,95 3,31 3,32 -6,29 -31,-9 -34,-12 -42,-43l-7 -30 12 -13c14,-15 15,-32 0,-46 -10,-8 -15,-10 -44,-9 -18,1 -35,0 -36,-2 -6,-5 12,-26 30,-35 12,-7 26,-10 50,-10l33 0 3 64zm-630 1389c34,4 58,5 96,1 33,-3 55,-3 65,0 23,8 57,12 137,20 42,3 94,9 116,11 130,16 285,28 403,33 51,2 110,5 130,7 34,3 35,4 35,16 0,6 2,17 4,23 2,10 2,10 -7,6 -11,-6 -15,-3 -15,8 0,16 -27,46 -45,52 -98,29 -126,30 -737,30 -406,0 -544,-1 -562,-6 -57,-13 -74,-37 -93,-133 -7,-38 -6,-47 6,-43 7,2 56,-3 160,-16 48,-7 216,-18 242,-16 11,0 41,3 65,7l0 0zm2199 391c7,14 18,34 24,45l11 20 -38 20c-37,21 -51,27 -91,51 -12,6 -34,19 -49,27 -56,32 -100,51 -109,49 -10,-3 -43,-38 -52,-53 -4,-9 -4,-10 5,-10 5,0 31,-14 57,-31 26,-18 50,-33 52,-34 3,-2 31,-20 62,-41 32,-21 59,-39 60,-39 1,0 5,-3 9,-6 5,-4 14,-11 20,-16 7,-5 15,-10 18,-9 4,1 13,13 21,27l0 0zm-1320 -13c3,3 6,16 6,29 0,13 1,26 4,28 2,3 5,17 6,33 3,27 14,108 22,160 3,14 8,49 12,77 4,28 9,64 11,80 3,16 7,43 9,58 7,45 20,129 25,159 7,50 12,80 17,124 4,25 8,51 10,59 3,8 5,22 5,30 0,8 2,22 4,30 3,8 7,33 10,56 5,42 10,74 18,122 3,15 8,50 12,78 4,28 9,63 12,77 7,42 13,83 21,137 4,28 9,63 12,77 2,14 7,50 10,79 4,30 8,64 10,76l4 22 -16 0c-22,0 -46,-10 -49,-20 -2,-6 -6,-12 -9,-15 -3,-2 -7,-16 -9,-30 -1,-14 -3,-34 -5,-44 -7,-49 -16,-114 -18,-131 -1,-10 -5,-32 -7,-48 -5,-31 -16,-107 -24,-166 -2,-18 -7,-45 -8,-60 -3,-16 -8,-53 -13,-84 -4,-31 -9,-69 -12,-84 -2,-15 -6,-43 -8,-60 -2,-19 -8,-57 -12,-87 -4,-29 -9,-66 -11,-81 -16,-113 -21,-148 -24,-170 -9,-62 -14,-94 -21,-144 -4,-30 -9,-66 -12,-82 -2,-15 -6,-44 -8,-63 -3,-19 -6,-40 -8,-46 -1,-7 -5,-30 -7,-51 -7,-62 -13,-99 -16,-116l-3 -15 27 0c15,0 30,3 33,6l0 0zm-1101 44c-1,20 -4,47 -6,60 -3,12 -7,52 -9,88 -4,36 -8,85 -10,109 -3,25 -7,65 -9,89 -2,24 -5,53 -7,65 -2,23 -11,111 -25,273 -10,101 -20,217 -24,258 -6,53 -8,78 -14,151 -9,101 -14,153 -19,191 -1,21 -6,63 -8,96 -3,32 -8,71 -11,87 -4,22 -4,31 0,35 9,8 7,11 -15,21 -27,13 -30,13 -45,0l-12 -11 3 -49c10,-121 13,-165 21,-232 4,-40 10,-93 12,-117 2,-24 5,-55 7,-67 4,-39 12,-127 17,-184 2,-30 6,-73 8,-96 2,-23 6,-70 9,-104 2,-35 7,-87 10,-115 3,-28 5,-62 6,-76 7,-86 12,-154 17,-198 14,-151 17,-182 21,-245 2,-24 6,-47 8,-50 3,-3 12,-6 22,-6 9,0 21,-2 26,-4 5,-3 14,-4 19,-4 10,-1 10,1 8,35l0 0z"/>
   <path class="fil0" d="M4182 2116c-20,-235 -21,-381 -40,-506l-225 -15c0,0 119,257 -47,260 -167,2 -101,127 -148,193 -48,66 -212,47 -88,172 125,124 111,127 23,266 -88,140 99,266 99,266 0,0 39,23 6,-74 -33,-96 240,-173 155,-347 -84,-173 -32,-136 265,-215z"/>
  </g>
 </g>
</svg>
