<?xml version="1.0" encoding="UTF-8"?>
<!DOCTYPE svg PUBLIC "-//W3C//DTD SVG 1.1//EN" "http://www.w3.org/Graphics/SVG/1.1/DTD/svg11.dtd">
<!-- Creator: CorelDRAW Home & Student X7 -->
<svg xmlns="http://www.w3.org/2000/svg" xml:space="preserve" width="68.3674mm" height="68.3674mm" version="1.1" style="shape-rendering:geometricPrecision; text-rendering:geometricPrecision; image-rendering:optimizeQuality; fill-rule:evenodd; clip-rule:evenodd"
viewBox="0 0 6837 6837"
 xmlns:xlink="http://www.w3.org/1999/xlink">
 <defs>
  <style type="text/css">
   <![CDATA[
    .fil4 {fill:black}
    .fil6 {fill:#6885C2}
    .fil5 {fill:#8EB6EA}
    .fil8 {fill:#C14D2D}
    .fil11 {fill:#C66F7A}
    .fil3 {fill:#C9DCF5}
    .fil9 {fill:#ED98A7}
    .fil2 {fill:#EDB9A9}
    .fil10 {fill:#F4C2CB}
    .fil7 {fill:#FF7345}
    .fil1 {fill:#FFE1D7}
    .fil0 {fill:white}
   ]]>
  </style>
 </defs>
 <g id="Layer_x0020_1">
  <metadata id="CorelCorpID_0Corel-Layer"/>
  <rect class="fil0" width="6837" height="6837"/>
  <g id="_506891488">
   <path class="fil1" d="M3683 472c0,0 -814,-329 -1252,427 -437,756 -576,554 -1356,1094 -779,539 -812,1519 137,1996 950,476 260,1435 1714,1690 1453,255 1289,-1139 2457,-1364 1169,-224 401,-2161 -41,-2446 -442,-285 -386,-644 -599,-869 -214,-225 -313,236 -601,81 -289,-156 -83,-474 -459,-609z"/>
   <path class="fil2" d="M601 2529c-246,513 -72,1116 611,1460 950,476 260,1435 1714,1690 1453,255 1289,-1139 2457,-1364 838,-161 681,-1200 362,-1882 -85,188 -172,372 -233,483 -165,298 -331,185 -331,185 0,0 -357,-185 -463,-198 -106,-14 -959,354 -1111,397 -152,43 -258,-57 -258,-57 0,0 -1024,-783 -1151,-811 -127,-27 -245,87 -245,87 0,0 -410,344 -559,493 -149,149 -198,83 -264,83 -50,-1 -368,-373 -529,-566z"/>
   <polygon class="fil3" points="1291,889 3092,865 3004,4823 1253,4847 "/>
   <path class="fil4" d="M3090 809c-12,7 -74,8 -526,12 -724,6 -1260,13 -1305,16l-39 3 0 49c0,28 -2,226 -5,441 -5,391 -12,1024 -18,1660 -1,186 -6,657 -8,1048 -4,390 -8,745 -10,789 -4,60 -3,79 1,82 8,5 116,5 239,-1 81,-4 128,-4 198,1 72,4 99,4 127,0 50,-9 180,-10 183,-2 1,4 34,6 145,6 91,0 145,2 147,5 4,6 21,6 21,-1 0,-3 52,-5 169,-4 93,0 274,0 404,0l235 -1 18 -15 18 -15 2 -147c1,-80 4,-255 6,-388 3,-133 7,-350 9,-482 2,-132 5,-243 6,-247 2,-3 4,-143 6,-311 2,-276 2,-304 -5,-306 -4,-2 -9,-1 -12,1 -5,6 -14,316 -27,956 -12,631 -15,752 -18,827 -2,47 -6,87 -7,90 -3,4 -68,5 -234,5l-230 0 -229 0 -115 0 0 -1 -157 0 -82 0c-117,1 -213,0 -213,-1l-28 0 -3 5 -155 1c-135,1 -153,1 -153,-5l-29 3 0 2 -53 2c-28,2 -76,4 -104,4l-53 0 0 -152c0,-83 1,-151 3,-151l0 -43c-1,-8 -1,-18 -2,-30 -1,-47 3,-440 14,-1289 3,-187 6,-520 8,-740 11,-1226 15,-1612 16,-1616 2,-4 66,-6 211,-9 362,-5 1087,-12 1380,-12l282 0 -1 27c0,15 -2,143 -4,284l-4 257 12 0c7,0 14,-4 17,-8 2,-4 5,-105 6,-225 2,-352 2,-360 -6,-368 -11,-12 -33,-14 -48,-6l0 0z"/>
   <g>
    <path class="fil5" d="M3126 6196c0,0 -24,16 1,40 25,24 93,37 201,41 107,3 149,-31 199,-31 50,1 134,-20 141,-24 6,-3 70,-21 78,-48 8,-26 -6,-181 -8,-201 -2,-20 -22,-57 -30,-63 -8,-5 -400,187 -402,185 -2,-2 -180,101 -180,101z"/>
    <path class="fil6" d="M3527 6246c50,1 134,-20 141,-24 6,-3 70,-21 78,-48 6,-20 0,-112 -5,-165 -87,191 -214,237 -214,237z"/>
    <path class="fil3" d="M3126 6196c0,0 -24,16 1,40 18,17 58,29 118,35 4,-22 -38,-54 -16,-71 23,-19 150,-69 150,-69l-29 -56c-27,13 -44,21 -44,20 -2,-2 -180,101 -180,101z"/>
    <path class="fil5" d="M4680 5941l-74 51c0,0 -60,67 -81,88 -21,20 -51,48 -37,73 14,25 151,11 179,5 27,-6 146,-56 180,-98 35,-42 30,-48 54,-52 24,-4 57,-19 91,-52 35,-34 56,-59 56,-59 0,0 -67,-161 -96,-203 -29,-41 -65,-42 -65,-42l-207 289z"/>
    <path class="fil6" d="M4890 6011c3,-1 6,-2 11,-3 24,-4 57,-19 91,-52 35,-34 56,-59 56,-59 0,0 -43,-103 -75,-165 -3,23 -7,54 -13,94 -24,160 -69,184 -71,179 0,-1 1,1 1,6z"/>
    <path class="fil3" d="M4680 5941l-74 51c0,0 -60,67 -81,88 -21,20 -51,48 -37,73 13,23 129,13 169,6 -17,-16 -35,-31 -50,-36 -37,-11 64,-88 129,-140 40,-32 5,-49 -51,-49l-5 7z"/>
    <path class="fil2" d="M3475 4720c0,0 8,684 11,771 3,86 37,380 1,427 -36,47 -189,180 -189,180 0,0 59,51 122,35 63,-16 127,-12 186,-86 59,-74 108,-119 117,-122 8,-2 -4,-69 -2,-77 2,-8 10,-455 59,-704 49,-248 46,-385 46,-385l-351 -39z"/>
    <path class="fil1" d="M3475 4720c0,0 8,684 11,771 3,86 37,380 1,427 -36,47 -189,180 -189,180 0,0 21,18 52,30 145,-53 226,-187 253,-354 24,-150 29,-839 30,-1036l-158 -18z"/>
    <path class="fil2" d="M4205 4751c0,0 241,541 308,651 68,111 170,307 182,339 12,31 21,39 7,82 -15,43 -87,160 -87,160 0,0 71,40 168,-37 98,-76 112,-147 112,-186 1,-38 19,-107 19,-107 0,0 -35,-35 -69,-84 -35,-49 -114,-277 -114,-277 0,0 -126,-438 -139,-465 -13,-28 -46,-132 -46,-132l-341 56z"/>
    <path class="fil1" d="M4242 4833c70,155 220,486 271,569 68,111 170,307 182,339 12,31 21,39 7,82 -15,43 -87,160 -87,160 0,0 60,34 146,-20 23,-30 44,-61 48,-83 8,-53 -10,-161 -80,-265 -69,-104 -224,-600 -296,-701 -36,-51 -118,-72 -191,-81z"/>
    <path class="fil2" d="M3700 1213c0,0 -169,117 -244,165 -75,47 -317,204 -317,204 0,0 -79,48 -30,149 50,102 281,260 281,260l193 -204 -202 -118c0,0 267,-194 264,-193 -3,0 165,-92 55,-263zm725 1215c0,0 11,-50 48,-96 36,-45 128,-110 128,-110l170 154c0,0 23,13 45,-6 23,-20 396,-315 396,-315 0,0 46,-24 48,-75 1,-51 -3,-172 -1,-176 1,-4 34,-1 49,30 15,32 17,61 17,61 0,0 32,-49 51,-86 18,-37 14,-56 28,-54 14,1 27,21 28,26 2,6 13,-35 29,-40 15,-5 33,4 28,23 -6,19 -52,147 -52,147 0,0 68,-96 87,-105 19,-10 30,0 29,13 0,13 -39,73 -39,73 0,0 39,-40 51,-26 12,14 -2,47 -2,47 0,0 -73,107 -93,122 -20,15 -97,93 -97,93 0,0 -81,84 -125,153 -44,68 -42,67 -44,68 -1,2 -258,307 -320,317 -62,10 -112,-31 -181,-58 -68,-26 -278,-180 -278,-180z"/>
    <path class="fil1" d="M4552 2259c0,0 111,106 138,132 28,25 51,40 105,6 10,-6 19,-18 27,-32l-6 5c-22,19 -45,6 -45,6l-157 -142 -62 25zm230 386l-2 -13c0,0 67,32 134,-44 68,-76 310,-341 340,-387 31,-45 73,-82 79,-107 6,-25 -54,-45 -73,-114 1,-51 -3,-172 -1,-176 1,-4 34,-1 49,30 15,32 17,61 17,61 0,0 32,-49 51,-86 18,-37 14,-56 28,-54 14,1 27,21 28,26 2,6 13,-35 29,-40 15,-5 33,4 28,23 -6,19 -52,147 -52,147 0,0 68,-96 87,-105 19,-10 30,0 29,13 0,13 -39,73 -39,73 0,0 39,-40 51,-26 12,14 -2,47 -2,47 0,0 -73,107 -93,122 -20,15 -97,93 -97,93 0,0 -81,84 -125,153 -44,68 -42,67 -44,68 -1,2 -258,307 -320,317 -36,6 -68,-6 -102,-21z"/>
    <path class="fil1" d="M3700 1213c0,0 -169,117 -244,165 -75,47 -317,204 -317,204 0,0 -79,48 -30,149 9,18 23,38 41,58 11,-7 17,-13 15,-15 -8,-14 -16,-35 -16,-74 0,-40 39,-74 114,-116 74,-42 136,-80 216,-127 26,-15 65,-43 105,-72 56,-42 115,-88 145,-112 -6,-19 -16,-39 -29,-60z"/>
    <path class="fil7" d="M4031 1063c0,0 218,70 226,75 9,5 186,120 206,172 21,51 22,110 6,185 -16,75 -4,130 17,160 22,30 91,77 56,134 -35,57 -107,90 -47,138 59,49 73,86 79,123 6,36 -7,174 -287,168 -280,-6 -277,-253 -302,-420 -26,-167 -157,-227 -213,-233 -57,-5 -90,-12 -135,-61 -45,-50 11,-87 40,-120 30,-33 18,-92 8,-110 -11,-19 -62,-136 39,-213 101,-76 188,-53 307,2z"/>
    <path class="fil8" d="M4554 1991c12,21 17,40 20,59 6,36 -7,174 -287,168 -280,-6 -277,-253 -302,-420 -26,-167 -157,-227 -213,-233 -57,-5 -90,-12 -135,-61 -45,-50 11,-87 40,-120 7,-8 12,-16 14,-26 7,1 10,1 10,1 0,0 36,14 36,-49 0,-63 -4,-167 65,-189 69,-22 129,77 149,65 20,-11 118,-58 216,-4 97,54 81,59 81,68 0,9 -74,14 -108,49 -34,34 37,-25 110,-2 74,23 113,26 129,91 17,64 6,23 16,176 10,153 69,132 67,195 -3,64 -108,135 -36,180 42,26 89,36 128,52zm-354 -616c0,0 76,-9 95,30 19,40 -23,37 -53,11 -31,-26 -63,-12 -80,-22 -18,-10 3,-25 38,-19zm159 449c0,0 28,-6 23,-62 -5,-57 -33,-81 -33,-81 0,0 9,42 -21,99 -31,57 27,61 27,61l4 -17z"/>
    <path class="fil9" d="M3390 1991l183 -208c0,0 205,86 280,99 74,12 379,96 441,95 62,-1 125,33 150,54 25,22 170,193 170,193 0,0 -57,26 -93,65 -37,40 -98,131 -98,131l-40 -11c0,0 -124,195 -119,277 5,83 98,281 94,292 -4,12 -131,114 -409,106 -278,-8 -459,-66 -459,-66 0,0 38,-147 42,-179 4,-31 38,-220 19,-263 -20,-42 -66,-124 -63,-186 3,-61 49,-106 70,-131 22,-25 82,-103 82,-103l-250 -165z"/>
    <path class="fil10" d="M3631 1807c66,26 172,67 222,75 74,12 379,96 441,95 62,-1 125,33 150,54 25,22 170,193 170,193 0,0 -28,13 -58,34 -17,-19 -38,-40 -65,-60 -73,-55 -89,-89 -142,-124 -53,-36 -161,6 -164,0 -4,-6 -32,-37 -32,-37 0,0 -202,39 -278,34 -75,-6 -27,-119 -88,-143 -61,-25 -160,-110 -160,-110l4 -11z"/>
    <path class="fil11" d="M4351 2463c-36,64 -90,168 -87,223 5,83 98,281 94,292 -4,12 -131,114 -409,106 -278,-8 -459,-66 -459,-66 0,0 38,-147 42,-179 4,-31 38,-220 19,-263 -15,-32 -47,-89 -59,-142 22,19 68,50 138,35 70,-15 82,-17 132,-1 0,0 27,75 164,76 109,2 163,-70 181,-99 7,-4 12,-6 15,-5 18,4 144,-13 161,-58 8,-21 38,26 68,81zm-724 -316l-234 -153c71,10 169,23 228,20 103,-4 116,-1 116,-1 0,0 -35,87 -110,134zm109 91c0,0 -40,150 0,158 39,9 210,-97 217,-112 8,-15 -105,18 -140,-24 -34,-42 -58,-72 -58,-72l-19 50zm-13 690c0,0 122,17 186,-69 65,-86 70,-101 70,-101 0,0 -126,22 -217,22 -91,0 -39,148 -39,148z"/>
    <path class="fil2" d="M3817 1303c-35,72 -25,202 -31,201 -6,0 -8,205 19,252 27,48 105,71 118,83 13,13 3,61 3,61 0,0 -99,19 -110,140 -12,121 19,145 111,145 93,0 297,-127 297,-127l129 -65c-15,-9 -41,-20 -72,-15 -52,9 -79,-24 -112,-60 -32,-35 -29,-68 -25,-144 4,-77 30,-83 30,-83 0,0 60,-27 96,-81 37,-55 -13,-96 -44,-101 -30,-5 -98,63 -98,63 0,0 -30,-25 -27,-52 2,-26 16,-63 -13,-81 -30,-17 -53,-24 -61,-39 -8,-14 -21,-89 -95,-114 -59,-21 -99,7 -115,17z"/>
    <path class="fil1" d="M3817 1303c-26,53 -27,137 -29,178 3,3 5,5 8,7 40,28 94,3 106,30 13,27 -14,111 6,134 20,22 66,5 64,-5 -2,-11 -31,-6 -31,-36 0,-29 3,-99 10,-104 7,-5 66,-12 76,16 10,29 68,10 77,18 -2,-7 -4,-14 -3,-21 2,-26 16,-63 -13,-81 -30,-17 -53,-24 -61,-39 -8,-14 -21,-89 -95,-114 -59,-21 -99,7 -115,17zm292 819c63,-32 115,-64 115,-64l129 -65c-15,-9 -29,-30 -71,-23 -42,7 -80,-16 -113,-52 -32,-35 -29,-68 -25,-144 4,-77 30,-83 30,-83 0,0 60,-27 96,-81 37,-55 -13,-96 -44,-101 -30,-5 -98,63 -98,63 0,0 -8,-7 -15,-17 5,18 9,54 4,120 -7,93 -54,133 -77,147 -23,14 -26,95 -80,140 -54,44 -62,118 10,144 32,12 87,16 139,16z"/>
    <path class="fil4" d="M3802 997c-56,14 -119,66 -145,120 -11,22 -13,33 -13,62 0,19 1,40 3,47 4,12 1,15 -36,41 -22,16 -40,28 -42,28 -1,0 -13,7 -26,16 -14,8 -39,23 -56,32 -17,9 -40,22 -50,29 -11,6 -20,12 -21,12 -1,0 -33,20 -72,44 -38,24 -71,44 -73,44 -8,0 -111,73 -139,98 -71,65 -73,138 -6,215 41,48 135,132 226,200 30,22 59,45 66,50 24,20 129,88 161,105 41,22 41,22 31,33 -4,5 -14,17 -22,25 -7,9 -22,26 -32,38 -23,24 -49,57 -60,75 -28,44 -29,47 -29,90 0,25 3,51 7,63 6,20 11,30 53,109l18 33 -6 44c-7,58 -19,211 -19,239 0,36 19,25 25,-15 2,-9 6,-36 10,-59 17,-97 27,-189 23,-219 -3,-22 -7,-34 -19,-48 -11,-14 -47,-87 -52,-106 -7,-24 -7,-63 0,-79 10,-22 48,-78 65,-95 10,-10 61,-71 69,-83 6,-8 13,-15 17,-15 4,0 7,-3 7,-7 0,-5 5,-14 10,-22 18,-24 44,-61 47,-68 2,-4 8,-16 15,-26 6,-10 13,-22 15,-26 2,-3 6,-9 9,-13 8,-8 6,-21 -4,-23 -7,-1 -36,25 -36,33 0,1 -2,4 -5,9 -35,20 -106,57 -138,75 -10,-6 -17,-11 -18,-11 -2,0 -90,-61 -116,-80 -29,-22 -31,-26 -22,-38 13,-15 60,-68 110,-121 45,-48 54,-54 71,-45 4,3 16,7 24,11 9,4 27,11 39,17 12,5 23,9 25,9 1,0 9,3 17,7 33,14 109,36 167,48 13,2 13,3 -17,31 -45,44 -70,103 -67,158 4,49 25,81 72,103 21,11 30,12 70,12 82,0 103,-9 368,-178 8,-5 17,-10 22,-11 11,-4 10,-21 -2,-21 -14,0 -91,38 -137,67 -141,89 -192,110 -253,110 -47,0 -72,-11 -93,-43 -12,-18 -15,-28 -15,-45 0,-27 14,-73 33,-102 18,-29 52,-61 55,-50 0,4 5,8 9,8 8,0 17,-21 23,-58 7,-2 18,-6 39,-13 47,-16 97,-65 94,-73 -3,-8 -14,11 -85,25 -25,6 -47,5 -64,3 -3,-1 -6,-2 -10,-3 -47,-14 -55,-17 -73,-30 -9,-6 -24,-24 -32,-38l-15 -25 1 -89c0,-100 2,-114 16,-114 16,0 28,-9 28,-20 0,-11 -8,-17 -23,-17 -7,0 -8,-6 -8,-60l0 -6c16,1 38,8 43,10 6,4 6,-10 -11,-23 -8,-6 -22,-7 -32,-7 -1,-39 -6,-49 -19,-49 -4,0 -6,17 -8,71 -4,104 -7,125 -17,125 -5,0 -13,-2 -18,-5 -4,-2 -17,-7 -28,-10 -59,-16 -80,-34 -80,-68 0,-22 -1,-20 48,-65 9,-8 19,-24 24,-36 8,-20 8,-26 3,-46 -6,-25 -11,-41 -21,-66 -16,-38 -19,-49 -18,-72 1,-50 44,-109 102,-138 25,-13 31,-14 77,-14 52,1 72,6 142,38 75,34 140,44 131,19 -2,-4 -6,-9 -9,-10 -3,-1 -15,-4 -27,-7 -12,-3 -43,-15 -70,-27 -58,-25 -72,-30 -93,-38 -20,-7 -108,-10 -128,-5l0 0zm508 1347c-8,-5 -15,-10 -21,-12 -18,-9 -23,188 -20,260 -37,78 -41,100 -32,131 2,7 7,22 10,34 3,12 8,23 9,26 2,2 5,9 7,16 8,28 63,135 70,135 8,0 10,-27 3,-41 -3,-4 -8,-20 -13,-36 -4,-15 -10,-31 -12,-35 -2,-3 -11,-29 -20,-56 -16,-49 -21,-89 -12,-106 3,-4 12,-24 21,-45 29,-63 82,-167 89,-175 3,-4 7,-10 7,-13 0,-3 1,-5 2,-5 2,0 69,45 80,53 3,3 13,10 21,16 8,6 31,22 50,36 19,15 46,32 58,38 61,35 150,95 204,117 41,16 108,-5 155,-49 15,-14 79,-84 94,-104 4,-6 17,-21 27,-32 18,-20 79,-94 96,-114 3,-5 13,-17 21,-26 46,-54 100,-133 100,-146 0,-12 78,-89 121,-120 24,-17 54,-42 66,-54 21,-23 85,-125 91,-145 4,-17 -5,-39 -17,-43 -9,-4 -15,-1 -36,20 -14,13 -25,26 -25,28 0,2 -8,14 -17,27 -12,17 -15,25 -12,29 7,7 20,-5 39,-36 18,-28 21,-32 35,-39 7,-4 11,-4 13,-1 4,6 -1,23 -7,23 -2,0 -5,4 -6,8 -2,5 -6,13 -9,18 -15,22 -50,72 -58,81 -9,11 -52,48 -74,63 -57,41 -96,83 -113,126 -6,12 -14,28 -19,34 -13,16 -54,63 -78,89 -16,19 -69,81 -96,112 -16,20 -74,84 -101,114 -63,68 -91,90 -133,103 -23,7 -28,7 -45,2 -37,-12 -152,-71 -169,-88 -4,-2 -7,-5 -9,-5 -1,0 -25,-16 -52,-36 -27,-20 -54,-40 -60,-43 -33,-22 -92,-63 -93,-65 -6,-9 23,-49 64,-91 52,-51 85,-77 102,-77 16,0 137,121 153,151 8,16 15,24 23,26 14,4 23,-2 23,-15 0,-13 24,-32 115,-93 118,-80 159,-114 277,-232 55,-55 64,-67 73,-92 10,-25 11,-34 8,-77 -1,-26 -3,-59 -5,-72 -2,-20 -2,-24 5,-24 12,0 22,22 29,64 5,31 8,42 16,47 11,8 23,34 23,52 0,9 1,14 6,13 10,-4 8,-28 -4,-58l-13 -29 11 -16c14,-18 19,-30 30,-64 5,-14 11,-28 12,-30 2,-3 4,-9 4,-15 0,-11 11,-23 19,-18 2,1 4,6 4,10 0,4 3,6 5,6 3,0 5,2 5,5 0,8 -23,54 -39,79 -18,25 -20,35 -12,40 12,8 53,-53 63,-93 2,-8 4,-17 6,-19 2,-3 6,-14 10,-25 6,-18 7,-19 19,-17 15,3 18,-6 7,-16 -9,-7 -36,6 -39,19 -3,9 -13,12 -18,5 -1,-3 -8,-8 -15,-12 -11,-5 -14,-5 -19,0 -3,3 -5,8 -5,11 0,4 -3,12 -25,61 -6,14 -14,32 -18,40 -7,18 -13,20 -13,4 0,-12 -12,-43 -20,-51 -12,-11 -30,-17 -46,-16l-16 2 2 28c0,15 3,42 6,60 5,33 -2,92 -11,102 -2,3 -4,10 -4,17 0,8 -4,17 -10,22 -20,16 -66,55 -94,80 -80,73 -134,116 -208,164 -29,20 -73,50 -97,69l-45 33 -74 -76c-68,-69 -110,-114 -127,-135 -6,-7 -5,-10 4,-23 9,-12 10,-20 10,-54 0,-54 -13,-78 -68,-133 -28,-27 -40,-43 -38,-48 1,-4 2,-9 2,-11 0,-3 12,-17 26,-32 64,-70 61,-101 -21,-212 -7,-11 -13,-23 -14,-27 0,-4 -2,-9 -4,-11 -7,-3 -7,-75 -1,-101 3,-11 7,-31 10,-45 4,-14 6,-47 6,-72 -1,-54 -7,-72 -42,-122 -34,-49 -103,-105 -157,-130 -42,-18 -44,-19 -80,-27 -37,-9 -36,-9 -41,-5l0 0c-6,7 -2,19 8,24 5,3 21,9 33,13 22,7 45,17 80,33 22,11 88,65 115,95 13,15 30,38 37,52 13,22 14,28 14,69 0,24 -3,53 -5,64 -3,11 -8,28 -11,38 -6,25 -6,126 0,132 3,3 6,8 6,12 0,4 12,23 27,43 56,73 60,100 18,143 -28,29 -45,59 -45,77 0,19 12,37 48,72 47,45 63,77 63,122 0,18 -2,33 -4,33 -3,0 -12,-10 -22,-22 -37,-44 -60,-69 -84,-86 -14,-10 -26,-18 -27,-18 -1,0 -11,-5 -21,-12 -13,-8 -22,-11 -30,-9 -27,7 -81,-76 -89,-137 -3,-18 -1,-28 5,-42 7,-15 7,-20 2,-26 -18,-22 -42,7 -42,54 0,75 62,172 109,172 22,0 96,55 130,97 16,19 43,51 60,71 33,37 37,45 24,49 -5,2 -18,11 -29,19 -63,52 -117,121 -117,154 0,6 -1,10 -3,9 -5,-2 -59,-37 -62,-41 -7,-7 -33,-18 -44,-18 -4,0 -7,0 -9,1zm-360 -912c0,0 12,-21 37,-29 9,-3 17,-5 22,-5 -2,-24 -15,-57 -28,-69 -25,-24 -51,-35 -85,-35 -30,0 -64,9 -64,16 0,7 -19,4 -22,-4 -3,-9 17,-30 37,-37l0 0c22,-8 84,-8 102,0 48,20 78,59 83,106 3,31 6,33 49,49 36,13 49,44 33,82 -9,21 -9,34 0,42 14,14 20,10 68,-41 15,-17 16,-17 43,-15 23,1 29,4 43,18 23,22 30,37 30,64 0,31 -11,53 -41,80 -22,21 -40,32 -68,40 -9,3 -15,9 -18,18 -8,25 -14,65 -16,109 -2,41 -1,45 10,69 15,28 47,66 57,66 3,0 6,4 6,7 0,5 -5,7 -16,7 -13,0 -20,-4 -41,-25 -13,-14 -28,-33 -32,-41 -11,-21 -20,-66 -16,-77 2,-4 5,-23 8,-41 8,-66 13,-83 27,-99 8,-10 17,-17 21,-16 10,2 41,-18 64,-42 30,-32 33,-66 7,-92 -20,-20 -44,-19 -64,3 -18,20 -55,53 -60,53 -2,0 -13,-11 -24,-25 -18,-23 -19,-25 -17,-49 2,-14 5,-27 8,-30 7,-8 6,-23 -4,-31 -4,-4 -20,-11 -35,-16 -17,-5 -29,-11 -36,-18 -9,-1 -20,0 -33,6 -26,10 -34,8 -35,2zm-479 4494c-9,20 -85,97 -118,122 -12,8 -31,22 -42,31 -24,17 -52,33 -126,71 -58,29 -84,50 -84,68 0,22 56,59 89,59 7,0 14,2 16,4 3,6 111,10 156,5 50,-5 90,-11 114,-19 10,-2 34,-6 51,-7 75,-2 180,-29 209,-53 14,-12 17,-17 22,-51 4,-25 4,-51 2,-74 -2,-20 -5,-54 -7,-77 -5,-53 -10,-77 -22,-95 0,-1 -10,4 -22,11 -15,10 -21,17 -21,24 0,12 10,14 19,4 3,-4 7,-7 8,-7 9,0 23,201 16,226 -5,16 -28,29 -78,44 -18,6 -36,12 -40,13 -24,9 -49,13 -53,10 -2,-3 -2,-4 1,-4 4,0 6,-5 6,-10 0,-11 -4,-11 -22,-4 -7,3 -17,7 -22,9 -5,2 -16,6 -23,9 -15,6 -39,11 -82,20 -37,7 -205,10 -211,4 -3,-3 -11,-5 -18,-5 -7,0 -14,-3 -16,-5 -1,-3 -7,-5 -11,-5 -5,0 -16,-6 -24,-13l-16 -14 16 -14c9,-8 36,-24 61,-37 50,-25 88,-46 97,-53 4,-3 6,-3 6,0 0,13 58,38 87,38 16,0 55,-8 67,-14 5,-2 12,-4 15,-4 4,0 11,-2 16,-4 4,-3 18,-9 29,-14 22,-10 41,-31 33,-35 -2,-2 -12,1 -22,6 -10,4 -31,12 -46,16 -16,4 -35,10 -43,13 -26,7 -74,5 -97,-6l-21 -10 17 -16c10,-8 19,-15 22,-15 2,0 25,-20 51,-45 50,-45 89,-95 84,-107 -4,-12 -15,-7 -23,10l0 0zm1394 -330c-6,6 -3,13 17,41 12,16 19,29 17,32 -8,10 -18,110 -11,110 9,0 14,-12 17,-44 2,-30 11,-63 17,-63 7,0 107,199 107,214 0,9 -6,18 -25,35 -27,25 -84,72 -94,78 -9,5 -4,-10 9,-24l9 -10 -9 0c-6,0 -26,17 -52,43 -55,58 -98,94 -125,106 -12,5 -26,12 -31,14 -4,3 -11,5 -15,5 -4,0 -11,2 -15,4 -19,10 -72,19 -114,19 -86,0 -88,-12 -20,-81 15,-16 38,-40 50,-54l23 -25 13 8c17,10 48,10 75,-1 22,-8 70,-37 73,-43 1,-3 4,-4 7,-4 14,0 73,-55 73,-68 0,-9 -4,-7 -48,21 -81,53 -117,71 -145,72 -13,0 -26,-1 -28,-3 -2,-2 3,-13 11,-25 17,-28 39,-72 50,-100 4,-11 9,-24 12,-28 7,-15 4,-53 -5,-73 -5,-11 -11,-26 -13,-34 -3,-16 -9,-22 -17,-14 -4,4 -3,7 1,14 3,5 5,13 5,17 0,3 5,15 12,24 9,16 10,19 4,27 -4,5 -6,13 -6,19 0,6 -2,12 -5,13 -2,2 -5,7 -5,13 0,4 -2,12 -4,17 -3,4 -10,20 -17,36 -28,60 -47,85 -134,174 -57,58 -68,76 -58,94 8,17 15,21 35,27 32,9 137,4 174,-9 6,-2 21,-6 32,-9 56,-17 136,-74 168,-120 13,-19 18,-24 26,-22 12,3 71,-29 90,-49 2,-2 14,-12 27,-23 31,-25 36,-36 29,-65 -7,-28 -6,-27 -48,-112 -34,-69 -44,-88 -50,-94 -1,-1 -8,-11 -15,-22 -10,-13 -17,-19 -25,-19 -7,0 -15,-7 -25,-21 -14,-21 -18,-24 -24,-18l0 0zm-1050 -766c-3,3 -6,20 -8,39 -4,58 -20,170 -31,228 -6,31 -18,112 -23,160 -3,22 -7,56 -9,75 -2,19 -8,66 -12,105 -4,38 -9,88 -12,111 -12,107 -17,313 -9,335 3,7 7,11 10,10 5,-2 7,-24 8,-88 2,-112 9,-213 24,-333 4,-34 16,-130 23,-201 10,-84 14,-115 17,-125 2,-7 5,-25 7,-40 3,-15 7,-39 9,-51 12,-70 21,-140 21,-181 0,-46 -4,-58 -15,-44l0 0zm534 -1865c-11,2 -24,7 -42,16 -3,1 -19,7 -35,11 -15,4 -33,10 -39,12 -7,2 -29,7 -49,12 -21,4 -45,9 -54,11 -45,11 -83,16 -151,19 -81,3 -282,-2 -324,-10 -14,-2 -33,-5 -42,-6 -25,-3 -64,-11 -95,-19 -27,-7 -44,-6 -45,2 0,1 -1,8 -2,14 0,7 -3,22 -6,35 -23,94 -57,421 -75,715 -2,37 -7,125 -12,195 -26,435 -32,706 -14,739 4,9 10,16 13,16 3,0 9,3 13,7 5,4 23,13 40,18l32 11 3 342c1,188 4,344 6,347 2,3 6,46 8,95 5,102 19,276 22,286 1,1 3,2 6,2 5,0 4,-74 -8,-296 -5,-106 -8,-259 -10,-465 -1,-290 -1,-305 7,-305 4,0 26,2 48,5 158,20 474,30 614,20 52,-4 53,-4 61,8 5,6 9,14 9,17 0,3 5,16 10,28 13,29 27,63 41,95 13,31 21,50 31,71 6,13 11,26 11,28 0,5 34,75 98,202 73,145 77,154 108,206 15,25 27,46 27,48 0,3 24,41 31,49 1,1 4,-1 6,-5 3,-3 3,-8 0,-11 -9,-11 -99,-188 -138,-270 -11,-26 -33,-72 -48,-103 -52,-108 -84,-178 -84,-182 0,-2 -5,-15 -12,-29 -6,-15 -14,-30 -16,-35 -2,-6 -8,-19 -13,-31 -5,-11 -14,-32 -19,-46 -6,-14 -12,-30 -15,-34 -7,-13 -2,-16 32,-19 32,-3 100,-13 136,-21 54,-12 106,-24 125,-29 4,-1 8,1 10,5 2,4 6,12 9,17 3,6 5,14 5,18 0,4 2,11 4,15 3,4 8,21 12,36 4,15 10,36 13,47 3,10 7,22 9,28 1,5 7,25 11,44 4,19 10,39 12,44 7,18 18,60 18,68 0,5 3,10 5,11 3,2 5,9 5,16 0,8 2,15 4,17 3,1 5,8 5,14 0,6 2,12 4,13 3,2 6,13 8,24 2,13 4,26 7,30 2,4 6,17 9,28 11,39 24,76 33,94 2,5 4,11 4,14 0,5 3,11 23,57 6,12 14,31 18,41 21,54 42,66 23,13 -16,-43 -18,-48 -22,-58 -2,-5 -7,-21 -12,-35 -5,-14 -10,-28 -11,-30 -2,-3 -7,-18 -11,-33 -5,-15 -11,-32 -13,-36 -2,-4 -4,-11 -4,-15 0,-4 -2,-11 -4,-16 -7,-12 -14,-38 -17,-60 -2,-11 -6,-21 -7,-22 -3,-2 -5,-9 -5,-16 0,-8 -1,-15 -4,-16 -2,-1 -5,-13 -7,-24 -2,-12 -5,-26 -7,-32 -2,-5 -6,-19 -10,-31 -3,-11 -8,-30 -11,-42 -3,-11 -9,-30 -12,-41 -3,-12 -7,-26 -9,-31 -2,-5 -7,-21 -11,-35 -5,-14 -10,-29 -12,-35 -2,-5 -8,-21 -12,-37 -4,-15 -10,-34 -13,-41 -4,-11 -4,-15 4,-20 4,-4 11,-6 15,-6 3,0 9,-2 14,-5 4,-2 13,-6 19,-8 7,-3 45,-21 84,-40 40,-19 88,-41 106,-50 35,-17 44,-28 20,-28 -16,0 -20,-5 -27,-37 -7,-28 -24,-79 -50,-151 -35,-98 -40,-113 -54,-156 -8,-24 -18,-54 -21,-65 -4,-12 -12,-40 -18,-63 -11,-41 -22,-83 -37,-140 -5,-15 -9,-35 -12,-44 -2,-9 -7,-30 -11,-47 -5,-17 -10,-37 -12,-46 -6,-26 -36,-139 -49,-184 -7,-24 -15,-53 -19,-65 -3,-13 -9,-33 -13,-45 -3,-11 -8,-29 -11,-39 -3,-10 -9,-31 -13,-44 -4,-14 -9,-34 -12,-42 -6,-26 -33,-131 -37,-152 -2,-10 -7,-32 -11,-49 -5,-16 -10,-37 -12,-46 -7,-30 -24,-91 -28,-100 -7,-19 -19,-60 -19,-68 0,-5 2,-9 5,-9 8,0 9,-14 2,-21 -8,-7 -9,-7 -30,-4l0 0zm-302 -392c-8,9 -18,16 -23,16 -5,0 -10,2 -12,4 -15,13 -103,17 -182,10 -19,-2 -21,11 -4,22 11,7 23,9 71,9 36,0 67,-3 80,-7 64,-19 91,-38 87,-60 -1,-9 -3,-8 -17,6zm1456 -758c-24,25 -78,106 -78,116 0,11 11,8 26,-9 15,-15 30,-39 46,-70 10,-21 32,-40 45,-40 10,0 11,-12 1,-16 -14,-5 -19,-3 -40,19l0 0zm-26 -49c-3,4 -6,10 -6,16 0,5 -2,12 -5,15 -5,5 -4,27 2,27 5,0 8,-5 20,-32 10,-24 3,-40 -11,-26zm-1480 -85c-12,15 -41,30 -51,27 -8,-4 -12,9 -4,16 21,17 93,-25 84,-49 -4,-11 -18,-8 -29,6zm198 -111c-13,13 -23,26 -23,30 0,2 -4,10 -9,16 -5,7 -9,16 -9,20 0,15 9,13 21,-5 11,-16 15,-18 25,-16 7,1 14,5 17,7 3,2 7,1 11,-2 3,-6 2,-10 -5,-19 -9,-12 -9,-12 -1,-21 6,-5 13,-10 16,-11 5,-2 5,-5 1,-11 -9,-17 -20,-13 -44,12l0 0zm-204 -51c-8,17 -1,28 19,28 14,0 21,-12 16,-31 -2,-9 -6,-11 -16,-11 -11,0 -15,3 -19,14zm-97 -13c-3,8 -7,31 -10,50 -4,19 -7,37 -8,40 0,4 1,17 5,30 7,29 23,47 39,45 13,-1 20,-13 9,-13 -5,0 -11,-9 -16,-21 -7,-19 -7,-26 -2,-62 3,-22 6,-49 7,-61 0,-18 -1,-21 -10,-22 -7,-1 -11,1 -14,14l0 0zm-225 -226c7,19 13,56 11,68 -1,5 -18,26 -36,45 -37,38 -44,52 -44,78 -1,17 -2,18 -73,68 -40,28 -76,54 -80,57 -4,4 -24,18 -43,33 -19,15 -46,35 -59,45 -14,10 -25,20 -25,22 0,10 14,9 39,-3l26 -12 18 13c9,7 18,14 20,15 9,10 101,64 117,69 13,4 9,12 -27,49 -46,47 -77,85 -97,116 -9,15 -19,27 -23,27 -3,0 -10,-4 -17,-10 -7,-6 -23,-19 -37,-30 -45,-33 -104,-85 -154,-136 -72,-72 -86,-107 -65,-155 9,-22 42,-55 81,-84 26,-18 267,-171 271,-171 1,0 19,-11 39,-24 21,-13 38,-23 40,-23 2,0 49,-30 60,-39 3,-2 13,-9 23,-17 22,-17 28,-17 35,-1l0 0zm-42 245c19,21 58,36 111,45 14,2 26,5 28,6 1,2 3,33 3,69 0,37 3,73 5,81 15,59 52,94 123,117 23,7 24,8 24,23 0,19 3,19 -44,2 -37,-13 -53,-17 -73,-21 -70,-14 -290,-106 -364,-154 -17,-11 -34,-21 -37,-21 -3,0 0,-3 6,-8 6,-4 15,-11 20,-16 5,-4 26,-20 46,-35 21,-15 58,-43 84,-63 26,-20 50,-36 52,-36 3,0 9,5 16,11l0 0z"/>
    <path class="fil0" d="M3839 3662c0,0 106,383 184,575 78,192 145,306 135,316 -10,10 -201,-388 -263,-625 -63,-237 -80,-289 -56,-266z"/>
   </g>
   <g>
    <path class="fil2" d="M2584 4720l-1 88 -350 0c-1,-32 -1,-49 -1,-49l352 -39z"/>
    <polygon class="fil1" points="2584,4720 2583,4808 2426,4808 2425,4738 "/>
    <path class="fil2" d="M1853 4751c0,0 -9,22 -25,57l-354 0c15,-39 38,-113 38,-113l341 56z"/>
    <path class="fil2" d="M2359 1213c0,0 168,117 243,165 76,47 317,204 317,204 0,0 80,48 30,149 -50,102 -280,260 -280,260l-193 -204 201 -118c0,0 -267,-194 -264,-193 3,0 -165,-92 -54,-263zm-726 1215c0,0 -11,-50 -48,-96 -36,-45 -128,-110 -128,-110l-129 117 0 281c9,-4 18,-8 27,-12 68,-26 278,-180 278,-180z"/>
    <path class="fil1" d="M1507 2259c0,0 -111,106 -139,132 -13,12 -25,21 -40,25l0 -77 116 -105 63 25z"/>
    <path class="fil1" d="M2359 1213c0,0 168,117 243,165 76,47 317,204 317,204 0,0 80,48 30,149 -9,18 -23,38 -40,58 -11,-7 -17,-13 -16,-15 8,-14 17,-35 17,-74 0,-40 -40,-74 -114,-116 -75,-42 -137,-80 -216,-127 -27,-15 -65,-43 -105,-72 -57,-42 -116,-88 -146,-112 6,-19 16,-39 30,-60z"/>
    <path class="fil7" d="M2027 1063c0,0 -217,70 -226,75 -9,5 -185,120 -206,172 -21,51 -22,110 -6,185 16,75 4,130 -17,160 -22,30 -90,77 -56,134 35,57 107,90 48,138 -60,49 -74,86 -80,123 -6,36 7,174 287,168 280,-6 277,-253 303,-420 25,-167 156,-227 213,-233 56,-5 89,-12 134,-61 46,-50 -11,-87 -40,-120 -29,-33 -18,-92 -7,-110 10,-19 62,-136 -40,-213 -101,-76 -188,-53 -307,2z"/>
    <path class="fil8" d="M1505 1991c-13,21 -18,40 -21,59 -6,36 7,174 287,168 280,-6 277,-253 303,-420 25,-167 156,-227 213,-233 56,-5 89,-12 134,-61 46,-50 -11,-87 -40,-120 -7,-8 -11,-16 -14,-26 -6,1 -10,1 -10,1 0,0 -35,14 -35,-49 0,-63 3,-167 -66,-189 -68,-22 -129,77 -149,65 -19,-11 -118,-58 -215,-4 -98,54 -81,59 -81,68 0,9 73,14 107,49 34,34 -36,-25 -110,-2 -74,23 -112,26 -129,91 -16,64 -6,23 -16,176 -10,153 -69,132 -67,195 3,64 109,135 37,180 -42,26 -89,36 -128,52zm354 -616c0,0 -77,-9 -96,30 -19,40 23,37 53,11 31,-26 63,-12 81,-22 17,-10 -4,-25 -38,-19zm-160 449c0,0 -27,-6 -22,-62 5,-57 32,-81 32,-81 0,0 -9,42 21,99 31,57 -27,61 -27,61l-4 -17z"/>
    <path class="fil9" d="M2669 1991l-183 -208c0,0 -206,86 -280,99 -75,12 -380,96 -442,95 -61,-1 -125,33 -150,54 -24,22 -170,193 -170,193 0,0 57,26 94,65 36,40 97,131 97,131l40 -11c0,0 124,195 119,277 -5,83 -98,281 -94,292 4,12 132,114 409,106 278,-8 460,-66 460,-66 0,0 -38,-147 -42,-179 -5,-31 -39,-220 -19,-263 19,-42 65,-124 62,-186 -3,-61 -48,-106 -70,-131 -21,-25 -82,-103 -82,-103l251 -165z"/>
    <path class="fil10" d="M2428 1807c-67,26 -173,67 -222,75 -75,12 -380,96 -442,95 -61,-1 -125,33 -150,54 -24,22 -170,193 -170,193 0,0 29,13 58,34 17,-19 39,-40 65,-60 73,-55 89,-89 142,-124 53,-36 161,6 165,0 3,-6 31,-37 31,-37 0,0 203,39 278,34 75,-6 27,-119 88,-143 62,-25 160,-110 160,-110l-3 -11z"/>
    <path class="fil11" d="M1707 2463c37,64 91,168 87,223 -5,83 -98,281 -94,292 4,12 132,114 409,106 278,-8 460,-66 460,-66 0,0 -38,-147 -42,-179 -5,-31 -39,-220 -19,-263 15,-32 46,-89 58,-142 -21,19 -68,50 -138,35 -70,-15 -81,-17 -132,-1 0,0 -27,75 -164,76 -108,2 -163,-70 -181,-99 -7,-4 -12,-6 -15,-5 -18,4 -144,-13 -161,-58 -8,-21 -38,26 -68,81zm724 -316l234 -153c-71,10 -168,23 -228,20 -103,-4 -116,-1 -116,-1 0,0 35,87 110,134zm-109 91c0,0 40,150 1,158 -40,9 -210,-97 -218,-112 -7,-15 105,18 140,-24 35,-42 59,-72 59,-72l18 50zm14 690c0,0 -123,17 -187,-69 -65,-86 -70,-101 -70,-101 0,0 126,22 217,22 91,0 40,148 40,148z"/>
    <path class="fil2" d="M2241 1303c35,72 26,202 31,201 6,0 9,205 -19,252 -27,48 -105,71 -118,83 -13,13 -3,61 -3,61 0,0 99,19 111,140 11,121 -19,145 -112,145 -92,0 -297,-127 -297,-127l-129 -65c16,-9 41,-20 73,-15 52,9 79,-24 111,-60 32,-35 29,-68 25,-144 -4,-77 -29,-83 -29,-83 0,0 -61,-27 -97,-81 -36,-55 13,-96 44,-101 30,-5 98,63 98,63 0,0 30,-25 28,-52 -3,-26 -17,-63 13,-81 30,-17 52,-24 60,-39 8,-14 22,-89 95,-114 60,-21 100,7 115,17z"/>
    <path class="fil1" d="M2241 1303c26,53 28,137 29,178 -2,3 -5,5 -7,7 -40,28 -95,3 -107,30 -13,27 14,111 -6,134 -20,22 -66,5 -64,-5 2,-11 31,-6 31,-36 0,-29 -2,-99 -9,-104 -7,-5 -67,-12 -77,16 -10,29 -67,10 -77,18 3,-7 4,-14 4,-21 -3,-26 -17,-63 13,-81 30,-17 52,-24 60,-39 8,-14 22,-89 95,-114 60,-21 100,7 115,17zm-292 819c-63,-32 -115,-64 -115,-64l-129 -65c16,-9 30,-30 71,-23 42,7 81,-16 113,-52 32,-35 29,-68 25,-144 -4,-77 -29,-83 -29,-83 0,0 -61,-27 -97,-81 -36,-55 13,-96 44,-101 30,-5 98,63 98,63 0,0 8,-7 16,-17 -6,18 -9,54 -5,120 7,93 54,133 77,147 23,14 27,95 80,140 54,44 62,118 -9,144 -32,12 -88,16 -140,16z"/>
    <path class="fil4" d="M2257 997c56,14 118,66 144,120 11,22 14,33 14,62 0,19 -2,40 -4,47 -3,12 -1,15 36,41 22,16 41,28 42,28 1,0 13,7 27,16 13,8 38,23 55,32 18,9 41,22 51,29 10,6 19,12 20,12 1,0 34,20 72,44 39,24 72,44 74,44 7,0 110,73 138,98 71,65 73,138 6,215 -41,48 -135,132 -226,200 -30,22 -59,45 -66,50 -23,20 -129,88 -160,105 -41,22 -42,22 -32,33 5,5 15,17 22,25 7,9 22,26 33,38 22,24 48,57 60,75 28,44 28,47 28,90 0,25 -2,51 -6,63 -7,20 -12,30 -54,109l-17 33 5 44c7,58 19,211 19,239 0,36 -19,25 -25,-15 -2,-9 -6,-36 -10,-59 -17,-97 -27,-189 -23,-219 3,-22 8,-34 19,-48 11,-14 47,-87 52,-106 7,-24 7,-63 0,-79 -10,-22 -48,-78 -64,-95 -11,-10 -61,-71 -70,-83 -5,-8 -13,-15 -17,-15 -4,0 -6,-3 -6,-7 0,-5 -6,-14 -11,-22 -18,-24 -43,-61 -47,-68 -2,-4 -8,-16 -15,-26 -6,-10 -13,-22 -14,-26 -2,-3 -7,-9 -10,-13 -8,-8 -6,-21 4,-23 7,-1 37,25 37,33 0,1 2,4 4,9 35,20 106,57 139,75 9,-6 16,-11 17,-11 3,0 91,-61 117,-80 28,-22 30,-26 22,-38 -13,-15 -60,-68 -110,-121 -46,-48 -55,-54 -72,-45 -4,3 -15,7 -24,11 -9,4 -26,11 -38,17 -12,5 -24,9 -25,9 -2,0 -10,3 -18,7 -33,14 -109,36 -167,48 -12,2 -12,3 17,31 46,44 71,103 67,158 -3,49 -25,81 -71,103 -22,11 -31,12 -71,12 -82,0 -102,-9 -368,-178 -7,-5 -17,-10 -21,-11 -12,-4 -11,-21 2,-21 13,0 90,38 136,67 141,89 192,110 253,110 47,0 72,-11 93,-43 12,-18 15,-28 15,-45 0,-27 -14,-73 -33,-102 -17,-29 -52,-61 -54,-50 -1,4 -5,8 -10,8 -8,0 -16,-21 -23,-58 -6,-2 -18,-6 -38,-13 -48,-16 -98,-65 -95,-73 3,-8 14,11 85,25 26,6 47,5 65,3 3,-1 6,-2 9,-3 47,-14 55,-17 73,-30 10,-6 24,-24 32,-38l15 -25 -1 -89c0,-100 -2,-114 -16,-114 -15,0 -27,-9 -27,-20 0,-11 8,-17 22,-17 7,0 8,-6 8,-60l0 -6c-15,1 -37,8 -42,10 -7,4 -7,-10 10,-23 9,-6 22,-7 33,-7 0,-39 5,-49 18,-49 4,0 7,17 8,71 4,104 7,125 18,125 5,0 12,-2 17,-5 4,-2 17,-7 29,-10 58,-16 79,-34 79,-68 0,-22 1,-20 -48,-65 -8,-8 -19,-24 -24,-36 -8,-20 -8,-26 -3,-46 6,-25 11,-41 21,-66 16,-38 19,-49 18,-72 0,-50 -44,-109 -101,-138 -26,-13 -32,-14 -77,-14 -53,1 -72,6 -142,38 -76,34 -141,44 -132,19 2,-4 6,-9 9,-10 3,-1 16,-4 27,-7 12,-3 43,-15 70,-27 58,-25 72,-30 93,-38 20,-7 109,-10 129,-5l0 0zm-509 1347c8,-5 16,-10 21,-12 18,-9 23,188 21,260 37,78 41,100 31,131 -2,7 -7,22 -10,34 -3,12 -7,23 -9,26 -2,2 -5,9 -7,16 -8,28 -63,135 -70,135 -7,0 -9,-27 -2,-41 2,-4 8,-20 12,-36 4,-15 10,-31 12,-35 2,-3 12,-29 20,-56 17,-49 21,-89 12,-106 -2,-4 -12,-24 -21,-45 -29,-63 -81,-167 -88,-175 -4,-4 -7,-10 -7,-13 0,-3 -1,-5 -3,-5 -2,0 -69,45 -80,53 -3,3 -12,10 -21,16 -8,6 -31,22 -50,36 -19,15 -45,32 -57,38 -36,20 -82,49 -124,74l0 -31c35,-19 68,-37 76,-46 4,-2 8,-5 9,-5 1,0 25,-16 52,-36 27,-20 54,-40 60,-43 33,-22 92,-63 93,-65 6,-9 -22,-49 -64,-91 -52,-51 -85,-77 -101,-77 -12,0 -83,67 -125,114l0 -43 20 -21c68,-69 111,-114 127,-135 6,-7 6,-10 -4,-23 -9,-12 -10,-20 -10,-54 0,-54 13,-78 68,-133 28,-27 40,-43 39,-48 -2,-4 -3,-9 -3,-11 0,-3 -11,-17 -25,-32 -65,-70 -62,-101 20,-212 8,-11 14,-23 14,-27 0,-4 2,-9 5,-11 6,-3 6,-75 0,-101 -3,-11 -7,-31 -10,-45 -3,-14 -6,-47 -6,-72 1,-54 7,-72 42,-122 35,-49 103,-105 158,-130 41,-18 43,-19 79,-27 37,-9 37,-9 41,-5l0 0c6,7 3,19 -8,24 -5,3 -21,9 -33,13 -22,7 -45,17 -80,33 -22,11 -88,65 -114,95 -13,15 -31,38 -38,52 -13,22 -14,28 -14,69 0,24 3,53 6,64 2,11 7,28 10,38 6,25 6,126 0,132 -3,3 -5,8 -5,12 0,4 -12,23 -27,43 -57,73 -60,100 -18,143 27,29 45,59 45,77 0,19 -12,37 -49,72 -47,45 -63,77 -63,122 0,18 2,33 5,33 2,0 12,-10 22,-22 36,-44 60,-69 83,-86 14,-10 26,-18 27,-18 2,0 11,-5 21,-12 13,-8 23,-11 31,-9 27,7 80,-76 88,-137 3,-18 1,-28 -5,-42 -7,-15 -7,-20 -2,-26 19,-22 42,7 42,54 0,75 -62,172 -109,172 -22,0 -96,55 -129,97 -16,19 -44,51 -61,71 -33,37 -37,45 -24,49 5,2 18,11 29,19 63,52 117,121 117,154 0,6 1,10 3,9 5,-2 59,-37 62,-41 8,-7 34,-18 44,-18 4,0 7,0 9,1zm360 -912c0,0 -12,-21 -36,-29 -10,-3 -17,-5 -23,-5 2,-24 16,-57 28,-69 25,-24 51,-35 86,-35 29,0 63,9 63,16 0,7 19,4 22,-4 4,-9 -16,-30 -37,-37l0 0c-22,-8 -83,-8 -102,0 -48,20 -78,59 -83,106 -3,31 -5,33 -49,49 -36,13 -49,44 -33,82 9,21 9,34 0,42 -14,14 -20,10 -67,-41 -16,-17 -17,-17 -44,-15 -22,1 -28,4 -43,18 -23,22 -30,37 -30,64 0,31 12,53 41,80 22,21 40,32 68,40 10,3 16,9 18,18 8,25 14,65 16,109 2,41 2,45 -10,69 -15,28 -46,66 -56,66 -4,0 -7,4 -7,7 0,5 5,7 17,7 13,0 20,-4 40,-25 14,-14 28,-33 32,-41 11,-21 20,-66 16,-77 -1,-4 -5,-23 -7,-41 -9,-66 -14,-83 -27,-99 -8,-10 -17,-17 -22,-16 -10,2 -41,-18 -63,-42 -31,-32 -34,-66 -8,-92 20,-20 44,-19 64,3 18,20 55,53 61,53 2,0 12,-11 23,-25 19,-23 19,-25 17,-49 -1,-14 -5,-27 -7,-30 -8,-8 -6,-23 3,-31 4,-4 20,-11 35,-16 18,-5 30,-11 37,-18 8,-1 19,0 32,6 26,10 34,8 35,2zm-399 1533c11,2 24,7 42,16 4,1 20,7 35,11 15,4 33,10 40,12 6,2 28,7 48,12 21,4 45,9 54,11 45,11 83,16 151,19 81,3 282,-2 324,-10 14,-2 33,-5 42,-6 25,-3 65,-11 96,-19 26,-7 43,-6 44,2 0,1 1,8 2,14 0,7 4,22 6,35 23,94 57,421 75,715 2,37 8,125 12,195 26,435 32,706 14,739 -4,9 -10,16 -13,16 -2,0 -9,3 -13,7 -5,4 -23,13 -40,18l-32 11 0 45 -27 0c-1,-36 -3,-39 -6,-39 -5,0 -26,2 -48,5 -159,20 -474,30 -614,20 -53,-4 -54,-4 -62,8 -2,2 -3,4 -5,6l-26 0c2,-3 3,-7 4,-8 7,-13 2,-16 -32,-19 -32,-3 -99,-13 -136,-21 -54,-12 -106,-24 -125,-29 -4,-1 -8,1 -10,5 -2,4 -6,12 -8,17 -4,6 -6,14 -6,18 0,4 -2,11 -4,15 -2,3 -5,12 -8,22l-22 0c2,-7 6,-18 8,-28 5,-15 11,-34 13,-41 5,-11 4,-15 -3,-20 -5,-4 -12,-6 -15,-6 -3,0 -10,-2 -15,-5 -4,-2 -13,-6 -19,-8 -7,-3 -44,-21 -84,-40l-18 -9 0 -343c10,-29 15,-45 24,-70 7,-24 17,-54 21,-65 3,-12 11,-40 17,-63 11,-41 22,-83 37,-140 5,-15 10,-35 12,-44 2,-9 7,-30 12,-47 4,-17 9,-37 11,-46 6,-26 36,-139 49,-184 7,-24 15,-53 19,-65 3,-13 9,-33 13,-45 4,-11 9,-29 12,-39 2,-10 8,-31 12,-44 4,-14 9,-34 12,-42 7,-26 33,-131 37,-152 2,-10 7,-32 12,-49 4,-16 9,-37 11,-46 7,-30 25,-91 28,-100 8,-19 19,-60 19,-68 0,-5 -2,-9 -4,-9 -8,0 -10,-14 -3,-21 8,-7 9,-7 30,-4l0 0zm302 -392c8,9 18,16 23,16 5,0 10,2 13,4 14,13 102,17 181,10 19,-2 22,11 5,22 -12,7 -23,9 -72,9 -36,0 -67,-3 -79,-7 -65,-19 -92,-38 -88,-60 1,-9 3,-8 17,6zm51 -892c11,15 41,30 50,27 9,-4 12,9 4,16 -21,17 -93,-25 -84,-49 4,-11 18,-8 30,6zm-199 -111c13,13 23,26 23,30 0,2 4,10 9,16 6,7 10,16 10,20 0,15 -10,13 -22,-5 -11,-16 -15,-18 -25,-16 -6,1 -14,5 -17,7 -3,2 -7,1 -10,-2 -4,-6 -3,-10 4,-19 10,-12 10,-12 1,-21 -5,-5 -12,-10 -16,-11 -5,-2 -5,-5 -1,-11 9,-17 21,-13 44,12l0 0zm205 -51c7,17 0,28 -19,28 -15,0 -21,-12 -17,-31 3,-9 6,-11 17,-11 10,0 14,3 19,14zm97 -13c2,8 7,31 10,50 3,19 6,37 7,40 1,4 -1,17 -4,30 -8,29 -24,47 -40,45 -13,-1 -20,-13 -8,-13 4,0 10,-9 15,-21 7,-19 7,-26 2,-62 -3,-22 -6,-49 -6,-61 -1,-18 0,-21 9,-22 8,-1 11,1 15,14l0 0zm224 -226c-7,19 -13,56 -11,68 2,5 18,26 36,45 37,38 45,52 45,78 0,17 2,18 72,68 40,28 76,54 81,57 4,4 23,18 42,33 19,15 46,35 59,45 14,10 25,20 25,22 0,10 -14,9 -38,-3l-27 -12 -17 13c-10,7 -19,14 -20,15 -10,10 -102,64 -118,69 -13,4 -8,12 27,49 46,47 77,85 97,116 10,15 20,27 23,27 3,0 11,-4 17,-10 7,-6 24,-19 38,-30 44,-33 103,-85 154,-136 71,-72 86,-107 64,-155 -9,-22 -42,-55 -81,-84 -25,-18 -267,-171 -271,-171 -1,0 -18,-11 -39,-24 -20,-13 -38,-23 -39,-23 -3,0 -50,-30 -61,-39 -3,-2 -12,-9 -23,-17 -22,-17 -28,-17 -35,-1l0 0zm43 245c-19,21 -59,36 -112,45 -14,2 -26,5 -27,6 -2,2 -4,33 -4,69 0,37 -2,73 -4,81 -16,59 -52,94 -123,117 -24,7 -24,8 -24,23 0,19 -4,19 44,2 36,-13 52,-17 72,-21 71,-14 290,-106 364,-154 18,-11 34,-21 38,-21 3,0 0,-3 -6,-8 -7,-4 -16,-11 -21,-16 -5,-4 -25,-20 -46,-35 -20,-15 -58,-43 -84,-63 -26,-20 -50,-36 -52,-36 -3,0 -9,5 -15,11l0 0z"/>
    <path class="fil0" d="M2219 3662c0,0 -106,383 -184,575 -77,192 -145,306 -135,316 10,10 201,-388 264,-625 63,-237 79,-289 55,-266z"/>
   </g>
   <path class="fil0" d="M3081 1327l-6 274 -266 277 0 -287c97,-96 191,-187 272,-264zm-1499 2963l-303 189c0,0 -10,-55 25,-86 34,-32 112,-134 148,-263 37,-129 159,-218 160,-219l757 -681c0,0 195,-177 261,-303l0 334c-242,312 -734,794 -734,794l-314 235zm0 -1272l-221 181c0,0 -18,63 86,15 105,-48 135,33 135,33l0 196 698 -664c0,0 310,-346 215,-392 -96,-46 13,-195 13,-195l122 -128 0 -295c-274,278 -517,546 -479,588 82,93 39,89 3,152 -17,30 -289,267 -572,509zm1476 -659l-3 153 -215 268c0,0 -15,15 -31,48l0 -208c82,-94 181,-193 249,-261z"/>
  </g>
 </g>
</svg>
