<?xml version="1.0" encoding="UTF-8"?>
<!DOCTYPE svg PUBLIC "-//W3C//DTD SVG 1.1//EN" "http://www.w3.org/Graphics/SVG/1.1/DTD/svg11.dtd">
<!-- Creator: CorelDRAW Home & Student X7 -->
<svg xmlns="http://www.w3.org/2000/svg" xml:space="preserve" width="68.3674mm" height="68.3674mm" version="1.1" style="shape-rendering:geometricPrecision; text-rendering:geometricPrecision; image-rendering:optimizeQuality; fill-rule:evenodd; clip-rule:evenodd"
viewBox="0 0 6837 6837"
 xmlns:xlink="http://www.w3.org/1999/xlink">
 <defs>
  <style type="text/css">
   <![CDATA[
    .fil9 {fill:black}
    .fil4 {fill:#008183}
    .fil3 {fill:#59C1C2}
    .fil8 {fill:#6885C2}
    .fil7 {fill:#8EB6EA}
    .fil5 {fill:#9DDBDB}
    .fil6 {fill:#C9DCF5}
    .fil2 {fill:#EDB9A9}
    .fil1 {fill:#FFE1D7}
    .fil0 {fill:white}
   ]]>
  </style>
 </defs>
 <g id="Layer_x0020_1">
  <metadata id="CorelCorpID_0Corel-Layer"/>
  <rect class="fil0" width="6837" height="6837"/>
  <g id="_506377144">
   <path class="fil1" d="M3669 1153c0,0 -685,-351 -1153,266 -227,300 -581,515 -880,730 -8,6 -658,538 -211,1037 450,503 522,658 307,1097 -214,438 175,1232 1154,1562 301,77 626,120 958,110 1540,-46 1744,-653 1441,-1396 -303,-743 -341,-1380 -159,-1828 182,-447 -144,-1213 -1457,-1578z"/>
   <path class="fil2" d="M2011 1885c-126,91 -255,177 -375,264 -8,6 -658,538 -211,1037 417,467 510,634 349,1005l0 2 -1 1 0 2 -1 1 -1 1 -4 11 -1 2 -1 1 0 1 -1 2 -1 1 0 2 -1 1 -3 7 -1 1 0 2 -2 4 -1 2 -1 1 0 1 -1 2 0 1 -1 2 -1 1 0 2 -1 1 -1 1 -5 11 0 1 -1 1 -1 2 0 0 0 1 -1 2 -7 15 -1 1 -1 2c-190,387 94,1053 839,1431l1 0c9,5 18,9 28,14l14 7c7,3 15,7 23,11 6,3 13,6 20,9 6,3 12,5 18,8 9,4 19,8 28,12l11 5c12,5 23,10 35,14l6 3c13,5 26,10 39,15l3 1c14,6 28,11 43,16l1 1c15,5 30,10 45,15l0 0 1 1 1 0 1 0 0 0 1 0 1 1 1 0 2 0 0 0 2 1 1 0 0 0 1 0 1 1 1 0 0 0 0 0 1 0 1 0 1 1 0 0 1 0 2 0 0 0 1 1 1 0 1 0 1 0 1 1 0 0 1 0 1 0 1 0 0 0 0 0 1 1 1 0 1 0 0 0 1 0 1 1 1 0 0 0 1 0 1 0 1 0 0 1 1 0 1 0 0 0 1 0 1 1 1 0 1 0 1 0 1 0 0 1 1 0 1 0c288,70 596,107 911,98 1540,-46 1744,-653 1441,-1396 -204,-501 -288,-953 -266,-1332 -421,-622 -1017,-1498 -1200,-1734 -291,-377 -787,-40 -787,-40 0,0 -515,215 -1021,432z"/>
   <path class="fil3" d="M2961 5864c280,65 578,100 883,91 1540,-46 1744,-653 1441,-1396 -75,-184 -134,-362 -177,-532l-273 -476c0,0 79,-43 85,-81 6,-39 -106,-305 -133,-369 -27,-65 -105,-164 -105,-164 0,0 -648,136 -753,226 -106,89 -354,198 -354,198 0,0 -1169,569 -1513,1052 0,0 64,184 120,273 55,89 113,169 129,180 15,12 25,4 25,4l625 994z"/>
   <path class="fil4" d="M2961 5864c280,65 578,100 883,91 1540,-46 1744,-653 1441,-1396 -75,-184 -134,-362 -177,-532l-273 -476c0,0 79,-43 85,-81 4,-25 -40,-142 -80,-240 -133,-2 -334,28 -204,245 185,310 -84,359 -84,359 0,0 563,895 603,1054 39,158 64,672 -973,674 -1036,3 -1256,-383 -1415,-621 -159,-239 69,-510 69,-510l-506 73 -102 254c39,57 71,100 83,108 15,12 25,4 25,4l625 994z"/>
   <path class="fil5" d="M4838 3550c14,-8 77,-46 82,-80 6,-39 -106,-305 -133,-369 -27,-65 -105,-164 -105,-164 0,0 -648,136 -753,226 -106,89 -354,198 -354,198 0,0 -1169,569 -1513,1052 0,0 64,184 120,273 55,89 113,169 129,180 15,12 25,4 25,4l2 4c10,-26 19,-67 57,-104 53,-51 632,-493 900,-654 269,-161 749,-415 1008,-509 259,-94 476,-159 490,-153 11,4 34,65 45,96z"/>
   <path class="fil0" d="M1656 2297c0,0 -74,50 -73,92 1,42 91,378 157,487 65,109 257,402 315,426 59,25 233,-11 233,-11 0,0 686,-268 1027,-418 342,-151 461,-243 461,-243 0,0 -18,-136 -78,-247 -59,-110 -344,-712 -513,-735 -168,-22 -314,61 -314,61 0,0 -480,141 -1215,588z"/>
   <path class="fil6" d="M1597 2353c-8,12 -14,24 -14,36 1,42 91,378 157,487 65,109 257,402 315,426 21,9 57,10 94,8 -35,-106 -99,-245 -125,-330 -43,-142 -174,-334 -174,-334 0,0 -66,-116 -171,-225 -32,-33 -60,-54 -82,-68z"/>
   <path class="fil0" d="M3403 1016c0,0 189,-34 272,-32 82,1 349,0 349,0 0,0 123,-29 162,56 40,85 25,251 31,251 6,0 -36,757 -36,757 0,0 -1,97 -71,112 -69,14 -415,43 -415,43l-232 28c0,0 -32,1 -51,46 -19,45 -37,71 -37,71 0,0 -31,-57 -37,-121 -6,-65 -83,-941 -83,-941 0,0 -67,-240 148,-270z"/>
   <path class="fil7" d="M2452 3265c0,0 168,-101 229,-149 62,-48 127,-88 124,-92 -3,-4 485,-250 485,-250 0,0 131,-87 214,-98 82,-10 145,-20 228,37 83,58 283,244 283,244 0,0 -254,258 -250,253 4,-4 48,40 48,40 0,0 -371,171 -447,215 -76,44 -411,235 -411,235l-83 -140c0,0 -203,116 -208,116 -5,0 -212,-411 -212,-411z"/>
   <path class="fil6" d="M3241 2798l49 -24c0,0 131,-87 214,-98 82,-10 145,-20 228,37 83,58 283,244 283,244l-48 48c-30,-15 -93,-47 -129,-81 -49,-46 -152,-150 -254,-178 -101,-27 -252,68 -280,72 -9,2 -34,-7 -63,-20zm-789 467c0,0 168,-101 229,-149 62,-48 127,-88 124,-92 -1,-1 27,-16 70,-39 9,23 11,47 -9,58 -43,25 -98,113 -252,205 -56,33 -102,53 -138,65l-24 -48z"/>
   <path class="fil8" d="M3950 3023c-75,76 -188,190 -185,187 4,-4 48,40 48,40 0,0 -371,171 -447,215 -76,44 -411,235 -411,235l-83 -140c0,0 -203,116 -208,116 -4,0 -129,-246 -185,-357 98,46 234,102 275,71 64,-49 54,-67 62,-67 9,0 30,76 101,99 71,23 660,-192 693,-227 33,-34 -59,-121 -66,-141 -7,-21 227,22 385,-27 8,-3 14,-4 21,-4zm-712 276c0,0 10,-31 20,-76 11,-46 -51,-8 -62,12 -10,20 -53,64 42,64z"/>
   <path class="fil2" d="M3740 3165c0,0 123,-141 173,-170 49,-30 76,-61 76,-61 0,0 167,142 186,171 20,30 77,105 70,189 -7,84 -251,697 -251,697l-3 103c0,0 -20,153 -38,201 -17,48 -33,40 -42,77 -9,38 -24,91 -26,100 -3,8 -21,15 -33,5 -11,-11 -9,39 -25,48 -15,10 -41,8 -45,2 -3,-5 -22,57 -45,34 -23,-23 -30,-143 -30,-143 0,0 -22,98 -51,79 -28,-18 -26,-79 -26,-79l0 -92c0,0 -31,36 -68,20 -37,-15 -17,-29 -9,-40 8,-11 63,-109 95,-156 32,-47 83,-82 99,-105 16,-23 44,-64 44,-64 0,0 94,-518 105,-539 11,-20 39,-84 20,-110 -18,-26 -181,-139 -176,-167z"/>
   <path class="fil1" d="M3915 2993c48,-29 74,-59 74,-59 0,0 167,142 186,171 20,30 77,105 70,189 -7,84 -251,697 -251,697l-3 103c0,0 -20,153 -38,201 -11,31 -21,38 -30,50 -22,-23 -36,-80 -20,-115 18,-41 55,-214 62,-261 8,-47 169,-568 173,-584 4,-17 15,-108 8,-162 -6,-55 -25,-38 -47,-76 -17,-28 -130,-114 -184,-154z"/>
   <path class="fil2" d="M2152 2803c0,0 42,-96 40,-137 -3,-41 -9,-172 -16,-193 -7,-22 -26,-23 -37,-17 -12,5 -18,39 -22,68 -4,29 -13,42 -16,7 -3,-35 -5,-72 3,-109 9,-37 -5,-61 -13,-63 -9,-2 -21,35 -23,39 -1,4 -22,117 -25,122 -3,5 -1,-30 -7,-44 -6,-14 -6,-61 -10,-84 -4,-24 3,-35 -23,-40 -26,-5 -32,28 -32,28 0,0 -26,12 -33,26 -7,13 -14,37 -14,37 0,0 -19,-15 -28,1 -10,15 -24,136 -15,209 9,73 44,141 49,164 5,24 21,191 21,191 0,0 35,562 50,621 15,59 41,162 89,162 48,0 68,12 198,-44 130,-55 314,-164 314,-164l-137 -277c0,0 -119,47 -116,54 4,7 -91,36 -97,32 -7,-3 -36,-108 -36,-108 0,0 -122,-406 -64,-481z"/>
   <path class="fil1" d="M2152 2803c0,0 42,-96 40,-137l-2 -22c-18,-2 -46,-19 -79,27 -42,60 -81,104 -58,149 24,44 84,61 84,61l0 0c-1,-35 4,-63 15,-78zm28 -308c-1,-10 -2,-18 -4,-22 -1,-5 -3,-8 -5,-11 0,0 4,13 9,33zm-74 -109c-3,-16 -11,-26 -15,-27 -9,-2 -21,35 -23,39 8,-2 18,-25 38,-12zm-78 18c-1,-5 -1,-9 -2,-12 -4,-24 3,-35 -23,-40 -26,-5 -32,28 -32,28 0,0 -26,12 -33,26 -7,13 -14,37 -14,37 0,0 -19,-15 -28,1 -10,15 -24,136 -15,209 9,73 44,141 49,164 5,24 21,191 21,191 0,0 35,562 50,621 15,59 41,162 89,162 34,0 54,6 108,-10l-11 -6c0,0 -66,-17 -104,-107 -38,-89 -79,-457 -79,-500 0,-43 -35,-331 -40,-364 -5,-33 -19,-96 -27,-128 -8,-32 -8,-65 -7,-87 0,-21 8,-88 3,-109 -5,-20 41,-42 56,-60 6,-8 23,-13 39,-16z"/>
   <path class="fil2" d="M2416 2294c0,0 20,154 24,233 4,80 11,97 32,104 22,6 47,-8 63,27 16,36 89,163 123,168 35,6 137,-54 143,-47 6,7 41,36 46,61 5,25 35,99 5,136 -31,36 -80,62 -80,62 0,0 69,119 148,151 79,32 96,33 133,56 37,23 53,62 67,35 14,-27 -6,-83 21,-100 27,-17 137,-195 153,-255 15,-59 -4,-151 -4,-151 0,0 -79,27 -131,9 -52,-18 -93,-83 -99,-103 -7,-19 -18,-58 -18,-58 0,0 -6,-271 -140,-348 -134,-77 -347,-85 -486,20z"/>
   <path class="fil1" d="M2416 2294c0,0 20,154 24,233 4,80 11,97 32,104 22,6 47,-8 63,27 13,30 66,124 104,157 -6,-28 4,-69 4,-69 0,0 19,-42 -16,-86 -35,-44 -114,-10 -106,-30 9,-21 -1,-38 -15,-43 -13,-4 -1,-30 -6,-96 -5,-66 10,-100 24,-96 13,4 2,24 21,63 19,40 63,-14 80,-32 8,-9 13,-16 20,-24 0,-27 -4,-57 -21,-67 -31,-20 -107,-68 -75,-104 -48,13 -94,33 -133,63zm238 241c0,0 72,-56 83,-56 12,0 -6,58 -43,66 -37,9 -40,-10 -40,-10zm234 525c3,0 140,-20 167,-38 27,-17 -46,114 -85,109 -39,-5 -96,-42 -98,-53 -2,-12 16,-18 16,-18zm409 -237c-3,-28 -7,-49 -7,-49 0,0 -79,27 -131,9 -52,-18 -93,-83 -99,-103 -7,-19 -18,-58 -18,-58 0,0 -5,-251 -125,-338 -28,5 -73,27 -105,113 0,0 15,83 51,106 26,17 70,105 88,176l0 0c2,4 26,82 64,146 23,17 63,30 128,23 67,-6 117,-16 154,-25z"/>
   <path class="fil9" d="M3532 982c-30,2 -60,6 -65,8 -5,3 -18,5 -30,7 -116,12 -169,37 -188,88 -17,50 -20,122 -8,231 7,69 19,200 24,268 2,36 5,71 7,78 4,17 0,16 -22,-4 -9,-8 -26,-20 -37,-26 -19,-9 -25,-9 -85,-7 -37,1 -67,5 -70,7 -2,3 -10,5 -17,5 -7,0 -15,2 -16,5 -1,2 -8,5 -14,5 -5,0 -19,3 -31,6 -11,4 -30,9 -41,12 -12,4 -25,8 -30,10 -6,2 -22,7 -38,12 -15,4 -30,9 -32,11 -3,2 -18,7 -33,11 -15,5 -32,10 -38,13 -21,8 -32,12 -48,18 -9,3 -23,9 -31,12 -9,4 -23,9 -30,13 -9,3 -23,9 -32,12 -9,3 -18,8 -21,10 -2,2 -7,4 -10,4 -4,0 -18,6 -33,12 -15,7 -31,14 -36,16 -24,10 -58,25 -84,37 -15,7 -40,17 -54,24 -39,17 -222,108 -258,129 -18,10 -54,29 -79,43 -26,13 -57,30 -70,37 -13,7 -36,20 -51,28 -59,33 -97,55 -206,124 -62,39 -114,72 -116,72 -1,0 -9,6 -16,13 -22,20 -29,68 -18,113 2,11 8,38 13,60 16,68 32,126 47,172 15,45 17,50 30,80 4,9 7,18 7,20 0,11 72,154 107,213 52,86 83,127 143,190l33 35 6 58c2,32 7,92 9,133 7,100 15,169 31,254 11,61 12,65 16,67 3,2 5,6 5,10 0,9 15,44 19,44 2,0 4,2 4,6 0,3 4,10 11,15 8,9 16,10 56,11 25,0 57,-2 70,-5 30,-7 67,-18 81,-23 5,-3 15,-6 21,-9 22,-8 118,-56 150,-74 18,-9 49,-27 69,-38 44,-24 61,-34 79,-50 12,-12 12,-12 19,-3 4,5 14,22 22,37 29,55 41,64 65,45 6,-5 23,-15 37,-22 29,-16 52,-30 69,-43l75 -35c4,9 11,22 19,36 13,26 27,51 30,56 4,5 7,10 7,12 0,2 -20,14 -43,28 -45,26 -182,114 -206,133 -8,6 -17,13 -19,15 -75,55 -280,211 -316,240 -89,74 -252,233 -276,269 -10,15 -13,24 -13,45 0,24 12,75 21,87 2,2 5,10 7,16 12,42 67,149 110,216 22,33 41,63 43,67 20,32 41,62 54,73 12,12 19,14 39,15l23 0 42 65c23,35 65,101 92,146 61,98 54,86 83,135 29,48 25,41 66,106 17,30 32,54 32,55 0,1 50,84 61,100 2,4 6,10 8,14 1,4 10,18 18,31 9,14 16,25 16,27 0,1 7,13 15,27 18,30 20,34 48,80 45,77 59,98 75,115 33,35 39,15 12,-33 -10,-17 -21,-37 -25,-45 -3,-7 -13,-24 -22,-38 -8,-13 -15,-25 -15,-27 0,-1 -10,-19 -23,-39 -13,-21 -24,-38 -24,-40 0,-1 -7,-13 -15,-26 -9,-14 -17,-28 -19,-32 -1,-4 -14,-26 -29,-49 -14,-23 -30,-48 -34,-56 -5,-8 -37,-61 -73,-119 -35,-57 -67,-110 -71,-117 -13,-24 -16,-28 -61,-99 -24,-37 -46,-72 -49,-76 -2,-5 -17,-27 -33,-49 -15,-22 -29,-44 -32,-49 -3,-4 -12,-18 -21,-31 -9,-13 -18,-30 -22,-40 -3,-10 -8,-16 -14,-16 -7,0 -8,4 -8,22 0,18 -1,22 -7,22 -11,0 -23,-14 -53,-62 -14,-24 -39,-63 -55,-89 -33,-51 -75,-134 -95,-187 -7,-17 -15,-38 -18,-46 -15,-33 -17,-41 -17,-53 0,-7 3,-20 7,-29 10,-25 142,-151 273,-261 14,-11 65,-51 114,-87 122,-92 180,-135 206,-155 21,-16 153,-106 156,-106 1,0 51,-29 110,-65 60,-36 110,-65 110,-65 1,0 11,-6 21,-13 23,-14 44,-26 86,-48 18,-9 40,-21 49,-27 8,-5 28,-16 44,-24 15,-9 34,-19 42,-24 18,-10 80,-45 118,-67 17,-9 59,-30 93,-47 35,-17 102,-50 150,-74 102,-49 141,-68 147,-68 2,0 14,8 25,18 12,9 33,26 48,36 24,17 26,20 25,35 -2,17 -11,57 -18,72 -2,5 -4,17 -6,26 -2,8 -6,33 -10,53 -10,52 -14,78 -30,186 -3,21 -7,42 -9,47 -3,5 -5,14 -6,20 -1,7 -7,15 -14,19 -6,4 -44,28 -82,53 -39,25 -72,45 -73,45 -2,0 -14,8 -28,17 -14,8 -27,16 -28,16 -1,0 -19,10 -39,23 -21,13 -38,23 -39,23 -2,0 -42,25 -90,55 -48,31 -97,61 -109,68 -11,7 -25,15 -30,19 -5,2 -27,17 -48,31 -22,14 -44,27 -49,30 -8,5 -124,83 -178,121 -55,39 -236,164 -260,180 -38,26 -147,106 -166,122 -7,5 -20,16 -30,24 -40,30 -119,100 -157,138 -33,33 -41,43 -41,54 0,8 2,16 4,17 3,1 19,-12 37,-29 18,-18 58,-53 88,-78 30,-25 57,-48 60,-51 3,-2 21,-16 39,-30 19,-14 41,-31 49,-38 18,-15 118,-85 217,-152 42,-29 129,-89 193,-135 93,-66 439,-290 447,-290 2,0 22,-12 47,-28 24,-15 45,-28 46,-28 1,0 16,-7 32,-18 15,-9 40,-24 55,-32 14,-7 49,-30 78,-49 46,-31 55,-35 51,-19 0,2 -2,15 -5,28 -2,12 -6,32 -8,44 -5,19 -13,66 -15,86 -2,12 5,16 10,7 9,-19 14,-33 21,-65 4,-19 10,-39 12,-44 2,-5 5,-16 6,-24 1,-8 6,-29 10,-46 4,-18 9,-41 10,-50 1,-10 4,-19 7,-21 2,-1 4,-8 4,-15 0,-7 2,-19 4,-26 3,-8 7,-33 10,-56 10,-88 28,-193 37,-214 2,-5 5,-14 7,-21 1,-6 7,-26 12,-43 7,-29 7,-31 0,-44 -9,-14 -41,-44 -82,-76 -15,-12 -37,-29 -49,-39 -11,-11 -27,-23 -34,-28 -7,-6 -12,-13 -12,-16 0,-9 135,-146 166,-169 35,-26 41,-46 10,-29 -40,21 -94,68 -171,146l-62 62 -36 -35c-19,-19 -41,-40 -49,-46 -8,-6 -23,-19 -33,-29 -23,-20 -40,-23 -40,-6 0,3 2,6 4,10 15,40 72,189 90,237 -86,41 -197,96 -215,107 -8,6 -32,19 -53,30 -49,27 -56,30 -58,33 -3,3 -12,8 -57,32 -19,10 -42,22 -50,27 -9,5 -42,23 -73,39 -30,16 -63,34 -73,41 -10,5 -18,10 -20,10 -1,0 -13,7 -27,16 -46,28 -57,33 -65,27 -5,-4 -8,-9 -8,-11 0,-3 -7,-20 -16,-38 -27,-57 -43,-93 -54,-122 -19,-51 -24,-57 -37,-42 -1,1 -1,2 -1,2 -2,3 -3,5 -2,7 -7,23 -29,97 -42,128 -9,5 -18,10 -29,16 -53,28 -53,28 -69,40 -9,6 -19,9 -22,8 -6,-2 -42,-72 -138,-271 -16,-33 -36,-71 -45,-84 -8,-14 -15,-26 -15,-29 0,-2 21,-16 48,-33 88,-53 208,-139 241,-173 1,-1 15,-13 31,-27 28,-24 36,-39 23,-44 -6,-2 -24,7 -31,15 -3,3 -54,47 -70,59 -6,5 -17,15 -25,21 -16,13 -81,59 -113,80 -11,7 -25,13 -31,13 -7,0 -17,2 -23,4 -6,2 -22,8 -36,12 -14,5 -28,10 -30,12 -3,3 -9,4 -14,4 -6,0 -12,2 -15,5 -2,2 -16,7 -30,12 -14,5 -27,10 -29,12 -3,2 -9,4 -13,4 -5,0 -13,2 -17,4 -4,3 -21,9 -36,13 -15,5 -30,9 -33,11 -2,2 -10,5 -17,6 -11,1 -13,0 -18,-12 -2,-7 -4,-19 -4,-25 0,-6 -2,-11 -4,-13 -2,-1 -6,-10 -7,-20 -2,-10 -6,-32 -11,-50 -9,-44 -15,-68 -20,-92 -2,-11 -8,-36 -12,-55 -10,-44 -15,-70 -20,-104 -9,-53 -26,-47 -23,7 3,34 5,48 20,123 4,20 9,45 10,53 1,9 4,21 6,26 2,5 6,23 10,40 6,36 11,61 18,86 2,10 7,29 9,42 3,12 7,27 10,32 18,45 40,149 44,220 3,41 9,49 21,24 6,-14 5,-38 -2,-132l-3 -28 65 -32c66,-32 102,-59 81,-59 -10,0 -39,12 -107,45 -41,20 -50,20 -55,3 -11,-47 -11,-48 -1,-48 5,0 16,-2 24,-4 8,-3 33,-10 56,-17 45,-13 50,-15 78,-27 17,-7 18,-7 20,1 4,10 17,35 21,38l38 323 -5 3c-22,11 -45,24 -52,28 -26,18 -116,65 -156,81 -10,4 -22,10 -26,12 -4,2 -16,6 -25,7 -11,2 -20,5 -23,7 -7,5 -36,10 -75,12 -33,2 -34,2 -50,-13 -23,-24 -43,-83 -55,-160 -19,-131 -26,-204 -33,-335 -7,-160 -15,-243 -28,-298 -6,-29 -11,-34 -20,-26 -6,6 -6,14 -2,47 3,22 7,57 9,79 2,22 5,51 7,64 2,14 2,25 0,25 -3,-1 -11,-9 -19,-19 -7,-9 -26,-32 -40,-50 -24,-30 -83,-118 -83,-125 0,-1 -5,-10 -11,-20 -19,-28 -35,-57 -54,-96 -23,-49 -42,-90 -42,-94 0,-1 -3,-10 -8,-19 -10,-24 -13,-33 -22,-59 -5,-13 -10,-28 -12,-33 -2,-5 -7,-23 -12,-39 -8,-33 -15,-57 -21,-73 -1,-5 -7,-26 -11,-46 -4,-21 -10,-42 -12,-48 -5,-11 -6,-76 -2,-76 4,0 34,27 63,56 24,25 54,59 86,100 8,11 20,26 28,36 8,10 17,23 22,29 9,13 17,16 17,6 0,-22 -103,-158 -164,-217 -20,-19 -36,-36 -36,-38 0,-1 22,-15 48,-31 26,-15 83,-50 127,-77 43,-27 88,-54 100,-60 43,-24 73,-40 109,-60 21,-11 48,-25 61,-32 13,-7 42,-23 65,-35 23,-12 44,-24 47,-26 7,-6 201,-102 204,-102 2,0 17,-6 33,-14 47,-23 101,-47 102,-47 2,0 16,-6 33,-14 17,-8 32,-14 34,-14 1,0 13,-5 26,-11 13,-6 52,-22 87,-35 34,-14 66,-26 70,-28 3,-2 41,-14 83,-28 43,-13 81,-26 86,-28 6,-2 15,-5 21,-7 7,-1 25,-5 40,-9 15,-5 33,-9 40,-11 6,-1 15,-3 21,-6 14,-6 37,-9 79,-12 47,-3 59,2 103,39l33 29 5 52c3,29 8,84 11,123 15,208 32,356 50,437 5,25 20,45 33,45 10,0 24,-17 32,-38 3,-9 8,-20 10,-25 2,-5 6,-17 9,-26 9,-23 17,-30 39,-36 19,-5 124,-20 139,-20 5,0 18,20 41,67 18,37 32,68 32,70 0,2 6,14 12,28 7,14 12,27 12,28 0,2 4,12 9,23 12,27 27,69 40,113 6,20 13,41 14,45 2,6 -7,14 -38,34 -38,25 -42,26 -55,22 -38,-13 -72,-17 -118,-11 -25,4 -47,8 -50,10 -2,2 -11,4 -19,6 -46,8 -64,17 -55,27 6,5 45,3 85,-5 101,-20 156,-4 252,74 45,36 132,110 156,133 3,2 19,16 37,30 17,14 41,34 53,44 12,11 31,26 43,36 11,9 30,25 42,34 35,30 56,35 38,9 -12,-17 -86,-89 -127,-123 -16,-14 -43,-37 -58,-51 -16,-14 -49,-43 -74,-65 -26,-22 -57,-49 -71,-61 -13,-11 -30,-26 -39,-32 -8,-7 -21,-16 -27,-22l-12 -10 25 -14c45,-26 49,-31 48,-59 0,-20 -15,-72 -29,-107 -2,-5 -8,-20 -12,-33 -5,-13 -14,-34 -20,-47 -5,-13 -10,-25 -10,-27 0,-3 -21,-48 -41,-91 -7,-14 -19,-37 -28,-50 -8,-14 -15,-26 -15,-29 0,-2 7,-5 15,-6 21,-4 60,-12 68,-15 5,-2 5,-4 1,-10 -7,-8 -53,-9 -93,-2 -14,2 -61,8 -102,12 -56,5 -82,10 -97,17 -20,9 -39,29 -39,42 0,4 -2,8 -4,11 -2,2 -7,14 -10,24 -6,19 -6,20 -11,10 -7,-19 -18,-90 -26,-179 -2,-33 -7,-72 -9,-86 -3,-14 -5,-38 -5,-53 0,-15 -2,-40 -5,-56 -3,-24 -9,-86 -21,-235 -16,-205 -30,-362 -37,-395 -2,-8 -2,-18 0,-23 1,-4 3,-42 4,-85 3,-134 12,-143 163,-173 43,-8 66,-13 103,-18 21,-3 44,-7 52,-10 8,-2 27,-4 42,-4 20,0 29,-2 31,-7 5,-12 -31,-14 -130,-6l0 0zm-792 1812c1,0 74,-52 101,-76 27,-24 12,115 12,115 2,4 4,12 7,17 17,47 20,116 4,138 -6,9 -14,14 -22,14 -11,0 -11,-1 -4,-9 10,-11 10,-81 1,-118 -3,-12 -6,-25 -7,-33 0,0 -21,-49 -40,-41l-3 2 0 0c-1,1 -2,2 -4,3l0 0c-1,2 -14,8 -28,16 -22,12 -30,14 -63,14 -42,0 -63,-8 -92,-38 -18,-18 -52,-67 -63,-91 -12,-28 -15,-34 -19,-47 -5,-12 -5,-13 -35,-9 -46,4 -50,0 -57,-57 -4,-26 -6,-79 -6,-120 0,-50 -2,-76 -6,-84 -12,-21 -24,-30 -49,-38 -62,-20 -97,-49 -108,-92 -12,-43 5,-96 39,-121 15,-12 56,-27 71,-27 14,0 33,-10 38,-21 3,-5 10,-23 17,-40 14,-34 42,-64 67,-73 22,-7 56,-7 103,2 22,3 44,7 48,7 5,0 17,-10 28,-21 11,-11 27,-25 36,-30l0 0c12,-7 26,-9 48,-9 34,-1 45,4 75,32 21,19 35,23 56,16 11,-4 37,-7 61,-7 36,0 45,2 67,13 14,7 31,20 38,29 12,14 14,22 18,64 4,48 9,62 22,62 16,0 58,35 82,69 11,16 14,24 14,49 0,26 -2,33 -15,53 -8,13 -18,26 -22,29 -11,10 -7,28 14,60 28,43 37,70 32,95 -3,19 -33,47 -60,59 -45,19 -46,20 -48,43 -3,17 -7,26 -18,38 -12,13 -15,17 -11,24 3,5 11,21 18,36 13,28 49,65 69,73 7,3 34,5 61,5 44,0 48,1 48,8 0,13 -21,21 -63,24 -33,1 -40,0 -61,-10 -29,-15 -61,-50 -78,-86 -7,-15 -15,-31 -17,-35 -2,-5 -4,-12 -4,-17 0,-4 -2,-10 -4,-12 -3,-3 -5,-10 -6,-16 -1,-8 -7,-13 -23,-18 -27,-9 -64,-44 -68,-65 -2,-12 0,-18 12,-32 8,-9 19,-24 24,-34 9,-19 12,-54 5,-58 -2,-2 -6,-10 -7,-19 -2,-11 -10,-24 -22,-36 -15,-15 -21,-18 -38,-18 -16,0 -22,3 -38,21 -21,21 -26,35 -26,75 0,21 -2,26 -10,30 -9,5 -12,4 -21,-8 -6,-7 -11,-17 -12,-22 -1,-10 -6,-13 -36,-22 -26,-9 -36,-24 -40,-62 -6,-65 -20,-87 -63,-96 -33,-7 -98,0 -124,13 -5,3 -14,7 -21,11 -18,8 -47,39 -59,62 -10,20 -11,23 -8,109 4,114 7,155 13,162 3,5 14,6 36,4 36,-4 41,0 54,40 14,44 32,75 63,107 30,30 52,42 80,42 7,0 27,-8 47,-17zm-230 -403c0,0 10,-44 52,-59 41,-15 66,-4 62,5 -4,10 -54,0 -76,38 -22,39 -36,43 -38,16zm530 3136c-5,13 21,34 59,47 13,4 28,10 33,12 9,3 28,8 44,10 4,1 7,-1 7,-5 0,-8 -115,-69 -131,-70 -5,0 -11,2 -12,6zm-103 -264c-8,8 -2,25 13,36 12,10 79,43 108,54 5,2 14,6 20,8 51,23 175,57 210,59 27,1 20,-11 -12,-23 -37,-13 -38,-14 -67,-23 -14,-4 -30,-9 -35,-12 -5,-2 -30,-11 -56,-21 -36,-13 -107,-46 -175,-80 -1,-1 -4,0 -6,2l0 0zm-757 -879c-8,6 -3,83 7,93 12,12 16,1 16,-43 0,-49 -5,-61 -23,-50l0 0zm136 -59c-9,9 -8,126 1,156 4,14 10,25 12,25 3,0 5,-25 5,-60 0,-33 2,-72 5,-87 3,-20 3,-28 -1,-33 -7,-8 -15,-9 -22,-1l0 0zm1454 9c-12,90 -13,165 -2,179 2,2 4,10 5,18 2,16 12,23 28,20 12,-4 36,-25 36,-32 0,-6 -15,-5 -26,3 -13,10 -14,9 -21,-16 -4,-15 -6,-45 -5,-107 1,-70 0,-84 -5,-84 -5,0 -8,7 -10,19l0 0zm-70 70c1,55 3,109 5,121 3,26 19,46 37,46 15,0 15,-9 0,-21 -11,-9 -13,-15 -17,-54 -3,-24 -6,-77 -7,-118 -2,-68 -3,-73 -12,-73 -9,0 -9,3 -6,99zm145 -95c-2,5 -5,28 -8,50 -2,23 -6,50 -7,60 -4,22 6,54 19,64 13,11 16,10 33,-3 11,-9 12,-12 8,-17 -5,-4 -7,-4 -14,2 -5,4 -13,8 -17,8 -8,0 -8,-4 -6,-50 6,-91 6,-119 0,-121 -3,-1 -7,2 -8,7l0 0zm140 -259c-2,6 -4,25 -5,44 -1,17 -4,42 -7,55 -12,59 -15,72 -20,89 -2,10 -8,27 -13,37 -5,10 -10,24 -12,30 -2,7 -7,16 -11,21 -9,10 -24,60 -24,79 0,7 -2,13 -4,14 -3,2 -5,7 -5,13 0,13 18,11 20,-2 2,-6 4,-17 6,-25 1,-7 4,-20 5,-27 2,-8 5,-12 9,-10 7,3 35,-53 52,-102 18,-51 35,-172 30,-206 -4,-21 -18,-27 -21,-10zm-288 24c-51,53 -55,59 -79,104 -23,44 -56,101 -59,104 -13,10 -38,45 -38,52 0,4 6,12 14,18 11,8 19,10 38,8 14,-1 29,-4 35,-6l11 -3 0 67c0,64 0,68 10,77 7,7 17,11 28,11 16,0 17,-2 17,-13 0,-9 -1,-11 -6,-7 -4,4 -8,2 -17,-4 -11,-8 -11,-9 -10,-68 1,-62 8,-131 15,-139 3,-3 5,-17 7,-32 5,-45 -15,-30 -24,17 -1,10 -5,19 -7,20 -2,2 -4,8 -4,15 0,7 -5,19 -10,28 -11,14 -13,15 -38,15 -20,0 -27,-2 -27,-7 0,-3 3,-8 5,-9 7,-4 39,-49 50,-69 5,-8 17,-29 25,-45 36,-67 44,-78 65,-101 43,-45 56,-61 56,-69 0,-16 -19,-5 -57,36l0 0zm800 -283c-2,2 -3,6 -3,9 0,7 74,131 123,205 41,62 47,71 52,82 2,3 7,12 11,18 8,12 25,42 46,79 6,12 27,51 47,86 43,78 56,102 79,142 8,17 21,40 27,52 24,42 47,87 72,135 31,60 37,70 44,70 10,0 11,-7 5,-20 -4,-6 -10,-22 -15,-34 -12,-35 -17,-46 -44,-107 -15,-34 -76,-155 -92,-184 -5,-9 -16,-29 -24,-44 -9,-16 -21,-39 -28,-51 -7,-14 -19,-33 -25,-45 -6,-11 -22,-40 -36,-63 -13,-23 -28,-48 -33,-55 -4,-8 -34,-54 -65,-101 -32,-48 -71,-107 -86,-131 -22,-34 -31,-44 -39,-45 -7,0 -14,0 -16,2l0 0zm-2414 -123c-8,9 -7,19 6,38 13,18 47,38 61,35 12,-2 13,-12 2,-15 -13,-5 -42,-30 -42,-37 0,-3 -5,-10 -11,-16 -8,-8 -12,-9 -16,-5zm2051 -475c-4,11 2,113 7,118 2,3 7,2 11,-3 5,-5 8,-20 10,-52 2,-37 1,-46 -5,-56 -9,-13 -19,-16 -23,-7l0 0zm485 -268c-2,2 -17,5 -33,7 -36,5 -103,19 -155,32 -10,2 -28,7 -40,10 -19,4 -33,9 -58,18 -5,2 -22,7 -37,12 -15,5 -30,10 -33,12 -2,1 -13,5 -23,8 -21,7 -44,17 -66,28 -11,6 -15,11 -15,19 0,9 1,10 17,7 10,-2 20,-5 22,-6 3,-2 17,-7 33,-12 15,-5 30,-10 32,-12 3,-2 18,-7 33,-11 15,-5 40,-12 54,-17 14,-4 41,-12 60,-16 19,-5 39,-10 43,-12 5,-2 13,-4 20,-4 6,0 16,-2 22,-5 6,-2 32,-7 57,-12 26,-4 54,-9 63,-12 10,-2 26,-4 35,-4 16,1 20,3 32,20 36,51 54,78 54,80 0,2 5,11 11,21 18,28 91,177 91,185 0,0 7,17 16,35 25,55 50,132 50,158 0,14 -59,74 -65,68 -3,-3 -5,-7 -5,-9 0,-2 -7,-14 -15,-27 -11,-18 -14,-25 -9,-29 3,-3 5,-9 5,-12 0,-6 -7,-7 -45,-4 -24,1 -47,4 -49,7 -3,3 -9,5 -14,5 -4,0 -12,2 -17,4 -4,3 -20,8 -35,12 -16,5 -33,10 -38,12 -10,5 -88,31 -146,49 -22,7 -44,14 -49,16 -5,2 -21,7 -35,12 -14,4 -30,10 -36,12 -11,4 -15,6 -53,21 -11,4 -29,12 -41,17 -11,5 -28,12 -39,16 -11,4 -21,9 -22,11 -3,4 -43,19 -50,19 -5,0 -5,-4 -1,-14 11,-27 13,-32 21,-56 5,-14 10,-28 11,-31 2,-2 7,-17 12,-32 5,-16 10,-32 12,-37 2,-6 9,-27 16,-47 6,-20 14,-41 17,-45 2,-5 4,-12 4,-16 0,-3 2,-10 4,-15 9,-17 19,-57 19,-78 0,-21 -12,-65 -19,-74 -2,-2 -4,-7 -4,-10 0,-12 -26,-48 -34,-48 -9,0 -12,20 -3,25 2,2 4,7 4,12 0,5 2,13 4,18 25,48 25,104 0,161 -1,5 -7,21 -11,35 -20,65 -64,194 -77,226 -1,5 -6,17 -9,26 -6,16 -13,35 -25,61 -4,8 -16,41 -28,74 -13,32 -25,65 -29,73 -4,8 -10,23 -13,34 -4,10 -10,25 -14,34 -20,45 -29,101 -15,101 3,0 14,-22 24,-48 9,-26 22,-59 28,-72 6,-14 12,-27 12,-29 0,-3 1,-9 4,-13 7,-13 19,-42 19,-45 0,-3 16,-41 23,-54 2,-4 5,-14 7,-22 2,-8 5,-16 8,-18 2,-2 4,-6 4,-10 0,-13 18,-34 30,-34 6,0 12,-2 14,-4 1,-2 7,-6 14,-7 6,-2 26,-9 42,-17 17,-8 32,-14 33,-14 1,0 10,-3 19,-7 25,-11 44,-19 62,-25 9,-3 20,-8 26,-10 12,-5 96,-33 146,-48 22,-7 44,-15 49,-17 5,-2 21,-7 35,-12 14,-4 30,-9 35,-11 5,-2 22,-8 37,-12 16,-4 32,-10 37,-11 26,-10 45,-14 64,-17l21 -3 22 45c34,69 59,111 134,231 37,60 90,152 117,204 27,53 67,131 89,175 22,43 44,84 49,90 5,7 9,15 10,18 3,8 199,322 232,372 17,25 24,33 34,34 11,1 13,0 13,-12 0,-14 -30,-72 -71,-135 -48,-74 -64,-99 -64,-102 0,-1 -4,-8 -9,-15 -11,-16 -111,-178 -126,-203 -6,-11 -40,-77 -76,-147 -80,-158 -110,-211 -182,-321 -61,-93 -96,-149 -96,-157 0,-2 7,-7 15,-10 17,-8 44,-27 54,-38 3,-4 9,-14 13,-22 7,-15 6,-20 -5,-66 -13,-51 -17,-67 -28,-92 -4,-8 -7,-16 -7,-18 0,-1 -9,-22 -20,-46 -11,-23 -23,-50 -27,-59 -25,-63 -94,-180 -129,-222 -12,-14 -25,-31 -29,-38 -7,-11 -11,-12 -40,-14 -18,0 -34,0 -35,2l0 0zm-1331 -119c-2,5 -5,26 -5,46 0,34 -4,64 -13,91 -12,36 -72,137 -99,168 -7,8 -22,25 -34,39 -36,41 -40,58 -28,117 2,7 1,10 -1,7 -2,-3 -18,-18 -35,-33 -24,-22 -37,-30 -58,-37 -15,-4 -31,-10 -35,-12 -5,-2 -12,-4 -16,-4 -3,0 -10,-2 -15,-4 -4,-3 -20,-11 -33,-17 -50,-24 -87,-63 -99,-104 -8,-28 -27,-25 -27,3 0,16 24,58 49,84 32,35 71,56 142,75 11,3 26,8 33,9 14,5 57,35 71,51 12,13 39,18 48,9 7,-7 7,-12 1,-41 -4,-23 -4,-36 -1,-43 4,-9 63,-84 72,-92 5,-5 46,-64 46,-67 0,-2 7,-15 16,-29 9,-14 16,-26 16,-28 0,-1 5,-13 11,-26 16,-37 24,-78 21,-119 -2,-20 -4,-40 -6,-44 -4,-11 -15,-11 -21,1l0 0zm92 -86c-9,6 -20,12 -24,12 -4,0 -7,3 -7,7 0,3 2,7 6,7 8,0 34,-13 40,-21 11,-14 2,-17 -15,-5l0 0zm-789 -79c-13,9 -14,19 -1,25 5,4 9,10 9,18 0,7 4,22 9,32 14,31 37,38 55,19 12,-13 13,-20 9,-41 -4,-18 -24,-42 -46,-53 -18,-9 -22,-9 -35,0l0 0zm-487 -125c-2,1 -3,15 -3,30 0,28 -10,46 -26,46 -6,0 -25,9 -56,28 -7,5 -17,11 -21,12 -15,7 -37,26 -37,33 0,14 15,11 52,-13 44,-29 60,-38 60,-34 0,1 -4,12 -10,24 -5,12 -12,27 -14,34 -3,6 -7,15 -9,19 -3,5 -4,13 -4,19 0,6 -3,13 -6,16 -3,3 -4,11 -2,18 3,10 4,12 10,7 4,-3 7,-10 7,-15 0,-4 2,-9 4,-10 2,-2 6,-9 7,-15 4,-14 34,-77 39,-81 15,-12 29,-56 29,-97 0,-21 -1,-24 -8,-24 -5,0 -11,1 -12,3l0 0zm-177 -33c-6,6 -3,82 3,106 4,18 7,22 11,16 4,-4 4,-12 1,-25 -2,-11 -2,-31 1,-52 4,-26 4,-35 -1,-41 -6,-7 -10,-9 -15,-4zm43 21c0,32 9,79 15,79 3,0 4,-25 4,-54 0,-50 -1,-53 -9,-53 -9,0 -10,3 -10,28l0 0zm169 -58c-3,1 -6,6 -6,11 0,6 4,9 11,9 19,0 22,8 22,66 0,32 3,71 7,93 7,34 7,39 0,70 -5,19 -10,38 -12,41 -10,19 -18,42 -18,48 0,3 -2,8 -4,10 -5,6 -15,37 -15,51 0,10 2,13 10,11 8,-1 14,-8 28,-37 2,-5 4,-11 4,-13 0,-3 3,-13 7,-22 14,-31 16,-36 23,-59 10,-30 11,-73 3,-147 -3,-32 -7,-71 -8,-87 -3,-33 -14,-48 -33,-48 -7,0 -16,2 -19,3l0 0zm-246 -11c-19,20 -34,141 -26,200 6,38 15,80 21,85 2,2 3,8 3,13 0,4 2,12 4,16 3,4 8,22 13,38 7,24 11,31 19,31 7,0 8,-4 8,-25 -1,-13 -3,-30 -6,-37 -4,-11 -18,-57 -34,-113 -2,-9 -3,-46 -2,-86 3,-102 8,-123 24,-101 5,6 16,5 16,-3 0,-5 -22,-29 -27,-29 -2,0 -8,5 -13,11l0 0zm729 -28c-3,6 -18,24 -34,41 -23,24 -27,30 -20,31 16,4 32,-4 54,-25 24,-22 32,-40 23,-51 -8,-9 -17,-8 -23,4l0 0zm278 -26c-4,3 -9,12 -11,19 -1,7 -4,18 -7,25 -2,6 -4,25 -3,42 1,22 3,29 9,29 4,0 8,-6 9,-20 3,-28 7,-33 23,-33 16,0 23,-9 12,-16 -22,-13 -22,-13 -14,-30 11,-22 -2,-33 -18,-16l0 0zm-830 -13c-14,27 -24,60 -26,77 -1,9 -4,14 -10,15 -5,0 -10,2 -11,3 -2,2 6,78 11,103 2,12 7,19 11,19 4,0 6,-3 5,-7 -6,-26 -6,-42 1,-52 5,-7 8,-21 8,-44 0,-19 2,-35 4,-37 3,-1 5,-10 5,-18 0,-8 2,-17 4,-19 2,-3 6,-14 10,-25 5,-19 6,-20 12,-11 3,4 7,16 7,25 0,13 2,18 7,18 7,0 8,-4 6,-23 -3,-26 -14,-47 -26,-47 -5,0 -12,9 -18,23l0 0zm-93 -21c-4,7 -7,14 -6,19 2,7 -3,8 -13,4 -10,-4 -29,12 -34,29 -10,31 7,48 18,18 12,-28 28,-19 28,15 0,12 2,16 10,16 8,0 9,-4 9,-21 0,-12 -3,-27 -7,-35 -6,-12 -6,-13 5,-25 7,-7 14,-12 16,-10 7,4 19,31 19,45 0,12 0,13 7,8 7,-6 9,-30 2,-35 -2,-1 -5,-6 -5,-11 0,-13 -16,-28 -29,-28 -8,0 -15,4 -20,11l0 0zm1503 -494c-4,6 -3,9 4,17 7,8 14,10 40,10 30,0 30,0 28,11 -2,7 -17,33 -34,59 -16,26 -30,50 -30,52 0,3 3,9 7,14 6,8 11,9 41,6 97,-7 143,-15 143,-25 0,-2 -2,-7 -5,-10 -3,-6 -15,-7 -69,-6 -36,1 -66,0 -66,-2 0,-1 6,-11 12,-22 6,-10 16,-29 23,-42 14,-24 18,-52 7,-59 -3,-3 -22,-4 -42,-4 -19,0 -39,-1 -44,-3 -5,-1 -11,1 -15,4l0 0zm155 -359c-43,5 -68,11 -76,19 -6,6 -6,8 5,15 8,5 15,6 22,3 7,-2 31,-5 55,-7 37,-3 43,-3 43,4 0,7 -16,37 -40,75 -38,60 -42,73 -24,89 9,9 16,11 51,11 41,0 102,-8 115,-14 12,-6 10,-17 -3,-23 -9,-4 -31,-6 -70,-5 -31,1 -58,1 -59,-1 -2,-2 7,-20 19,-42 39,-68 49,-91 46,-107 -5,-22 -21,-25 -84,-17zm564 -306c-1,3 -4,72 -5,152 -7,343 -12,535 -17,567 -2,20 -7,72 -11,116 -5,55 -10,84 -15,92 -8,13 -40,25 -92,36 -21,5 -45,10 -54,13 -40,9 -80,15 -118,16 -44,2 -53,5 -45,13 11,14 40,18 98,16 96,-5 194,-26 229,-51 25,-17 30,-35 37,-132 3,-36 6,-89 9,-119 5,-63 11,-697 7,-714 -3,-13 -19,-17 -23,-5l0 0zm-376 -35c-54,5 -73,10 -80,17 -4,6 -4,8 3,13 7,6 23,6 73,4l65 -3 0 12c0,6 -2,13 -4,15 -4,5 -16,25 -46,80 -22,41 -20,62 9,75 18,8 92,7 155,-1 28,-4 52,-7 53,-7 0,0 1,-5 1,-11 0,-15 -12,-17 -110,-17 -49,0 -81,-2 -81,-5 0,-2 9,-20 19,-40 49,-91 52,-102 39,-119 -7,-10 -31,-18 -49,-17 -7,0 -27,2 -47,4l0 0z"/>
   <path class="fil0" d="M2959 2069c29,18 18,34 -13,18 -7,-4 -17,-7 -23,-7 -11,-1 -26,-10 -26,-18 0,-17 27,-13 62,7l0 0zm-322 25c13,7 11,18 -5,18 -17,0 -75,23 -75,29 0,3 -3,4 -6,4 -3,0 -14,8 -24,19 -27,27 -46,23 -33,-8 16,-39 109,-80 143,-62l0 0zm240 103c22,30 35,60 29,66 -4,4 -14,-4 -36,-27 -38,-42 -46,-55 -35,-65 6,-7 8,-7 17,-1 5,3 16,15 25,27l0 0zm188 100c21,24 14,109 -9,114 -5,1 -6,-10 -7,-43 -1,-24 -3,-52 -5,-61 -4,-16 -3,-18 5,-18 5,0 13,4 16,8l0 0z"/>
  </g>
 </g>
</svg>
