<?xml version="1.0" encoding="UTF-8"?>
<!DOCTYPE svg PUBLIC "-//W3C//DTD SVG 1.1//EN" "http://www.w3.org/Graphics/SVG/1.1/DTD/svg11.dtd">
<!-- Creator: CorelDRAW Home & Student X7 -->
<svg xmlns="http://www.w3.org/2000/svg" xml:space="preserve" width="68.3674mm" height="68.3674mm" version="1.1" style="shape-rendering:geometricPrecision; text-rendering:geometricPrecision; image-rendering:optimizeQuality; fill-rule:evenodd; clip-rule:evenodd"
viewBox="0 0 6837 6837"
 xmlns:xlink="http://www.w3.org/1999/xlink">
 <defs>
  <style type="text/css">
   <![CDATA[
    .fil8 {fill:black}
    .fil9 {fill:black}
    .fil13 {fill:#556C9E}
    .fil10 {fill:#6885C2}
    .fil11 {fill:#8EB6EA}
    .fil7 {fill:#C14D2D}
    .fil5 {fill:#C6877B}
    .fil12 {fill:#C9DCF5}
    .fil4 {fill:#EDB9A9}
    .fil3 {fill:#FACA50}
    .fil2 {fill:#FF7345}
    .fil6 {fill:#FFAC7B}
    .fil1 {fill:#FFE1D7}
    .fil0 {fill:white}
   ]]>
  </style>
 </defs>
 <g id="Layer_x0020_1">
  <metadata id="CorelCorpID_0Corel-Layer"/>
  <rect class="fil0" width="6837" height="6837"/>
  <g id="_506883328">
   <path class="fil1" d="M3216 1444c0,0 -455,-217 -1018,-43 -563,175 -252,572 -695,982 -443,410 -511,923 -501,1184 10,261 66,701 226,1001 161,299 324,397 637,473 312,76 1505,264 1921,430 417,165 976,105 1231,-225 254,-331 33,-695 364,-1376 330,-682 187,-1477 -508,-1713 -695,-236 -688,-526 -910,-573 -221,-46 -535,40 -747,-140z"/>
   <path class="fil2" d="M1892 1307c0,0 -55,-2 -52,69 2,70 21,283 50,367 29,84 93,228 99,236 5,9 72,52 162,45 90,-7 571,-93 571,-93 0,0 53,-15 71,9 18,25 67,67 67,67l0 -86c0,0 -43,-685 -35,-686 7,-1 -7,-76 -76,-63 -70,12 -623,86 -623,86l-234 49z"/>
   <path class="fil3" d="M4508 1227l72 69c0,0 200,282 204,279 4,-3 132,216 132,216 0,0 17,71 -19,89 -37,17 -204,15 -204,15l-474 13c0,0 -106,1 -73,-90 33,-92 280,-544 280,-544 0,0 55,-61 82,-47z"/>
   <path class="fil4" d="M1224 2724c-195,323 -230,651 -222,843 10,261 66,701 226,1001 161,299 324,397 637,473 312,76 1505,264 1921,430 417,165 976,105 1231,-225 254,-331 33,-695 364,-1376 95,-197 151,-404 166,-604 -130,124 -299,281 -354,316 -92,60 -168,-36 -168,-36 0,0 -549,-774 -626,-807 -76,-33 -115,7 -115,7 0,0 -232,208 -324,274 -93,66 -156,37 -156,37 0,0 -658,-172 -767,-169 -109,3 -113,56 -113,56 0,0 -423,734 -525,741 -103,7 -100,-76 -100,-76 0,0 -301,-744 -327,-837 -27,-92 -195,-83 -195,-83l-553 35z"/>
   <path class="fil5" d="M1674 4983c57,22 120,40 191,58 312,76 1505,264 1921,430 417,165 976,105 1231,-225 50,-66 82,-132 103,-203l-802 -49 -2660 -176 16 165z"/>
   <path class="fil2" d="M2656 3418c0,0 111,-174 128,-214 16,-40 56,-120 53,-122 -4,-1 527,182 539,182 11,0 143,7 143,7l454 -94c0,0 116,-28 249,-115 133,-87 290,-226 290,-226 0,0 126,183 132,193 7,10 129,115 129,115l84 -97c0,0 51,162 60,169 9,8 10,51 10,51 0,0 -219,220 -262,263 -43,44 -26,282 -26,282 0,0 112,642 155,801 43,158 74,287 74,287 0,0 -31,61 -154,118l-396 -24 -1049 -70c-16,-170 -53,-580 -53,-580l-52 -506c0,0 -548,-231 -568,-270 -20,-38 60,-150 60,-150z"/>
   <path class="fil6" d="M2814 3136c13,-29 24,-53 23,-54 -4,-1 527,182 539,182 11,0 143,7 143,7l249 -52 0 0c0,0 -204,87 -210,87 -5,0 -41,126 -47,183 -6,56 61,105 61,105 0,0 -48,17 -53,25 -4,7 -77,27 -81,19 -5,-7 -14,-109 -14,-150 0,-41 48,-179 48,-179 0,0 -114,56 -344,-30 -129,-49 -241,-104 -314,-143zm1155 42l4 -1c0,0 116,-28 249,-115 133,-87 290,-226 290,-226l51 73c-82,56 -258,177 -303,232 -61,72 -219,102 -219,102 0,0 26,76 28,79 3,2 -3,53 -28,118 -25,65 -105,175 -134,199 -29,24 -87,-25 -92,-34 -4,-9 91,-111 130,-178 40,-67 43,-47 43,-152 0,-52 -10,-81 -19,-97z"/>
   <path class="fil7" d="M2656 3418c0,0 45,-71 82,-132 62,48 182,143 223,173 56,42 162,129 198,111 36,-18 78,13 78,13 0,0 -51,13 -48,275 4,261 188,446 307,579 120,132 305,228 437,244 132,17 -188,-148 -112,-175 76,-26 191,63 469,53 278,-10 -27,-178 -50,-189 -23,-12 -122,0 -139,-9 -17,-10 -59,-159 -59,-181 0,-21 -19,-222 -19,-222l359 -71c0,0 35,365 46,364 9,-1 157,-91 248,-230 36,202 91,492 118,592 43,158 74,287 74,287 0,0 -31,61 -154,118l-396 -24 -1049 -70c-16,-170 -53,-580 -53,-580l-52 -506c0,0 -548,-231 -568,-270 -20,-38 60,-150 60,-150zm2092 -296c15,13 25,22 25,22l84 -97c0,0 51,162 60,169 9,8 10,51 10,51 0,0 -219,220 -262,263 -8,9 -14,24 -18,43 -58,-89 -235,-208 -226,-226 10,-19 181,33 192,3 12,-30 130,-224 130,-224l5 -4z"/>
   <path class="fil4" d="M3094 2405l-175 71 -199 270c0,0 -135,197 -129,208 6,11 245,121 245,121 0,0 -114,300 -155,330 -41,31 -77,-40 -106,-55 -29,-14 -273,-123 -342,-189 -69,-67 -67,-145 -42,-209 24,-65 445,-500 445,-500l335 -317c0,0 53,-53 122,-67 68,-13 128,-13 128,-13l-127 350z"/>
   <path class="fil1" d="M2201 3122c-35,-57 -30,-118 -10,-170 24,-65 445,-500 445,-500l335 -317c0,0 53,-53 122,-67 68,-13 128,-13 128,-13l-37 102c-20,6 -42,10 -62,8 -57,-8 -152,66 -199,104 -46,38 -72,94 -130,129 -58,34 -174,198 -223,254 -50,57 -235,243 -293,315 -58,71 -56,155 -56,155 0,0 -8,0 -20,0z"/>
   <path class="fil4" d="M3842 1991c0,0 204,121 224,127 20,7 133,52 133,52 0,0 655,234 707,271 53,37 173,109 181,178 8,70 -174,321 -161,330 14,10 -160,203 -160,203 0,0 -106,-118 -156,-180 -50,-61 -89,-153 -89,-153l98 -115 -361 -217c0,0 -369,-188 -385,-191 -15,-4 -249,-75 -277,-90 -28,-14 -97,-83 -97,-83 0,0 -91,35 -115,-1 -24,-35 -28,-51 11,-82 38,-30 127,-107 186,-107 60,0 108,-6 156,4 48,10 105,54 105,54z"/>
   <path class="fil1" d="M3842 1991c0,0 204,121 224,127 20,7 133,52 133,52 0,0 655,234 707,271 53,37 173,109 181,178 5,43 -61,152 -110,234 5,-44 11,-90 14,-127 8,-105 -28,-140 -119,-195 -91,-54 -123,-79 -281,-129 -159,-49 -560,-228 -603,-256 -43,-28 -215,-116 -237,-112 -22,4 -83,40 -116,72 -13,12 -23,17 -30,19 -37,-27 -65,-58 -76,-66 -17,-14 -6,-27 -6,-27 0,0 -21,-13 -32,-18 -5,-3 -10,-21 -14,-37 35,-24 74,-44 104,-44 60,0 108,-6 156,4 48,10 105,54 105,54z"/>
   <path class="fil4" d="M3108 2422c0,0 44,102 64,180 21,79 75,369 147,468 72,99 95,130 174,127 79,-2 100,-17 92,28 -3,13 -15,28 -31,42l11 9c0,0 -12,48 28,125 40,77 86,129 86,129 0,0 139,-94 213,-197 47,-66 66,-126 74,-160 -14,-9 -25,-21 -30,-35 -23,-64 -43,-230 -43,-230 0,0 44,-64 74,-94 30,-31 56,-123 38,-178 -19,-56 -42,-78 -42,-78 0,0 28,-275 -362,-310 -390,-35 -493,174 -493,174z"/>
   <path class="fil1" d="M3108 2422c0,0 44,102 64,180 2,5 3,12 5,19 0,0 112,50 132,60 20,10 49,23 63,37 14,14 32,0 38,24 6,25 -2,150 23,166 25,15 48,2 57,-13 10,-15 -17,-7 -20,-22 -2,-14 -9,-134 -8,-145 2,-10 56,-83 115,-116 59,-33 102,-45 131,-26 30,19 61,-253 61,-253 0,0 -156,-99 -387,-59 -55,9 -102,19 -140,29 -101,51 -134,119 -134,119zm545 1075c15,21 26,33 26,33 0,0 139,-94 213,-197 47,-66 66,-126 74,-160 -14,-9 -25,-21 -30,-35 -23,-64 -43,-230 -43,-230 0,0 44,-64 74,-94 30,-31 56,-123 38,-178 -8,-23 -16,-39 -23,-52 -48,-5 -95,22 -95,22l-98 70c0,0 -36,128 -44,184 -8,56 70,113 71,159 2,45 -17,168 -73,324 -23,63 -58,115 -90,154zm-373 -677c0,0 77,4 84,4 6,0 -14,51 -48,35 -33,-17 -36,-39 -36,-39zm266 -25c0,0 84,-29 119,-35 36,-6 -9,70 -67,74 -59,4 -52,-39 -52,-39z"/>
   <path class="fil0" d="M3423 2979c0,0 23,40 27,49 5,9 26,44 26,44 0,0 97,-5 130,-26 34,-20 38,-40 38,-40 0,0 -110,-46 -147,-45 -38,0 -74,18 -74,18z"/>
   <path class="fil8" d="M2746 1158c-12,2 -46,6 -77,9 -31,3 -70,7 -88,9 -18,3 -49,7 -68,9 -166,20 -177,22 -237,32 -14,3 -44,7 -65,10 -22,3 -44,8 -49,10 -5,2 -19,5 -31,6 -37,4 -151,21 -200,30 -84,16 -113,38 -113,89 0,12 2,45 6,75 3,29 7,73 9,98 4,44 15,114 23,144 15,54 21,75 36,118 9,26 25,72 35,103 31,93 39,104 83,120 22,8 121,19 132,15 3,-1 42,-5 85,-7 87,-5 168,-16 265,-35 47,-9 81,-15 114,-21 25,-4 78,-15 112,-23 49,-12 43,-13 69,19 21,28 53,54 72,61 4,2 10,0 14,-2 5,-5 6,-22 3,-97 -5,-134 -14,-262 -18,-267 -2,-2 -8,-3 -12,-2 -9,2 -9,7 -7,81 1,70 4,127 12,216l3 26 -20 -22c-12,-11 -27,-28 -34,-38 -8,-9 -19,-17 -24,-19 -11,-3 -51,3 -86,13 -23,6 -40,9 -114,22 -12,2 -35,6 -49,9 -158,32 -306,48 -418,46 -64,-2 -75,-3 -94,-13 -22,-10 -23,-12 -42,-59 -2,-5 -19,-54 -36,-109 -30,-90 -38,-119 -52,-184 -13,-58 -23,-144 -26,-238 -3,-55 -2,-56 8,-63 13,-8 50,-19 90,-27 15,-3 38,-8 51,-10 13,-2 39,-7 58,-9 33,-5 45,-7 107,-18 99,-19 139,-25 222,-35 134,-17 189,-24 258,-30 32,-3 70,-8 84,-10 35,-6 49,-6 54,1 3,3 6,19 8,34 13,127 14,131 30,120 9,-6 10,-34 4,-101 -8,-88 -19,-98 -87,-86l0 0z"/>
   <path class="fil9" d="M2257 1372c-45,13 -94,51 -101,79 -3,12 -9,18 -26,28 -12,6 -29,19 -37,27 -13,13 -15,18 -15,40 0,24 1,27 21,47 11,11 30,26 41,32 16,8 22,14 25,25 4,13 2,17 -15,33 -17,16 -19,20 -19,41 0,53 46,73 131,61 24,-4 26,-4 32,7 8,15 32,27 55,27 24,0 29,6 29,33 0,21 1,22 11,22 18,0 22,-25 12,-61 -6,-21 -15,-27 -42,-27 -24,0 -41,-9 -31,-17 3,-2 18,-8 32,-13 36,-11 37,-12 108,-46 73,-35 93,-51 104,-81 17,-43 8,-122 -19,-169 -11,-21 -43,-55 -60,-64 -35,-18 -73,-24 -99,-14 -12,4 -18,4 -35,-3 -25,-10 -79,-13 -102,-7l0 0zm76 38c17,13 -17,31 -57,31 -12,0 -24,2 -26,5 -3,2 -16,5 -30,6l-25 3 13 -13c11,-12 39,-28 58,-35 15,-5 60,-3 67,3l0 0zm147 19c26,17 38,32 56,73 8,18 14,70 12,89l-3 18 -14 -19c-7,-10 -18,-21 -24,-25 -8,-5 -15,-18 -23,-43 -8,-28 -16,-41 -39,-69 -17,-20 -30,-37 -30,-38 0,-7 49,5 65,14l0 0zm-72 41c11,5 26,27 26,38 0,7 -44,22 -67,22 -22,0 -28,-21 -16,-55 6,-15 6,-15 27,-13 11,2 25,5 30,8l0 0zm-96 34l0 39 -23 5c-41,9 -49,7 -74,-17 -13,-12 -24,-27 -24,-33 -1,-13 7,-16 53,-24 12,-1 24,-4 26,-6 1,-2 11,-3 22,-3l20 0 0 39zm-153 14c3,9 15,25 26,37l20 20 -18 14c-16,13 -18,14 -29,9 -7,-3 -13,-7 -13,-9 0,-2 -2,-3 -6,-3 -10,0 -31,-28 -31,-42 0,-16 24,-39 42,-42 2,0 6,7 9,16zm286 53c11,10 10,18 -7,26 -18,9 -31,9 -42,1 -11,-8 -11,-13 2,-25 18,-16 30,-17 47,-2l0 0zm-158 33c13,2 33,5 46,5 16,0 22,2 22,7 0,7 -6,9 -40,14 -10,1 -28,4 -39,6 -16,4 -25,3 -35,-1 -8,-4 -18,-7 -22,-9 -13,-4 -10,-15 7,-23 15,-7 20,-7 61,1l0 0zm224 14c4,6 -2,24 -8,24 -2,0 -4,-7 -4,-14 0,-14 6,-19 12,-10zm-155 45c-3,1 -9,1 -14,0 -4,-1 -2,-2 6,-2 8,0 11,1 8,2zm113 0c-5,1 -14,5 -20,7 -8,5 -12,4 -18,-2 -8,-7 -7,-8 19,-7 16,0 24,1 19,2l0 0zm-179 21c20,6 48,12 71,16l19 3 -13 7c-7,3 -15,6 -17,6 -3,0 -15,5 -29,11 -39,18 -62,24 -99,24 -27,0 -36,-2 -44,-9 -21,-19 -7,-40 39,-53 10,-4 23,-8 29,-11 9,-3 12,-3 44,6l0 0z"/>
   <path class="fil8" d="M4476 1215c-27,10 -35,17 -54,45 -10,15 -18,28 -18,30 0,1 -12,22 -26,46 -14,23 -39,71 -56,106 -18,34 -39,73 -47,86 -9,14 -16,26 -16,27 0,2 -7,15 -16,29 -9,14 -16,26 -16,27 0,1 -20,37 -44,79 -50,88 -59,109 -59,148 0,46 17,71 54,83 23,6 125,5 298,-7 90,-6 145,-7 216,-4 53,2 99,4 103,3 3,0 23,-2 42,-4 62,-5 97,-34 97,-81 0,-27 -7,-43 -61,-123 -20,-30 -36,-55 -36,-57 0,-8 -63,-100 -68,-100 -5,0 -7,3 -5,8 1,5 4,16 5,25 6,30 40,94 87,165 49,75 52,84 38,104 -17,26 -21,26 -230,27 -106,1 -228,3 -272,7 -146,9 -179,10 -201,4 -30,-8 -36,-20 -33,-59 2,-31 9,-50 35,-94 5,-9 20,-36 34,-58 13,-24 30,-53 38,-66 7,-13 15,-27 16,-31 2,-5 4,-8 7,-8 2,0 4,-3 4,-5 0,-3 5,-13 12,-25 7,-10 25,-42 39,-70 15,-29 32,-61 38,-73 7,-11 25,-45 41,-74 35,-62 54,-84 77,-84 11,0 16,3 21,12 7,12 47,44 55,44 10,0 6,-8 -17,-33 -12,-14 -24,-29 -25,-33 -2,-5 -11,-11 -20,-15 -20,-8 -18,-8 -37,-1l0 0zm8 469c-18,5 -39,33 -39,52 0,31 31,69 56,69 19,0 46,-20 57,-41 8,-17 9,-22 3,-36 -12,-35 -45,-53 -77,-44l0 0zm-25 -283l-20 6 0 28c2,45 11,133 16,151 2,10 4,23 4,31 0,13 3,16 13,18 14,4 56,-1 73,-7l12 -5 0 -89c0,-53 3,-96 5,-107 9,-28 2,-32 -44,-32 -20,1 -47,3 -59,6l0 0z"/>
   <polygon class="fil10" points="1294,4241 2531,4338 2593,4473 2818,4985 3748,5073 2963,5370 2402,5302 1611,5208 1574,5126 1236,4247 "/>
   <path class="fil11" d="M1294 4241l1237 97 62 135 109 249c-137,130 -328,236 -595,261 -238,22 -437,4 -600,-31l-271 -705 58 -6z"/>
   <path class="fil12" d="M1294 4241l1237 97 62 135 29 68c-15,7 -32,14 -48,13 -37,-4 -71,-141 -99,-157 -28,-17 -247,-4 -358,-22 -110,-18 -319,-20 -390,-25 -71,-5 -377,-36 -397,-36 -20,0 71,223 111,336 40,112 25,144 25,144l-19 2 -211 -549 58 -6z"/>
   <polygon class="fil10" points="2818,4985 3748,5073 2991,5359 "/>
   <path class="fil13" d="M3568 5141l-574 217 -3 0 -140 -300c62,8 518,60 717,83z"/>
   <path class="fil8" d="M3320 1885c-6,6 -12,17 -13,26 -2,8 -5,16 -7,17 -3,2 -5,8 -5,13 0,14 -6,19 -30,27 -10,3 -23,7 -28,9 -5,2 -21,7 -35,11 -30,9 -34,12 -43,38l-6 18 -37 4c-48,5 -80,16 -118,42 -11,8 -65,58 -119,111 -55,53 -105,102 -112,107 -8,6 -44,40 -81,76 -48,47 -66,68 -65,75 4,22 18,12 101,-69 304,-296 289,-283 352,-305 23,-8 71,-20 79,-20 4,0 -3,30 -7,35 -2,3 -12,8 -21,11 -10,4 -22,8 -27,10 -6,3 -22,9 -37,14 -44,14 -47,17 -43,64l3 41 -16 16c-19,21 -70,89 -79,107 -7,12 -7,14 1,23 6,8 17,11 51,15 39,5 43,7 42,14 -1,7 -8,12 -23,17 -11,3 -25,8 -30,10 -29,12 -36,14 -46,14 -12,0 -22,11 -56,56 -10,14 -27,36 -37,49 -37,46 -78,105 -130,187 -91,143 -126,189 -207,271 -16,16 -29,32 -29,34 0,2 6,4 14,4 10,0 22,-9 59,-44 25,-24 47,-44 49,-44 1,0 5,3 8,7 6,7 90,50 121,62 9,4 24,10 33,13 9,4 21,9 26,11 5,2 15,6 23,8 12,4 14,7 13,20 0,9 -7,30 -15,49 -35,75 -114,230 -117,230 -2,0 -10,-5 -17,-12 -8,-6 -20,-11 -26,-11 -11,0 -23,-5 -76,-29 -11,-5 -21,-9 -23,-9 -2,0 -17,-6 -71,-30 -14,-6 -25,-11 -26,-11 -3,0 -111,-61 -136,-76 -46,-30 -76,-59 -97,-94 -15,-26 -17,-31 -17,-64 0,-24 3,-41 9,-53 8,-19 28,-54 33,-58 2,-1 11,-14 21,-28 15,-20 64,-80 77,-93 1,-1 23,-25 49,-54 25,-28 176,-196 181,-202 6,-5 14,-15 19,-22 8,-13 8,-14 0,-21 -7,-8 -9,-7 -27,13 -10,11 -168,188 -196,218 -82,88 -99,107 -108,119 -5,6 -16,20 -25,30 -20,23 -36,48 -54,82 -11,21 -12,31 -13,65 0,70 31,121 102,175 20,16 79,53 84,53 1,0 13,7 26,16 30,18 123,63 131,63 2,0 14,6 27,12 14,6 33,14 42,18l17 7 -4 24c-5,32 -6,110 -1,144 4,25 4,26 19,27 12,2 15,0 15,-7 0,-5 2,-10 4,-13 3,-3 10,-15 17,-28 7,-13 19,-34 26,-46 14,-24 151,-300 158,-318 3,-6 6,-15 9,-21 2,-6 7,-18 10,-27l5 -16 43 21c23,12 49,23 56,26 17,7 78,29 98,35 8,3 18,7 23,9 5,2 20,7 33,11 13,5 27,10 33,12 5,2 25,9 44,16 19,7 39,14 44,17 5,2 22,7 37,11 16,4 32,10 37,12 6,2 26,7 45,12 19,4 42,9 51,12 10,2 35,4 58,4 22,0 40,1 40,2 0,1 -9,16 -20,34 -25,39 -34,57 -44,92 -12,45 -16,93 -14,159 2,54 4,64 13,76 2,3 4,6 7,8 0,0 -2,62 33,70 29,7 154,-62 197,-86 -1,15 -1,32 -2,49 -4,109 -4,129 6,236 22,233 23,242 32,250 14,12 16,-3 13,-90 -1,-47 -4,-105 -7,-127 -4,-38 -8,-212 -9,-317 51,27 190,97 231,89 50,-10 124,-90 151,-207 23,-100 15,-172 12,-191 0,-2 0,-4 -1,-5 -1,-3 -5,-17 -7,-33 -6,-34 -27,-82 -47,-104 -12,-14 -13,-17 -6,-17 19,0 90,-31 134,-58 14,-8 32,-18 41,-23 10,-5 18,-11 18,-12 0,-2 3,-5 8,-7 4,-1 14,-6 20,-10 7,-5 22,-15 33,-22 11,-8 27,-19 35,-26 8,-6 25,-20 39,-30 13,-11 26,-21 30,-24 2,-3 22,-19 44,-36 22,-17 51,-41 65,-52 14,-12 28,-21 31,-21 2,0 10,13 18,29 13,27 54,95 88,143 17,25 127,135 171,171 31,25 43,30 41,19 -2,-9 -53,-66 -121,-136 -46,-49 -102,-114 -102,-121 0,-1 -7,-12 -15,-25 -22,-32 -42,-67 -52,-91 20,2 48,3 82,2 68,-1 127,-58 140,-72 3,-2 3,-4 3,-7 0,-5 -12,-13 -38,-26 -92,-44 -160,-79 -185,-96 -7,-4 -15,-9 -19,-11 -8,-4 -16,-8 -60,-36 -19,-11 -61,-36 -92,-56 -32,-19 -63,-37 -69,-41 -82,-52 -256,-146 -323,-173 -7,-3 -16,-7 -20,-9 -5,-2 -12,-4 -15,-4 -4,0 -17,-7 -29,-16 -20,-13 -32,-19 -74,-35 -15,-7 -49,-14 -84,-20 -74,-11 -99,-17 -123,-29 -37,-19 -121,-113 -121,-135 0,-4 -3,-7 -7,-7 -4,0 -7,4 -7,9 0,7 -3,9 -11,9 -7,0 -13,2 -14,4 -2,2 -12,6 -23,7 -10,2 -21,6 -25,8 -8,7 -40,-8 -38,-17 3,-16 123,-69 140,-63 6,3 22,8 36,12 14,5 33,13 41,18 14,7 16,8 18,1 2,-5 1,-12 -2,-15 -5,-10 -51,-34 -62,-34 -5,0 -10,-2 -11,-5 -2,-2 -13,-4 -26,-4 -13,0 -23,-2 -23,-4 0,-2 11,-7 23,-12 24,-7 24,-7 93,7 44,10 55,10 58,3 4,-13 -9,-18 -60,-25 -10,-2 -20,-5 -23,-7 -3,-2 -12,-4 -21,-5l-16 0 20 -7c26,-7 72,-8 100,0 17,4 23,4 32,-1 10,-5 15,-4 44,10 17,9 43,22 57,30 14,8 43,23 63,34 36,19 70,37 105,57 9,5 19,12 24,16 22,19 32,-7 10,-27 -22,-19 -34,-27 -118,-73 -41,-22 -79,-43 -96,-53 -8,-4 -18,-10 -23,-13 -5,-2 -17,-8 -28,-12 -10,-4 -21,-9 -26,-11 -16,-9 -62,-11 -83,-3 -23,8 -47,10 -47,3 0,-9 -31,-38 -41,-38 -6,0 -29,10 -53,21l-42 21 -26 -9c-14,-6 -37,-15 -50,-21 -32,-14 -48,-15 -61,-1l0 0zm680 1583c-2,1 -3,3 -4,7 -1,3 -3,7 -5,11 -2,4 -4,9 -6,13 -17,34 -50,84 -70,106 -16,19 -38,21 -64,6 -10,-6 -30,-17 -46,-25 -60,-33 -91,-50 -93,-54 -1,-2 7,-9 17,-15 31,-19 45,-30 90,-76 50,-49 57,-57 89,-105 24,-35 29,-44 48,-89 5,-13 12,-22 15,-22 3,0 4,-5 2,-14 -4,-19 3,-18 25,2 25,23 52,79 60,123 0,0 -32,81 -58,132zm530 -655c-2,-1 -4,-2 -6,-2 -10,-1 -13,1 -15,10 -2,6 -8,14 -14,17 -7,4 -29,21 -50,37 -22,17 -41,32 -44,34 -2,2 -13,10 -23,19 -10,8 -24,20 -31,25 -6,4 -27,20 -46,35 -45,34 -97,69 -101,69 -1,0 -10,5 -18,12 -8,6 -17,11 -18,11 -2,0 -9,5 -16,10 -22,15 -103,56 -112,56 -5,0 -10,1 -12,4 -1,2 -9,4 -16,4 -8,-1 -16,2 -20,5 -4,3 -10,3 -20,-1 -12,-5 -15,-11 -23,-36 -4,-17 -10,-35 -12,-42 -10,-29 -21,-95 -26,-151l-2 -28 43 -44c58,-59 78,-102 78,-162 0,-28 -2,-39 -11,-58 -7,-12 -12,-29 -12,-37 0,-13 11,-62 19,-81 2,-5 7,-22 12,-37 5,-15 10,-30 12,-33 2,-2 4,-10 4,-18 0,-8 3,-18 6,-23 6,-7 9,-7 40,11 71,41 142,79 214,126 10,8 21,14 21,14 2,0 13,7 27,15 13,9 34,21 46,28 11,6 46,27 76,45 47,29 88,52 126,72l-76 94zm-799 318c-9,12 -38,50 -70,76 -25,21 -52,33 -68,40 0,24 -2,48 -4,52 -7,13 -8,49 -2,62 25,53 33,69 51,96 26,39 37,52 44,52 13,0 77,-48 119,-91 62,-63 99,-116 129,-189 12,-27 12,-31 6,-42 -3,-6 -9,-22 -14,-34 -5,-14 -10,-28 -12,-33 -2,-5 -5,-14 -6,-19 -1,-5 -6,-21 -10,-35 -4,-14 -10,-45 -12,-69 -3,-25 -6,-55 -7,-69 -3,-23 -2,-25 15,-46 10,-13 25,-30 33,-39 24,-25 56,-71 59,-85 2,-7 5,-14 8,-16 2,-1 4,-19 4,-41 0,-33 -2,-40 -12,-56 -13,-20 -30,-30 -48,-30 -23,0 -71,37 -71,56 0,3 -3,13 -7,22 -15,34 -14,32 -31,96 -2,11 -5,27 -7,38 -4,33 -14,35 -28,7 -7,-17 -20,-89 -20,-115 0,-33 -7,-44 -36,-59 -38,-17 -45,-35 -44,-103 1,-29 3,-63 5,-76 2,-14 3,-26 1,-26 -1,-1 -15,0 -29,1 -14,2 -31,2 -36,-1 -16,-5 -24,-27 -24,-68l0 0c0,-27 -1,-38 -5,-37 -13,0 -89,37 -123,58 -20,13 -41,27 -48,31 -20,12 -41,10 -56,-5 -7,-7 -16,-20 -19,-28 -4,-9 -10,-15 -15,-15 -15,0 -59,32 -93,68 -39,41 -49,44 -78,18 -1,33 -1,79 9,112 2,5 7,22 12,37 4,16 9,33 11,38 7,16 19,65 26,100 2,6 5,16 7,21 2,5 5,15 7,23 1,7 5,26 8,40 4,15 7,28 10,30 1,2 3,8 3,12 0,19 25,88 52,143 34,69 66,106 113,131 28,15 34,16 69,16 35,-1 89,-14 127,-30 15,-6 78,-27 94,-30 16,-3 21,1 13,11zm-575 -529c0,0 -26,-92 -19,-139l-45 27c-63,40 -72,44 -86,36 -8,-4 -9,-9 -8,-29 2,-14 4,-28 6,-33 4,-8 3,-8 -7,-5 -6,2 -19,7 -29,12 -10,4 -24,10 -32,11 -15,4 -34,25 -117,138 -34,46 -101,150 -101,157 0,3 -2,5 -4,6 -1,1 -9,12 -17,24 -28,47 -69,108 -83,123 -9,10 -9,11 0,20 4,6 21,16 37,23 69,32 82,38 84,38 4,0 44,18 111,51 67,33 100,46 172,70 24,8 47,16 52,18 5,2 20,7 32,12 13,4 28,10 34,12 23,9 32,13 55,20 13,5 27,10 32,12 5,2 21,8 35,12 14,4 30,9 35,11 5,3 16,5 23,7 8,2 28,6 45,11 43,10 145,13 161,4 8,-4 20,-10 29,-14 19,-11 21,-29 2,-24 -34,7 -71,8 -95,2 -78,-18 -135,-78 -187,-195 -8,-16 -28,-79 -37,-114 -2,-11 -6,-25 -8,-33 -2,-8 -8,-31 -12,-51 -4,-21 -10,-42 -12,-47 -2,-5 -8,-28 -14,-51 -5,-23 -12,-48 -14,-56 -8,-27 -14,-49 -18,-66zm628 1348c-18,12 -22,21 -23,41 0,15 2,20 11,25 9,5 13,5 22,0 17,-9 22,-19 23,-42 0,-31 -11,-39 -33,-24l0 0zm522 -59c-12,2 -37,6 -56,9 -19,2 -47,6 -61,9 -42,7 -117,19 -140,23 -12,2 -27,7 -34,12 -13,8 -13,8 -10,46 2,35 13,128 21,198 8,65 15,102 24,131 22,68 28,72 101,68 30,-2 57,-5 59,-8 3,-2 9,-4 14,-4 14,-1 26,-11 21,-19 -3,-5 -17,-5 -69,-4 -69,3 -84,-1 -84,-19 0,-4 -2,-9 -4,-12 -9,-10 -21,-79 -38,-209 -2,-21 -6,-52 -9,-70 -3,-18 -5,-43 -5,-54l0 -22 22 -3c68,-10 118,-18 138,-21 13,-3 37,-6 54,-9 62,-9 114,-19 121,-22 14,-5 16,14 24,187 2,53 6,116 9,139 6,50 6,70 2,90 -3,14 -2,15 9,15 18,0 31,-24 28,-51 -5,-47 -11,-128 -16,-217 -6,-120 -12,-164 -25,-178 -8,-9 -14,-10 -42,-10 -18,1 -43,3 -54,5zm315 -96c-2,6 7,80 15,123 3,12 7,33 9,47 3,14 8,43 12,65 5,22 10,49 12,61 3,19 15,82 23,123 3,10 6,30 9,44 11,59 20,106 24,125 6,26 11,53 18,89 4,17 8,34 10,39 3,4 4,13 4,19 0,7 2,17 5,23 2,6 7,27 12,48 4,20 10,41 11,46 2,5 9,28 14,51 11,45 14,56 26,96 4,14 8,33 10,43 2,10 5,19 7,20 2,1 4,12 4,23 0,24 -3,27 -52,69 -25,21 -34,36 -23,36 14,0 74,-30 92,-46 30,-27 32,-50 10,-106 -3,-9 -21,-73 -27,-100 -13,-56 -25,-101 -28,-109 -2,-5 -5,-16 -7,-23 -1,-8 -6,-29 -9,-47 -5,-18 -10,-41 -12,-53 -3,-10 -6,-28 -9,-39 -7,-35 -19,-94 -24,-115 -6,-36 -24,-128 -32,-166 -2,-10 -7,-37 -12,-60 -4,-23 -10,-50 -11,-61 -9,-40 -20,-94 -24,-118 -2,-14 -7,-35 -9,-47 -2,-11 -6,-34 -9,-51 -8,-44 -13,-56 -26,-56 -6,0 -12,3 -13,7l0 0zm-871 -81c-10,7 -22,29 -22,45 0,8 5,19 10,26 9,11 13,13 29,11 16,0 21,-3 28,-16 8,-15 8,-15 -4,-40 -14,-30 -23,-36 -41,-26zm-1003 -74c-11,11 -6,17 24,31 17,8 32,15 33,15 2,0 12,4 23,8 32,15 87,41 129,61 55,25 93,42 95,42 1,0 17,7 36,16 18,9 40,18 48,21 14,6 15,7 20,53 3,26 8,71 11,99 2,28 7,69 9,91 5,55 11,125 18,209 3,40 7,81 9,92 3,11 5,32 5,46 0,14 2,40 5,57 4,32 11,120 19,255 5,98 10,137 17,149l6 11 -48 0c-26,0 -73,-2 -104,-5 -73,-6 -211,-14 -272,-16l-49 -2 -7 -15c-4,-8 -10,-23 -14,-32 -3,-8 -14,-33 -23,-53 -16,-35 -22,-48 -39,-88 -4,-8 -12,-27 -19,-42 -7,-15 -12,-27 -12,-28 0,-1 -8,-19 -17,-39 -9,-20 -19,-43 -23,-50 -3,-8 -11,-26 -18,-41 -6,-15 -12,-28 -12,-29 0,-5 -24,-53 -28,-56 -3,-2 -8,0 -12,3 -8,7 -6,22 10,56 6,12 11,24 11,25 0,2 8,19 17,39 16,35 23,50 30,68 2,5 8,19 13,31 6,13 14,33 20,45 5,12 11,26 14,31 1,5 8,20 14,33 5,12 13,30 16,38 4,8 10,22 13,30 4,9 11,26 17,39 6,13 12,27 14,33 12,28 30,68 48,110 7,15 13,28 13,29 0,1 7,18 16,37 9,20 16,36 16,37 0,2 9,21 19,43 10,22 18,41 18,42 0,1 6,14 13,28 6,15 13,32 15,37 2,5 10,21 16,36 7,15 12,28 12,29 0,1 4,12 10,23 10,22 9,37 -1,33 -4,-2 -26,-5 -51,-8 -46,-5 -67,-7 -174,-20 -75,-9 -118,-15 -145,-18 -10,-2 -48,-6 -83,-10 -36,-4 -79,-9 -96,-12 -17,-2 -39,-5 -51,-7 -40,-4 -142,-16 -179,-21 -76,-10 -99,-13 -166,-21 -37,-4 -80,-9 -95,-11 -15,-2 -49,-6 -75,-9 -78,-8 -129,-14 -156,-19 -53,-9 -77,-3 -63,17 5,6 15,9 36,11 30,4 130,16 186,23 71,9 108,14 167,21 35,4 79,9 98,12 19,2 63,7 96,11 66,8 123,15 170,21 16,2 59,7 95,11 36,5 82,11 102,13 21,3 53,7 70,9 18,2 62,7 98,11 36,5 78,10 93,12 84,11 134,15 138,10 4,-3 9,-3 17,1 10,4 13,4 22,-7 5,-7 20,-15 35,-20 14,-4 30,-9 35,-12 5,-2 26,-10 47,-16 20,-7 41,-14 46,-16 5,-3 20,-8 33,-12 13,-5 27,-10 32,-12 5,-2 22,-8 38,-13 24,-8 103,-37 123,-44 4,-1 29,-10 56,-20 27,-9 62,-21 79,-27 17,-7 47,-17 67,-24 21,-7 42,-14 47,-16 5,-2 25,-9 44,-16 54,-20 60,-23 62,-32 2,-4 7,-8 12,-8 13,0 23,-12 15,-20 -9,-9 -43,-17 -72,-17 -15,0 -40,-2 -56,-5 -15,-2 -59,-7 -98,-10 -38,-2 -89,-7 -112,-9 -108,-11 -136,-13 -212,-20 -44,-5 -102,-10 -126,-12 -60,-6 -123,-12 -200,-19 -68,-5 -75,-8 -81,-38 -2,-7 -5,-14 -8,-15 -2,-2 -4,-9 -4,-15 0,-9 2,-11 9,-8 4,2 28,5 54,7 26,2 60,5 77,7 30,2 109,8 233,16 34,3 90,6 123,9 34,2 109,8 168,12 101,7 205,14 279,19 18,1 65,4 105,7 228,16 275,19 400,26 45,3 111,8 147,11 36,2 80,5 98,7 37,1 124,8 281,18 121,9 189,13 312,21 45,2 101,7 125,9 58,7 93,7 96,-1 1,-3 0,-10 -2,-15 -3,-8 -10,-10 -93,-15 -116,-7 -230,-15 -298,-20 -29,-2 -89,-6 -133,-9 -43,-2 -91,-6 -107,-7 -15,-2 -58,-5 -95,-8 -37,-2 -90,-6 -119,-8 -28,-2 -94,-6 -147,-9 -52,-3 -107,-8 -121,-10 -14,-3 -43,-5 -64,-5 -21,0 -52,-1 -69,-4 -18,-3 -73,-7 -123,-10 -279,-17 -386,-26 -391,-32 -1,-2 -8,-5 -15,-7 -9,-2 -13,-1 -13,4 0,6 -7,7 -40,5 -23,-2 -59,-4 -81,-7 -22,-3 -50,-4 -63,-4 -19,0 -26,-3 -33,-11 -22,-25 -26,-51 -34,-206 -2,-49 -8,-129 -12,-179 -8,-88 -10,-116 -20,-207 -3,-24 -7,-70 -10,-103 -2,-33 -7,-72 -9,-86 -3,-14 -5,-35 -5,-47 0,-11 -2,-32 -5,-46 -2,-14 -6,-45 -9,-68 -11,-97 -11,-95 -4,-95 6,0 7,-3 3,-19 -4,-13 -9,-20 -20,-25 -34,-16 -77,-35 -79,-35 -1,0 -17,-7 -36,-16 -19,-8 -46,-21 -60,-28 -14,-6 -43,-19 -65,-29 -62,-29 -79,-37 -116,-50 -19,-7 -40,-15 -46,-17 -14,-6 -17,-6 -23,1l0 0zm183 1368c128,13 196,20 305,30 45,4 100,10 123,12 24,2 68,6 100,9 33,2 78,7 101,9 23,3 53,6 67,7 46,5 72,10 65,13 -4,2 -19,7 -35,13 -44,14 -111,38 -121,42 -5,2 -19,7 -32,12 -13,4 -28,9 -33,11 -5,3 -20,8 -33,12 -12,5 -27,10 -32,12 -5,2 -31,11 -58,20 -27,10 -52,19 -56,21 -4,2 -15,6 -23,7 -9,2 -19,5 -21,7 -3,2 -13,6 -24,9 -10,4 -23,8 -28,10 -5,2 -19,7 -32,12 -13,4 -28,9 -33,11 -5,3 -19,8 -32,12 -13,5 -28,10 -33,12 -29,12 -78,28 -79,27 -1,-2 -4,-10 -26,-58 -6,-13 -17,-38 -26,-57 -9,-19 -16,-35 -16,-36 0,-2 -19,-46 -37,-85 -8,-15 -14,-30 -14,-32 0,-2 -6,-16 -14,-32 -7,-15 -14,-29 -14,-31 0,-5 35,-4 91,1l0 0zm-1867 -1513c-5,2 -15,4 -21,4 -18,0 -49,14 -55,24 -7,10 0,357 8,423 10,76 28,179 42,235 2,11 7,28 10,40 10,45 41,143 62,198 24,62 48,106 158,289 32,54 107,133 178,187l37 29 20 52c12,29 23,59 26,67 4,7 16,40 28,72 27,72 27,72 39,74 14,2 21,-13 13,-30 -18,-39 -21,-49 -31,-74 -5,-16 -13,-35 -16,-42 -3,-8 -16,-40 -28,-72 -23,-63 -25,-68 -37,-94 -4,-10 -7,-19 -7,-22 0,-3 -2,-9 -4,-14 -5,-10 -12,-26 -19,-47 -4,-9 -10,-24 -13,-33 -7,-17 -9,-20 -22,-56 -5,-11 -10,-25 -12,-30 -2,-5 -7,-17 -11,-26 -4,-10 -8,-20 -8,-22 0,-3 -1,-9 -4,-14 -7,-13 -17,-39 -28,-68 -6,-16 -12,-30 -15,-32 -2,-3 -4,-8 -4,-12 0,-3 -3,-14 -7,-23 -10,-21 -14,-32 -21,-52 -6,-16 -12,-31 -25,-62 -3,-8 -9,-23 -12,-34 -4,-10 -11,-25 -15,-33 -5,-9 -7,-18 -6,-21 4,-5 119,-5 193,1 32,3 86,7 119,9 34,3 75,6 93,7 18,2 64,5 103,8 38,2 99,7 135,9 78,6 150,11 258,17 45,3 94,7 109,8 36,4 136,11 198,15 42,2 51,1 56,-5 5,-7 5,-9 -2,-16 -6,-7 -17,-10 -57,-12 -28,-1 -70,-4 -93,-6l-43 -2 0 -14c0,-7 -2,-17 -5,-22 -1,-4 -7,-16 -12,-26 -15,-32 -50,-49 -98,-49l-27 0 0 -69c0,-67 -1,-69 -14,-96 -36,-71 -117,-124 -190,-124 -41,0 -74,9 -126,36 -45,22 -45,22 -55,-17 -8,-34 -27,-77 -46,-102 -30,-41 -83,-61 -162,-61 -45,0 -52,-3 -52,-25 0,-38 -17,-103 -37,-137 -15,-29 -54,-66 -82,-80 -20,-11 -28,-12 -74,-12 -33,0 -57,2 -65,6 -7,3 -18,8 -25,11 -7,4 -20,10 -29,16l-16 10 -12 -11c-15,-14 -70,-41 -99,-48 -25,-6 -31,-6 -43,0l0 0zm3085 -1347c0,15 20,28 65,41 14,4 29,9 33,12 1,0 40,13 40,13 7,0 96,32 134,49 8,3 21,9 30,12 19,7 38,15 62,25 9,4 18,7 19,7 2,0 13,5 25,10 43,19 52,23 54,23 2,0 12,4 23,9 11,5 29,12 41,17 11,4 25,9 30,11 5,2 19,8 31,14 12,5 24,10 25,10 4,0 62,27 123,57 93,47 138,81 172,132 14,21 15,24 13,57 -3,45 -19,80 -85,184 -42,67 -123,186 -132,193 -2,2 -9,11 -17,21 -7,11 -14,20 -16,21 -1,2 -8,11 -16,21l-13 18 11 8c11,8 11,8 29,-12 19,-22 26,-25 26,-14 0,6 12,47 19,66 2,5 7,20 11,34 8,25 13,38 23,60 6,13 4,15 -60,69 -81,68 -171,165 -201,217 -11,19 -14,46 -6,46 2,0 9,-9 14,-20 18,-34 176,-190 258,-252 25,-19 33,-41 26,-73 -3,-14 -7,-31 -9,-37 -3,-7 -8,-28 -12,-47 -9,-44 -13,-61 -23,-92 -6,-21 -6,-27 -2,-34 59,-80 130,-186 130,-193 0,-1 7,-13 15,-26 46,-73 64,-120 64,-171 0,-33 -1,-38 -17,-64 -20,-33 -51,-67 -85,-90 -27,-18 -103,-59 -131,-70 -9,-4 -31,-14 -50,-22 -18,-8 -35,-15 -36,-15 -1,0 -13,-6 -26,-12 -14,-6 -33,-13 -41,-16 -9,-4 -24,-10 -33,-13 -20,-8 -20,-8 -95,-39 -34,-13 -67,-27 -75,-30 -7,-4 -27,-11 -42,-16 -15,-6 -34,-13 -42,-16 -7,-3 -21,-9 -30,-12 -9,-3 -21,-7 -26,-10 -22,-9 -99,-32 -144,-44 -32,-7 -47,-13 -64,-21 -12,-7 -17,-5 -17,4l0 0zm-708 871c0,12 13,43 22,53 5,6 14,8 31,8 28,0 91,-12 99,-19 13,-10 6,-14 -20,-11 -15,1 -42,4 -61,5l-33 3 -11 -22c-11,-24 -27,-34 -27,-17zm-5 -62c-16,7 -29,17 -32,24 -10,18 -1,22 23,10 29,-14 75,-16 118,-7 18,5 37,10 42,13 6,1 17,7 26,10 43,19 58,13 33,-13 -26,-26 -98,-49 -153,-48 -23,0 -38,3 -57,11l0 0zm-175 -224c-1,4 -2,11 0,14 4,11 34,21 61,21 35,0 55,-19 25,-24 -9,-2 -24,-5 -34,-8 -35,-10 -49,-11 -52,-3zm141 -13c-2,2 -3,39 -3,82 0,85 2,96 26,115 15,12 31,12 40,1 10,-10 7,-15 -8,-15 -7,0 -14,-5 -19,-12 -7,-11 -9,-24 -9,-86 0,-54 -1,-74 -6,-80 -7,-8 -16,-10 -21,-5l0 0zm178 -28c-8,6 -19,11 -21,11 -4,0 -6,2 -6,4 0,4 -34,19 -42,19 -3,0 -5,5 -5,10 0,12 20,12 50,0 51,-22 60,-30 55,-47 -4,-12 -11,-11 -31,3l0 0zm334 -21c-7,5 -21,28 -31,50 -16,31 -20,46 -20,66 -1,23 0,26 10,27 8,1 10,0 10,-12 0,-29 21,-52 36,-39 6,7 28,11 32,5 1,-2 -6,-13 -17,-24l-18 -21 19 -21c16,-18 17,-23 13,-31 -6,-12 -18,-12 -34,0l0 0zm-674 -38c-5,5 -9,11 -8,15 3,5 74,51 110,69 12,6 28,6 31,1 5,-9 -72,-73 -106,-87 -15,-6 -17,-6 -27,2l0 0zm360 -50c-14,5 -60,41 -78,61 -21,21 -39,50 -39,60 0,9 11,12 15,5 2,-5 51,-46 96,-80 20,-16 38,-32 38,-35 0,-4 -5,-9 -9,-12 -11,-5 -9,-5 -23,1l0 0zm-57 723c0,15 11,55 23,85 12,30 47,83 77,116 21,24 26,34 16,34 -5,0 -29,11 -95,42 -113,54 -117,56 -121,41 -5,-18 1,-147 7,-174 11,-50 41,-108 71,-141 18,-17 22,-18 22,-3l0 0z"/>
   <path class="fil0" d="M1280 3738c22,17 41,78 45,144 1,35 1,41 -5,41 -8,0 -12,-8 -17,-33 -9,-37 -25,-91 -31,-106 -12,-26 -15,-41 -10,-47 7,-6 9,-6 18,1zm325 336c11,3 24,11 28,16 7,11 6,11 -14,8 -19,-3 -49,1 -102,12 -44,10 -56,10 -59,2 -6,-15 26,-35 58,-36 10,0 22,-2 29,-4 17,-6 37,-5 60,2l0 0zm388 42c11,9 10,25 -2,30 -6,2 -12,3 -14,2 -11,-7 -144,13 -161,23 -4,3 -7,1 -9,-4 -4,-12 21,-31 53,-41 15,-5 32,-10 39,-12 19,-6 85,-5 94,2l0 0z"/>
  </g>
 </g>
</svg>
