<?xml version="1.0" encoding="utf-8"?>
<!-- Generator: Adobe Illustrator 25.2.0, SVG Export Plug-In . SVG Version: 6.00 Build 0)  -->
<svg version="1.1" id="Layer_1" xmlns="http://www.w3.org/2000/svg" xmlns:xlink="http://www.w3.org/1999/xlink" x="0px" y="0px"
	 viewBox="0 0 1920 1080" style="enable-background:new 0 0 1920 1080;" xml:space="preserve">
<style type="text/css">
	.st0{fill:#FDCDBE;}
	.st1{fill:none;stroke:#5E6472;stroke-width:20.4129;stroke-linejoin:round;stroke-miterlimit:10;}
	.st2{fill:#FCA98F;}
	.st3{fill:none;stroke:#5E6472;stroke-width:23.435;stroke-linecap:round;stroke-miterlimit:10;}
</style>
<g>
	<path class="st0" d="M1183.95,827.23c-55.98,0-55.98,2.34-111.97,2.34c-55.99,0-55.99-8.35-111.97-8.35
		c-55.99,0-55.99,0.67-111.98,0.67c-55.99,0-55.99,3.09-111.98,3.09c-33.72,0-65.88-27.31-65.88-61.03
		c0-55.98,3.61-55.98,3.61-111.97c0-55.99-1.33-55.99-1.33-111.97c0-55.99,3.77-55.99,3.77-111.98s-6.29-55.99-6.29-111.98
		c0-33.72,32.4-56.08,66.12-56.08c55.98,0,55.98-9.75,111.97-9.75c55.99,0,55.99,2.71,111.97,2.71c55.99,0,55.99,5.72,111.98,5.72
		c55.99,0,55.99-5.21,111.98-5.21c33.72,0,57.4,28.89,57.4,62.61c0,55.98,5.25,55.98,5.25,111.97c0,55.99,0.62,55.99,0.62,111.97
		c0,55.99,1.1,55.99,1.1,111.98c0,55.99-1.17,55.99-1.17,111.98C1247.15,797.67,1217.67,827.23,1183.95,827.23z"/>
</g>
<path class="st1" d="M783.5,471.15c0,0,77.06-21.72,124.37,48.68C833.64,478.8,775,533.3,775,533.3"/>
<path class="st1" d="M1136.5,471.15c0,0-77.06-21.72-124.37,48.68C1086.36,478.8,1145,533.3,1145,533.3"/>
<ellipse class="st2" cx="814.79" cy="582.08" rx="58.22" ry="13.09"/>
<ellipse class="st2" cx="1105.26" cy="582.08" rx="58.22" ry="13.09"/>
<path class="st3" d="M1008.36,585.97c0,41.1-21.65,74.42-48.36,74.42s-48.36-33.32-48.36-74.42H1008.36z"/>
</svg>
