<?xml version="1.0" encoding="utf-8"?>
<!-- Generator: Adobe Illustrator 25.2.0, SVG Export Plug-In . SVG Version: 6.00 Build 0)  -->
<svg version="1.1" id="Layer_1" xmlns="http://www.w3.org/2000/svg" xmlns:xlink="http://www.w3.org/1999/xlink" x="0px" y="0px"
	 viewBox="0 0 1920 1080" style="enable-background:new 0 0 1920 1080;" xml:space="preserve">
<style type="text/css">
	.st0{fill:#F9EECF;}
	.st1{fill:#FFFFFF;}
	.st2{fill:#5E6472;stroke:#5E6472;stroke-width:9.9444;stroke-miterlimit:10;}
	.st3{fill:#F4DFA3;}
	.st4{fill:none;stroke:#5E6472;stroke-width:23.435;stroke-linecap:round;stroke-miterlimit:10;}
</style>
<g>
	<path class="st0" d="M1183.95,819.58c-55.98,0-55.98,5.94-111.97,5.94c-55.99,0-55.99-1.91-111.97-1.91
		c-55.99,0-55.99-1.44-111.98-1.44c-55.99,0-55.99,4.62-111.98,4.62c-33.72,0-61.19-29.12-61.19-62.83
		c0-55.98-4.29-55.98-4.29-111.97c0-55.99,9.98-55.99,9.98-111.97c0-55.99,0.13-55.99,0.13-111.98s-2.08-55.99-2.08-111.98
		c0-33.72,23.74-56.42,57.46-56.42c55.98,0,55.98-0.27,111.97-0.27c55.99,0,55.99-0.48,111.97-0.48c55.99,0,55.99-6.1,111.98-6.1
		c55.99,0,55.99-0.24,111.98-0.24c33.72,0,64.79,29.8,64.79,63.52c0,55.98-7.81,55.98-7.81,111.97c0,55.99,8.31,55.99,8.31,111.97
		c0,55.99-6.36,55.99-6.36,111.98c0,55.99-1.71,55.99-1.71,111.98C1241.16,797.67,1217.67,819.58,1183.95,819.58z"/>
</g>
<circle class="st1" cx="836.75" cy="480.74" r="57.57"/>
<circle class="st2" cx="851.74" cy="507.77" r="27.93"/>
<circle class="st1" cx="1083.3" cy="480.74" r="57.57"/>
<circle class="st2" cx="1068.31" cy="507.77" r="27.93"/>
<ellipse class="st3" cx="814.79" cy="582.08" rx="58.22" ry="13.09"/>
<ellipse class="st3" cx="1105.26" cy="582.08" rx="58.22" ry="13.09"/>
<path class="st4" d="M1008.36,585.97c0,41.1-21.65,60.42-48.36,60.42s-48.36-19.32-48.36-60.42"/>
</svg>
