<?xml version="1.0" encoding="utf-8"?>
<!-- Generator: Adobe Illustrator 25.2.0, SVG Export Plug-In . SVG Version: 6.00 Build 0)  -->
<svg version="1.1" id="Layer_1" xmlns="http://www.w3.org/2000/svg" xmlns:xlink="http://www.w3.org/1999/xlink" x="0px" y="0px"
	 viewBox="0 0 1920 1080" style="enable-background:new 0 0 1920 1080;" xml:space="preserve">
<style type="text/css">
	.st0{fill:#D9F3E2;}
	.st1{fill:#FFFFFF;}
	.st2{fill:#5E6472;stroke:#5E6472;stroke-width:9.9444;stroke-miterlimit:10;}
	.st3{fill:#BBE9CC;}
	.st4{fill:none;stroke:#5E6472;stroke-width:23.435;stroke-linecap:round;stroke-miterlimit:10;}
</style>
<g>
	<path class="st0" d="M1184.45,829.89c-55.98,0-55.98-8.93-111.97-8.93c-55.99,0-55.99-1.15-111.97-1.15
		c-55.99,0-55.99,6.33-111.98,6.33c-55.99,0-55.99,3.48-111.98,3.48c-33.72,0-63.08-31.45-63.08-65.17
		c0-55.98,5.51-55.98,5.51-111.97c0-55.99-4.39-55.99-4.39-111.97c0-55.99-1.71-55.99-1.71-111.98s-2.06-55.99-2.06-111.98
		c0-33.72,32.02-55.53,65.74-55.53c55.98,0,55.98-2.94,111.97-2.94c55.99,0,55.99-7.33,111.97-7.33c55.99,0,55.99,1.4,111.98,1.4
		c55.99,0,55.99,3.19,111.98,3.19c33.72,0,56.33,27.5,56.33,61.22c0,55.98,4.98,55.98,4.98,111.97c0,55.99-0.31,55.99-0.31,111.97
		c0,55.99-1.32,55.99-1.32,111.98c0,55.99,6.95,55.99,6.95,111.98C1251.08,798.17,1218.17,829.89,1184.45,829.89z"/>
</g>
<circle class="st1" cx="836.75" cy="480.74" r="57.57"/>
<circle class="st2" cx="851.74" cy="507.77" r="27.93"/>
<circle class="st1" cx="1083.3" cy="480.74" r="57.57"/>
<circle class="st2" cx="1068.31" cy="507.77" r="27.93"/>
<ellipse class="st3" cx="814.79" cy="582.08" rx="58.22" ry="13.09"/>
<ellipse class="st3" cx="1105.26" cy="582.08" rx="58.22" ry="13.09"/>
<line class="st4" x1="912.14" y1="586.47" x2="1008.86" y2="586.47"/>
</svg>
