<?xml version="1.0" encoding="utf-8"?>
<!-- Generator: Adobe Illustrator 25.2.0, SVG Export Plug-In . SVG Version: 6.00 Build 0)  -->
<svg version="1.1" id="Layer_1" xmlns="http://www.w3.org/2000/svg" xmlns:xlink="http://www.w3.org/1999/xlink" x="0px" y="0px"
	 viewBox="0 0 1920 1080" style="enable-background:new 0 0 1920 1080;" xml:space="preserve">
<style type="text/css">
	.st0{fill:#B8F2E6;}
	.st1{fill:#FFFFFF;}
	.st2{fill:#5E6472;stroke:#5E6472;stroke-width:9.9444;stroke-miterlimit:10;}
	.st3{fill:#5E6472;}
	.st4{fill:#77E6CF;}
	.st5{fill:none;stroke:#5E6472;stroke-width:23.435;stroke-linecap:round;stroke-miterlimit:10;}
</style>
<g>
	<path class="st0" d="M1183.97,825.01c-55.98,0-55.98-0.3-111.97-0.3c-55.99,0-55.99-2.13-111.97-2.13
		c-55.99,0-55.99,5.64-111.98,5.64c-55.99,0-55.99-4.07-111.98-4.07c-33.72,0-60.26-26.38-60.26-60.1
		c0-55.98-0.64-55.98-0.64-111.97c0-55.99,4.84-55.99,4.84-111.97c0-55.99-9.61-55.99-9.61-111.98s9.57-55.99,9.57-111.98
		c0-33.72,22.38-66.37,56.1-66.37c55.98,0,55.98,10.05,111.97,10.05c55.99,0,55.99-9.43,111.97-9.43c55.99,0,55.99,3.32,111.98,3.32
		s55.99,0.79,111.98,0.79c33.72,0,63.65,27.91,63.65,61.63c0,55.98,2.37,55.98,2.37,111.97c0,55.99-7.48,55.99-7.48,111.97
		c0,55.99,1.19,55.99,1.19,111.98c0,55.99,5.93,55.99,5.93,111.98C1249.64,797.76,1217.69,825.01,1183.97,825.01z"/>
</g>
<circle class="st1" cx="836.75" cy="480.74" r="57.57"/>
<circle class="st2" cx="851.74" cy="507.77" r="27.93"/>
<g>
	<g>
		<path class="st3" d="M753.11,488.81c8.37-1.03,16.48-2.82,24.33-5.97c7.67-3.08,14.98-6.81,21.72-11.6
			c13.56-9.64,25.11-22.15,32.9-36.92c4.3-8.15,7.61-16.92,9.41-25.97c0.53-2.64,0.39-5.28-1-7.66c-1.21-2.06-3.57-4.03-5.94-4.57
			c-2.55-0.58-5.4-0.45-7.66,1c-2.09,1.35-4.07,3.42-4.57,5.94c-1.14,5.72-2.87,11.3-5.13,16.67c0.33-0.79,0.67-1.58,1-2.38
			c-3.12,7.34-7.19,14.23-12.06,20.54c0.52-0.67,1.04-1.34,1.55-2.01c-5.05,6.5-10.89,12.34-17.39,17.39
			c0.67-0.52,1.34-1.04,2.01-1.55c-6.51,5.02-13.62,9.2-21.19,12.4c0.79-0.33,1.58-0.67,2.38-1c-7.03,2.93-14.39,4.99-21.94,6.02
			c0.88-0.12,1.76-0.24,2.64-0.36c-0.35,0.05-0.71,0.09-1.06,0.14c-2.73,0.34-5,0.89-7.03,2.91c-1.72,1.72-3.02,4.55-2.91,7.03
			c0.12,2.57,0.96,5.24,2.91,7.03C747.88,487.55,750.55,489.12,753.11,488.81L753.11,488.81z"/>
	</g>
</g>
<circle class="st1" cx="1083.3" cy="480.74" r="57.57"/>
<circle class="st2" cx="1068.31" cy="507.77" r="27.93"/>
<g>
	<g>
		<path class="st3" d="M1168.01,468.92c-0.36-0.04-0.71-0.09-1.06-0.14c0.88,0.12,1.76,0.24,2.64,0.36
			c-7.55-1.03-14.91-3.08-21.94-6.02c0.79,0.33,1.58,0.67,2.38,1c-7.57-3.2-14.68-7.38-21.19-12.4c0.67,0.52,1.34,1.04,2.01,1.55
			c-6.5-5.05-12.35-10.89-17.39-17.39c0.52,0.67,1.04,1.34,1.56,2.01c-4.87-6.31-8.94-13.2-12.06-20.54c0.33,0.79,0.67,1.58,1,2.38
			c-2.26-5.38-3.99-10.95-5.13-16.67c-0.47-2.34-2.56-4.77-4.57-5.94c-2.13-1.25-5.27-1.78-7.66-1c-2.41,0.78-4.73,2.27-5.94,4.57
			c-1.3,2.46-1.55,4.92-1,7.66c3.26,16.34,11.18,31.35,21.76,44.11c5.36,6.47,11.56,12.02,18.25,17.08
			c6.02,4.56,12.58,8.41,19.52,11.4c4.56,1.97,9.16,3.76,13.95,5.08c4.89,1.35,9.86,2.16,14.89,2.78c2.35,0.29,5.44-1.32,7.03-2.91
			c1.72-1.72,3.02-4.55,2.91-7.03c-0.12-2.57-0.96-5.24-2.91-7.03c-0.67-0.52-1.34-1.04-2.01-1.55
			C1171.47,469.38,1169.8,468.92,1168.01,468.92L1168.01,468.92z"/>
	</g>
</g>
<ellipse class="st4" cx="814.79" cy="582.08" rx="58.22" ry="13.09"/>
<ellipse class="st4" cx="1105.26" cy="582.08" rx="58.22" ry="13.09"/>
<path class="st5" d="M911.67,660.49c0-41.1,21.65-74.42,48.36-74.42c26.71,0,48.36,33.32,48.36,74.42"/>
</svg>
