<?xml version="1.0" encoding="utf-8"?>
<!-- Generator: Adobe Illustrator 25.2.0, SVG Export Plug-In . SVG Version: 6.00 Build 0)  -->
<svg version="1.1" id="Layer_1" xmlns="http://www.w3.org/2000/svg" xmlns:xlink="http://www.w3.org/1999/xlink" x="0px" y="0px"
	 viewBox="0 0 1920 1080" style="enable-background:new 0 0 1920 1080;" xml:space="preserve">
<style type="text/css">
	.st0{fill:#AED9E0;}
	.st1{fill:none;stroke:#5E6472;stroke-width:20.4129;stroke-linejoin:round;stroke-miterlimit:10;}
	.st2{fill:#6EBBC7;}
	.st3{fill:none;stroke:#5E6472;stroke-width:23.435;stroke-linecap:round;stroke-miterlimit:10;}
</style>
<g>
	<path class="st0" d="M1183.97,830.01c-55.98,0-55.98-3.9-111.97-3.9c-55.99,0-55.99,2.94-111.97,2.94
		c-55.99,0-55.99-3.17-111.98-3.17c-55.99,0-55.99-5.95-111.98-5.95c-33.72,0-63.63-22.17-63.63-55.88
		c0-55.98,1.77-55.98,1.77-111.97c0-55.99,3.08-55.99,3.08-111.97c0-55.99-5.61-55.99-5.61-111.98s-1.27-55.99-1.27-111.98
		c0-33.72,31.94-65.9,65.66-65.9c55.98,0,55.98,5.82,111.97,5.82c55.99,0,55.99,1.53,111.97,1.53c55.99,0,55.99-5.86,111.98-5.86
		s55.99,1.57,111.98,1.57c33.72,0,57.89,29.12,57.89,62.84c0,55.98,3.12,55.98,3.12,111.97c0,55.99-2.32,55.99-2.32,111.97
		c0,55.99,5.06,55.99,5.06,111.98c0,55.99-8.23,55.99-8.23,111.98C1239.5,797.76,1217.69,830.01,1183.97,830.01z"/>
</g>
<path class="st1" d="M783.53,471.25c0,0,77.06-21.72,124.37,48.68c-74.23-41.03-132.88,13.47-132.88,13.47"/>
<path class="st1" d="M1136.52,471.25c0,0-77.06-21.72-124.37,48.68c74.23-41.03,132.88,13.47,132.88,13.47"/>
<ellipse class="st2" cx="814.79" cy="582.08" rx="58.22" ry="13.09"/>
<ellipse class="st2" cx="1105.26" cy="582.08" rx="58.22" ry="13.09"/>
<path class="st3" d="M911.67,660.49c0-41.1,21.65-74.42,48.36-74.42c26.71,0,48.36,33.32,48.36,74.42H911.67z"/>
</svg>
