<?xml version="1.0" encoding="utf-8"?>
<!-- Generator: Adobe Illustrator 25.2.0, SVG Export Plug-In . SVG Version: 6.00 Build 0)  -->
<svg version="1.1" id="Layer_1" xmlns="http://www.w3.org/2000/svg" xmlns:xlink="http://www.w3.org/1999/xlink" x="0px" y="0px"
	 viewBox="0 0 1920 1080" style="enable-background:new 0 0 1920 1080;" xml:space="preserve">
<style type="text/css">
	.st0{fill:#FDCDBE;}
	.st1{fill:none;stroke:#5E6472;stroke-width:10.291;stroke-linejoin:round;stroke-miterlimit:10;}
	.st2{fill:#FCA98F;}
	.st3{fill:none;stroke:#5E6472;stroke-width:11.8145;stroke-linecap:round;stroke-miterlimit:10;}
	.st4{fill:#F9EECF;}
	.st5{fill:#FFFFFF;}
	.st6{fill:#5E6472;stroke:#5E6472;stroke-width:5.0134;stroke-miterlimit:10;}
	.st7{fill:#F4DFA3;}
	.st8{fill:#D9F3E2;}
	.st9{fill:#BBE9CC;}
	.st10{fill:#B8F2E6;}
	.st11{fill:#5E6472;}
	.st12{fill:#77E6CF;}
	.st13{fill:#AED9E0;}
	.st14{fill:#6EBBC7;}
</style>
<g>
	<g>
		<path class="st0" d="M375.61,684.35c-28.22,0-28.22,0.3-56.45,0.3c-28.22,0-28.22-1.53-56.45-1.53c-28.23,0-28.23,2.77-56.45,2.77
			s-28.23,0.12-56.45,0.12c-17,0-30.36-15.43-30.36-32.43c0-28.22,1.51-28.22,1.51-56.45c0-28.22-3.59-28.22-3.59-56.45
			c0-28.23-0.75-28.23-0.75-56.45c0-28.23,1.45-28.23,1.45-56.45c0-17,14.75-29.06,31.74-29.06c28.22,0,28.22-0.46,56.45-0.46
			c28.22,0,28.22-2.21,56.45-2.21c28.23,0,28.23-1.35,56.45-1.35s28.23,0.17,56.45,0.17c17,0,29.67,15.91,29.67,32.9
			c0,28.22-1.28,28.22-1.28,56.45c0,28.22,4.63,28.22,4.63,56.45c0,28.23-2.03,28.23-2.03,56.45s0.43,28.23,0.43,56.45
			C407.03,670.59,392.61,684.35,375.61,684.35z"/>
	</g>
	<path class="st1" d="M173.73,505.98c0,0,38.85-10.95,62.7,24.54c-37.42-20.69-66.99,6.79-66.99,6.79"/>
	<path class="st1" d="M351.69,505.98c0,0-38.85-10.95-62.7,24.54c37.42-20.69,66.99,6.79,66.99,6.79"/>
	<ellipse class="st2" cx="189.5" cy="561.9" rx="29.35" ry="6.6"/>
	<ellipse class="st2" cx="335.94" cy="561.9" rx="29.35" ry="6.6"/>
	<path class="st3" d="M287.09,563.86c0,20.72-10.92,37.52-24.38,37.52s-24.38-16.8-24.38-37.52H287.09z"/>
</g>
<g>
	<g>
		<path class="st4" d="M724.25,684.44c-28.22,0-28.22-0.15-56.45-0.15c-28.22,0-28.22-1.07-56.45-1.07
			c-28.23,0-28.23,2.84-56.45,2.84c-28.23,0-28.23-2.05-56.45-2.05c-17,0-30.38-13.3-30.38-30.3c0-28.22-0.32-28.22-0.32-56.45
			c0-28.22,2.44-28.22,2.44-56.45c0-28.23-4.84-28.23-4.84-56.45c0-28.23,4.82-28.23,4.82-56.45c0-17,11.28-33.46,28.28-33.46
			c28.22,0,28.22,5.07,56.45,5.07c28.22,0,28.22-4.75,56.45-4.75c28.23,0,28.23,1.68,56.45,1.68c28.23,0,28.23,0.4,56.45,0.4
			c17,0,32.09,14.07,32.09,31.07c0,28.22,1.19,28.22,1.19,56.45c0,28.22-3.77,28.22-3.77,56.45c0,28.23,0.6,28.23,0.6,56.45
			s2.99,28.23,2.99,56.45C757.36,670.71,741.25,684.44,724.25,684.44z"/>
	</g>
	<circle class="st5" cx="549.22" cy="510.93" r="29.02"/>
	<circle class="st6" cx="556.78" cy="524.56" r="14.08"/>
	<circle class="st5" cx="673.52" cy="510.93" r="29.02"/>
	<circle class="st6" cx="665.96" cy="524.56" r="14.08"/>
	<ellipse class="st7" cx="538.15" cy="562.02" rx="29.35" ry="6.6"/>
	<ellipse class="st7" cx="684.58" cy="562.02" rx="29.35" ry="6.6"/>
	<path class="st3" d="M635.73,563.98c0,20.72-10.92,30.46-24.38,30.46s-24.38-9.74-24.38-30.46"/>
</g>
<g>
	<g>
		<path class="st8" d="M1072.9,686.62c-28.22,0-28.22-4.5-56.45-4.5c-28.22,0-28.22-0.58-56.45-0.58c-28.23,0-28.23,3.19-56.45,3.19
			c-28.23,0-28.23,1.75-56.45,1.75c-17,0-31.8-15.86-31.8-32.85c0-28.22,2.78-28.22,2.78-56.45c0-28.22-2.22-28.22-2.22-56.45
			c0-28.23-0.86-28.23-0.86-56.45s-1.04-28.23-1.04-56.45c0-17,16.14-27.99,33.14-27.99c28.22,0,28.22-1.48,56.45-1.48
			c28.22,0,28.22-3.7,56.45-3.7c28.23,0,28.23,0.7,56.45,0.7c28.23,0,28.23,1.61,56.45,1.61c17,0,28.4,13.86,28.4,30.86
			c0,28.22,2.51,28.22,2.51,56.45c0,28.22-0.15,28.22-0.15,56.45c0,28.23-0.66,28.23-0.66,56.45s3.5,28.23,3.5,56.45
			C1106.5,670.62,1089.9,686.62,1072.9,686.62z"/>
	</g>
	<circle class="st5" cx="897.61" cy="510.59" r="29.02"/>
	<circle class="st6" cx="905.17" cy="524.22" r="14.08"/>
	<circle class="st5" cx="1021.91" cy="510.59" r="29.02"/>
	<circle class="st6" cx="1014.35" cy="524.22" r="14.08"/>
	<ellipse class="st9" cx="886.54" cy="561.69" rx="29.35" ry="6.6"/>
	<ellipse class="st9" cx="1032.98" cy="561.69" rx="29.35" ry="6.6"/>
	<line class="st3" x1="935.62" y1="563.9" x2="984.38" y2="563.9"/>
</g>
<g>
	<g>
		<path class="st10" d="M1421.55,684.82c-28.22,0-28.22-0.15-56.45-0.15c-28.22,0-28.22-1.07-56.45-1.07
			c-28.23,0-28.23,2.84-56.45,2.84s-28.23-2.05-56.45-2.05c-17,0-30.38-13.3-30.38-30.3c0-28.22-0.32-28.22-0.32-56.45
			c0-28.22,2.44-28.22,2.44-56.45c0-28.23-4.84-28.23-4.84-56.45c0-28.23,4.82-28.23,4.82-56.45c0-17,11.28-33.46,28.28-33.46
			c28.22,0,28.22,5.07,56.45,5.07c28.22,0,28.22-4.75,56.45-4.75c28.23,0,28.23,1.68,56.45,1.68s28.23,0.4,56.45,0.4
			c17,0,32.09,14.07,32.09,31.07c0,28.22,1.19,28.22,1.19,56.45c0,28.22-3.77,28.22-3.77,56.45c0,28.23,0.6,28.23,0.6,56.45
			c0,28.23,2.99,28.23,2.99,56.45C1454.65,671.09,1438.55,684.82,1421.55,684.82z"/>
	</g>
	<circle class="st5" cx="1246.5" cy="511.26" r="29.02"/>
	<circle class="st6" cx="1254.06" cy="524.89" r="14.08"/>
	<g>
		<g>
			<path class="st11" d="M1204.33,515.33c8.34-1.05,16.31-3.95,23.19-8.84c6.8-4.83,12.61-11.1,16.54-18.5
				c2.2-4.15,3.89-8.62,4.81-13.22c0.52-2.56-0.74-5.54-3.5-6.17c-2.5-0.57-5.61,0.75-6.17,3.5c-0.36,1.81-0.83,3.59-1.42,5.34
				c-0.28,0.84-0.6,1.67-0.93,2.5c-0.34,0.84,0.4-0.89-0.12,0.27c-0.19,0.43-0.4,0.86-0.6,1.29c-0.81,1.65-1.71,3.26-2.71,4.8
				c-0.45,0.7-0.92,1.39-1.41,2.06c-0.14,0.19-0.28,0.38-0.42,0.58c-0.52,0.72,0.06-0.05,0.14-0.16c-0.27,0.39-0.59,0.75-0.89,1.11
				c-1.18,1.42-2.43,2.78-3.76,4.05c-0.64,0.62-1.3,1.22-1.98,1.8c-0.32,0.27-0.63,0.54-0.96,0.8c-0.14,0.11-0.28,0.22-0.42,0.34
				c-0.95,0.78,0.87-0.64-0.11,0.09c-2.86,2.13-5.92,3.98-9.18,5.44c-0.2,0.09-0.44,0.22-0.65,0.29c1.15-0.34,0.33-0.14,0.05-0.03
				c-0.5,0.2-0.99,0.39-1.5,0.57c-0.95,0.34-1.91,0.65-2.88,0.92c-0.97,0.27-1.95,0.52-2.94,0.72c-0.47,0.1-0.93,0.19-1.4,0.27
				c-0.34,0.06-2.27,0.32-0.79,0.13c-2.59,0.33-5.15,2.07-5.01,5.01C1199.43,512.75,1201.54,515.68,1204.33,515.33L1204.33,515.33z"
				/>
		</g>
	</g>
	<circle class="st5" cx="1370.8" cy="511.26" r="29.02"/>
	<circle class="st6" cx="1363.24" cy="524.89" r="14.08"/>
	<g>
		<g>
			<path class="st11" d="M1413.5,505.3c1.46,0.18-0.14-0.02-0.43-0.07c-0.41-0.07-0.82-0.14-1.23-0.22
				c-0.93-0.18-1.86-0.4-2.78-0.64c-1.72-0.46-3.41-1.02-5.06-1.68c-1.18-0.47,0.72,0.33-0.44-0.19c-0.38-0.17-0.76-0.34-1.13-0.52
				c-0.86-0.41-1.7-0.84-2.53-1.3c-1.56-0.86-3.07-1.82-4.52-2.85c-0.39-0.28-0.77-0.56-1.15-0.84c-0.47-0.35-0.04-0.3,0.17,0.13
				c-0.05-0.11-0.32-0.26-0.42-0.33c-0.74-0.6-1.46-1.22-2.17-1.86c-1.37-1.24-2.66-2.56-3.88-3.94c-0.55-0.63-1.08-1.27-1.6-1.92
				c-0.2-0.24-0.62-0.55,0.13,0.17c-0.15-0.15-0.31-0.41-0.43-0.57c-0.28-0.38-0.56-0.77-0.83-1.16c-1.01-1.47-1.94-2.99-2.77-4.56
				c-0.5-0.94-0.96-1.91-1.4-2.88c-0.05-0.12-0.31-0.67-0.03-0.05c0.32,0.71-0.09-0.24-0.15-0.39c-0.2-0.5-0.38-1-0.56-1.5
				c-0.7-1.96-1.24-3.97-1.66-6.01c-0.52-2.58-3.72-4.29-6.17-3.5c-2.73,0.88-4.06,3.41-3.5,6.17c3.23,16.01,15.1,30.14,30.03,36.61
				c4.7,2.04,9.43,3.31,14.52,3.95c2.61,0.33,5.12-2.54,5.01-5.01C1418.38,507.32,1416.3,505.66,1413.5,505.3L1413.5,505.3z"/>
		</g>
	</g>
	<ellipse class="st12" cx="1235.43" cy="562.36" rx="29.35" ry="6.6"/>
	<ellipse class="st12" cx="1381.86" cy="562.36" rx="29.35" ry="6.6"/>
	<path class="st3" d="M1284.27,601.88c0-20.72,10.92-37.52,24.38-37.52s24.38,16.8,24.38,37.52"/>
</g>
<g>
	<g>
		<path class="st13" d="M1770.2,686.78c-28.22,0-28.22-1.97-56.45-1.97c-28.22,0-28.22,1.48-56.45,1.48
			c-28.23,0-28.23-1.6-56.45-1.6c-28.23,0-28.23-3-56.45-3c-17,0-32.08-11.17-32.08-28.17c0-28.22,0.89-28.22,0.89-56.45
			c0-28.22,1.55-28.22,1.55-56.45c0-28.23-2.83-28.23-2.83-56.45c0-28.23-0.64-28.23-0.64-56.45c0-17,16.1-33.22,33.1-33.22
			c28.22,0,28.22,2.93,56.45,2.93c28.22,0,28.22,0.77,56.45,0.77c28.23,0,28.23-2.95,56.45-2.95s28.23,0.79,56.45,0.79
			c17,0,29.18,14.68,29.18,31.68c0,28.22,1.57,28.22,1.57,56.45c0,28.22-1.17,28.22-1.17,56.45c0,28.23,2.55,28.23,2.55,56.45
			s-4.15,28.23-4.15,56.45C1798.19,670.52,1787.19,686.78,1770.2,686.78z"/>
	</g>
	<path class="st1" d="M1568.31,505.91c0,0,38.85-10.95,62.7,24.54c-37.42-20.69-66.99,6.79-66.99,6.79"/>
	<path class="st1" d="M1746.27,505.91c0,0-38.85-10.95-62.7,24.54c37.42-20.69,66.99,6.79,66.99,6.79"/>
	<ellipse class="st14" cx="1584.08" cy="561.79" rx="29.35" ry="6.6"/>
	<ellipse class="st14" cx="1730.51" cy="561.79" rx="29.35" ry="6.6"/>
	<path class="st3" d="M1632.91,601.31c0-20.72,10.92-37.52,24.38-37.52s24.38,16.8,24.38,37.52H1632.91z"/>
</g>
</svg>
